<svg width="188" height="178" viewBox="0 0 188 178" fill="none" xmlns="http://www.w3.org/2000/svg">
<g clip-path="url(#clip0_1051_1530)">
<path d="M42.7826 91.2707C48.9866 91.2707 54.0159 85.2446 54.0159 77.811C54.0159 70.3773 48.9866 64.3512 42.7826 64.3512C36.5787 64.3512 31.5494 70.3773 31.5494 77.811C31.5494 85.2446 36.5787 91.2707 42.7826 91.2707Z" fill="#FF6584"/>
<path d="M112.374 93.0512C112.374 119.55 99.2268 128.803 83.0086 128.803C66.7904 128.803 53.6429 119.55 53.6429 93.0512C53.6429 66.552 83.0086 32.8407 83.0086 32.8407C83.0086 32.8407 112.374 66.552 112.374 93.0512Z" fill="#BFA179"/>
<path d="M81.9389 124.75L82.2395 102.572L94.756 75.1352L82.2867 99.0931L82.422 89.1211L91.0481 69.2709L82.4577 86.4823L82.701 68.5473L91.9381 52.744L82.7391 65.7271L82.891 32.8408L81.9363 76.3762L82.0148 74.5803L72.6232 57.3558L81.8642 78.0278L80.9891 98.0582L80.963 97.5266L70.1364 79.4002L80.9303 99.4046L80.8207 101.91L80.8011 101.947L80.8101 102.153L78.59 152.971H81.5562L81.9122 126.723L92.6796 106.767L81.9389 124.75Z" fill="#3F3D56"/>
<path d="M140.708 118.08C140.708 144.579 127.561 153.832 111.342 153.832C95.1242 153.832 81.9767 144.579 81.9767 118.08C81.9767 91.5806 111.342 57.8694 111.342 57.8694C111.342 57.8694 140.708 91.5806 140.708 118.08Z" fill="#68E8A3"/>
<path d="M110.273 149.778L110.574 127.601L123.09 100.164L110.621 124.122L110.756 114.15L119.382 94.2996L110.792 111.511V111.511L111.035 93.5758L120.272 77.7727L111.073 90.7558L111.225 57.8693L110.27 101.405L110.349 99.609L100.957 82.3845L110.198 103.057L109.323 123.087L109.297 122.555L98.4702 104.429L109.264 124.433L109.155 126.938L109.135 126.976L109.144 127.182L106.924 178H109.89L110.246 151.751L121.013 131.796L110.273 149.778Z" fill="#F2F2F2"/>
<path d="M85.4882 118.08C85.4882 144.579 72.3407 153.832 56.1225 153.832C39.9043 153.832 26.7568 144.579 26.7568 118.08C26.7568 91.5806 56.1225 57.8694 56.1225 57.8694C56.1225 57.8694 85.4882 91.5806 85.4882 118.08Z" fill="#3F3D56"/>
<path d="M55.0527 149.778L55.3535 127.601L67.8699 100.164L55.4006 124.122L55.5358 114.15L64.1621 94.2996L55.5717 111.511V111.511L55.8147 93.5758L65.0519 77.7727L55.8529 90.7558L56.0049 57.8693L55.0502 101.405L55.1286 99.609L45.7371 82.3845L54.978 103.057L54.1029 123.087L54.0769 122.555L43.2501 104.429L54.0441 124.433L53.9347 126.938L53.9151 126.976L53.9241 127.182L51.7038 178H54.67L55.0259 151.751L65.7936 131.796L55.0527 149.778Z" fill="#F2F2F2"/>
<path d="M83.7563 177.776C69.7111 177.776 56.1005 171.941 45.2435 161.265C34.3864 150.589 26.9547 135.732 24.2146 119.227C21.4745 102.721 23.5956 85.5877 30.2164 70.7459C36.8372 55.9041 47.5481 44.2721 60.524 37.8319C73.5 31.3917 87.9382 30.5418 101.379 35.427C114.819 40.3121 126.43 50.6301 134.233 64.6229C142.036 78.6156 145.548 95.4173 144.172 112.165C142.795 128.913 136.614 144.571 126.683 156.471C121.059 163.247 114.369 168.618 107.001 172.275C99.6323 175.933 91.7317 177.802 83.7563 177.776ZM83.7563 32.8504C50.5375 32.8504 23.512 65.2325 23.512 105.036C23.512 144.839 50.5375 177.221 83.7563 177.221C116.975 177.221 144.001 144.839 144.001 105.036C144.001 65.2325 116.975 32.8504 83.7563 32.8504Z" fill="#2F2E41"/>
<path d="M133.397 146.536V177.512H34.1248V146.536L83.7605 115.56L83.864 115.624L133.397 146.536Z" fill="#F2F2F2"/>
<path opacity="0.1" d="M133.397 146.536V177.512H83.864V115.624L133.397 146.536Z" fill="black"/>
<path d="M79.5209 134.517L75.7983 136.201V129.561L79.5209 127.606V134.517Z" fill="#3F3D56"/>
<path d="M38.3645 153.103L37.1237 153.665V149.633L38.3645 148.976V153.103Z" fill="#3F3D56"/>
<path d="M42.7077 151.368L41.2599 152.018V147.651L42.7077 146.889V151.368Z" fill="#3F3D56"/>
<path d="M47.4643 149.138L45.8098 149.883V145.173L47.4643 144.3V149.138Z" fill="#3F3D56"/>
<path d="M53.2553 146.412L51.1871 147.347V142.447L53.2553 141.359V146.412Z" fill="#3F3D56"/>
<path d="M60.2869 143.19L57.8052 144.314V138.977L60.2869 137.673V143.19Z" fill="#3F3D56"/>
<path d="M68.7665 139.473L65.8711 140.78V134.765L68.7665 133.244V139.473Z" fill="#3F3D56"/>
<path d="M38.3645 161.28L37.1237 161.654V157.563L38.3645 157.093V161.28Z" fill="#3F3D56"/>
<path d="M42.7077 160.041L41.2599 160.476V156.076L42.7077 155.53V160.041Z" fill="#3F3D56"/>
<path d="M47.4643 158.554L45.8098 159.052V154.342L47.4643 153.716V158.554Z" fill="#3F3D56"/>
<path d="M53.2553 156.82L51.1871 157.442V152.359L53.2553 151.579V156.82Z" fill="#3F3D56"/>
<path d="M60.2869 154.589L57.8052 155.34V149.881L60.2869 148.946V154.589Z" fill="#3F3D56"/>
<path d="M68.7665 152.111L65.6642 153.046V146.907L68.7665 145.738V152.111Z" fill="#3F3D56"/>
<path d="M79.5209 148.89L75.7983 150.011V143.19L79.5209 141.791V148.89Z" fill="#3F3D56"/>
<path d="M79.5209 163.015L75.7983 163.583V156.82L79.5209 155.976V163.015Z" fill="#3F3D56"/>
<path d="M38.3645 169.21L37.1237 169.401V165.493L38.3645 165.21V169.21Z" fill="#3F3D56"/>
<path d="M42.7077 168.715L41.2599 168.933V164.75L42.7077 164.424V168.715Z" fill="#3F3D56"/>
<path d="M47.4643 167.971L45.8098 168.222V163.511L47.4643 163.133V167.971Z" fill="#3F3D56"/>
<path d="M53.2553 166.98L51.1871 167.297V162.272L53.2553 161.799V166.98Z" fill="#3F3D56"/>
<path d="M60.2869 165.988L57.8052 166.366V160.785L60.2869 160.218V165.988Z" fill="#3F3D56"/>
<path d="M68.7665 164.75L65.6642 165.219V159.05L68.7665 158.344V164.75Z" fill="#3F3D56"/>
<path d="M129.364 153.103L130.605 153.665V149.633L129.364 148.976V153.103Z" fill="#3F3D56"/>
<path d="M125.02 151.368L126.468 152.018V147.651L125.02 146.889V151.368Z" fill="#3F3D56"/>
<path d="M120.264 149.138L121.918 149.883V145.173L120.264 144.3V149.138Z" fill="#3F3D56"/>
<path d="M114.473 146.412L116.541 147.347V142.447L114.473 141.359V146.412Z" fill="#3F3D56"/>
<path d="M107.441 143.19L109.923 144.314V138.977L107.441 137.673V143.19Z" fill="#3F3D56"/>
<path d="M98.9615 139.473L101.857 140.78V134.765L98.9615 133.244V139.473Z" fill="#3F3D56"/>
<path d="M129.364 161.28L130.605 161.654V157.563L129.364 157.093V161.28Z" fill="#3F3D56"/>
<path d="M125.02 160.041L126.468 160.476V156.076L125.02 155.53V160.041Z" fill="#3F3D56"/>
<path d="M120.264 158.554L121.918 159.052V154.342L120.264 153.716V158.554Z" fill="#3F3D56"/>
<path d="M114.473 156.82L116.541 157.442V152.359L114.473 151.579V156.82Z" fill="#3F3D56"/>
<path d="M107.441 154.589L109.923 155.34V149.881L107.441 148.946V154.589Z" fill="#3F3D56"/>
<path d="M98.9615 152.111L102.064 153.046V146.907L98.9615 145.738V152.111Z" fill="#3F3D56"/>
<path d="M88.2072 148.89L91.93 150.011V143.19L88.2072 141.791V148.89Z" fill="#3F3D56"/>
<path d="M88.2072 163.015L91.93 163.583V156.82L88.2072 155.976V163.015Z" fill="#3F3D56"/>
<path d="M129.364 169.21L130.605 169.401V165.493L129.364 165.21V169.21Z" fill="#3F3D56"/>
<path d="M125.02 168.715L126.468 168.933V164.75L125.02 164.424V168.715Z" fill="#3F3D56"/>
<path d="M120.264 167.971L121.918 168.222V163.511L120.264 163.133V167.971Z" fill="#3F3D56"/>
<path d="M114.473 166.98L116.541 167.297V162.272L114.473 161.799V166.98Z" fill="#3F3D56"/>
<path d="M107.441 165.988L109.923 166.366V160.785L107.441 160.218V165.988Z" fill="#3F3D56"/>
<path d="M98.9615 164.75L102.064 165.219V159.05L98.9615 158.344V164.75Z" fill="#3F3D56"/>
<path d="M91.723 136.252L88.0005 134.569V127.578L91.723 129.534V136.252Z" fill="#3F3D56"/>
<path d="M126.678 171.996H126.375V177.813H126.678V171.996Z" fill="#2F2E41"/>
<path d="M130.253 173.579H130.038V177.701H130.253V173.579Z" fill="#2F2E41"/>
<path d="M133.43 174.083H133.241V177.706H133.43V174.083Z" fill="#2F2E41"/>
<path d="M117.782 170.152V177.636L113.749 177.628L109.716 177.621V169.21L113.749 169.681L117.782 170.152Z" fill="#3F3D56"/>
<path d="M49.9462 177.636L58.012 177.62V169.21L49.9462 170.151V177.636Z" fill="#3F3D56"/>
<path d="M180.719 177.388H0V177.883H180.719V177.388Z" fill="#2F2E41"/>
<path opacity="0.1" d="M117.782 170.152V177.635L113.749 177.628V169.681L117.782 170.152Z" fill="black"/>
<path d="M83.347 170.821H82.9334V177.759H83.347V170.821Z" fill="#2F2E41"/>
<path d="M85.5272 168.351C85.5272 170.782 84.4432 172.811 83.1402 172.881C81.8734 172.948 80.8719 171.129 80.8719 168.819C80.8719 166.508 83.347 160.165 83.347 160.165C83.347 160.165 85.5272 165.919 85.5272 168.351Z" fill="#BFA179"/>
<path d="M34.6857 173.045H34.439V177.183H34.6857V173.045Z" fill="#2F2E41"/>
<path d="M35.9861 171.571C35.9861 173.021 35.3395 174.232 34.5623 174.273C33.8067 174.314 33.2094 173.228 33.2094 171.85C33.2094 170.472 34.6857 166.689 34.6857 166.689C34.6857 166.689 35.9861 170.121 35.9861 171.571Z" fill="#BFA179"/>
<path d="M128.195 172.225C128.195 173.605 127.47 174.682 126.527 174.629C125.525 174.573 124.666 173.278 124.666 171.74C124.666 170.202 126.527 166.36 126.527 166.36C126.527 166.36 128.195 170.846 128.195 172.225Z" fill="#BFA179"/>
<path d="M131.328 173.742C131.328 174.719 130.814 175.483 130.146 175.445C129.436 175.405 128.827 174.488 128.827 173.398C128.827 172.308 130.146 169.586 130.146 169.586C130.146 169.586 131.328 172.765 131.328 173.742Z" fill="#BFA179"/>
<path d="M134.375 174.226C134.375 175.085 133.923 175.756 133.336 175.723C132.712 175.687 132.177 174.881 132.177 173.923C132.177 172.966 133.336 170.573 133.336 170.573C133.336 170.573 134.375 173.367 134.375 174.226Z" fill="#BFA179"/>
<path d="M135.844 39.9211C135.844 39.9211 133.831 47.1572 134.949 48.7653C136.068 50.3733 128.239 43.9412 128.239 43.9412L132.489 38.045L135.844 39.9211Z" fill="#A0616A"/>
<path d="M131.253 39.9093C136.8 39.9093 141.296 34.522 141.296 27.8763C141.296 21.2307 136.8 15.8434 131.253 15.8434C125.707 15.8434 121.211 21.2307 121.211 27.8763C121.211 34.522 125.707 39.9093 131.253 39.9093Z" fill="#2F2E41"/>
<path d="M170.29 121.395L165.145 126.219L162.237 120.591L167.382 116.303L170.29 121.395Z" fill="#A0616A"/>
<path d="M163.02 157.71L164.362 165.482L168.165 171.646C168.165 171.646 178.454 175.398 171.52 177.274C164.586 179.15 163.02 175.934 163.02 175.934L158.099 170.842V177.81H154.968L154.297 167.894C154.297 167.894 153.85 164.946 155.863 161.73L156.31 156.906L163.02 157.71Z" fill="#2F2E41"/>
<path d="M137.074 61.4955L138.864 73.8238C138.864 73.8238 157.876 71.4117 159.218 75.9678C160.56 80.5239 161.007 81.864 161.007 81.864L157.205 83.472L155.415 79.4519C154.87 79.2207 154.292 79.1252 153.715 79.1712C153.138 79.2173 152.575 79.404 152.06 79.7199C150.271 80.7919 134.614 83.472 133.495 79.9879C132.377 76.5039 129.246 63.6396 129.246 63.6396L133.943 59.0835L137.074 61.4955Z" fill="#A0616A"/>
<path opacity="0.1" d="M137.074 61.4955L138.864 73.8238C138.864 73.8238 157.876 71.4117 159.218 75.9678C160.56 80.5239 161.007 81.864 161.007 81.864L157.205 83.472L155.415 79.4519C154.87 79.2207 154.292 79.1252 153.715 79.1712C153.138 79.2173 152.575 79.404 152.06 79.7199C150.271 80.7919 134.614 83.472 133.495 79.9879C132.377 76.5039 129.246 63.6396 129.246 63.6396L133.943 59.0835L137.074 61.4955Z" fill="black"/>
<path d="M147.587 97.1403L149.152 103.572L153.179 128.229C153.179 128.229 153.626 146.453 154.297 148.597C154.968 150.741 154.968 151.009 154.297 151.813C153.626 152.617 152.284 155.298 154.297 156.906C156.31 158.514 163.468 160.39 163.691 158.514C163.915 156.638 163.915 153.69 163.691 152.349C163.468 151.009 164.362 130.105 164.362 130.105L161.678 98.2123L152.508 93.1202L147.587 97.1403Z" fill="#2F2E41"/>
<path opacity="0.1" d="M147.587 97.1403L149.152 103.572L153.179 128.229C153.179 128.229 153.626 146.453 154.297 148.597C154.968 150.741 154.968 151.009 154.297 151.813C153.626 152.617 152.284 155.298 154.297 156.906C156.31 158.514 163.468 160.39 163.691 158.514C163.915 156.638 163.915 153.69 163.691 152.349C163.468 151.009 164.362 130.105 164.362 130.105L161.678 98.2123L152.508 93.1202L147.587 97.1403Z" fill="black"/>
<path d="M157.205 71.9478L162.125 83.204C162.125 83.204 190.308 98.2123 187.848 104.376C185.387 110.541 171.743 122.065 171.743 122.065C171.743 122.065 171.072 126.621 169.059 125.281C167.046 123.941 162.125 116.973 162.573 116.169C163.02 115.365 164.586 113.489 165.257 113.757C165.928 114.025 173.756 106.788 173.756 106.788L160.336 102.768C160.336 102.768 144.232 102.232 143.337 93.1202C142.442 84.008 143.337 82.4 143.337 82.4L142.219 79.4519L151.389 72.7518L157.205 71.9478Z" fill="#2F2E41"/>
<path d="M164.139 116.437L159.441 121.529C159.441 121.529 155.415 119.385 152.955 120.189C150.495 120.993 146.245 121.529 146.245 121.529L146.916 126.085L152.623 124.823L148.034 132.517C148.034 132.517 148.034 144.577 150.942 144.577C153.85 144.577 152.955 137.341 152.955 137.341L161.902 129.033C161.902 129.033 166.375 126.889 166.823 126.889C167.27 126.889 164.139 116.437 164.139 116.437Z" fill="#2F2E41"/>
<path d="M134.949 42.0651C139.149 42.0651 142.554 37.9854 142.554 32.9529C142.554 27.9204 139.149 23.8407 134.949 23.8407C130.749 23.8407 127.344 27.9204 127.344 32.9529C127.344 37.9854 130.749 42.0651 134.949 42.0651Z" fill="#A0616A"/>
<path d="M127.456 40.0551C127.456 40.0551 131.035 38.983 132.153 40.0551C133.272 41.1271 133.495 43.5391 135.061 43.8071C136.627 44.0752 137.969 44.0752 138.193 44.3432C138.416 44.6112 143.561 52.1153 143.561 52.1153C143.561 52.1153 146.692 54.2594 147.363 57.2074C148.034 60.1555 154.744 70.0717 155.639 71.1437C156.534 72.2157 149.823 77.5759 147.587 79.4519C145.35 81.3279 138.864 82.132 136.85 77.8439C134.837 73.5558 123.877 45.6832 127.456 40.0551Z" fill="#575A89"/>
<path d="M135.956 57.4754L137.745 69.8036C137.745 69.8036 156.757 67.3916 158.099 71.9477C159.441 76.5038 159.889 77.8438 159.889 77.8438L156.086 79.4519L154.297 75.4318C153.752 75.2005 153.173 75.105 152.596 75.1511C152.019 75.1972 151.456 75.3839 150.942 75.6998C149.153 76.7718 133.495 79.4519 132.377 75.9678C131.259 72.4837 128.127 59.6194 128.127 59.6194L132.824 55.0634L135.956 57.4754Z" fill="#A0616A"/>
<path d="M131.681 41.1827C131.681 41.1827 137.074 54.7954 136.627 58.5475C136.179 62.2996 134.614 59.6195 134.614 59.6195C134.614 59.6195 132.601 55.8675 131.706 58.0115C130.811 60.1555 129.693 63.1036 128.798 62.8356C127.904 62.5676 122.983 42.7352 125.667 40.8591C128.351 38.9831 131.681 41.1827 131.681 41.1827Z" fill="#575A89"/>
<path d="M120.374 24.0659C125.92 24.0659 130.416 18.6786 130.416 12.033C130.416 5.38734 125.92 0 120.374 0C114.828 0 110.331 5.38734 110.331 12.033C110.331 18.6786 114.828 24.0659 120.374 24.0659Z" fill="#2F2E41"/>
<path d="M111.712 21.9971C113.012 23.1227 114.517 23.859 116.103 24.1444C117.689 24.4297 119.309 24.2558 120.828 23.6372C122.346 23.0186 123.719 21.9732 124.831 20.5886C125.943 19.2041 126.762 17.5205 127.22 15.6788C127.047 17.3292 126.59 18.9188 125.878 20.347C125.166 21.7752 124.215 23.011 123.085 23.9766C121.954 24.9421 120.669 25.6163 119.31 25.9565C117.951 26.2968 116.548 26.2958 115.189 25.9536C113.831 25.6114 112.546 24.9354 111.417 23.9683C110.287 23.0011 109.337 21.7639 108.627 20.3347C107.916 18.9055 107.461 17.3153 107.289 15.6646C107.118 14.0139 107.234 12.3385 107.63 10.7441C107.405 12.8861 107.665 15.0612 108.383 17.0411C109.102 19.021 110.251 20.7329 111.712 21.9971Z" fill="#2F2E41"/>
<path d="M129.188 38.706C133.255 38.706 136.552 34.7552 136.552 29.8818C136.552 25.0083 133.255 21.0576 129.188 21.0576C125.12 21.0576 121.823 25.0083 121.823 29.8818C121.823 34.7552 125.12 38.706 129.188 38.706Z" fill="#2F2E41"/>
<path d="M134.768 32.6896C138.373 32.6896 141.296 29.951 141.296 26.5728C141.296 23.1946 138.373 20.4561 134.768 20.4561C131.163 20.4561 128.241 23.1946 128.241 26.5728C128.241 29.951 131.163 32.6896 134.768 32.6896Z" fill="#2F2E41"/>
<path d="M135.061 36.973C135.864 36.973 136.515 35.5931 136.515 33.8909C136.515 32.1887 135.864 30.8088 135.061 30.8088C134.258 30.8088 133.607 32.1887 133.607 33.8909C133.607 35.5931 134.258 36.973 135.061 36.973Z" fill="#A0616A"/>
<path d="M155.018 79.3347C155.018 79.3347 158.978 76.6127 159.713 77.2953C160.448 77.9778 160.775 80.1136 160.775 80.1136L156.198 82.2659L154.856 79.3178L155.018 79.3347Z" fill="#2F2E41"/>
</g>
<defs>
<clipPath id="clip0_1051_1530">
<rect width="188" height="178" fill="white"/>
</clipPath>
</defs>
</svg>
