<svg width="277" height="184" viewBox="0 0 277 184" fill="none" xmlns="http://www.w3.org/2000/svg">
<g clip-path="url(#clip0_74_8)">
<path d="M99.36 105.894C108.853 89.2025 126.961 76.3864 146.129 77.6211C131.99 92.9898 123.745 112.862 122.853 133.722C122.538 141.768 123.027 150.75 117.682 156.775C114.356 160.524 109.273 162.339 104.275 162.72C99.2767 163.101 94.2796 162.198 89.3482 161.299L88.1519 161.667C87.6965 142.472 89.8672 122.585 99.36 105.894Z" fill="#F0F0F0"/>
<path d="M146.158 78.023C131.983 84.8437 119.896 96.2349 112.476 110.127C110.872 113.131 109.507 116.317 108.911 119.686C108.315 123.057 108.731 126.265 109.883 129.466C110.936 132.393 112.352 135.265 112.675 138.396C113.015 141.697 111.8 144.783 109.613 147.233C106.937 150.23 103.343 152.087 99.7654 153.781C95.7932 155.662 91.6375 157.552 88.8241 161.063C88.4832 161.488 87.8428 160.935 88.1832 160.51C93.0781 154.402 101.457 153.254 107.267 148.334C109.979 146.039 112.014 142.912 111.886 139.249C111.773 136.046 110.315 133.083 109.224 130.129C108.077 127.028 107.506 123.909 107.917 120.602C108.337 117.219 109.581 113.972 111.102 110.941C114.53 104.105 119.222 97.8284 124.597 92.4029C130.775 86.1664 137.974 81.0322 145.884 77.2223C146.373 76.9867 146.644 77.789 146.158 78.023Z" fill="white"/>
<path d="M114.65 105.484C112.477 103.896 110.939 101.588 110.312 98.9709C109.685 96.3543 110.008 93.5999 111.225 91.1997C111.473 90.7149 112.238 91.0772 111.99 91.5626C110.853 93.7956 110.552 96.3613 111.141 98.7967C111.73 101.232 113.171 103.377 115.203 104.844C115.644 105.163 115.089 105.802 114.65 105.484Z" fill="white"/>
<path d="M109.153 128.053C114.599 127.257 119.544 124.44 123.003 120.162C123.346 119.738 123.986 120.291 123.644 120.715C120.036 125.16 114.884 128.081 109.215 128.897C108.675 128.974 108.616 128.13 109.153 128.053V128.053Z" fill="white"/>
<path d="M131.193 87.2077C131.906 87.9973 132.803 88.5976 133.806 88.9548C134.808 89.3119 135.883 89.4146 136.935 89.2537C137.474 89.1696 137.532 90.0141 136.997 90.0977C135.834 90.27 134.647 90.1551 133.538 89.763C132.43 89.3709 131.435 88.7135 130.64 87.8482C130.558 87.7729 130.508 87.6694 130.5 87.5585C130.492 87.4477 130.526 87.3379 130.596 87.2515C130.67 87.167 130.774 87.1151 130.885 87.1069C130.997 87.0987 131.108 87.1349 131.193 87.2077Z" fill="white"/>
<path d="M184.269 130.275C183.934 130.338 183.599 130.4 183.261 130.468C178.76 131.326 174.336 132.549 170.033 134.123C169.698 134.239 169.361 134.362 169.03 134.488C158.704 138.392 149.193 144.177 140.979 151.551C137.714 154.488 134.676 157.67 131.894 161.067C128.051 165.76 124.258 171.154 119.237 174.214C118.716 174.539 118.176 174.831 117.62 175.09L88.6927 163.097C88.6407 163.036 88.5856 162.983 88.5332 162.922L87.3563 162.496C87.4876 162.311 87.6277 162.122 87.759 161.936C87.8347 161.829 87.9168 161.723 87.9925 161.616C88.045 161.545 88.0979 161.474 88.1412 161.407C88.1586 161.383 88.1763 161.359 88.191 161.342C88.2343 161.275 88.2817 161.217 88.3222 161.157C89.1026 160.097 89.8918 159.04 90.6898 157.987C90.6925 157.98 90.6925 157.98 90.7017 157.976C96.8026 149.967 103.626 142.397 111.382 136.102C111.615 135.913 111.851 135.717 112.098 135.533C115.61 132.715 119.346 130.189 123.269 127.98C125.422 126.777 127.634 125.684 129.897 124.704C135.748 122.185 141.96 120.601 148.304 120.012C160.952 118.838 173.834 121.72 183.534 129.661C183.782 129.865 184.024 130.066 184.269 130.275Z" fill="#F0F0F0"/>
<path d="M184.052 130.616C168.625 127.531 152.113 129.353 137.821 135.98C134.731 137.413 131.721 139.135 129.216 141.466C126.71 143.799 125.11 146.611 124.101 149.86C123.179 152.831 122.58 155.976 120.952 158.671C119.235 161.511 116.406 163.244 113.184 163.883C109.242 164.666 105.254 163.986 101.377 163.186C97.0728 162.297 92.6158 161.306 88.2549 162.415C87.7265 162.55 87.5487 161.723 88.0763 161.588C95.6635 159.657 103.045 163.783 110.648 163.351C114.195 163.15 117.704 161.879 119.808 158.877C121.647 156.251 122.268 153.009 123.176 149.993C124.129 146.827 125.551 143.992 127.871 141.599C130.245 139.151 133.193 137.308 136.233 135.802C143.088 132.407 150.615 130.22 158.175 129.122C166.864 127.86 175.705 128.093 184.315 129.811C184.848 129.918 184.581 130.721 184.052 130.616V130.616Z" fill="white"/>
<path d="M142.353 133.581C141.574 131.005 141.737 128.237 142.813 125.77C143.888 123.303 145.805 121.299 148.223 120.114C148.713 119.876 149.106 120.626 148.615 120.865C146.362 121.963 144.576 123.83 143.579 126.129C142.583 128.429 142.441 131.008 143.18 133.402C143.34 133.923 142.512 134.098 142.353 133.581Z" fill="white"/>
<path d="M124.37 148.293C129.197 150.935 134.843 151.661 140.181 150.327C140.71 150.195 140.888 151.022 140.36 151.154C134.802 152.532 128.928 151.764 123.911 149.004C123.433 148.741 123.895 148.031 124.37 148.293Z" fill="white"/>
<path d="M166.571 128.943C166.664 130.003 167.019 131.022 167.604 131.91C168.189 132.799 168.986 133.528 169.923 134.032C170.404 134.29 169.942 134.999 169.464 134.743C168.432 134.181 167.553 133.375 166.904 132.395C166.256 131.415 165.857 130.291 165.743 129.122C165.723 129.013 165.746 128.9 165.806 128.806C165.866 128.713 165.96 128.646 166.068 128.619C166.177 128.596 166.292 128.617 166.386 128.678C166.48 128.738 166.546 128.834 166.571 128.943Z" fill="white"/>
<path d="M129.165 150.062C125.113 130.483 120.049 123.955 120.049 123.955L118.115 122.455L115.788 120.649L115.8 120.417L115.248 120.229L115.118 120.129L114.906 119.966L114.872 120.003L114.799 120.077L104.272 116.5L90.9159 111.966L84.7312 103.931C83.7239 102.622 82.4271 101.564 80.9425 100.841C79.4578 100.117 77.8256 99.7464 76.1738 99.7586L56.4219 99.9047C53.7512 99.9244 51.1845 100.942 49.2264 102.757L36.2438 114.794L16.0144 124.451L15.9803 124.417L15.7679 124.569L12.6422 126.062L12.7712 126.734L10.8367 128.129C10.8367 128.129 5.77268 134.203 1.72148 152.421C0.690907 157.056 0.183618 167 0.00051456 179.254C-0.00868273 179.873 0.105497 180.489 0.336413 181.064C0.567328 181.64 0.910374 182.163 1.3456 182.605C1.78083 183.047 2.29956 183.397 2.87163 183.637C3.44369 183.876 4.05769 184 4.6779 184H112.727V184H126.213C126.833 184 127.446 183.876 128.018 183.637C128.59 183.398 129.108 183.048 129.543 182.606C129.978 182.165 130.322 181.642 130.553 181.067C130.784 180.493 130.899 179.878 130.89 179.258C130.712 165.925 130.204 155.089 129.165 150.062Z" fill="#BFA179"/>
<path d="M143.028 17.0745C138.824 17.0745 134.792 18.7436 131.82 21.7147C128.847 24.6858 127.177 28.7155 127.177 32.9173C127.177 37.1191 128.847 41.1488 131.82 44.1199C134.792 47.091 138.824 48.7602 143.028 48.7602H261.15C265.354 48.7602 269.385 47.091 272.358 44.1199C275.33 41.1488 277 37.1191 277 32.9173C277 28.7155 275.33 24.6858 272.358 21.7147C269.385 18.7436 265.354 17.0745 261.15 17.0745H143.028Z" fill="#E5E5E5"/>
<path d="M143.028 20.2808C139.675 20.2808 136.459 21.6121 134.088 23.9819C131.717 26.3517 130.385 29.5659 130.385 32.9173C130.385 36.2688 131.717 39.4829 134.088 41.8527C136.459 44.2225 139.675 45.5539 143.028 45.5539H261.15C264.503 45.5539 267.718 44.2225 270.089 41.8527C272.46 39.4829 273.792 36.2688 273.792 32.9173C273.792 29.5659 272.46 26.3517 270.089 23.9819C267.718 21.6121 264.503 20.2808 261.15 20.2808H143.028Z" fill="white"/>
<path d="M69.3997 92.3417C83.6911 92.3417 95.2766 80.7616 95.2766 66.4769C95.2766 52.1921 83.6911 40.6121 69.3997 40.6121C55.1083 40.6121 43.5228 52.1921 43.5228 66.4769C43.5228 80.7616 55.1083 92.3417 69.3997 92.3417Z" fill="#9E616A"/>
<path d="M62.7798 91.0751C62.6693 90.8319 62.559 90.5877 62.4491 90.3428C62.4915 90.3441 62.5334 90.3502 62.5758 90.3513L62.7798 91.0751Z" fill="#2F2E41"/>
<path d="M42.8032 41.7883C44.112 40.7447 45.6416 39.7845 47.315 39.8385C48.9882 39.8924 50.6851 41.403 50.3384 43.0401C53.412 37.6007 58.3041 33.4172 64.1561 31.2239C70.0081 29.0305 76.4461 28.9676 82.34 31.046C86.4988 32.5126 90.5772 35.4467 91.5326 39.75C91.7778 40.8547 91.8305 42.066 92.5205 42.9631C93.3906 44.0941 95.0553 44.3499 96.4261 43.952C96.4398 43.9481 96.4535 43.944 96.4671 43.94C96.6987 43.8609 96.9487 43.8531 97.1847 43.9176C97.4207 43.9822 97.632 44.116 97.7911 44.3018C97.9502 44.4876 98.0499 44.7168 98.0772 44.9599C98.1046 45.2029 98.0583 45.4486 97.9445 45.6651L96.7677 47.8587C98.2511 48.1892 99.7924 48.1564 101.26 47.7632C101.504 47.6993 101.762 47.7123 101.998 47.8005C102.234 47.8888 102.437 48.0479 102.579 48.256C102.721 48.4642 102.796 48.7112 102.792 48.9631C102.788 49.2151 102.706 49.4597 102.558 49.6633C98.6774 54.9881 92.1949 58.4265 85.5796 58.3861C80.8779 58.3575 76.1278 56.7378 71.552 57.8185C69.7818 58.2366 68.1277 59.0455 66.711 60.1859C65.2944 61.3263 64.1512 62.7693 63.3652 64.4089C62.5793 66.0485 62.1705 67.8432 62.169 69.6613C62.1675 71.4794 62.5733 73.2748 63.3565 74.9157C61.9508 73.3789 59.2334 73.7427 57.7954 75.2496C56.3576 76.7564 55.9853 79.0054 56.1302 81.0828C56.3518 84.2599 57.5972 87.2537 58.9101 90.1675C47.9024 89.8212 37.4909 82.103 33.9863 71.664C30.4671 61.1813 34.1554 48.6837 42.8032 41.7883Z" fill="#2F2E41"/>
<path opacity="0.2" d="M25.4695 144.151L32.7274 183.621L37.0823 184L25.4695 144.151Z" fill="black"/>
<path opacity="0.2" d="M105.416 141.174L98.1586 183.592L93.8037 184L105.416 141.174Z" fill="black"/>
<path d="M48.9935 28.5046C47.602 29.0854 46.1499 28.4488 45.5409 26.9911C44.9226 25.5112 45.5001 24.0088 46.914 23.4186C48.328 22.8285 49.7542 23.4665 50.3825 24.9704C51.0013 26.4517 50.4301 27.905 48.9935 28.5046ZM46.3278 20.5055L45.2214 20.9673C44.9449 21.0813 44.6358 21.0875 44.3551 20.9846C44.0743 20.8816 43.8425 20.6772 43.7053 20.4116L43.6506 20.3046C42.4601 18.1584 42.3237 15.5501 43.2476 12.5561C44.1034 9.87041 44.4589 7.98154 43.744 6.27032C42.9175 4.29184 41.1526 3.67207 38.9018 4.56987C38.0289 4.9342 37.7511 4.9284 37.0642 5.60955C36.9148 5.75952 36.7366 5.87787 36.5405 5.95756C36.3443 6.03724 36.1341 6.07662 35.9223 6.07335C35.7176 6.07094 35.5155 6.02735 35.3281 5.94519C35.1406 5.86303 34.9716 5.74397 34.8312 5.59513C34.5606 5.30827 34.409 4.92948 34.407 4.53524C34.405 4.14101 34.5528 3.7607 34.8204 3.47113C35.9751 2.26299 37.3678 1.3072 38.9106 0.664069C43.7464 -1.35426 46.1807 1.62551 47.2947 4.29213C48.3844 6.90038 47.7714 9.3204 46.7866 12.4546C45.9613 15.0589 46.0094 16.9886 46.9469 18.9074C47.0145 19.0525 47.0522 19.2097 47.0576 19.3697C47.0629 19.5296 47.0359 19.689 46.9781 19.8383C46.9203 19.9876 46.8329 20.1236 46.7211 20.2383C46.6094 20.3529 46.4756 20.4438 46.3279 20.5055L46.3278 20.5055Z" fill="#6C63FF"/>
<path d="M169.119 40.4734H145.617C145.543 40.474 145.469 40.4597 145.4 40.4315C145.33 40.4033 145.268 40.3617 145.215 40.3091C145.162 40.2565 145.12 40.1939 145.091 40.125C145.062 40.0561 145.047 39.9823 145.047 39.9076C145.047 39.833 145.062 39.7591 145.091 39.6902C145.12 39.6213 145.162 39.5588 145.215 39.5062C145.268 39.4536 145.33 39.412 145.4 39.3838C145.469 39.3556 145.543 39.3413 145.617 39.3418H169.119C169.269 39.3428 169.412 39.4029 169.517 39.5089C169.622 39.6149 169.682 39.7582 169.682 39.9076C169.682 40.057 169.622 40.2004 169.517 40.3064C169.412 40.4124 169.269 40.4724 169.119 40.4734Z" fill="#6C63FF"/>
<path d="M198.933 40.6619H175.431C175.356 40.6624 175.282 40.6482 175.213 40.62C175.144 40.5918 175.081 40.5502 175.028 40.4976C174.975 40.445 174.933 40.3824 174.905 40.3135C174.876 40.2446 174.861 40.1707 174.861 40.0961C174.861 40.0215 174.876 39.9476 174.905 39.8787C174.933 39.8098 174.975 39.7472 175.028 39.6946C175.081 39.642 175.144 39.6005 175.213 39.5722C175.282 39.544 175.356 39.5298 175.431 39.5303H198.933C199.008 39.5298 199.082 39.544 199.151 39.5722C199.22 39.6005 199.283 39.642 199.336 39.6946C199.389 39.7472 199.431 39.8098 199.459 39.8787C199.488 39.9476 199.503 40.0215 199.503 40.0961C199.503 40.1707 199.488 40.2446 199.459 40.3135C199.431 40.3824 199.389 40.445 199.336 40.4976C199.283 40.5502 199.22 40.5918 199.151 40.62C199.082 40.6482 199.008 40.6624 198.933 40.6619Z" fill="#6C63FF"/>
<path d="M228.747 40.8506H205.245C205.095 40.8496 204.952 40.7896 204.847 40.6836C204.741 40.5776 204.682 40.4342 204.682 40.2848C204.682 40.1354 204.741 39.9921 204.847 39.8861C204.952 39.7801 205.095 39.72 205.245 39.719H228.747C228.821 39.7185 228.895 39.7328 228.964 39.761C229.033 39.7892 229.096 39.8308 229.149 39.8834C229.202 39.936 229.244 39.9985 229.273 40.0674C229.302 40.1363 229.316 40.2102 229.316 40.2848C229.316 40.3594 229.302 40.4333 229.273 40.5022C229.244 40.5711 229.202 40.6337 229.149 40.6863C229.096 40.7389 229.033 40.7805 228.964 40.8087C228.895 40.8369 228.821 40.8511 228.747 40.8506H228.747Z" fill="#6C63FF"/>
<path d="M258.56 41.0391H235.058C234.909 41.0381 234.766 40.978 234.66 40.872C234.555 40.766 234.496 40.6227 234.496 40.4733C234.496 40.3239 234.555 40.1805 234.66 40.0745C234.766 39.9685 234.909 39.9085 235.058 39.9075H258.56C258.709 39.9085 258.852 39.9685 258.958 40.0745C259.063 40.1805 259.122 40.3239 259.122 40.4733C259.122 40.6227 259.063 40.766 258.958 40.872C258.852 40.978 258.709 41.0381 258.56 41.0391Z" fill="#6C63FF"/>
<path d="M157.317 35.2661C159.729 35.2661 161.685 33.3114 161.685 30.9001C161.685 28.4889 159.729 26.5342 157.317 26.5342C154.904 26.5342 152.949 28.4889 152.949 30.9001C152.949 33.3114 154.904 35.2661 157.317 35.2661Z" fill="#6C63FF"/>
<path d="M187.31 35.2661C189.723 35.2661 191.678 33.3114 191.678 30.9001C191.678 28.4889 189.723 26.5342 187.31 26.5342C184.898 26.5342 182.942 28.4889 182.942 30.9001C182.942 33.3114 184.898 35.2661 187.31 35.2661Z" fill="#6C63FF"/>
<path d="M217.304 35.2661C219.716 35.2661 221.672 33.3114 221.672 30.9001C221.672 28.4889 219.716 26.5342 217.304 26.5342C214.892 26.5342 212.936 28.4889 212.936 30.9001C212.936 33.3114 214.892 35.2661 217.304 35.2661Z" fill="#6C63FF"/>
<path d="M247.298 35.2661C249.71 35.2661 251.666 33.3114 251.666 30.9001C251.666 28.4889 249.71 26.5342 247.298 26.5342C244.885 26.5342 242.93 28.4889 242.93 30.9001C242.93 33.3114 244.885 35.2661 247.298 35.2661Z" fill="#6C63FF"/>
</g>
<defs>
<clipPath id="clip0_74_8">
<rect width="277" height="184" fill="white"/>
</clipPath>
</defs>
</svg>
