<svg width="491" height="144" viewBox="0 0 491 144" fill="none" xmlns="http://www.w3.org/2000/svg">
<g clip-path="url(#clip0_1004_1174)">
<path d="M66.4473 0C65.6881 0 64.96 0.254136 64.4231 0.706472C63.8863 1.15881 63.5847 1.77229 63.5847 2.41199C63.5847 3.05169 63.8863 3.66519 64.4231 4.11753C64.96 4.56986 65.6881 4.82398 66.4473 4.82398H124.516C125.275 4.82398 126.003 4.56986 126.54 4.11753C127.077 3.66519 127.378 3.05169 127.378 2.41199C127.378 1.77229 127.077 1.15881 126.54 0.706472C126.003 0.254136 125.275 0 124.516 0H66.4473Z" fill="#3F3D56"/>
<path d="M66.4473 14.2107C65.6889 14.2117 64.962 14.4663 64.4261 14.9185C63.8903 15.3708 63.5894 15.9837 63.5894 16.6227C63.5894 17.2617 63.8903 17.8746 64.4261 18.3268C64.962 18.7791 65.6889 19.0337 66.4473 19.0347H124.516C125.274 19.0337 126.001 18.7791 126.537 18.3268C127.073 17.8746 127.374 17.2617 127.374 16.6227C127.374 15.9837 127.073 15.3708 126.537 14.9185C126.001 14.4663 125.274 14.2117 124.516 14.2107H66.4473Z" fill="#3F3D56"/>
<path d="M95.4822 59.2797C91.9186 59.2797 88.435 58.3893 85.472 56.7211C82.5089 55.0529 80.1995 52.6819 78.8357 49.9078C77.472 47.1337 77.1151 44.0811 77.8103 41.1361C78.5054 38.1911 80.2214 35.486 82.7412 33.3627C85.261 31.2395 88.4714 29.7935 91.9665 29.2076C95.4616 28.6217 99.0844 28.9223 102.377 30.0712C105.669 31.2202 108.483 33.166 110.463 35.6626C112.443 38.1592 113.5 41.0944 113.5 44.097V44.097C113.495 48.1222 111.595 51.9813 108.217 54.8276C104.839 57.6739 100.259 59.275 95.4822 59.2797V59.2797Z" fill="#E4E4E4"/>
<path d="M366.485 0C365.726 0 364.998 0.254136 364.461 0.706472C363.924 1.15881 363.622 1.77229 363.622 2.41199C363.622 3.05169 363.924 3.66519 364.461 4.11753C364.998 4.56986 365.726 4.82398 366.485 4.82398H424.553C425.313 4.82398 426.041 4.56986 426.578 4.11753C427.114 3.66519 427.416 3.05169 427.416 2.41199C427.416 1.77229 427.114 1.15881 426.578 0.706472C426.041 0.254136 425.313 0 424.553 0H366.485Z" fill="#3F3D56"/>
<path d="M366.485 14.2107C365.727 14.2117 365 14.4663 364.464 14.9185C363.928 15.3708 363.627 15.9837 363.627 16.6227C363.627 17.2617 363.928 17.8746 364.464 18.3268C365 18.7791 365.727 19.0337 366.485 19.0347H424.553C425.312 19.0337 426.039 18.7791 426.575 18.3268C427.11 17.8746 427.411 17.2617 427.411 16.6227C427.411 15.9837 427.11 15.3708 426.575 14.9185C426.039 14.4663 425.312 14.2117 424.553 14.2107H366.485Z" fill="#3F3D56"/>
<path d="M395.52 59.2797C391.956 59.2797 388.473 58.3893 385.51 56.7211C382.547 55.0529 380.237 52.6819 378.873 49.9078C377.51 47.1337 377.153 44.0811 377.848 41.1361C378.543 38.1911 380.259 35.486 382.779 33.3627C385.299 31.2395 388.509 29.7935 392.004 29.2076C395.499 28.6217 399.122 28.9223 402.414 30.0712C405.707 31.2202 408.521 33.166 410.501 35.6626C412.481 38.1592 413.538 41.0944 413.538 44.097C413.532 48.1222 411.632 51.9813 408.255 54.8276C404.877 57.6739 400.297 59.275 395.52 59.2797Z" fill="#68E8A3"/>
<path d="M174.164 94.4876C175.451 92.2012 169.487 87.5475 160.844 84.0933C152.2 80.6391 144.15 79.6923 142.863 81.9787C141.576 84.2651 147.54 88.9187 156.183 92.373C164.827 95.8272 172.877 96.7739 174.164 94.4876Z" fill="#2F2E41"/>
<path d="M245.5 118.037C247.803 116.412 244.691 110.085 238.55 103.905C232.408 97.7243 225.563 94.031 223.26 95.6554C220.958 97.2799 224.07 103.607 230.211 109.787C236.352 115.968 243.197 119.661 245.5 118.037Z" fill="#2F2E41"/>
<path d="M197.533 130.968C216.666 130.968 232.176 117.899 232.176 101.778C232.176 85.6563 216.666 72.5874 197.533 72.5874C178.4 72.5874 162.89 85.6563 162.89 101.778C162.89 117.899 178.4 130.968 197.533 130.968Z" fill="#2F2E41"/>
<path d="M212.196 124.686H201.672V140.575H212.196V124.686Z" fill="#2F2E41"/>
<path d="M191.147 124.686H180.623V140.575H191.147V124.686Z" fill="#2F2E41"/>
<path d="M203.426 143.531C208.27 143.531 212.196 142.29 212.196 140.759C212.196 139.229 208.27 137.988 203.426 137.988C198.582 137.988 194.656 139.229 194.656 140.759C194.656 142.29 198.582 143.531 203.426 143.531Z" fill="#2F2E41"/>
<path d="M182.377 143.161C187.221 143.161 191.147 141.92 191.147 140.39C191.147 138.859 187.221 137.619 182.377 137.619C177.533 137.619 173.606 138.859 173.606 140.39C173.606 141.92 177.533 143.161 182.377 143.161Z" fill="#2F2E41"/>
<path d="M186.655 65.0847C189.749 54.5879 203.403 48.4108 217.154 51.2877C230.904 54.1646 239.544 65.0061 236.45 75.5029C233.357 85.9997 223.094 86.0336 209.344 83.1566C195.593 80.2797 183.562 75.5815 186.655 65.0847Z" fill="#BFA179"/>
<path d="M192.354 105.35C198.733 105.35 203.904 100.993 203.904 95.6182C203.904 90.2434 198.733 85.8862 192.354 85.8862C185.975 85.8862 180.804 90.2434 180.804 95.6182C180.804 100.993 185.975 105.35 192.354 105.35Z" fill="white"/>
<path d="M187.607 95.3739C189.733 95.3739 191.457 93.9215 191.457 92.1299C191.457 90.3383 189.733 88.8859 187.607 88.8859C185.481 88.8859 183.757 90.3383 183.757 92.1299C183.757 93.9215 185.481 95.3739 187.607 95.3739Z" fill="#3F3D56"/>
<path d="M199.6 115.894C199.963 117.587 199.515 119.331 198.353 120.745C197.191 122.159 195.41 123.126 193.402 123.434C191.394 123.742 189.323 123.366 187.644 122.388C185.965 121.41 184.816 119.91 184.448 118.218V118.218L184.446 118.206C183.688 114.68 186.924 113.432 191.108 112.794C195.293 112.156 198.842 112.368 199.6 115.894Z" fill="white"/>
<path d="M334.817 92.373C343.46 88.9188 349.424 84.2651 348.137 81.9787C346.85 79.6924 338.8 80.6391 330.156 84.0933C321.513 87.5476 315.549 92.2012 316.836 94.4876C318.123 96.774 326.173 95.8272 334.817 92.373Z" fill="#2F2E41"/>
<path d="M260.789 109.787C266.93 103.607 270.042 97.2799 267.74 95.6554C265.437 94.0309 258.592 97.7242 252.45 103.905C246.309 110.085 243.197 116.412 245.5 118.037C247.803 119.661 254.648 115.968 260.789 109.787Z" fill="#2F2E41"/>
<path d="M293.467 130.968C312.6 130.968 328.11 117.899 328.11 101.778C328.11 85.6563 312.6 72.5874 293.467 72.5874C274.334 72.5874 258.824 85.6563 258.824 101.778C258.824 117.899 274.334 130.968 293.467 130.968Z" fill="#2F2E41"/>
<path d="M289.328 124.686H278.804V140.575H289.328V124.686Z" fill="#2F2E41"/>
<path d="M310.377 124.686H299.853V140.575H310.377V124.686Z" fill="#2F2E41"/>
<path d="M287.574 143.531C292.418 143.531 296.345 142.29 296.345 140.759C296.345 139.229 292.418 137.988 287.574 137.988C282.73 137.988 278.804 139.229 278.804 140.759C278.804 142.29 282.73 143.531 287.574 143.531Z" fill="#2F2E41"/>
<path d="M308.623 143.161C313.467 143.161 317.393 141.92 317.393 140.39C317.393 138.859 313.467 137.619 308.623 137.619C303.779 137.619 299.853 138.859 299.853 140.39C299.853 141.92 303.779 143.161 308.623 143.161Z" fill="#2F2E41"/>
<path d="M304.345 65.0847C301.251 54.5879 287.597 48.4108 273.846 51.2877C260.096 54.1646 251.457 65.0061 254.55 75.5029C257.643 85.9997 267.906 86.0336 281.656 83.1566C295.407 80.2797 307.438 75.5815 304.345 65.0847Z" fill="#BFA179"/>
<path d="M298.646 105.35C305.025 105.35 310.196 100.993 310.196 95.6182C310.196 90.2434 305.025 85.8862 298.646 85.8862C292.267 85.8862 287.096 90.2434 287.096 95.6182C287.096 100.993 292.267 105.35 298.646 105.35Z" fill="white"/>
<path d="M303.393 95.3739C305.519 95.3739 307.243 93.9215 307.243 92.1299C307.243 90.3383 305.519 88.8859 303.393 88.8859C301.267 88.8859 299.543 90.3383 299.543 92.1299C299.543 93.9215 301.267 95.3739 303.393 95.3739Z" fill="#3F3D56"/>
<path d="M291.401 115.894C291.037 117.587 291.485 119.331 292.647 120.745C293.809 122.159 295.59 123.126 297.598 123.434C299.606 123.742 301.677 123.366 303.356 122.388C305.035 121.41 306.184 119.91 306.552 118.218V118.218L306.554 118.206C307.312 114.68 304.076 113.432 299.892 112.794C295.707 112.156 292.158 112.368 291.401 115.894Z" fill="white"/>
<path d="M490.1 144H0.90019C0.66198 143.999 0.433756 143.919 0.26556 143.777C0.0973636 143.635 0.00292969 143.442 0.00292969 143.242C0.00292969 143.041 0.0973636 142.849 0.26556 142.706C0.433756 142.564 0.66198 142.484 0.90019 142.484H490.1C490.339 142.484 490.568 142.563 490.737 142.706C490.906 142.848 491 143.041 491 143.242C491 143.443 490.906 143.636 490.737 143.778C490.568 143.92 490.339 144 490.1 144V144Z" fill="#3F3D56"/>
</g>
<defs>
<clipPath id="clip0_1004_1174">
<rect width="491" height="144" fill="white"/>
</clipPath>
</defs>
</svg>
