<svg width="273" height="287" viewBox="0 0 273 287" fill="none" xmlns="http://www.w3.org/2000/svg">
<g clip-path="url(#clip0_1068_1169)">
<path d="M50.3649 68.5642C59.8908 68.5642 67.6131 60.4459 67.6131 50.4315C67.6131 40.4171 59.8908 32.2988 50.3649 32.2988C40.839 32.2988 33.1167 40.4171 33.1167 50.4315C33.1167 60.4459 40.839 68.5642 50.3649 68.5642Z" fill="#68E8A3"/>
<path d="M54.3009 158.881L56.9729 124.709L56.0767 125.258C51.3241 128.167 45.3367 126.844 42.0618 122.391L25.8518 100.393L46.3339 116.318C49.025 118.41 52.6432 118.619 55.5362 116.848L92.6192 94.1484C96.6199 91.6995 97.9746 86.3049 95.6453 82.099C93.3159 77.8932 88.1838 76.4683 84.1837 78.9178L51.8681 98.6995L35.8208 86.2231L49.2442 91.5659L58.6751 85.7929C56.951 81.2742 52.9289 77.9188 47.9999 77.4923L25.5649 75.5536C18.6172 74.9529 12.5217 80.3876 11.9503 87.6923L7.96392 155.663L13.251 191.904L0.36047 241.328C-1.10831 246.96 2.04425 252.778 7.40147 254.322C12.7622 255.866 18.2935 252.549 19.7623 246.92L33.2188 195.323C33.5924 193.891 33.675 192.392 33.4606 190.924L28.5761 157.444L32.4895 157.782L44.4886 192.175L34.4649 241.933C33.3139 247.646 36.7872 253.26 42.2216 254.47C47.6566 255.679 52.9954 252.028 54.1464 246.315L64.7694 193.58C65.1608 191.636 65.0236 189.614 64.3727 187.748L54.3009 158.881Z" fill="#68E8A3"/>
<path d="M126.093 151.595L171.589 183.186C175.167 185.67 179.92 185.307 183.122 182.229C184.82 181.669 182.317 183.224 219.244 157.603L257.929 163.635C262.77 164.393 267.279 160.876 267.997 155.785C268.715 150.694 265.372 145.955 260.53 145.201L218.492 138.646C216.331 138.308 214.13 138.822 212.309 140.086L193.892 152.864L186.466 146.778C179.831 154.077 181.883 151.819 178.939 155.059C175.935 158.363 171.338 159.115 167.608 157.275L140.914 144.06L168.957 149.31C171.386 149.765 173.879 148.915 175.592 147.031L195.982 124.601C198.801 121.501 198.694 116.586 195.745 113.622C192.796 110.659 188.121 110.771 185.302 113.871L167.648 133.29L143.504 128.77L162.367 127.028L150.457 117.267C145.66 113.335 138.74 114.236 135 119.279L123.478 134.817C119.532 140.135 120.734 147.874 126.093 151.595Z" fill="#9747FF"/>
<path d="M109.586 128.692C118.59 128.692 125.89 121.019 125.89 111.552C125.89 102.086 118.59 94.4125 109.586 94.4125C100.582 94.4125 93.2822 102.086 93.2822 111.552C93.2822 121.019 100.582 128.692 109.586 128.692Z" fill="#9747FF"/>
<path d="M262.711 195.302C266.697 196.82 271.097 194.652 272.54 190.463C273.983 186.273 271.921 181.646 267.936 180.13L228.826 165.244C226.583 164.39 224.09 164.681 222.08 166.032L177.751 195.816L87.6064 133.489C84.0648 131.039 79.3057 132.073 76.9769 135.797C74.6475 139.519 75.6304 144.523 79.172 146.971L173.474 212.172C176.003 213.921 179.272 213.943 181.824 212.229L186.348 209.191L199.556 238.565H177.641C173.402 238.565 169.966 242.177 169.966 246.633C169.966 251.089 173.403 254.701 177.641 254.701H264.101C268.339 254.701 271.775 251.089 271.775 246.633C271.775 242.177 268.339 238.565 264.101 238.565H240.602L219.264 187.075L227.158 181.771L262.711 195.302Z" fill="white"/>
</g>
<defs>
<clipPath id="clip0_1068_1169">
<rect width="273" height="287" fill="white"/>
</clipPath>
</defs>
</svg>
