<svg width="152" height="141" viewBox="0 0 152 141" fill="none" xmlns="http://www.w3.org/2000/svg">
<g clip-path="url(#clip0_1052_1617)">
<path d="M73.8476 9.14565C83.0833 3.33039 96.6297 -0.210904 109.571 0.0109463C121.731 0.216158 133.472 3.71863 140.906 11.7163C143.358 14.3508 145.317 17.3902 146.882 20.815C148.42 24.1788 149.574 27.8893 150.438 31.9353C152.122 39.8304 152.368 48.6268 151.54 57.6949C150.625 67.6865 148.411 78.0303 145.388 87.8721C143.192 95.0241 136.672 112.816 128.277 125.592C122.758 133.987 116.283 140.343 109.274 140.759C105.86 140.964 102.728 139.746 99.8627 137.167C97.3512 134.902 95.0444 131.527 92.9337 127.087L92.8743 126.979L90.1401 120.509C89.7571 119.6 89.2851 118.39 88.7715 117.076C86.1352 110.321 82.264 100.401 76.6708 99.1394C71.9891 98.0856 68.2485 106.685 65.9447 111.976C65.6657 112.62 65.4044 113.219 64.9235 114.256C64.6711 114.797 64.113 116.083 63.4866 117.531C59.749 126.15 53.4226 140.742 44.4154 140.994C41.3041 141.083 38.2552 139.816 35.2686 137.256C32.6532 135.013 30.0229 131.704 27.3807 127.387C25.6588 124.605 23.839 121.344 21.9746 117.711C20.1933 114.231 18.3765 110.396 16.5774 106.291C13.2761 98.7512 9.31287 89.0285 6.11552 78.6182C2.88255 68.0803 0.385834 56.7243 0.0355213 45.9535C-0.181197 39.2231 0.563959 32.6896 2.40161 26.7661C4.15615 21.1145 6.90521 16.0175 10.7586 11.8189C18.3201 3.59106 28.2743 0.274394 38.7213 0.0691821C50.8338 -0.166534 63.5816 3.8351 73.8476 9.14565ZM14.4518 43.5686C15.7135 36.7439 18.2933 30.3962 22.5297 25.1244C26.398 20.3131 31.6052 16.4362 38.3918 13.9598L40.553 19.1262C34.8471 21.2088 30.489 24.4423 27.2708 28.4467C23.646 32.9558 21.4194 38.491 20.3091 44.5031L14.4518 43.5686ZM128.811 55.4487H128.523C128.523 53.2302 127.635 51.2945 125.863 49.6389C124.091 47.9834 122.018 47.157 119.646 47.157V46.8852C122.018 46.8852 124.091 46.0561 125.863 44.3977C127.635 42.7338 128.523 40.7982 128.523 38.5908H128.811C128.811 40.8065 129.699 42.7422 131.471 44.3977C133.243 46.0533 135.316 46.8825 137.691 46.8825V47.1514C135.316 47.1514 133.243 47.9806 131.471 49.6362C129.699 51.2945 128.811 53.2302 128.811 55.4487ZM107.953 61.3804H107.718C107.718 59.6167 107.011 58.0693 105.598 56.752C104.188 55.432 102.538 54.7692 100.643 54.7692V54.5529C102.532 54.5529 104.188 53.8902 105.598 52.5729C107.011 51.2474 107.718 49.7083 107.718 47.9473H107.953C107.953 49.711 108.659 51.2585 110.072 52.5757C111.482 53.8957 113.133 54.5585 115.027 54.5585V54.7748C113.139 54.7748 111.482 55.4376 110.072 56.7548C108.656 58.0693 107.953 59.6111 107.953 61.3804ZM113.124 41.7466H112.673C112.673 38.2968 111.289 35.2741 108.526 32.6923C105.759 30.1078 102.532 28.8183 98.8296 28.8183V28.3967C102.526 28.3967 105.759 27.1045 108.526 24.5171C111.289 21.927 112.673 18.9099 112.673 15.4656H113.124C113.124 18.9182 114.508 21.9409 117.271 24.5227C120.035 27.1045 123.265 28.3967 126.964 28.3967V28.8183C123.268 28.8183 120.035 30.1105 117.271 32.6923C114.508 35.2741 113.124 38.2968 113.124 41.7466ZM78.9924 12.6453C84.8943 16.5971 86.8685 18.4939 90.336 22.709C85.6929 21.2975 79.9721 18.9653 75.3557 16.4307C74.3997 15.9038 73.4735 15.3464 72.5146 14.825C62.7682 9.5117 50.4004 5.37696 38.8371 5.60436C29.9843 5.77906 21.5827 8.54943 15.2682 15.4213C11.9788 19.0041 9.61865 23.4023 8.09568 28.308C6.43318 33.6629 5.76224 39.6224 5.96115 45.8009C6.29068 55.9977 8.70427 66.9045 11.8333 77.0985C15.001 87.4201 18.8604 96.8987 22.0607 104.209C23.7885 108.152 25.5608 111.887 27.3213 115.323C29.0818 118.759 30.8333 121.887 32.5136 124.608L32.5255 124.63C34.859 128.446 37.1152 131.313 39.2883 133.177C41.0993 134.727 42.7588 135.503 44.2521 135.462C49.3613 135.318 54.7793 122.825 57.9796 115.445C58.4576 114.339 58.8851 113.357 59.4847 112.062C59.6065 111.804 60.0013 110.895 60.4377 109.891C63.4718 102.916 68.4058 91.5826 78.0661 93.7567C86.7497 95.7146 91.2711 107.298 94.3497 115.188C94.8069 116.358 95.2255 117.434 95.6708 118.49L98.4051 124.96L98.3991 124.963C100.171 128.668 102.03 131.419 103.977 133.174C105.592 134.63 107.234 135.323 108.903 135.226C113.62 134.943 118.625 129.683 123.209 122.705C131.257 110.462 137.545 93.2714 139.671 86.3525C142.595 76.8323 144.735 66.8518 145.614 57.2401C146.398 48.6573 146.175 40.3822 144.605 33.0196C143.812 29.3036 142.776 25.9481 141.422 22.9836C140.092 20.0801 138.453 17.5261 136.42 15.3408C130.206 8.65758 120.083 5.7236 109.478 5.54335C98.5208 5.35755 87.1654 8.08354 78.9924 12.6453Z" fill="#F0F0F5"/>
</g>
<defs>
<clipPath id="clip0_1052_1617">
<rect width="152" height="141" fill="white"/>
</clipPath>
</defs>
</svg>
