<svg width="345" height="185" viewBox="0 0 345 185" fill="none" xmlns="http://www.w3.org/2000/svg">
<g clip-path="url(#clip0_1072_1283)">
<path d="M108.5 181.3C107.15 181.3 106.059 180.369 106.059 179.219V132.969C106.059 131.818 107.15 130.888 108.5 130.888C109.849 130.888 110.941 131.818 110.941 132.969V179.219C110.941 180.369 109.849 181.3 108.5 181.3ZM97.5278 157.169C97.2091 157.169 96.8836 157.111 96.5716 157.001C89.7972 154.533 85.0638 148.139 85.0638 141.438C85.0638 134.385 88.5765 129.003 96.1241 124.488C97.2362 123.834 98.7484 124.06 99.5215 124.996C100.295 125.939 100.03 127.24 98.9247 127.899C92.6317 131.656 89.9396 135.715 89.9396 141.438C89.9396 146.52 93.4522 151.347 98.4772 153.174C99.7181 153.625 100.295 154.845 99.7656 155.909C99.3791 156.695 98.4772 157.169 97.5278 157.169ZM119.465 157.169C118.733 157.169 118 156.88 117.519 156.342C116.705 155.429 116.915 154.117 117.987 153.423C124.253 149.376 127.04 146.462 127.04 139.924C127.04 131.83 117.688 126.361 107.788 120.58C96.653 114.076 85.1452 107.352 85.1452 95.882C85.1452 89.488 89.5462 83.6547 96.3614 81.0242C97.5888 80.5617 99.04 81.0184 99.5961 82.0649C100.152 83.1113 99.6028 84.3484 98.3754 84.8225C93.3031 86.7766 90.0277 91.1183 90.0277 95.8878C90.0277 105.161 99.9962 110.988 110.548 117.157C121.059 123.297 131.929 129.639 131.929 139.929C131.929 148.093 128.071 152.134 120.943 156.747C120.503 157.025 119.981 157.169 119.465 157.169ZM119.465 114.729C118.733 114.729 118 114.44 117.519 113.902C116.705 112.983 116.915 111.676 117.987 110.983C124.253 106.942 127.04 104.034 127.04 97.4892C127.04 90.2627 119.58 85.1289 110.934 80.0009V104.074C110.934 105.225 109.843 106.155 108.493 106.155C107.144 106.155 106.052 105.225 106.052 104.074V77.1392C95.4866 70.9417 85.1384 64.3338 85.1384 53.4534C85.1384 47.0536 89.5395 41.2203 96.3546 38.5956C97.582 38.1331 99.0332 38.5899 99.5893 39.6363C100.145 40.6827 99.5961 41.9199 98.3687 42.3939C93.2963 44.348 90.0209 48.6897 90.0209 53.4592C90.0209 61.4027 97.3311 66.8139 106.052 72.0749V30.8314C98.3822 29.8255 92.4893 24.1599 92.4893 17.3438C92.4893 9.82236 99.6707 3.70001 108.493 3.70001C117.322 3.70001 124.497 9.82236 124.497 17.3438C124.497 24.1599 118.604 29.8255 110.934 30.8314V74.9424C121.323 81.0069 131.922 87.3258 131.922 97.4892C131.922 105.658 128.064 109.705 120.937 114.307C120.503 114.584 119.981 114.729 119.465 114.729ZM108.5 26.8192C108.568 26.8192 108.635 26.8192 108.703 26.825C114.739 26.7325 119.621 22.518 119.621 17.3438C119.621 12.1175 114.637 7.86251 108.5 7.86251C102.363 7.86251 97.3786 12.1175 97.3786 17.3438C97.3786 22.518 102.261 26.7325 108.296 26.825C108.364 26.8192 108.432 26.8192 108.5 26.8192ZM128.844 77.2375C127.928 77.2375 127.047 76.7981 126.64 76.0408C126.063 75.0002 126.585 73.763 127.806 73.2716C134.865 70.433 140.609 62.4028 140.609 55.3613C140.609 44.4116 147.79 38.3875 160.81 38.3875H203.437C204.787 38.3875 205.879 39.3183 205.879 40.4688C205.879 41.6192 204.787 42.55 203.437 42.55H160.81C152.822 42.55 148.096 44.9261 146.312 49.95H189.875C191.224 49.95 192.316 50.8808 192.316 52.0313C192.316 53.1817 191.224 54.1125 189.875 54.1125H145.525C145.498 54.5172 145.492 54.9334 145.492 55.3613C145.492 57.2922 145.105 59.3966 144.379 61.5183H176.17C177.519 61.5183 178.611 62.4491 178.611 63.5995C178.611 64.75 177.519 65.6808 176.17 65.6808H142.515C139.856 70.4156 135.53 74.7689 129.888 77.0352C129.549 77.1739 129.196 77.2375 128.844 77.2375ZM88.1561 77.2375C87.8035 77.2375 87.4508 77.1739 87.1186 77.0409C81.4766 74.7747 77.1501 70.4214 74.4987 65.6866H40.6873C39.3379 65.6866 38.2461 64.7558 38.2461 63.6053C38.2461 62.4549 39.3379 61.5241 40.6873 61.5241H72.627C71.9014 59.3966 71.5217 57.298 71.5217 55.367C71.5217 54.9392 71.5081 54.523 71.4878 54.1183H27.1248C25.7754 54.1125 24.6836 53.1817 24.6836 52.0313C24.6836 50.8808 25.7754 49.95 27.1248 49.95H70.7012C68.9177 44.9261 64.1912 42.55 56.2028 42.55H13.5623C12.2129 42.55 11.1211 41.6192 11.1211 40.4688C11.1211 39.3183 12.2129 38.3875 13.5623 38.3875H56.2028C67.6225 38.3875 74.5393 43.0183 76.0787 51.5283C76.1126 51.6613 76.1397 51.7942 76.1465 51.9388C76.316 53.0199 76.4042 54.1588 76.4042 55.3613C76.4042 62.4028 82.1411 70.4388 89.1936 73.2716C90.4142 73.763 90.9364 75.0002 90.36 76.0408C89.9463 76.7981 89.0716 77.2375 88.1561 77.2375ZM119.465 71.462C118.699 71.462 117.939 71.1556 117.465 70.5775C116.692 69.6352 116.963 68.3402 118.061 67.6811C124.361 63.9175 127.04 59.8649 127.04 54.1414C127.04 49.0597 123.527 44.2381 118.502 42.4055C117.261 41.9545 116.685 40.7289 117.221 39.6767C117.749 38.6188 119.194 38.1274 120.428 38.5783C127.196 41.0411 131.929 47.4409 131.929 54.1414C131.929 61.1945 128.41 66.5769 120.869 71.092C120.442 71.3406 119.947 71.462 119.465 71.462Z" fill="#68E8A3"/>
</g>
<g clip-path="url(#clip1_1072_1283)">
<path d="M250.471 33.828C255.449 33.828 259.486 30.061 259.486 25.414C259.486 20.7671 255.449 17 250.471 17C245.492 17 241.456 20.7671 241.456 25.414C241.456 30.061 245.492 33.828 250.471 33.828Z" fill="#9747FF"/>
<path d="M298.234 33.828C303.213 33.828 307.249 30.061 307.249 25.414C307.249 20.7671 303.213 17 298.234 17C293.255 17 289.219 20.7671 289.219 25.414C289.219 30.061 293.255 33.828 298.234 33.828Z" fill="#9747FF"/>
<path d="M325.094 33.067C320.514 25.6627 312.311 21.2425 303.15 21.2425V29.5872C309.078 29.5872 314.387 32.4478 317.351 37.2394C320.316 42.0318 320.316 47.7529 317.352 52.5453L288.633 98.9722C285.669 103.764 280.36 106.624 274.431 106.625C268.502 106.625 263.193 103.765 260.229 98.9722L231.51 52.5445C228.546 47.7529 228.546 42.0309 231.51 37.2394C234.474 32.4478 239.784 29.5864 245.712 29.5864V21.2416C236.551 21.2416 228.347 25.6619 223.767 33.067C219.187 40.4721 219.187 49.3126 223.767 56.7169L252.486 103.144C256.305 109.318 262.648 113.407 269.961 114.599V136.989C269.961 158.862 256.126 176.656 239.122 176.656C222.117 176.656 208.284 158.862 208.284 136.989V110.329C218.468 108.392 226.155 99.9669 226.155 89.8965C226.155 78.3982 216.132 69.0437 203.813 69.0437C191.493 69.0437 181.471 78.3982 181.471 89.8965C181.471 99.9661 189.158 108.391 199.342 110.329V136.989C199.342 163.463 217.187 185.001 239.122 185.001C261.056 185.001 278.901 163.463 278.901 136.989V114.599C286.212 113.407 292.556 109.318 296.374 103.144L325.094 56.7169C329.675 49.3126 329.675 40.4713 325.094 33.067Z" fill="#9747FF"/>
</g>
<defs>
<clipPath id="clip0_1072_1283">
<rect width="217" height="185" fill="white"/>
</clipPath>
<clipPath id="clip1_1072_1283">
<rect width="180" height="168" fill="white" transform="translate(165 17)"/>
</clipPath>
</defs>
</svg>
