<svg width="232" height="151" viewBox="0 0 232 151" fill="none" xmlns="http://www.w3.org/2000/svg">
<g clip-path="url(#clip0_1050_1479)">
<path d="M9.80203 137.868C10.7786 138.235 11.8271 138.327 12.8466 138.135C13.8661 137.943 14.8221 137.474 15.6226 136.773C17.6613 134.944 18.3006 131.932 18.8205 129.142L20.3588 120.891L17.1383 123.26C14.8221 124.965 12.4539 126.724 10.8503 129.193C9.24678 131.661 8.5472 135.031 9.83523 137.703" fill="#E6E6E6"/>
<path d="M10.2993 148.433C9.89394 145.277 9.47688 142.08 9.7619 138.89C10.0145 136.057 10.8233 133.29 12.4698 131.02C13.3438 129.818 14.4073 128.788 15.6124 127.977C15.9266 127.765 16.2158 128.297 15.903 128.508C13.8177 129.917 12.2048 131.996 11.2967 134.448C10.2939 137.174 10.1329 140.145 10.3056 143.041C10.41 144.792 10.6319 146.532 10.8547 148.269C10.8723 148.348 10.8613 148.431 10.824 148.501C10.7867 148.571 10.7258 148.623 10.6536 148.648C10.58 148.669 10.5015 148.658 10.4352 148.618C10.3689 148.578 10.3202 148.511 10.2995 148.433L10.2993 148.433Z" fill="#F2F2F2"/>
<path d="M13.217 143.368C13.6358 144.049 14.2115 144.603 14.8886 144.976C15.5658 145.35 16.3216 145.531 17.0832 145.502C19.0408 145.402 20.6722 143.943 22.1407 142.557L26.4849 138.457L23.6099 138.31C21.5422 138.204 19.4212 138.105 17.4519 138.787C15.4825 139.47 13.6663 141.109 13.3062 143.287" fill="#E6E6E6"/>
<path d="M9.15347 150.247C11.105 146.557 13.3684 142.456 17.4131 141.145C18.5376 140.781 19.7167 140.651 20.887 140.761C21.2558 140.795 21.1637 141.403 20.7956 141.369C18.8339 141.195 16.8761 141.749 15.2516 142.937C13.6883 144.074 12.4711 145.655 11.4411 147.331C10.81 148.358 10.2448 149.429 9.67955 150.498C9.49893 150.84 8.97076 150.593 9.15347 150.247Z" fill="#F2F2F2"/>
<path d="M205.021 4.729H43.6251V86.5788H205.021V4.729Z" fill="#E6E6E6"/>
<path d="M200.406 11.7477H48.2402V80.0375H200.406V11.7477Z" fill="white"/>
<path d="M204.952 0H43.5562V7.32791H204.952V0Z" fill="#BFA179"/>
<path d="M48.6515 4.74765C49.3534 4.74765 49.9224 4.13956 49.9224 3.38945C49.9224 2.63934 49.3534 2.03125 48.6515 2.03125C47.9497 2.03125 47.3807 2.63934 47.3807 3.38945C47.3807 4.13956 47.9497 4.74765 48.6515 4.74765Z" fill="white"/>
<path d="M53.4752 4.74765C54.1771 4.74765 54.746 4.13956 54.746 3.38945C54.746 2.63934 54.1771 2.03125 53.4752 2.03125C52.7733 2.03125 52.2043 2.63934 52.2043 3.38945C52.2043 4.13956 52.7733 4.74765 53.4752 4.74765Z" fill="white"/>
<path d="M58.2991 4.74765C59.001 4.74765 59.5699 4.13956 59.5699 3.38945C59.5699 2.63934 59.001 2.03125 58.2991 2.03125C57.5972 2.03125 57.0283 2.63934 57.0283 3.38945C57.0283 4.13956 57.5972 4.74765 58.2991 4.74765Z" fill="white"/>
<path d="M84.179 64.0595H161.085V49.9719C161.074 48.4864 160.784 47.0184 160.235 45.654C159.685 44.2896 158.886 43.0563 157.884 42.0264L157.863 42.0046C156.489 40.5316 151.899 36.7933 147.149 37.1103C144.64 37.2772 142.492 38.5695 140.765 40.9512C135.388 48.3677 128.326 45.8642 124.594 43.7119C121.306 41.8147 117.947 40.9242 114.612 41.0659C109.94 41.2612 103.365 43.1004 98.5693 50.7544C96.7378 53.6754 92.7547 57.6404 84.179 59.9705V64.0595Z" fill="#E4E4E4"/>
<path d="M165.437 64.3871H84.327C84.2596 64.3871 84.1951 64.3585 84.1475 64.3076C84.0999 64.2567 84.0731 64.1877 84.0731 64.1158V22.5676C84.0731 22.4956 84.0999 22.4266 84.1475 22.3757C84.1951 22.3248 84.2596 22.2963 84.327 22.2963C84.3943 22.2963 84.4588 22.3248 84.5064 22.3757C84.5541 22.4266 84.5808 22.4956 84.5808 22.5676V63.8445H165.437C165.504 63.8445 165.568 63.8731 165.616 63.924C165.664 63.9748 165.69 64.0438 165.69 64.1158C165.69 64.1877 165.664 64.2567 165.616 64.3076C165.568 64.3585 165.504 64.3871 165.437 64.3871Z" fill="#3F3D56"/>
<path d="M99.7554 48.4097H99.2575V64.0053H99.7554V48.4097Z" fill="#3F3D56"/>
<path d="M114.66 41.126H114.162V64.0053H114.66V41.126Z" fill="#3F3D56"/>
<path d="M129.596 45.9147H129.098V64.0053H129.596V45.9147Z" fill="#3F3D56"/>
<path d="M144.532 37.1354H144.034V64.0053H144.532V37.1354Z" fill="#3F3D56"/>
<path d="M159.467 43.2543H158.969V64.0053H159.467V43.2543Z" fill="#3F3D56"/>
<path d="M114.442 43.1204C115.283 43.1204 115.965 42.3917 115.965 41.4927C115.965 40.5937 115.283 39.865 114.442 39.865C113.601 39.865 112.919 40.5937 112.919 41.4927C112.919 42.3917 113.601 43.1204 114.442 43.1204Z" fill="#BFA179"/>
<path d="M144.313 38.8637C145.154 38.8637 145.836 38.1349 145.836 37.236C145.836 36.337 145.154 35.6083 144.313 35.6083C143.472 35.6083 142.79 36.337 142.79 37.236C142.79 38.1349 143.472 38.8637 144.313 38.8637Z" fill="#BFA179"/>
<path d="M129.378 47.643C130.219 47.643 130.901 46.9142 130.901 46.0153C130.901 45.1163 130.219 44.3876 129.378 44.3876C128.537 44.3876 127.855 45.1163 127.855 46.0153C127.855 46.9142 128.537 47.643 129.378 47.643Z" fill="#BFA179"/>
<path d="M99.5064 50.0374C100.348 50.0374 101.029 49.3087 101.029 48.4097C101.029 47.5107 100.348 46.782 99.5064 46.782C98.6653 46.782 97.9834 47.5107 97.9834 48.4097C97.9834 49.3087 98.6653 50.0374 99.5064 50.0374Z" fill="#BFA179"/>
<path d="M159.249 44.7166C160.09 44.7166 160.772 43.9879 160.772 43.0889C160.772 42.1899 160.09 41.4612 159.249 41.4612C158.408 41.4612 157.726 42.1899 157.726 43.0889C157.726 43.9879 158.408 44.7166 159.249 44.7166Z" fill="#BFA179"/>
<path d="M34.0814 147.776H37.1332L38.585 135.196L34.0809 135.196L34.0814 147.776Z" fill="#FFB6B6"/>
<path d="M33.3028 146.712L39.3129 146.711C40.3287 146.711 41.3031 147.143 42.0214 147.91C42.7396 148.678 43.1432 149.719 43.1433 150.805V150.938L33.303 150.938L33.3028 146.712Z" fill="#2F2E41"/>
<path d="M48.5191 147.776H51.571L53.0227 135.196L48.5186 135.196L48.5191 147.776Z" fill="#FFB6B6"/>
<path d="M47.7406 146.712L53.7507 146.711C54.7665 146.711 55.7409 147.143 56.4592 147.91C57.1774 148.678 57.581 149.719 57.5811 150.805V150.938L47.7408 150.938L47.7406 146.712Z" fill="#2F2E41"/>
<path d="M54.2145 90.2628C54.4725 89.9488 54.6629 89.5783 54.7723 89.1771C54.8817 88.776 54.9076 88.3542 54.8479 87.9412C54.7883 87.5283 54.6447 87.1344 54.4272 86.7872C54.2097 86.44 53.9236 86.148 53.5891 85.9317L48.6227 60.4481L43.212 62.7264L49.7952 87.0596C49.4926 87.6842 49.4148 88.4058 49.5767 89.0877C49.7386 89.7695 50.1289 90.3642 50.6736 90.759C51.2184 91.1539 51.8797 91.3215 52.5323 91.23C53.1849 91.1385 53.7835 90.7944 54.2145 90.2628Z" fill="#FFB6B6"/>
<path d="M30.8083 85.3554L28.5589 87.7957C28.5589 87.7957 26.1472 97.241 30.7621 108.89L33.8488 142.663L39.4024 143.11L41.0602 103.818L48.7097 116.86L47.3736 142.971L53.5124 142.82L56.2869 113.888L48.7097 83.6963L30.8083 85.3554Z" fill="#2F2E41"/>
<path d="M38.6735 88.6429C35.2863 88.6177 31.9035 88.3788 28.5426 87.9277L28.4073 87.9085L31.7595 72.1628L30.6052 51.9037L41.5051 51.5046C42.4918 51.4664 43.457 51.819 44.2153 52.4949C44.9736 53.1707 45.4716 54.1221 45.6137 55.1663L47.8446 71.3296L49.9082 85.6697L49.8805 85.7129C48.3975 88.0368 43.4393 88.6429 38.6735 88.6429Z" fill="#BFA179"/>
<path d="M40.5134 54.8554L42.728 51.8882C42.728 51.8882 46.6105 49.0507 47.8393 55.1312C49.068 61.2118 51.351 71.083 51.351 71.083L43.7592 71.7401L40.5134 54.8554Z" fill="#BFA179"/>
<path d="M19.5267 90.5289C19.2687 90.215 19.0783 89.8444 18.9689 89.4433C18.8595 89.0421 18.8337 88.6203 18.8933 88.2073C18.9529 87.7944 19.0965 87.4005 19.314 87.0533C19.5315 86.7061 19.8176 86.4141 20.1521 86.1978L25.1185 60.7142L30.5292 62.9925L23.946 87.3257C24.2487 87.9503 24.3264 88.6719 24.1645 89.3538C24.0026 90.0356 23.6123 90.6303 23.0676 91.0252C22.5229 91.42 21.8615 91.5876 21.2089 91.4961C20.5563 91.4047 19.9578 91.0605 19.5267 90.5289Z" fill="#FFB6B6"/>
<path d="M33.2278 55.1215L31.0132 52.1543C31.0132 52.1543 27.1307 49.3168 25.9019 55.3974C24.6732 61.4779 22.3902 71.3491 22.3902 71.3491L29.982 72.0062L33.2278 55.1215Z" fill="#BFA179"/>
<path d="M42.5611 48.5418H28.1233C27.8264 48.5415 27.5416 48.4152 27.3316 48.1908C27.1216 47.9664 27.0035 47.662 27.0032 47.3446V40.6937C27.0032 38.33 27.8817 36.0631 29.4456 34.3917C31.0095 32.7203 33.1306 31.7814 35.3422 31.7814C37.5539 31.7814 39.675 32.7203 41.2388 34.3917C42.8027 36.0631 43.6813 38.33 43.6813 40.6937V47.3446C43.681 47.662 43.5628 47.9664 43.3528 48.1908C43.1428 48.4152 42.8581 48.5415 42.5611 48.5418Z" fill="#2F2E41"/>
<path d="M36.9363 48.1413C40.3129 48.1413 43.0502 45.2158 43.0502 41.6071C43.0502 37.9983 40.3129 35.0729 36.9363 35.0729C33.5597 35.0729 30.8224 37.9983 30.8224 41.6071C30.8224 45.2158 33.5597 48.1413 36.9363 48.1413Z" fill="#FFB6B6"/>
<path d="M45.6541 41.3588H36.8258L36.7352 40.0042L36.2826 41.3588H34.9232L34.7438 38.674L33.8467 41.3588H31.2164V41.2258C31.2183 39.3567 31.9139 37.5647 33.1506 36.243C34.3873 34.9213 36.064 34.1779 37.8129 34.1758H39.0576C40.8065 34.1779 42.4832 34.9213 43.7199 36.243C44.9565 37.5647 45.6522 39.3567 45.6541 41.2258V41.3588Z" fill="#2F2E41"/>
<path d="M36.7535 49.7834C36.687 49.7833 36.6207 49.7771 36.5553 49.7647L30.0908 48.5457V37.1273H37.2069L37.0308 37.3469C34.5795 40.4021 36.4262 45.3563 37.7452 48.0375C37.8424 48.2339 37.8858 48.4556 37.8703 48.6771C37.8547 48.8987 37.781 49.111 37.6575 49.2898C37.5541 49.4426 37.4182 49.567 37.2611 49.6528C37.1039 49.7386 36.93 49.7834 36.7535 49.7834Z" fill="#2F2E41"/>
<path d="M215.153 147.776H212.102L210.65 135.196L215.154 135.196L215.153 147.776Z" fill="#9E616A"/>
<path d="M215.932 150.938L206.091 150.938V150.805C206.092 149.719 206.495 148.678 207.213 147.91C207.932 147.143 208.906 146.711 209.922 146.711L215.932 146.712L215.932 150.938Z" fill="#2F2E41"/>
<path d="M204.201 147.776H201.149L199.697 135.196L204.201 135.196L204.201 147.776Z" fill="#9E616A"/>
<path d="M204.979 150.938L195.139 150.938V150.805C195.139 149.719 195.542 148.678 196.261 147.91C196.979 147.143 197.953 146.711 198.969 146.711L204.979 146.712L204.979 150.938Z" fill="#2F2E41"/>
<path d="M168.657 59.6229C168.901 59.9814 169.216 60.2784 169.579 60.4929C169.942 60.7075 170.344 60.8343 170.758 60.8646C171.172 60.8949 171.587 60.8279 171.974 60.6683C172.36 60.5087 172.71 60.2603 172.997 59.9407L179.036 62.461L181.364 58.9126L172.789 55.4816C172.255 55.0012 171.574 54.747 170.876 54.7671C170.178 54.7872 169.512 55.0803 169.002 55.5908C168.493 56.1013 168.177 56.7937 168.113 57.5368C168.049 58.28 168.243 59.0222 168.657 59.6229Z" fill="#9E616A"/>
<path d="M204.162 81.1219L196.211 83.8938L198.868 144.071L205.004 144.233L208.144 101.795L208.857 144.065L216.444 144.512L219.241 81.1219H204.162Z" fill="#2F2E41"/>
<path d="M198.798 45.6486L219.203 40.9102L221.473 59.6885L219.583 68.661L220.34 82.2965C220.34 82.2965 204.205 90.8793 196.211 83.8937C196.211 83.8937 202.636 65.859 198.912 57.4166L198.798 45.6486Z" fill="#68E8A3"/>
<path d="M202.332 48.3047L198.798 45.6486C198.798 45.6486 198.589 45.3396 195.644 49.0191C192.699 52.6986 186.725 58.5515 186.725 58.5515L176.768 54.5609L174.954 61.724L186.526 67.4875L202.909 55.7937L202.332 48.3047Z" fill="#68E8A3"/>
<path d="M220.344 89.3356C220.719 89.1463 221.05 88.8714 221.315 88.5303C221.58 88.1892 221.771 87.7902 221.876 87.3613C221.981 86.9325 221.997 86.4843 221.922 86.0483C221.848 85.6123 221.684 85.1992 221.444 84.8379L224.886 78.9666L222.058 75.8611L217.306 84.2253C216.765 84.6969 216.405 85.3643 216.293 86.1009C216.182 86.8376 216.327 87.5924 216.701 88.2223C217.075 88.8522 217.653 89.3135 218.324 89.5187C218.996 89.7238 219.714 89.6587 220.344 89.3356Z" fill="#9E616A"/>
<path d="M216.021 44.6094L219.203 40.9101C219.203 40.9101 222.75 39.5903 225.647 46.4105C228.544 53.2307 231.78 67.0647 231.78 67.0647L224.214 82.6406L218.338 79.8346L224.214 66.9547L217.996 57.4165L216.021 44.6094Z" fill="#68E8A3"/>
<path d="M210.624 39.3699C213.834 37.4946 215.013 33.1933 213.259 29.7628C211.504 26.3322 207.479 25.0714 204.269 26.9467C201.06 28.8221 199.88 33.1233 201.635 36.5539C203.389 39.9844 207.414 41.2452 210.624 39.3699Z" fill="#9E616A"/>
<path d="M213.676 27.499L213.997 26.8083L212.382 25.9503C212.382 25.9503 210.599 22.8507 207.374 23.7217C204.148 24.5928 202.697 25.1141 202.697 25.1141L201.086 25.9808L201.894 26.841L200.443 27.3623L201.413 27.8771L200.285 28.57L200.892 32.1221C200.892 32.1221 201.901 29.428 203.839 30.4575C205.778 31.4871 209.325 29.9253 209.325 29.9253L212.406 36.2983C212.406 36.2983 213.042 34.0642 214.175 34.6599C214.175 34.6599 217.071 29.7319 213.676 27.499Z" fill="#2F2E41"/>
<path d="M74.6781 151H0.248927C0.182907 151 0.119592 150.972 0.0729089 150.922C0.026226 150.872 0 150.804 0 150.734C0 150.663 0.026226 150.596 0.0729089 150.546C0.119592 150.496 0.182907 150.468 0.248927 150.468H74.6781C74.7441 150.468 74.8074 150.496 74.8541 150.546C74.9008 150.596 74.927 150.663 74.927 150.734C74.927 150.804 74.9008 150.872 74.8541 150.922C74.8074 150.972 74.7441 151 74.6781 151Z" fill="#CACACA"/>
<path d="M231.751 151H174.747C174.681 151 174.617 150.972 174.571 150.922C174.524 150.872 174.498 150.804 174.498 150.734C174.498 150.663 174.524 150.596 174.571 150.546C174.617 150.496 174.681 150.468 174.747 150.468H231.751C231.817 150.468 231.88 150.496 231.927 150.546C231.974 150.596 232 150.663 232 150.734C232 150.804 231.974 150.872 231.927 150.922C231.88 150.972 231.817 151 231.751 151Z" fill="#CACACA"/>
</g>
<defs>
<clipPath id="clip0_1050_1479">
<rect width="232" height="151" fill="white"/>
</clipPath>
</defs>
</svg>
