<svg width="186" height="216" viewBox="0 0 186 216" fill="none" xmlns="http://www.w3.org/2000/svg">
<g clip-path="url(#clip0_1073_1169)">
<path d="M73.0663 152.921C76.1041 155.033 78.4793 156.328 81.8318 158.406C82.6215 158.907 83.4373 159.351 84.2745 159.735C85.5633 160.212 87.8063 159.688 89.2263 158.633C90.7502 158.648 92.4634 157.029 93.3231 155.76L93.3732 155.493C93.6192 155.437 93.8631 155.368 94.1049 155.285C94.6482 155.153 95.1444 154.833 95.5281 154.367C96.109 153.47 96.5175 152.438 96.7262 151.342C97.215 151.234 97.6771 151.002 98.0794 150.662C98.2026 150.576 98.3087 150.461 98.3905 150.324C98.4723 150.186 98.528 150.031 98.5538 149.866C99.4618 148.972 100.437 148.173 101.467 147.479C101.794 147.308 102.135 147.173 102.483 147.074C102.483 147.074 105.788 147.161 103.68 139.452C101.571 131.743 98.2786 134.36 98.2786 134.36C97.0602 134.911 95.7542 135.153 94.4485 135.07C92.369 134.706 90.2443 134.949 88.2654 135.775C87.2487 136.269 86.3404 137.022 85.6076 137.979L85.0547 137.729C84.5866 137.518 83.4027 137.729 82.9072 137.82C81.7772 138.144 80.6784 138.6 79.6274 139.18C78.8576 139.345 78.0676 139.334 77.3012 139.149C77.3012 139.149 74.1411 138.409 72.5207 144.259C70.3648 152.046 73.0663 152.921 73.0663 152.921Z" fill="white"/>
<path d="M72.7009 154.091C74.4135 155.272 76.1699 156.356 77.9379 157.423C79.6173 158.434 81.2704 159.536 82.9951 160.441C84.3651 161.168 85.9126 161.31 87.3639 160.84C88.8267 160.423 90.3685 159.582 91.2061 158.066C91.9409 156.736 90.1171 155.507 89.3854 156.83C88.8056 157.88 87.4024 158.364 86.3871 158.585C85.1052 158.865 84.218 158.442 83.0837 157.782C79.9399 155.954 76.7887 154.062 73.7652 151.977C72.5955 151.171 71.5338 153.286 72.7009 154.091Z" fill="#211715"/>
<path d="M89.3692 159.855C90.3511 159.762 91.2935 159.364 92.0976 158.703C92.8418 158.131 93.5066 157.431 94.069 156.626C94.2586 156.391 94.3682 156.083 94.3774 155.761C94.3774 155.519 94.3155 155.282 94.1997 155.081C94.0838 154.879 93.9192 154.722 93.7266 154.63C93.534 154.537 93.322 154.513 93.1175 154.56C92.9131 154.607 92.7252 154.724 92.5778 154.895C92.3541 155.221 92.1111 155.527 91.8504 155.813C91.7107 155.967 91.5668 156.116 91.4186 156.258C91.3786 156.296 91.338 156.333 91.2985 156.371C91.1983 156.467 91.4893 156.207 91.3391 156.334C91.2547 156.406 91.1709 156.478 91.085 156.547C90.7594 156.8 90.4173 157.023 90.0618 157.215C90.3623 157.047 90.0618 157.208 89.9796 157.241C89.8879 157.277 89.7946 157.31 89.7002 157.338C89.6175 157.363 89.5337 157.384 89.4488 157.399C89.2669 157.436 89.483 157.413 89.5347 157.388C89.4805 157.402 89.4247 157.408 89.3692 157.403C89.0896 157.403 88.8214 157.532 88.6237 157.762C88.426 157.991 88.3149 158.303 88.3149 158.627C88.3149 158.952 88.426 159.263 88.6237 159.493C88.8214 159.723 89.0896 159.852 89.3692 159.852V159.855Z" fill="#211715"/>
<path d="M88.1877 156.684C90.1409 157.096 92.1449 157.055 94.0841 156.562C94.96 156.38 95.7602 155.868 96.3618 155.107C96.9406 154.226 97.37 153.225 97.6269 152.158C98.0228 150.647 95.9881 150.001 95.5933 151.507C95.4344 152.227 95.1591 152.905 94.782 153.505C94.3475 153.953 93.8002 154.226 93.2212 154.285C91.7438 154.608 90.2285 154.621 88.747 154.324C88.4775 154.248 88.1933 154.295 87.9523 154.454C87.7113 154.613 87.5316 154.873 87.4497 155.181C87.3775 155.494 87.4144 155.828 87.5525 156.11C87.6907 156.392 87.9189 156.599 88.1877 156.687V156.684Z" fill="#211715"/>
<path d="M89.1411 151.712C90.8422 152.412 92.8278 152.433 94.6137 152.526C95.1857 152.556 95.7613 152.592 96.3343 152.591C97.5061 152.591 99.0358 151.866 99.4801 150.51C99.6647 149.824 99.6493 149.087 99.4364 148.413C99.2235 147.738 98.8249 147.165 98.3026 146.78C97.6703 146.337 96.9735 146.033 96.2468 145.882C94.7476 145.411 93.2617 144.877 91.7836 144.325C90.9012 143.995 90.0209 143.656 89.148 143.284C88.9603 143.204 88.7732 143.123 88.5866 143.039C88.517 143.007 88.0278 142.77 88.2882 142.903C88.0746 142.802 87.8682 142.682 87.671 142.543C86.5282 141.686 85.4697 143.804 86.6067 144.657C87.6277 145.303 88.7114 145.806 89.8348 146.154C91.2971 146.73 92.772 147.264 94.2532 147.77C94.7988 147.957 95.3454 148.141 95.8957 148.308C96.4065 148.464 97.0317 148.537 97.3716 149.061C97.447 149.208 97.5004 149.369 97.5298 149.536C97.572 149.679 97.428 149.733 97.5461 149.61C97.2117 149.943 96.7888 150.132 96.3485 150.145C95.8498 150.145 95.347 150.115 94.8504 150.091C93.1373 150.009 91.3108 150.016 89.6988 149.353C89.4291 149.27 89.142 149.313 88.8994 149.473C88.6568 149.633 88.4782 149.898 88.4021 150.21C88.3335 150.523 88.372 150.855 88.5096 151.136C88.6472 151.416 88.8732 151.624 89.1401 151.716L89.1411 151.712Z" fill="#211715"/>
<path d="M77.0203 140.335C77.7669 140.5 78.5284 140.555 79.2869 140.5C80.0272 140.33 80.7431 140.039 81.4133 139.636C82.0518 139.327 82.7185 139.102 83.4006 138.967L83.5719 138.937C83.3526 138.973 83.5851 138.937 83.6283 138.931C83.7833 138.912 83.9377 138.893 84.0932 138.881C84.2583 138.868 84.4238 138.864 84.5892 138.87C84.6483 138.87 84.7068 138.878 84.7653 138.886C84.5017 138.851 84.7126 138.891 84.7721 138.915C84.9056 138.957 85.0451 138.969 85.1825 138.949C85.3199 138.929 85.4527 138.878 85.5731 138.799C85.6935 138.72 85.7993 138.613 85.8844 138.487C85.9695 138.36 86.0323 138.215 86.0691 138.06C86.106 137.905 86.1161 137.743 86.0991 137.583C86.082 137.423 86.038 137.269 85.9697 137.13C85.9013 136.99 85.8099 136.867 85.7007 136.768C85.5914 136.669 85.4665 136.596 85.333 136.553C84.7095 136.378 84.0605 136.363 83.4317 136.511C82.7163 136.604 82.0121 136.79 81.3321 137.065C80.9716 137.216 80.6158 137.383 80.2621 137.554C80.046 137.66 79.83 137.766 79.6142 137.872C79.6142 137.872 79.3612 137.994 79.4213 137.968C79.5099 137.925 79.3069 138.02 79.2832 138.029C79.2349 138.046 79.1858 138.06 79.1361 138.07C79.3544 138.004 79.1625 138.065 79.0955 138.07C78.9306 138.078 78.7661 138.081 78.6011 138.076C78.3997 138.069 78.1989 138.053 77.9986 138.031C77.9179 138.022 77.8373 138.012 77.7572 138.001C77.3761 137.953 77.9374 138.035 77.579 137.972C77.3095 137.897 77.0254 137.943 76.7844 138.103C76.5435 138.262 76.3639 138.522 76.2823 138.829C76.21 139.143 76.2469 139.477 76.385 139.759C76.5232 140.041 76.7514 140.248 77.0203 140.336V140.335Z" fill="#211715"/>
<path d="M97.9975 133.185C97.0702 133.608 96.0878 133.846 95.092 133.888C94.0098 133.897 92.9435 133.661 91.855 133.717C90.0016 133.812 87.9126 134.268 86.3939 135.576C84.7771 137.058 83.3512 138.8 82.1596 140.75C81.8477 141.169 81.6211 141.663 81.4965 142.197C81.3719 142.731 81.3526 143.291 81.44 143.835C81.547 144.312 81.741 144.757 82.0089 145.139C82.2768 145.522 82.6124 145.833 82.9929 146.052C85.3866 147.301 87.25 144.691 88.844 143.092C89.8719 142.06 88.3749 140.334 87.3528 141.361C86.589 142.128 85.91 143.248 84.9512 143.701C84.4241 143.949 83.7731 144.025 83.5311 143.402C83.2338 142.636 84.2891 141.536 84.6908 140.979C85.3475 140.046 86.0561 139.165 86.812 138.34C88.2419 136.907 90.0743 136.132 91.963 136.16C93.0858 136.113 94.198 136.383 95.315 136.329C96.4249 136.262 97.5193 135.997 98.5605 135.546C99.8256 135.013 99.28 132.646 98.0002 133.185H97.9975Z" fill="#211715"/>
<path d="M99.7541 150.089C100.182 149.764 100.62 149.457 101.06 149.157C101.409 148.904 101.769 148.672 102.139 148.462L101.887 148.585C102.174 148.458 102.467 148.349 102.763 148.258C102.897 148.215 103.022 148.142 103.131 148.043C103.24 147.944 103.332 147.822 103.4 147.682C103.469 147.542 103.513 147.388 103.53 147.228C103.547 147.069 103.537 146.907 103.5 146.752C103.463 146.597 103.4 146.452 103.315 146.325C103.23 146.198 103.124 146.092 103.004 146.012C102.884 145.933 102.751 145.882 102.613 145.862C102.476 145.842 102.337 145.854 102.203 145.897C101.802 146.022 101.408 146.181 101.027 146.372C100.802 146.494 100.587 146.646 100.371 146.79C99.8026 147.167 99.2386 147.557 98.6898 147.973C98.5703 148.054 98.4656 148.162 98.3819 148.29C98.2982 148.418 98.2371 148.564 98.202 148.72C98.1668 148.875 98.1584 149.037 98.1773 149.197C98.1961 149.356 98.2417 149.509 98.3116 149.648C98.3815 149.787 98.4742 149.908 98.5845 150.006C98.6948 150.103 98.8206 150.174 98.9545 150.215C99.0884 150.255 99.228 150.265 99.3652 150.243C99.5024 150.222 99.6345 150.169 99.7541 150.087V150.089Z" fill="#211715"/>
<path d="M167.795 174.8C167.31 175.75 166.474 177.439 166.077 178.441C164.39 182.694 163.889 184.555 163.772 189.545C163.718 190.326 163.775 191.112 163.941 191.871C164.155 192.409 164.489 192.871 164.909 193.207C165.33 193.543 165.82 193.742 166.329 193.782L167.042 193.805C167.01 194.511 166.984 195.267 166.971 196.104C166.949 197.374 166.827 197.83 166.809 199.103C166.792 200.256 167 201.768 167.916 202.24C168.308 202.397 168.735 202.396 169.126 202.237C169.518 202.078 169.852 201.77 170.074 201.363C170.131 201.833 170.166 202.119 170.166 202.119C170.206 202.477 170.32 202.817 170.498 203.113C170.676 203.408 170.913 203.649 171.189 203.815C171.628 203.997 172.109 203.993 172.546 203.804C172.983 203.615 173.349 203.253 173.579 202.781C173.743 202.406 173.861 202.006 173.928 201.593C174.015 201.837 174.067 201.981 174.067 201.981C174.464 203.076 176.225 203.458 176.955 202.62C177.405 201.963 177.644 201.145 177.631 200.305C177.666 199.853 177.701 199.405 177.736 198.959L178.07 199.771C178.377 200.518 179.446 200.625 180.031 200.27C180.331 200.028 180.574 199.701 180.736 199.321C181.557 196.91 181.973 191.352 182.081 190.228C182.301 187.331 182.346 184.42 182.217 181.515C182.136 179.78 182.032 178.046 181.904 176.312L181.851 173.307L168.79 172.559L167.795 174.8Z" fill="white"/>
<path d="M75.472 137.788C75.103 137.616 74.7393 137.447 74.403 137.294L73.0409 136.707C71.351 141.948 69.7422 147.217 68.1387 152.493L69.6984 153.072L72.7995 154.325C74.5248 149.254 76.2332 143.072 77.347 138.638C76.783 138.395 76.1193 138.088 75.472 137.788Z" fill="white"/>
<path d="M99.8899 133.097L100.768 132.749C100.768 132.749 101.201 132.636 101.772 132.486C103.652 137.135 105.344 141.88 106.846 146.719L106.018 147.025L103.019 148.332C101.081 143.634 99.4079 138.794 98.0112 133.843L99.8899 133.097Z" fill="white"/>
<path d="M43.7045 42.574C43.6866 46.1085 43.6518 51.0143 46.3817 52.8782C46.9337 53.223 47.3713 53.771 47.6258 54.4361C48.2377 56.223 46.9141 56.9576 46.0707 57.937C45.5425 58.5683 45.1556 59.3403 44.9437 60.1854C44.7977 62.0922 44.1947 66.3644 43.0772 68.6183C42.385 70.1704 41.2016 71.3504 39.7758 71.9104C37.4646 72.771 35.0039 72.9411 32.6212 72.405C32.3924 72.3325 32.1489 72.356 31.9336 72.4715C31.7183 72.5869 31.5449 72.7869 31.4441 73.0361C30.4399 75.6108 29.004 78.9127 28.5881 80.118L28.2982 80.961L28.0051 80.672C23.2125 75.9414 17.8981 75.6524 11.0349 73.1237L11.1756 69.0994C11.2162 68.3819 11.1358 67.662 10.939 66.9802C14.4396 65.5417 19.0298 62.0169 20.5811 58.3043C19.589 57.3628 18.7806 56.1869 18.2099 54.8548C17.6391 53.5226 17.319 52.0647 17.2708 50.5778C17.2407 49.1191 17.5871 47.4742 18.6729 46.7409C19.0417 46.5149 19.4506 46.3912 19.8675 46.3797C20.2844 46.3681 20.6979 46.4689 21.0756 46.6741C21.8385 47.1005 22.4824 47.7683 22.9331 48.6006C23.5725 46.8866 24.4407 44.7079 25.1102 43.0515C25.5319 42.0108 25.8708 41.1795 26.0289 40.7908C26.175 40.4315 26.4506 39.9265 26.7769 39.8114C27.3837 39.6033 28.3662 41.2524 28.945 41.8774C29.1822 41.2781 30.4484 35.7639 31.5479 35.8312C33.5473 35.8869 37.3695 35.8312 39.6962 35.1236L42.928 34.5047C43.0392 34.4509 43.1461 34.3858 43.2475 34.3101C43.8969 36.7341 43.7166 39.9699 43.7045 42.574Z" fill="white"/>
<path d="M135.694 99.3216C141.837 88.3783 147.263 79.2084 154.047 69.6651C154.507 69.1181 154.924 68.5239 155.292 67.8899C155.742 67.1069 156.172 65.8526 156.599 65.0562C156.315 63.9565 155.959 62.8834 155.535 61.8462C149.958 64.6247 145.001 67.4963 140.133 69.4416C140.389 69.8458 140.663 70.2341 140.955 70.6047C139.314 71.0198 138.477 71.4966 138.477 72.7693C138.477 73.262 138.266 77.4093 138.297 78.573C137.625 82.3175 135.893 95.0856 135.694 99.3247L135.694 99.3216Z" fill="white"/>
<path d="M152.502 63.39C153.509 62.8684 154.536 62.3457 155.583 61.8217C155.47 59.718 155.847 57.6179 156.674 55.7418C154.609 55.4376 152.62 54.6425 150.831 53.4061C149.042 52.1696 147.492 50.5183 146.277 48.5553C147.159 47.4959 147.836 46.2303 148.263 44.8429C148.691 43.4556 148.858 41.9784 148.755 40.5099C148.637 39.0744 148.131 37.5104 146.99 36.9368C146.606 36.7654 146.192 36.6998 145.782 36.7453C145.372 36.7907 144.976 36.946 144.627 37.1988C143.923 37.7198 143.36 38.4613 143.004 39.3376C142.049 35.9365 137.918 32.5391 134.728 31.7709C129.821 30.3238 124.943 29.4147 121.556 29.853C121.471 32.0046 121.623 34.1598 122.009 36.2665C122.385 39.7318 122.915 44.5408 120.428 46.7415C119.921 47.1553 119.548 47.7528 119.365 48.4402C118.944 50.2766 120.321 50.8165 121.245 51.6625C121.827 52.2098 122.285 52.9146 122.578 53.715C122.914 55.5662 123.939 59.6749 125.264 61.7341C126.1 63.1625 127.381 64.1587 128.836 64.5133C131.214 65.0605 134.337 64.8463 136.246 63.8589C136.469 63.7455 136.719 63.7301 136.951 63.8158C137.182 63.9015 137.378 64.0822 137.503 64.3241C137.708 64.7189 138.012 65.2558 138.216 65.721L139.967 69.5151L140.133 69.4416C144.101 67.8556 148.128 65.6543 152.502 63.39Z" fill="white"/>
<path d="M131.359 138.131C123.555 142.141 115.579 145.684 107.463 148.746C105.691 142.795 103.628 136.967 101.283 131.289C110.743 126.165 115.889 122.639 125.502 116.37C128.377 113.935 130.009 106.626 130.826 101.08C131.643 95.5343 133.1 87.0818 135.442 82.1547C136.127 80.7167 137.068 79.2849 138.296 78.5718C137.624 82.3157 135.893 95.0776 135.692 99.318C142.467 87.252 148.369 77.342 156.181 66.7103L159.057 68.4292C160.169 69.1711 161.429 70.0722 162.74 71.0614C166.669 74.0205 171.043 77.746 173.215 80.2313C174.666 81.8179 175.911 83.6392 176.914 85.639C177.785 87.6072 178.458 89.6852 178.92 91.8321C182.369 106.071 184.52 117.046 184.89 131.428C185.223 144.332 183.87 158.165 182.614 174.462C179.328 174.716 172.598 174.272 168.003 173.932C167.951 175.333 167.898 176.55 167.85 176.713C167.733 177.121 161.283 178.619 161.283 178.619C155.184 180.247 144.948 178.298 140.59 176.783C140.304 176.689 140.05 176.492 139.865 176.221C139.681 175.95 139.574 175.618 139.561 175.272C139.121 159.644 139.324 151.467 139.88 141.861C140.068 138.622 139.259 132.848 138.792 129.643C138.844 132.347 136.044 135.551 131.359 138.135V138.131Z" fill="#9747FF"/>
<path d="M5.80638 178.338C5.77106 179.072 5.86383 179.817 6.3393 180.113C11.5968 183.847 24.4624 188.05 30.3466 188.299C36.2309 188.547 42.0926 187.545 47.9115 186.545C48.6002 186.515 49.261 186.221 49.7912 185.709C50.1467 185.173 50.3441 184.518 50.3542 183.841C50.8144 179.116 51.5181 167.021 51.4574 162.267C51.4047 158.122 50.6599 153.652 50.4607 151.938L49.7996 146.261C55.5068 149.564 61.4077 152.395 67.4583 154.732C69.3781 148.405 71.2926 142.085 73.3305 135.805C64.5623 130.883 58.3691 126.463 50.1133 120.452C44.3149 113.274 40.4058 102.101 35.056 95.4939C34.3143 94.2084 33.647 93.0453 33.647 93.0453C32.3708 90.822 29.9782 83.6416 28.003 80.6702C23.1134 75.8441 17.6804 75.6402 10.6143 72.967C10.0729 74.932 9.29646 78.3863 8.93907 80.1229C7.20431 84.2243 6.22491 86.3864 4.95085 92.2348C1.9726 105.908 5.41736 120.979 7.50741 134.873C8.55427 141.831 9.72133 150.2 9.65702 157.262C8.38085 165.136 6.46634 168.52 5.80005 178.336L5.80638 178.338Z" fill="#68E8A3"/>
<path d="M138.395 74.9356C138.438 73.8858 138.478 72.9823 138.478 72.768C138.478 71.8009 138.96 71.2934 139.913 70.923L141.083 70.7675C142.167 72.0931 143.316 73.3448 144.524 74.5163L143.608 75.6635C142.923 77.9988 140.149 88.7022 138.977 93.1892V93.532C137.898 95.4121 136.804 97.342 135.694 99.3216C135.894 95.0844 137.626 82.3163 138.298 78.5699C138.281 77.9137 138.34 76.3013 138.395 74.9356Z" fill="#68E8A3"/>
<path d="M166.888 174.181C165.176 177.548 163.542 181.197 163.029 185.102C162.684 187.215 162.605 189.375 162.794 191.514C162.955 192.476 163.393 193.346 164.036 193.981C164.679 194.616 165.488 194.978 166.332 195.009C167.689 195.039 167.689 192.59 166.332 192.56C166.178 192.551 166.026 192.511 165.883 192.442C165.61 192.315 165.364 192.118 165.166 191.864C164.758 191.317 164.814 190.579 164.822 189.896C164.811 188.118 164.952 186.343 165.243 184.598C165.855 181.321 167.251 178.28 168.708 175.415C169.399 174.056 167.578 172.822 166.887 174.18L166.888 174.181Z" fill="#211715"/>
<path d="M166.413 185.555C166.368 187.936 166.183 190.302 166.044 192.676C165.968 193.997 165.956 195.319 165.897 196.641C165.797 197.679 165.754 198.724 165.769 199.769C165.909 201.932 167.105 204.181 169.254 203.474C171.636 202.689 171.553 199.714 171.655 197.394C171.776 194.675 171.955 191.961 172.058 189.241C172.118 187.665 170.009 187.669 169.95 189.241C169.85 191.873 169.679 194.498 169.559 197.129C169.525 197.859 169.503 198.589 169.472 199.319C169.491 199.795 169.394 200.267 169.194 200.683C168.781 201.372 168.213 201.246 168.001 200.51C167.71 199.5 167.886 198.338 167.964 197.304C168.061 196.007 168.048 194.701 168.113 193.402C168.245 190.785 168.47 188.178 168.519 185.555C168.549 183.979 166.441 183.979 166.411 185.555H166.413Z" fill="#211715"/>
<path d="M169.148 202.446C169.257 203.25 169.623 203.977 170.174 204.482C170.724 204.986 171.418 205.231 172.117 205.168C173.799 204.942 174.744 203.404 174.997 201.561C175.268 199.583 175.321 197.545 175.454 195.55C175.589 193.536 175.723 191.523 175.868 189.511C175.982 187.94 173.873 187.949 173.76 189.511C173.542 192.54 173.35 195.571 173.138 198.602C173.086 199.353 173.057 200.114 172.97 200.86C172.962 201.449 172.782 202.018 172.457 202.47C171.834 203.079 171.311 202.628 171.181 201.797C171.105 201.485 170.926 201.22 170.684 201.06C170.441 200.9 170.154 200.857 169.884 200.94C169.617 201.032 169.391 201.24 169.254 201.52C169.116 201.801 169.077 202.133 169.146 202.446H169.148Z" fill="#211715"/>
<path d="M173.155 202.601C173.658 203.811 174.97 204.389 176.07 204.284C177.542 204.144 178.381 202.832 178.591 201.212C178.822 199.419 178.907 197.585 179.05 195.78C179.2 193.889 179.331 191.997 179.407 190.1C179.47 188.525 177.361 188.528 177.299 190.1C177.181 193.027 176.93 195.942 176.69 198.858C176.638 199.488 176.618 200.13 176.532 200.756C176.479 201.152 176.353 201.686 176.155 201.796C175.945 201.879 175.717 201.882 175.506 201.805C175.294 201.728 175.109 201.575 174.977 201.368C174.834 201.09 174.602 200.888 174.333 200.806C174.063 200.724 173.776 200.768 173.534 200.928C173.297 201.097 173.125 201.366 173.055 201.678C172.984 201.99 173.021 202.322 173.156 202.604L173.155 202.601Z" fill="#211715"/>
<path d="M180.85 176.318C181.285 181.127 181.328 185.973 180.977 190.791C180.824 192.517 180.657 194.242 180.389 195.95C180.263 196.842 180.082 197.721 179.848 198.583C179.829 198.709 179.787 198.83 179.727 198.937C179.666 199.044 179.587 199.136 179.494 199.207C179.381 199.268 179.045 199.28 178.981 199.154C178.296 197.796 176.471 199.027 177.16 200.39C177.388 200.813 177.71 201.156 178.092 201.385C178.474 201.614 178.902 201.719 179.331 201.689C179.77 201.679 180.201 201.539 180.581 201.283C180.961 201.027 181.28 200.663 181.506 200.225C182.261 198.87 182.402 196.867 182.606 195.311C183.071 191.88 183.317 188.415 183.341 184.942C183.346 182.061 183.172 179.184 182.959 176.315C182.843 174.757 180.734 174.743 180.85 176.315V176.318Z" fill="#211715"/>
<path d="M130.808 11.7899C130.72 11.8389 130.632 11.8885 130.545 11.9387C127.48 13.7328 125.818 15.808 124.153 18.9434C122.405 22.2355 120.882 26.0174 121.541 29.8561C124.928 29.4154 129.81 30.3244 134.722 31.7727C137.911 32.541 142.042 35.9384 142.998 39.3395C143.354 38.4631 143.917 37.7217 144.621 37.2006C144.97 36.9478 145.366 36.7926 145.776 36.7471C146.186 36.7017 146.6 36.7672 146.984 36.9386C148.125 37.5098 148.63 39.0762 148.749 40.5117C148.852 41.9802 148.684 43.4574 148.257 44.8448C147.83 46.2322 147.153 47.4977 146.271 48.5571C147.487 50.5208 149.038 52.1723 150.829 53.4085C152.619 54.6446 154.609 55.439 156.675 55.7419C157.005 54.9474 157.37 54.1738 157.77 53.4243C158.937 50.9757 159.808 49.7753 161.32 47.0261C163.162 43.6196 163.801 39.5191 163.104 35.579C162.85 34.5695 162.689 33.5317 162.624 32.4828C162.624 31.7923 162.761 31.1116 162.815 30.423C163.002 28.0876 162.271 25.7707 161.276 23.7316C160.143 21.4362 158.691 19.3747 156.978 17.631C154.932 15.5454 152.6 13.8735 150.077 12.6849C145.459 10.4922 140.365 9.8494 135.387 10.2595C133.796 10.457 132.247 10.9749 130.808 11.7899Z" fill="#B5B2B1"/>
<path d="M25.1106 43.0515C25.5323 42.0108 25.8712 41.1796 26.0294 40.7908C26.1754 40.4315 26.4511 39.9265 26.7774 39.8114C27.3841 39.6033 28.3666 41.2524 28.9454 41.8774C29.1826 41.2781 30.4488 35.7639 31.5484 35.8312C33.5477 35.887 37.3699 35.8313 39.6966 35.1236L42.9284 34.5047C44.2231 33.8773 44.668 31.8541 44.5736 30.2289C44.3883 28.7062 43.8552 27.2688 43.0297 26.0663C41.8452 24.6623 40.5462 23.3949 39.1511 22.2821C37.4156 21.0412 35.5807 19.9983 33.6721 19.1681C28.3139 16.3357 12.2783 14.7496 5.86687 25.7805C2.70044 29.0891 1.22818 34.3952 1.06055 41.7703C0.892926 49.1454 5.55112 58.6655 8.99641 63.27C9.82312 64.3679 10.4811 65.6227 10.9415 66.9796C14.44 65.5417 19.0302 62.0169 20.5815 58.3043C19.5894 57.3628 18.7811 56.1869 18.2103 54.8548C17.6396 53.5226 17.3194 52.0647 17.2712 50.5778C17.2412 49.1191 17.5875 47.4742 18.6734 46.7409C19.0422 46.5149 19.451 46.3912 19.8679 46.3797C20.2848 46.3681 20.6983 46.4689 21.076 46.6742C21.8389 47.1005 22.4828 47.7683 22.9336 48.6006C23.573 46.8841 24.4411 44.708 25.1106 43.0515Z" fill="#B5B2B1"/>
<path d="M143.919 39.9302C144.413 38.8589 145.553 37.3237 146.727 38.1549C147.644 38.805 147.749 40.4719 147.732 41.5781C147.699 43.0435 147.364 44.4784 146.753 45.7612C146.142 47.0439 145.273 48.1367 144.221 48.947C143.088 49.804 144.143 51.9227 145.286 51.0614C146.796 49.9269 148.013 48.3386 148.807 46.4652C149.602 44.5917 149.945 42.5032 149.799 40.4217C149.612 38.3918 148.797 36.1893 146.938 35.628C144.868 35.0036 143.028 36.6846 142.101 38.6961C141.461 40.085 143.281 41.3234 143.921 39.932L143.919 39.9302Z" fill="#211715"/>
<path d="M123.525 57.2331C124.52 57.2115 125.502 56.9603 126.413 56.4942C126.909 56.2524 127.354 55.8867 127.715 55.4229C127.906 55.1885 128.016 54.8803 128.024 54.5574C128.024 54.3153 127.962 54.0786 127.846 53.8773C127.73 53.676 127.566 53.5192 127.373 53.4265C127.181 53.3339 126.969 53.3096 126.764 53.3569C126.56 53.4041 126.372 53.5206 126.224 53.6918C126.171 53.7643 126.115 53.8328 126.054 53.8969C126.02 53.9336 125.984 53.9673 125.949 54.0022C125.824 54.1246 126.165 53.8142 126.075 53.8901L126.003 53.9513C125.768 54.1412 125.515 54.3013 125.251 54.4288L125.503 54.3064C125.023 54.5311 124.521 54.6831 124.008 54.7588L124.288 54.7153C124.035 54.7538 123.78 54.7773 123.525 54.7857C123.245 54.7857 122.977 54.9147 122.779 55.1443C122.582 55.3739 122.471 55.6853 122.471 56.01C122.471 56.3347 122.582 56.6461 122.779 56.8757C122.977 57.1053 123.245 57.2343 123.525 57.2343L123.525 57.2331Z" fill="#211715"/>
<path d="M125.473 40.9818C125.303 42.0255 125.664 44.3388 127.25 44.3548C129.324 44.0977 129.2 41.2647 128.389 40.0196C127.727 39.0003 126.008 38.7451 125.473 40.9818Z" fill="#211715"/>
<path d="M120.474 30.6299C120.436 34.3425 121.436 37.9456 121.253 41.6644C121.182 43.0986 120.891 44.6253 119.935 45.6255C119.34 46.1508 118.854 46.8238 118.512 47.5954C118.336 48.0291 118.242 48.5018 118.237 48.9813C118.233 49.4608 118.317 49.9358 118.485 50.374C119.075 51.818 120.55 52.2104 121.279 53.5081C121.538 54.0491 121.716 54.6374 121.806 55.2478C121.982 56.0265 122.181 56.797 122.405 57.5593C123.375 60.8722 124.839 64.3388 127.916 65.5019C129.647 66.0639 131.459 66.2097 133.24 65.9304C134.129 65.8386 135.008 65.6379 135.861 65.3317C136.03 65.2705 136.197 65.1952 136.362 65.1174C136.67 64.9724 136.721 65.0562 136.586 64.9411C136.891 65.356 137.132 65.8288 137.299 66.3387C137.935 67.7307 139.756 66.4948 139.119 65.1028C138.77 64.3394 138.371 63.352 137.712 62.8935C136.904 62.3297 136.201 62.6132 135.386 62.937C133.897 63.4808 132.332 63.6916 130.775 63.5583C129.356 63.4744 127.982 63.1996 126.903 62.042C125.925 60.8849 125.19 59.4814 124.756 57.9407C124.319 56.5362 123.946 55.1059 123.638 53.6557C123.241 51.9123 122.093 50.901 120.902 49.9038C120.62 49.6669 120.326 49.4245 120.332 48.9887C120.343 48.1225 121.222 47.6322 121.663 47.0873C122.584 45.8582 123.148 44.3222 123.272 42.6989C123.727 38.6367 122.539 34.6798 122.581 30.6299C122.597 29.0536 120.489 29.053 120.472 30.6299H120.474Z" fill="#211715"/>
<path d="M145.956 50.0832C148.237 53.3731 151.403 55.6793 154.947 56.6332C155.216 56.7125 155.502 56.6677 155.744 56.5079C155.985 56.3481 156.164 56.0859 156.243 55.7761C156.314 55.4629 156.277 55.1298 156.139 54.8483C156.001 54.5667 155.774 54.3592 155.505 54.2703C152.318 53.4149 149.476 51.3275 147.445 48.3502C147.247 48.1225 146.979 47.9948 146.7 47.9948C146.421 47.9948 146.153 48.1225 145.954 48.3502C145.763 48.5835 145.656 48.8936 145.656 49.2161C145.656 49.5386 145.763 49.8487 145.954 50.082L145.956 50.0832Z" fill="#211715"/>
<path d="M134.444 32.9511C136.954 33.6714 139.21 35.2778 140.9 37.5489C141.127 37.8544 141.33 38.1821 141.507 38.5284C141.61 38.7236 141.706 38.9232 141.794 39.1289C141.794 39.1332 141.934 39.4821 141.859 39.2764C141.898 39.3848 141.931 39.4962 141.964 39.607C142.044 39.916 142.223 40.1775 142.465 40.3371C142.706 40.4966 142.991 40.5421 143.261 40.464C143.529 40.3754 143.757 40.1679 143.895 39.8861C144.033 39.6043 144.071 39.2708 143.999 38.9575C143.329 36.7329 141.89 34.9859 140.306 33.5786C138.747 32.1464 136.938 31.1272 135.004 30.5925C134.734 30.5139 134.449 30.5591 134.207 30.7188C133.966 30.8784 133.786 31.1402 133.707 31.4495C133.635 31.7628 133.673 32.096 133.811 32.3775C133.949 32.6591 134.176 32.8666 134.445 32.9554L134.444 32.9511Z" fill="#211715"/>
<path d="M126.768 30.1401C126.772 29.9865 126.779 29.8341 126.792 29.681C126.792 29.667 126.828 29.375 126.801 29.5702C126.775 29.7655 126.813 29.4998 126.819 29.4607C126.865 29.1593 126.928 28.8618 127.008 28.57C127.048 28.4237 127.093 28.2805 127.139 28.1366C127.232 27.844 127.043 28.3723 127.155 28.0895C127.176 28.0338 127.198 27.9774 127.22 27.9223C127.34 27.6315 127.475 27.3497 127.625 27.0788C127.697 26.9503 127.776 26.8272 127.85 26.7005C127.933 26.5567 127.692 26.9227 127.854 26.6926C127.896 26.6313 127.937 26.5738 127.981 26.5156C128.152 26.2825 128.336 26.0623 128.531 25.8564C128.628 25.7529 128.731 25.6568 128.831 25.5582C128.932 25.4597 128.673 25.6843 128.838 25.5546C128.891 25.5117 128.944 25.4658 129 25.423C129.23 25.2431 129.47 25.0815 129.719 24.9394C129.959 24.7742 130.133 24.5057 130.204 24.1922C130.275 23.8786 130.236 23.5453 130.096 23.2645C129.951 22.9902 129.72 22.7915 129.451 22.7098C129.182 22.628 128.897 22.6695 128.654 22.8256C127.49 23.524 126.506 24.5694 125.804 25.8548C125.102 27.1401 124.707 28.6191 124.659 30.1401C124.662 30.464 124.773 30.7738 124.971 31.0028C125.168 31.2319 125.435 31.3617 125.713 31.3644C125.991 31.358 126.256 31.227 126.453 30.9987C126.649 30.7705 126.762 30.4628 126.768 30.1401Z" fill="#211715"/>
<path d="M130.599 30.9041C130.657 30.8055 130.724 30.7125 130.779 30.6121C130.757 30.6519 130.639 30.8166 130.727 30.6905C130.759 30.6439 130.791 30.5974 130.825 30.5521C130.951 30.3783 131.084 30.2116 131.223 30.052C131.37 29.8843 131.523 29.7249 131.683 29.5739C131.714 29.5439 131.748 29.5127 131.779 29.4845C131.559 29.7006 131.683 29.5715 131.738 29.5243C131.821 29.4539 131.906 29.3854 131.992 29.3193C132.155 29.1944 132.323 29.0777 132.495 28.9691C132.577 28.9181 132.659 28.8691 132.742 28.8222C132.789 28.7959 132.836 28.7708 132.882 28.7457C132.918 28.7267 133.093 28.6404 132.926 28.7212C132.759 28.802 132.948 28.712 132.972 28.7016L133.087 28.6508C133.183 28.61 133.281 28.5716 133.38 28.5357C133.576 28.4641 133.776 28.4053 133.977 28.3557C134.246 28.2679 134.474 28.0606 134.612 27.7787C134.75 27.4969 134.787 27.1631 134.715 26.8499C134.635 26.5406 134.456 26.2788 134.215 26.1192C133.973 25.9595 133.688 25.9143 133.418 25.9929C131.525 26.4849 129.865 27.7989 128.779 29.6657C128.64 29.9464 128.601 30.2798 128.672 30.5934C128.743 30.907 128.917 31.1755 129.157 31.3406C129.4 31.4967 129.686 31.5382 129.954 31.4564C130.223 31.3747 130.454 31.176 130.6 30.9016L130.599 30.9041Z" fill="#211715"/>
<path d="M122.517 29.2972C122.152 25.8459 123.437 22.6652 124.945 19.7869C126.104 17.4013 127.74 15.3737 129.714 13.8749C130.863 13.04 132.104 12.3895 133.404 11.9411C134.799 11.5235 136.238 11.3307 137.679 11.3681C140.768 11.2952 143.851 11.7382 146.832 12.6836C152.361 14.4894 157.495 18.4617 160.363 24.3474C161.125 25.7855 161.605 27.4005 161.769 29.0781C161.793 29.9211 161.745 30.7649 161.627 31.597C161.538 32.57 161.597 33.5535 161.801 34.5029C162.158 36.0863 162.33 37.7185 162.312 39.3554C162.249 40.9421 161.965 42.5065 161.472 43.9881C160.839 45.6635 160.041 47.2482 159.093 48.7101C158.307 50.0507 157.561 51.4036 156.858 52.8036C155.227 56.0547 154.108 59.3608 154.687 63.1831C154.763 63.4951 154.941 63.7599 155.184 63.9203C155.427 64.0806 155.714 64.1237 155.984 64.0401C156.25 63.948 156.476 63.74 156.613 63.4594C156.751 63.1787 156.79 62.8473 156.722 62.5342C156.201 59.0939 157.613 56.1397 159.053 53.2792C160.476 50.4529 162.378 47.9425 163.428 44.8769C164.516 41.6317 164.719 38.077 164.011 34.6933C163.774 33.7864 163.672 32.8394 163.708 31.8927C163.833 30.9623 163.891 30.0214 163.881 29.0799C163.737 27.2413 163.274 25.4556 162.52 23.8308C159.673 17.3629 154.187 12.8122 148.318 10.6458C145.224 9.53654 142.008 8.95627 138.77 8.92322C137.192 8.84566 135.612 8.95209 134.053 9.24092C132.577 9.5854 131.152 10.1759 129.822 10.9941C127.229 12.5773 125.05 14.9387 123.511 17.8324C121.648 21.2077 119.973 25.1781 120.409 29.2997C120.417 29.6213 120.531 29.9271 120.727 30.1546C120.923 30.3822 121.186 30.5143 121.463 30.524C121.742 30.5219 122.009 30.3922 122.206 30.1631C122.404 29.9339 122.515 29.6237 122.517 29.2997V29.2972Z" fill="#211715"/>
<path d="M4.75195 178.338C4.69213 179.095 4.84487 179.854 5.18735 180.502C5.56574 181.015 6.04064 181.419 6.57527 181.684C7.48087 182.261 8.4202 182.767 9.36903 183.239C11.6903 184.382 14.0628 185.379 16.4762 186.225C20.8667 187.788 25.5043 189.241 30.1124 189.511C33.6508 189.653 37.1932 189.455 40.7034 188.918C42.5183 188.673 44.3284 188.381 46.1365 188.076C47.5597 187.836 49.4574 187.862 50.5369 186.574C51.385 185.565 51.3977 184.039 51.511 182.718C51.6091 181.574 51.6945 180.429 51.7746 179.284C51.9756 176.403 52.1438 173.52 52.279 170.634C52.4087 167.89 52.5426 165.135 52.5141 162.385C52.4767 158.752 51.9053 155.197 51.4778 151.612C51.4024 151.299 51.224 151.034 50.9812 150.874C50.7384 150.713 50.4509 150.67 50.1811 150.755C49.9152 150.848 49.6903 151.056 49.5529 151.336C49.4156 151.617 49.3762 151.947 49.4431 152.261C49.7905 155.178 50.2412 158.064 50.3672 161.014C50.4663 163.335 50.373 165.666 50.2834 167.989C50.0888 173.02 49.8158 178.059 49.3709 183.069C49.3555 183.556 49.2916 184.039 49.1806 184.508C48.9887 185.139 48.4231 185.21 47.9118 185.311C46.2904 185.63 44.6531 185.876 43.0238 186.129C39.6827 186.689 36.3157 187.015 32.941 187.108C28.3666 187.18 23.9598 186.121 19.5636 184.721C16.962 183.902 14.3979 182.931 11.8813 181.81C10.8444 181.343 9.82025 180.842 8.81976 180.28C8.36275 180.022 7.91047 179.753 7.46716 179.465C7.25172 179.367 7.05075 179.231 6.87151 179.061C6.95427 179.183 6.91632 179.112 6.89787 179.069C6.83882 178.833 6.82603 178.585 6.86044 178.343C6.90683 176.767 4.79833 176.769 4.75195 178.343V178.338Z" fill="#211715"/>
<path d="M28.751 79.8065C23.6685 74.8481 17.0062 74.0829 10.8973 71.7874C10.6276 71.7067 10.3414 71.751 10.0993 71.9109C9.85723 72.0709 9.67819 72.3339 9.60008 72.6444C9.18893 74.1515 8.83417 75.6794 8.48891 77.2079C8.33709 77.8809 8.18915 78.5542 8.04507 79.228C7.87144 79.8862 7.63765 80.5209 7.34768 81.1213C4.73646 87.1348 3.19948 93.6994 2.82917 100.42C2.64908 104.35 2.75683 108.291 3.15125 112.199C3.88922 120.148 5.4105 127.957 6.58704 135.824C7.14896 139.579 7.68135 143.342 8.06299 147.128C8.25381 149.025 8.40931 150.929 8.50577 152.837C8.59328 154.573 8.753 156.388 8.44674 158.098C7.89431 161.179 7.08043 164.175 6.37883 167.211C5.54642 170.855 5.00124 174.579 4.75001 178.337C4.6409 179.907 6.74992 179.899 6.85851 178.337C7.07832 175.058 7.54037 171.808 8.23958 168.621C8.82732 165.968 9.5479 163.357 10.1019 160.695C10.2593 159.937 10.4048 159.176 10.5384 158.411C10.6814 157.529 10.7386 156.632 10.7092 155.735C10.6823 153.868 10.5821 152.001 10.4387 150.142C10.1425 146.298 9.66545 142.472 9.12831 138.664C8.04032 130.946 6.56279 123.299 5.61977 115.556C4.68096 107.847 4.35467 99.8854 6.03251 92.2801C6.72916 89.0462 7.7047 85.9021 8.94434 82.8953C9.24322 82.1773 9.5674 81.4709 9.85205 80.7455C10.0917 79.9854 10.275 79.2029 10.3997 78.4065C10.7808 76.6925 11.173 74.9834 11.6337 73.2975L10.3365 74.1545C16.0199 76.2891 22.5304 76.9263 27.2603 81.5425C28.2924 82.5501 29.7905 80.8269 28.751 79.8114V79.8065Z" fill="#211715"/>
<path d="M12.1765 100.176C10.6421 112.052 18.1093 122.397 25.1918 129.797C28.7953 133.522 32.6543 136.9 36.7305 139.898C38.9834 141.576 41.4883 142.83 43.882 144.221C46.1639 145.546 48.4479 146.869 50.751 148.145C56.0784 151.138 61.5656 153.732 67.1788 155.909C67.4484 155.989 67.7342 155.945 67.9761 155.785C68.2179 155.625 68.3969 155.362 68.4755 155.052C70.3942 148.727 72.3124 142.402 74.3471 136.126C74.409 135.865 74.395 135.589 74.3074 135.339C74.2198 135.088 74.0635 134.879 73.8627 134.743C66.3635 130.419 59.071 125.628 52.0171 120.39C51.5682 120.11 51.1392 119.788 50.7341 119.428C50.3989 119.046 50.0872 118.637 49.8011 118.204C49.2595 117.462 48.7409 116.699 48.245 115.916C47.1697 114.222 46.1739 112.463 45.2088 110.683C43.3027 107.166 41.5263 103.552 39.5084 100.117C37.4764 96.6594 35.1649 93.2559 32.0707 91.0093C30.9169 90.1713 29.8568 92.2893 31.0065 93.1237C33.6236 95.0213 35.6225 97.9045 37.3673 100.813C39.4067 104.213 41.1826 107.814 43.0697 111.328C44.0312 113.118 45.0201 114.891 46.0806 116.603C46.6028 117.446 47.1444 118.273 47.7052 119.084C48.2256 119.929 48.8193 120.709 49.4769 121.413C50.3773 122.165 51.3161 122.853 52.288 123.473C53.2144 124.143 54.1423 124.81 55.0718 125.474C56.7842 126.696 58.5071 127.898 60.2402 129.08C64.3392 131.863 68.5259 134.457 72.8006 136.862L72.3161 135.479C70.2814 141.755 68.3627 148.081 66.4445 154.406L67.7412 153.549C58.0948 149.876 49.1285 144.494 40.0598 139.273C37.9085 137.948 35.8468 136.436 33.8925 134.749C32.0591 133.253 30.2868 131.664 28.5754 129.982C24.9617 126.564 21.7248 122.641 18.938 118.303C15.8548 113.303 13.3968 107.139 14.2123 100.83C14.2776 100.517 14.2376 100.187 14.1004 99.9071C13.9633 99.6273 13.7393 99.4187 13.4743 99.3241C13.2045 99.2401 12.917 99.283 12.6742 99.4434C12.4314 99.6038 12.2528 99.8688 12.1771 100.181L12.1765 100.176Z" fill="#211715"/>
<path d="M27.8153 89.3688C24.8845 87.8917 21.5663 87.2758 18.4815 88.5203C17.2039 89.014 16.0291 89.8121 15.0323 90.8633C14.0355 91.9145 13.2386 93.1958 12.6926 94.6252C12.5607 94.908 12.5264 95.2385 12.5967 95.5496C12.667 95.8606 12.8366 96.129 13.0711 96.3001C13.3129 96.4617 13.5998 96.5062 13.8697 96.4241C14.1396 96.3419 14.3708 96.1397 14.5133 95.8612C14.9248 94.7083 15.5408 93.6691 16.3211 92.8111C17.1015 91.953 18.0287 91.2956 19.0424 90.8814C21.5862 89.9547 24.3369 90.1694 26.751 91.4831C26.9944 91.6368 27.2791 91.677 27.547 91.5954C27.815 91.5139 28.0461 91.3167 28.1933 91.0442C28.3324 90.7633 28.3708 90.43 28.3001 90.1165C28.2294 89.803 28.0552 89.5344 27.8153 89.3688Z" fill="#211715"/>
<path d="M45.1699 187.065C44.3065 192.29 43.7551 197.601 43.0446 202.858C42.9228 203.758 42.8132 204.661 42.6656 205.556C42.411 207.095 44.4425 207.755 44.6987 206.206C45.5621 200.981 46.1135 195.67 46.8241 190.413C46.9458 189.514 47.0555 188.61 47.2031 187.715C47.4577 186.176 45.4256 185.516 45.1699 187.065V187.065Z" fill="#211715"/>
<path d="M7.14047 181.675C6.86373 184.17 6.84423 186.73 6.72932 189.24C6.56169 192.918 6.40232 196.597 6.25121 200.277C6.19534 201.601 6.14105 202.924 6.08043 204.247C6.00821 205.822 8.11671 205.818 8.18892 204.247C8.48517 197.798 8.71605 191.344 9.04655 184.896C9.1019 183.825 9.13089 182.741 9.24897 181.675C9.24758 181.351 9.13607 181.041 8.93866 180.811C8.74125 180.582 8.4739 180.453 8.19472 180.451C7.91731 180.459 7.65317 180.591 7.45694 180.818C7.26072 181.046 7.14742 181.353 7.14047 181.675Z" fill="#211715"/>
<path d="M134.64 99.0578C134.566 103.088 134.318 107.138 134.604 111.166C134.922 114.607 135.454 118.017 136.195 121.369C136.81 124.461 137.429 127.537 137.878 130.667C138.442 134.001 138.768 137.384 138.855 140.78C138.855 143.646 138.569 146.534 138.464 149.397C138.349 152.529 138.286 155.663 138.274 158.798C138.256 162.56 138.301 166.323 138.379 170.084C138.401 171.118 138.425 172.153 138.451 173.187C138.48 174.31 138.336 175.657 138.849 176.663C139.509 177.955 140.921 178.188 142.076 178.51C145.194 179.365 148.364 179.945 151.557 180.245C154.871 180.568 158.299 180.65 161.563 179.8C162.887 179.456 162.326 177.094 161.003 177.439C158.28 178.042 155.498 178.197 152.738 177.897C149.904 177.685 147.085 177.244 144.304 176.578C143.222 176.342 142.152 176.043 141.096 175.68C140.394 175.422 140.6 174.676 140.58 173.922C140.551 172.825 140.524 171.729 140.5 170.633C140.419 166.903 140.369 163.172 140.379 159.44C140.395 153.569 140.633 147.72 140.936 141.861C141.109 138.518 140.604 135.095 140.161 131.803C139.767 128.885 139.286 126.009 138.711 123.131C137.984 119.496 137.135 115.816 136.789 112.099C136.386 107.771 136.668 103.397 136.748 99.0602C136.777 97.484 134.669 97.4846 134.64 99.0602L134.64 99.0578Z" fill="#211715"/>
<path d="M158.527 69.4863C161.448 71.4635 164.279 73.6169 167.006 75.9377C169.32 77.7934 171.474 79.905 173.437 82.2428C174.544 83.5849 175.484 85.0997 176.231 86.7433C176.941 88.4791 177.503 90.2918 177.907 92.1553C178.851 96.0344 179.752 99.9295 180.562 103.847C182.1 111.124 183.119 118.536 183.609 126.007C183.996 133.289 183.966 140.592 183.521 147.87C183.042 156.749 182.246 165.602 181.562 174.462L182.616 173.238C180.108 173.367 177.595 173.342 175.089 173.162C172.335 173.025 169.584 172.828 166.834 172.62C165.48 172.518 165.486 174.966 166.834 175.068C169.584 175.277 172.335 175.473 175.089 175.611C177.595 175.791 180.108 175.816 182.616 175.687C182.893 175.677 183.156 175.545 183.352 175.317C183.548 175.09 183.662 174.784 183.67 174.462C184.862 159.029 186.557 143.488 185.821 127.968C185.432 120.287 184.485 112.659 182.989 105.163C182.222 101.256 181.344 97.3787 180.423 93.5167C179.499 89.6436 178.573 85.8214 176.434 82.5832C174.402 79.5071 171.829 77.0739 169.171 74.7649C166.107 72.0822 162.908 69.6138 159.591 67.3726C158.414 66.5842 157.35 68.6985 158.527 69.4863Z" fill="#211715"/>
<path d="M158.778 104.926V104.921L156.745 105.572C158.801 111.823 160.83 118.088 162.889 124.338C163.499 126.19 164.111 128.042 164.727 129.891C165.629 132.609 166.466 135.33 166.561 138.266C166.739 143.694 166.103 149.128 165.774 154.532C165.382 160.961 165.385 167.415 165.782 173.843C165.878 175.406 167.988 175.418 167.89 173.843C167.521 168.059 167.481 162.253 167.773 156.463C168.061 150.971 168.679 145.49 168.693 139.983C168.725 137.242 168.359 134.514 167.609 131.915C166.953 129.669 166.169 127.469 165.439 125.254C164.062 121.083 162.691 116.91 161.327 112.733C160.475 110.13 159.632 107.523 158.776 104.921C158.695 104.612 158.516 104.352 158.275 104.192C158.033 104.033 157.749 103.987 157.479 104.064C157.21 104.152 156.982 104.359 156.844 104.641C156.706 104.923 156.669 105.257 156.741 105.57V105.575C156.822 105.883 157.001 106.144 157.242 106.304C157.484 106.463 157.768 106.509 158.038 106.432C158.307 106.344 158.535 106.136 158.673 105.854C158.811 105.573 158.848 105.239 158.776 104.926H158.778Z" fill="#211715"/>
<path d="M156.336 66.3601C158.048 68.8087 159.612 71.4409 160.451 74.4698L160.936 73.0876C158.477 75.0742 155.92 76.8933 153.279 78.5357C153.143 78.6331 153.027 78.7647 152.94 78.921C152.854 79.0772 152.798 79.254 152.778 79.4384C152.758 79.6229 152.773 79.8102 152.823 79.9867C152.874 80.1632 152.957 80.3244 153.068 80.4584C153.797 81.5588 154.461 82.7152 155.055 83.9195L155.22 82.4362C154.48 83.4012 153.678 84.2986 152.82 85.1205C151.528 86.4372 150.201 87.7099 148.867 88.9703C146.069 91.6135 143.229 94.1968 140.372 96.7525C140.138 96.9236 139.968 97.192 139.898 97.503C139.828 97.8141 139.862 98.1446 139.994 98.4273C140.137 98.7061 140.368 98.9085 140.638 98.9908C140.908 99.0731 141.195 99.0285 141.436 98.8668C144.388 96.2266 147.324 93.5632 150.215 90.8355C151.56 89.5671 152.897 88.2865 154.202 86.9618C155.099 86.1075 155.938 85.1732 156.71 84.1674C156.869 83.972 156.971 83.7231 157 83.4565C157.03 83.1899 156.986 82.9193 156.875 82.6836C156.181 81.3052 155.408 79.9834 154.559 78.7273L154.346 80.65C156.986 79.0072 159.543 77.1882 162.002 75.2019C162.2 75.0621 162.354 74.8522 162.441 74.6033C162.528 74.3543 162.544 74.0794 162.487 73.8191C161.529 70.3654 159.78 67.4228 157.829 64.629C157.63 64.4012 157.363 64.2735 157.084 64.2735C156.805 64.2735 156.537 64.4012 156.338 64.629C156.146 64.862 156.039 65.1721 156.039 65.4945C156.039 65.817 156.146 66.1271 156.338 66.3601H156.336Z" fill="#211715"/>
<path d="M137.766 77.5146C135.894 78.6691 134.732 80.8814 133.88 83.0582C133.063 85.1979 132.391 87.4083 131.869 89.6693C130.805 94.1141 130.225 98.6501 129.421 103.157C129.028 105.481 128.482 107.767 127.787 109.994C127.216 111.769 126.486 113.657 125.29 114.987C124.517 115.844 123.372 116.359 122.443 116.965C121.435 117.626 120.425 118.286 119.416 118.946C117.567 120.154 115.716 121.358 113.854 122.54C109.557 125.266 105.189 127.831 100.752 130.233C100.514 130.401 100.342 130.67 100.272 130.982C100.201 131.295 100.237 131.627 100.373 131.909C102.674 137.493 104.701 143.224 106.447 149.073C106.525 149.384 106.704 149.647 106.946 149.807C107.188 149.967 107.474 150.011 107.744 149.93C115.948 146.839 124.008 143.254 131.892 139.191C132.132 139.026 132.306 138.757 132.377 138.444C132.448 138.131 132.409 137.797 132.27 137.516C132.124 137.242 131.893 137.044 131.624 136.962C131.356 136.88 131.07 136.921 130.827 137.077C123.108 141.047 115.216 144.55 107.183 147.569L108.48 148.426C106.673 142.376 104.574 136.45 102.194 130.674L101.816 132.349C109.799 128.019 117.457 123.031 125.132 118.019C125.968 117.524 126.714 116.847 127.329 116.025C127.876 115.249 128.349 114.408 128.742 113.515C129.631 111.433 130.325 109.246 130.809 106.991C131.822 102.58 132.29 98.0276 133.186 93.5852C133.694 90.9382 134.356 88.334 135.166 85.7902C135.913 83.5216 136.893 80.8251 138.83 79.6308C140.028 78.8919 138.964 76.7776 137.765 77.5165L137.766 77.5146Z" fill="#211715"/>
<path d="M137.737 129.644C137.737 129.743 137.733 129.841 137.732 129.94C137.73 130.04 137.772 130.243 137.742 129.916C137.734 130.086 137.703 130.253 137.649 130.411C137.607 130.583 137.555 130.748 137.5 130.914C137.6 130.608 137.516 130.864 137.486 130.934C137.44 131.039 137.395 131.145 137.345 131.248C137.268 131.41 137.184 131.568 137.095 131.722C137.043 131.817 136.985 131.906 136.929 132.001C136.776 132.254 136.992 131.924 136.857 132.111C136.599 132.474 136.325 132.82 136.035 133.149C134.491 134.773 132.732 136.1 130.826 137.079C130.586 137.245 130.413 137.513 130.342 137.826C130.271 138.14 130.309 138.473 130.448 138.754C130.593 139.029 130.824 139.228 131.093 139.31C131.362 139.392 131.647 139.35 131.89 139.193C134.019 138.091 135.972 136.579 137.666 134.721C138.821 133.374 139.864 131.62 139.846 129.644C139.846 129.319 139.735 129.007 139.537 128.778C139.339 128.548 139.071 128.419 138.792 128.419C138.512 128.419 138.244 128.548 138.046 128.778C137.849 129.007 137.737 129.319 137.737 129.644Z" fill="#211715"/>
<path d="M155.291 67.8893C155.742 67.1063 156.171 65.852 156.598 65.0556C156.314 63.9559 155.958 62.8828 155.534 61.8456C149.957 64.6241 145 67.4956 140.132 69.441C141.808 72.1259 146.137 76.0755 146.992 76.8517C148.958 75.1193 150.841 73.2612 152.629 71.286C153.621 70.2704 154.513 69.1313 155.291 67.8893Z" fill="white"/>
<path d="M156.202 68.5075C156.512 67.909 156.795 67.2921 157.05 66.6595C157.381 65.8943 157.772 65.3482 157.535 64.4643C157.237 63.3572 156.873 62.2755 156.446 61.2273C156.3 60.9527 156.069 60.754 155.8 60.6722C155.531 60.5905 155.246 60.6321 155.003 60.7884C149.966 63.3037 145.04 66.1752 139.852 68.2608C139.272 68.4934 138.79 69.3786 139.222 70.0593C141.12 73.0472 143.744 75.4462 146.247 77.7172C146.416 77.9018 146.63 78.0198 146.859 78.0543C147.089 78.0887 147.322 78.0378 147.525 77.9088C148.967 76.7383 150.33 75.4428 151.604 74.0333C153.249 72.3499 154.958 70.617 156.202 68.5075C156.971 67.2043 155.145 65.9781 154.381 67.2716C153.25 69.1901 151.61 70.7694 150.112 72.3022C148.969 73.5663 147.748 74.7324 146.46 75.7914L147.737 75.983C146.698 75.0391 145.679 74.065 144.68 73.0606C143.34 71.8032 142.121 70.3815 141.043 68.8203L140.41 70.6188C145.771 68.4628 150.861 65.4982 156.066 62.8991L154.624 62.4601C154.987 63.4127 155.306 64.3867 155.581 65.3782L155.687 64.4349C155.212 65.3531 154.878 66.3638 154.379 67.2685C153.648 68.603 155.472 69.8322 156.202 68.5075Z" fill="#211715"/>
<path d="M171.123 80.3029C169.26 79.7634 167.318 79.7086 165.435 80.1425C163.552 80.5764 161.774 81.4882 160.23 82.8127C157.514 85.2531 155.651 88.7548 154.989 92.6682C154.633 94.643 154.58 96.6752 154.831 98.6715C154.906 98.9838 155.085 99.2489 155.328 99.4094C155.57 99.5698 155.858 99.6126 156.128 99.5285C156.394 99.4357 156.619 99.2275 156.756 98.9471C156.893 98.6667 156.933 98.3357 156.866 98.0227C156.007 91.2891 159.756 84.1215 165.605 82.5899C167.242 82.1726 168.939 82.1998 170.565 82.6695C171.883 83.0435 172.445 80.6831 171.125 80.3084L171.123 80.3029Z" fill="#211715"/>
<path d="M156.336 64.629C150.241 72.9036 144.577 81.5925 139.372 90.6494C137.822 93.3183 136.292 96.003 134.782 98.7034C134.039 100.027 135.864 101.256 136.603 99.9393C141.669 90.9175 146.882 81.9937 152.667 73.5687C154.345 71.1263 156.064 68.7234 157.825 66.3601C158.708 65.1732 157.223 63.4341 156.334 64.629H156.336Z" fill="#211715"/>
<path d="M142.591 75.3378C141.767 77.8519 141.127 80.4663 140.435 83.0312C139.558 86.2842 138.643 89.5469 137.961 92.8635C137.645 94.3939 139.678 95.0488 139.994 93.5148C140.679 90.1976 141.591 86.9349 142.468 83.6825C143.16 81.1171 143.801 78.5026 144.624 75.9891C144.697 75.6758 144.66 75.342 144.521 75.0601C144.383 74.7782 144.155 74.5707 143.886 74.4826C143.617 74.4037 143.331 74.4488 143.09 74.6085C142.848 74.7682 142.669 75.0301 142.589 75.3396L142.591 75.3378Z" fill="#211715"/>
<path d="M139.635 69.7428C138.499 70.2105 137.558 71.002 137.441 72.4926C137.382 73.2541 137.38 74.0285 137.349 74.7924C137.308 75.8245 137.262 76.8572 137.247 77.8899C137.247 78.0735 137.247 78.251 137.244 78.4316C137.244 78.6385 137.29 78.1188 137.251 78.4316C137.243 78.4965 137.228 78.5638 137.217 78.6281C137.154 78.9954 137.095 79.3627 137.036 79.73C136.338 84.1258 135.759 88.5528 135.244 92.9829C135 95.0881 134.745 97.2036 134.64 99.3259C134.563 100.9 136.672 100.895 136.749 99.3259C136.94 95.4388 137.506 91.5548 138.017 87.7117C138.289 85.661 138.574 83.6103 138.883 81.5688C138.996 80.8226 139.112 80.0764 139.239 79.3333C139.34 78.5457 139.386 77.75 139.376 76.9539C139.41 75.8649 139.458 74.7771 139.501 73.6887C139.513 73.39 139.495 73.068 139.532 72.7705C139.585 72.3481 139.835 72.2545 140.194 72.1063C141.463 71.5829 140.917 69.2164 139.633 69.7453L139.635 69.7428Z" fill="#211715"/>
<path d="M141.707 177.713C141.752 178.811 141.845 179.905 141.985 180.992C142.006 181.141 141.945 180.602 141.977 180.925C141.986 181.016 141.996 181.109 142.006 181.197C142.033 181.457 142.058 181.719 142.083 181.979C142.241 183.596 142.383 185.213 142.527 186.831C142.884 190.834 143.229 194.838 143.596 198.839C143.709 200.084 143.797 201.342 143.971 202.578C144.047 202.89 144.225 203.155 144.468 203.315C144.711 203.475 144.998 203.518 145.268 203.435C145.534 203.342 145.759 203.134 145.897 202.854C146.034 202.573 146.073 202.242 146.006 201.929C145.953 201.537 146.021 202.112 145.993 201.836C145.971 201.611 145.947 201.387 145.924 201.162C145.86 200.51 145.8 199.858 145.739 199.203C145.572 197.384 145.408 195.563 145.249 193.741C144.916 189.978 144.594 186.211 144.239 182.455C144.089 180.873 143.902 179.304 143.817 177.713C143.734 176.148 141.625 176.137 141.708 177.713H141.707Z" fill="#211715"/>
<path d="M34.5597 92.4289C33.5928 90.5293 32.7376 88.5559 32 86.5223C31.0934 84.3186 30.1983 82.0077 28.9158 80.0544C28.7687 79.7817 28.5377 79.5845 28.2697 79.5028C28.0017 79.4212 27.717 79.4612 27.4736 79.6149C27.2335 79.7801 27.0592 80.0486 26.9884 80.3621C26.9175 80.6755 26.9559 81.0088 27.0951 81.2897C28.3102 83.3178 29.3436 85.4849 30.1793 87.757C30.9173 89.7904 31.7724 91.7638 32.7391 93.6636C33.4812 94.9748 35.3077 93.7499 34.5597 92.4276V92.4289Z" fill="#211715"/>
<path d="M8.8606 81.8094C9.0862 81.8394 8.80788 81.7984 8.85111 81.8058L9.09675 81.8486C9.30391 81.8859 9.51107 81.9282 9.7177 81.971C10.2032 82.0726 10.6871 82.1841 11.1705 82.2985C12.415 82.593 13.6553 82.9107 14.8946 83.2339C17.3194 83.8668 19.7399 84.528 22.1573 85.1983C22.6844 85.3439 23.2116 85.5313 23.7429 85.6378C23.9888 85.7104 24.249 85.6789 24.4767 85.549C24.7045 85.4191 24.885 85.1993 24.9859 84.9289C25.0881 84.6568 25.1007 84.3505 25.0212 84.0684C24.9417 83.7862 24.7757 83.5478 24.5547 83.3985C24.5083 83.3753 24.3438 83.289 24.2974 83.2731C22.9902 82.8403 22.4319 85.2025 23.7371 85.6341L23.4904 85.5117L24.3027 83.2743C22.8178 82.9762 21.3429 82.4528 19.8749 82.0531C17.2635 81.3405 14.6495 80.6347 12.0207 80.0042C10.9733 79.7532 9.9217 79.5004 8.85796 79.3584C8.57887 79.3603 8.31168 79.4899 8.11433 79.7191C7.91698 79.9483 7.80537 80.2586 7.80371 80.5827C7.81002 80.9051 7.92311 81.2123 8.11947 81.4403C8.31583 81.6683 8.58034 81.7997 8.85796 81.807L8.8606 81.8094Z" fill="#211715"/>
<path d="M76.3866 111.005C78.0207 114.529 79.843 117.931 81.5329 121.419C82.1982 122.793 84.0204 121.56 83.3536 120.184C81.6637 116.694 79.8414 113.293 78.2073 109.77C77.5637 108.381 75.743 109.617 76.3866 111.005Z" fill="#211715"/>
<path d="M100.397 114.166L92.9059 121.569C92.7102 121.8 92.6006 122.111 92.6006 122.435C92.6006 122.759 92.7102 123.07 92.9059 123.301C93.1063 123.524 93.3734 123.649 93.6512 123.649C93.929 123.649 94.1961 123.524 94.3966 123.301L101.888 115.897C102.083 115.666 102.193 115.355 102.193 115.031C102.193 114.707 102.083 114.396 101.888 114.166C101.687 113.942 101.42 113.817 101.142 113.817C100.864 113.817 100.597 113.942 100.397 114.166Z" fill="#211715"/>
<path d="M90.6655 105.307C89.5374 110.287 88.547 115.316 87.5744 120.34C87.2777 121.875 89.3097 122.53 89.6081 120.991C90.5801 115.968 91.5711 110.938 92.6986 105.958C93.0439 104.432 91.0118 103.782 90.6655 105.307Z" fill="#211715"/>
<path d="M72.8511 120.037C73.81 121.15 74.752 122.283 75.6881 123.421C75.8872 123.647 76.1549 123.774 76.4337 123.774C76.7126 123.774 76.9803 123.647 77.1794 123.421C77.3719 123.188 77.4794 122.877 77.4794 122.555C77.4794 122.232 77.3719 121.922 77.1794 121.689C76.2427 120.551 75.3012 119.418 74.3424 118.306C74.2445 118.192 74.1283 118.102 74.0004 118.041C73.8725 117.979 73.7354 117.947 73.5969 117.947C73.4585 117.947 73.3214 117.979 73.1935 118.04C73.0656 118.102 72.9493 118.192 72.8514 118.306C72.7535 118.419 72.6758 118.554 72.6228 118.703C72.5698 118.851 72.5425 119.011 72.5425 119.171C72.5425 119.332 72.5697 119.491 72.6227 119.64C72.6756 119.789 72.7533 119.924 72.8511 120.037Z" fill="#211715"/>
<path d="M29.6052 80.4437C30.0369 79.2133 30.8075 77.4693 31.3826 76.0687C31.5654 75.6235 31.7469 75.1774 31.9272 74.7306C32.0415 74.4459 32.1854 73.7585 32.3921 73.5638C32.3425 73.6104 32.1644 73.6036 32.5165 73.6336C32.6968 73.6489 32.8881 73.7199 33.0673 73.756C33.5213 73.8407 33.9788 73.8979 34.4378 73.9274C37.725 74.1356 41.4539 73.3765 43.497 70.1162C44.3469 68.6402 44.9453 66.9886 45.2597 65.2509C45.4405 64.4123 45.5881 63.5632 45.7109 62.7105C45.7647 61.9093 45.8575 61.1122 45.9887 60.3232C46.3756 58.7867 47.802 58.1537 48.4662 56.837C49.3839 55.0214 48.4314 52.9964 47.073 51.9398C45.8517 50.9898 45.3182 49.6896 45.0288 48.0307C44.7786 46.2285 44.6878 44.4013 44.7579 42.5777C44.7658 41.0014 42.6573 40.9996 42.6494 42.5777C42.6336 45.7266 42.5471 49.4515 44.197 52.1412C44.6055 52.8125 45.1188 53.3887 45.7104 53.8399C46.139 54.168 46.8606 54.6969 46.7225 55.4315C46.6366 55.89 46.0615 56.3099 45.7737 56.5995C45.1242 57.2274 44.6022 58.0142 44.245 58.9036C43.7042 60.3115 43.711 62.0139 43.4369 63.5185C43.2055 65.1717 42.7348 66.7674 42.0448 68.2382C41.6597 68.9696 41.1461 69.5984 40.5376 70.0836C39.929 70.5688 39.2391 70.8995 38.513 71.054C36.9171 71.5184 35.2607 71.6345 33.6282 71.3962C32.6398 71.2328 31.7116 70.9016 30.9008 71.837C30.3015 72.5293 30.0105 73.7426 29.6537 74.6137C28.9494 76.3332 28.1909 78.0325 27.5721 79.7973C27.4995 80.1106 27.5363 80.4445 27.6745 80.7264C27.8126 81.0084 28.041 81.2156 28.31 81.3032C28.5796 81.3813 28.8647 81.3359 29.1062 81.1763C29.3477 81.0167 29.5269 80.7552 29.6068 80.4462L29.6052 80.4437Z" fill="#211715"/>
<path d="M23.8259 47.9535C22.6331 45.9757 20.5699 44.4215 18.4598 45.505C16.7836 46.3669 16.18 48.5895 16.2159 50.5753C16.2774 52.6702 16.8227 54.7074 17.7947 56.4736C18.7668 58.2397 20.1298 59.67 21.7412 60.6145C21.9842 60.7703 22.2695 60.8117 22.5381 60.73C22.8067 60.6483 23.0379 60.4498 23.1839 60.1756C23.3225 59.8945 23.3605 59.5614 23.2897 59.248C23.2189 58.9347 23.045 58.6661 22.8054 58.5002C21.647 57.841 20.6418 56.8682 19.8746 55.6638C19.1073 54.4594 18.6004 53.0586 18.3966 51.5793C18.2516 50.4774 18.2042 48.8754 18.9537 48.0252C19.9637 46.8786 21.3938 48.1727 22.0074 49.1882C22.1534 49.4622 22.3845 49.6607 22.6529 49.7425C22.9213 49.8242 23.2065 49.7832 23.4496 49.6277C23.6893 49.4619 23.8633 49.1934 23.934 48.88C24.0048 48.5666 23.9668 48.2334 23.8281 47.9523L23.8259 47.9535Z" fill="#211715"/>
<path d="M43.7421 61.2616C43.3001 61.2629 42.8585 61.2339 42.4195 61.1746L42.6999 61.2181C42.4576 61.187 42.22 61.1189 41.9931 61.0155L42.245 61.1379C42.1361 61.0837 42.0334 61.014 41.9393 60.9304L42.1501 61.122L42.1391 61.1116C41.935 60.8933 41.6709 60.7662 41.3937 60.7529C41.1144 60.7552 40.8468 60.8839 40.6478 61.1116C40.4507 61.3416 40.3399 61.6527 40.3395 61.9772C40.3374 62.1382 40.3637 62.2981 40.4168 62.4469C40.4698 62.5957 40.5484 62.7304 40.6478 62.8427C40.8069 63.003 40.9827 63.1391 41.1713 63.248C41.393 63.3706 41.6258 63.4638 41.8655 63.5259C42.484 63.6553 43.1115 63.7167 43.7399 63.7095C44.0189 63.7064 44.286 63.578 44.4853 63.3514C44.6329 63.1802 44.7334 62.9621 44.7742 62.7245C44.8149 62.4869 44.7941 62.2407 44.7143 62.0169C44.6345 61.7931 44.4993 61.6018 44.3259 61.4672C44.1524 61.3327 43.9485 61.2609 43.7399 61.2609L43.7421 61.2616Z" fill="#211715"/>
<path d="M40.9456 47.2245C41.225 48.2492 41.1038 50.6243 39.5097 50.8618C37.4012 50.8943 37.2315 48.0294 37.9152 46.6656C38.4755 45.549 40.176 45.0514 40.9456 47.2245Z" fill="#211715"/>
<path d="M12.2293 69.0995C12.3563 65.8735 10.4898 63.5963 8.9084 61.2285C7.29413 58.7836 5.90429 56.1496 4.76152 53.3692C3.5101 50.5199 2.65608 47.458 2.23132 44.2978C1.93238 41.0254 2.14669 37.7172 2.86387 34.5335C3.40488 31.5279 4.71053 28.7801 6.61172 26.646C7.61642 25.5815 6.12202 23.8534 5.12101 24.9143C1.06637 29.2128 -0.0743227 36.2757 0.00369169 42.3892C0.126585 45.716 0.786944 48.9863 1.95036 52.0298C3.05443 55.138 4.4405 58.1008 6.08512 60.868C6.8231 62.1063 7.66123 63.2443 8.44875 64.4349C9.36964 65.8275 10.193 67.2753 10.1213 69.0995C10.0591 70.6751 12.1671 70.6714 12.2293 69.0995Z" fill="#211715"/>
<path d="M19.3235 58.423C18.3252 60.1517 17.0415 61.6331 15.5467 62.7815C14.0436 64.0319 12.4042 65.0446 10.6713 65.7933C10.4053 65.8862 10.1803 66.0944 10.0429 66.3748C9.90556 66.6551 9.86631 66.9861 9.93332 67.2991C10.0093 67.6111 10.1879 67.8758 10.4305 68.0361C10.6731 68.1965 10.9603 68.2396 11.23 68.1561C13.1874 67.3342 15.0383 66.2043 16.7311 64.7979C18.4791 63.4393 19.9789 61.6931 21.1442 59.6596C21.8632 58.3178 20.0399 57.088 19.3235 58.423Z" fill="#211715"/>
<path d="M36.561 59.2341C36.3929 59.8354 36.2522 60.4466 36.1393 61.065C36.0701 61.3836 36.1078 61.7208 36.2448 62.0084C36.3146 62.1472 36.4073 62.2687 36.5176 62.3659C36.6279 62.4632 36.7535 62.5342 36.8875 62.575C37.0214 62.6158 37.1609 62.6256 37.2981 62.6038C37.4353 62.582 37.5674 62.529 37.687 62.4479C37.9244 62.2868 38.0983 62.0243 38.1714 61.7164C38.2842 61.0977 38.425 60.4863 38.5931 59.8848C38.637 59.7265 38.6434 59.5573 38.6115 59.3951C38.6055 59.2331 38.5623 59.0759 38.4866 58.9397C38.3455 58.6594 38.1143 58.4557 37.8438 58.3734C37.5733 58.2911 37.2858 58.3369 37.0444 58.5008C36.8128 58.6696 36.641 58.9291 36.56 59.2323L36.561 59.2341Z" fill="#211715"/>
<path d="M44.7588 42.574C44.7736 39.9277 44.9244 37.2398 44.4152 34.6364C44.3394 34.3242 44.1609 34.0593 43.9182 33.8989C43.6755 33.7385 43.3882 33.6956 43.1184 33.7794C42.8519 33.8713 42.6262 34.0793 42.4887 34.36C42.3511 34.6406 42.3124 34.9721 42.3805 35.2852C42.4399 35.5885 42.4899 35.8945 42.5307 36.2035C42.5391 36.2647 42.547 36.3259 42.5544 36.392C42.5407 36.2773 42.5419 36.2961 42.5581 36.4483C42.5729 36.6203 42.5897 36.7923 42.6024 36.965C42.6477 37.582 42.6683 38.2009 42.6767 38.8198C42.693 40.0716 42.6561 41.3228 42.6488 42.5746C42.6488 42.8994 42.7598 43.2108 42.9576 43.4404C43.1553 43.6699 43.4234 43.7989 43.703 43.7989C43.9826 43.7989 44.2508 43.6699 44.4485 43.4404C44.6462 43.2108 44.7573 42.8994 44.7573 42.5746L44.7588 42.574Z" fill="#211715"/>
<path d="M39.4164 33.9452C38.1116 34.3046 36.7783 34.5059 35.4377 34.5457C34.1431 34.6259 32.8448 34.6437 31.5486 34.607C30.1912 34.5708 30.1918 37.0194 31.5486 37.0555C34.3302 37.1296 37.2673 37.1106 39.9773 36.3038C41.2909 35.9133 40.7337 33.5492 39.4164 33.9428V33.9452Z" fill="#211715"/>
<path d="M31.5485 34.6094C30.13 34.6259 29.4801 36.6454 29.0357 37.9076C28.7816 38.6287 28.5613 39.3658 28.3505 40.1052C28.2677 40.3954 28.1876 40.6862 28.1053 40.9757C28.0637 41.1226 27.8418 41.7715 28.0358 41.2622L29.6915 41.0173C28.9751 40.216 28.3589 38.9911 27.3458 38.6569C26.116 38.248 25.3849 39.52 24.9331 40.6329C23.9669 43.0013 23.0049 45.3734 22.1009 47.7754C21.9686 48.0581 21.9341 48.3887 22.0044 48.6999C22.0747 49.0111 22.2446 49.2794 22.4794 49.4502C22.7212 49.6118 23.0081 49.6564 23.278 49.5742C23.5479 49.4921 23.7791 49.2899 23.9216 49.0113C24.726 46.8743 25.5767 44.7618 26.4338 42.6536C26.5646 42.3324 26.6953 42.0117 26.826 41.6913C26.8835 41.5499 26.9378 41.406 27.0015 41.2683C27.1259 41.0008 27.3363 40.909 26.9662 40.9622C26.6384 41.0118 26.6979 40.8967 26.7596 41.0167C26.7954 41.0859 26.846 41.092 26.8819 41.1257C27.0386 41.2849 27.1861 41.4558 27.3236 41.6374C27.6178 42.0047 27.8903 42.3959 28.2013 42.7442C28.6409 43.2339 29.5755 43.2443 29.857 42.4963C30.2444 41.4666 30.4806 40.3611 30.8179 39.3082C30.992 38.7166 31.2091 38.1432 31.4668 37.5942C31.5274 37.4663 31.5917 37.3414 31.6587 37.2171C31.6893 37.1608 31.723 37.1063 31.7557 37.0512C31.8416 36.9074 31.6397 37.1963 31.7367 37.0825C31.7713 37.0439 31.8038 37.0031 31.8342 36.96C31.9175 36.8376 31.8996 36.96 31.8495 36.9368C31.8348 36.9294 31.8073 36.9778 31.7631 36.998C31.7188 37.0182 31.4347 37.0592 31.5496 37.0592C32.9053 37.0433 32.909 34.5947 31.5496 34.6106L31.5485 34.6094Z" fill="#211715"/>
<path d="M43.4609 35.5644C45.3027 34.5672 45.8662 31.7538 45.561 29.6088C45.2263 27.5259 44.3009 25.6329 42.9322 24.2317C40.3454 21.4493 37.287 19.3243 33.9527 17.9928C33.1288 17.6732 32.5205 18.6453 32.6559 19.4986L34.2046 18.1164C30.9581 16.4165 27.1981 15.9127 23.6711 15.8735C19.2101 15.8301 14.5803 16.7189 10.6306 19.2275C8.3614 20.657 6.41636 22.6908 4.95504 25.1622C4.18754 26.4667 6.01403 27.6928 6.77572 26.3981C11.3675 18.5982 21.1457 17.3769 28.5038 18.7806C29.4143 18.9504 30.3162 19.1768 31.2058 19.4588C31.5748 19.5764 31.9385 19.7037 32.2991 19.8506C32.4783 19.9229 32.6559 19.9981 32.8325 20.0783L33.0002 20.1561C33.1678 20.235 32.8789 20.0949 33.143 20.2302C33.3247 20.344 33.531 20.3943 33.7368 20.375C33.9426 20.3558 34.1392 20.2678 34.3029 20.1216C34.4666 19.9755 34.5905 19.7775 34.6594 19.5515C34.7284 19.3255 34.7396 19.0812 34.6917 18.8479L33.395 20.3538C36.135 21.4475 38.6672 23.1459 40.8522 25.3556C41.9634 26.3317 42.8105 27.6571 43.2933 29.1748C43.6723 30.5025 43.7398 32.7252 42.3972 33.4512C42.1575 33.6171 41.9835 33.8856 41.9127 34.199C41.8419 34.5124 41.88 34.8456 42.0187 35.1267C42.1643 35.4015 42.3955 35.6004 42.6643 35.6822C42.933 35.764 43.2186 35.7222 43.4615 35.5656L43.4609 35.5644Z" fill="#211715"/>
<path d="M101.271 131.18C100.086 131.654 98.9177 132.186 97.7322 132.66C97.4646 132.751 97.2379 132.958 97.1001 133.24C96.9623 133.521 96.9243 133.853 96.9942 134.167C98.3964 139.228 100.105 144.168 102.107 148.949C102.225 149.182 102.405 149.363 102.621 149.464C102.836 149.566 103.074 149.583 103.298 149.511C104.569 148.96 105.854 148.451 107.125 147.9C108.385 147.354 107.839 144.986 106.565 145.539C105.29 146.092 104.009 146.599 102.737 147.15L103.928 147.713C102.007 143.121 100.369 138.376 99.0257 133.515L98.2878 135.021C99.4733 134.547 100.641 134.016 101.826 133.541C103.102 133.031 102.554 130.664 101.266 131.18H101.271Z" fill="#211715"/>
<path d="M73.0991 138.031C74.4206 138.631 75.7384 139.244 77.0684 139.819L76.3304 138.313C74.9978 143.606 73.5234 148.866 71.7834 154L73.0801 153.143C71.6168 152.549 70.1625 151.927 68.6992 151.334C67.4157 150.813 66.8638 153.178 68.1389 153.695C69.6022 154.288 71.0565 154.911 72.5198 155.504C72.7894 155.583 73.0749 155.538 73.3166 155.378C73.5582 155.218 73.7374 154.956 73.8165 154.647C75.556 149.514 77.032 144.254 78.3635 138.96C78.4312 138.647 78.3922 138.315 78.2547 138.035C78.1173 137.754 77.8919 137.546 77.6255 137.454C76.2956 136.879 74.9772 136.266 73.6563 135.666C73.3864 135.582 73.099 135.625 72.8562 135.785C72.6134 135.946 72.4348 136.211 72.359 136.523C72.2913 136.836 72.3303 137.167 72.4678 137.448C72.6053 137.728 72.8307 137.936 73.097 138.029L73.0991 138.031Z" fill="#211715"/>
<path d="M137.709 69.0303C137.295 70.2693 136.91 71.5203 136.554 72.7833C136.376 73.4147 136.206 74.0488 136.043 74.6859C135.962 75.0042 135.885 75.3237 135.804 75.6427C135.789 75.7039 135.683 76.0265 135.79 75.7651C135.766 75.8257 135.738 75.8838 135.707 75.9389C135.764 75.8336 135.841 75.7457 135.934 75.6827C136.026 75.6198 136.13 75.5836 136.237 75.5772C135.959 75.58 135.692 75.71 135.495 75.9389C135.297 76.1679 135.186 76.4776 135.183 76.8015C135.188 77.1243 135.301 77.4322 135.498 77.6606C135.694 77.8889 135.959 78.0198 136.237 78.0257C137.095 78.0508 137.605 77.2269 137.819 76.3601C138.006 75.6084 138.194 74.8567 138.399 74.1099C138.805 72.6166 139.252 71.1397 139.741 69.6792C139.814 69.3658 139.778 69.0316 139.64 68.7494C139.501 68.4673 139.273 68.2601 139.003 68.1733C138.734 68.0962 138.449 68.1422 138.208 68.3016C137.966 68.461 137.787 68.7218 137.706 69.0303H137.709Z" fill="#211715"/>
</g>
<defs>
<clipPath id="clip0_1073_1169">
<rect width="186" height="216" fill="white"/>
</clipPath>
</defs>
</svg>
