<svg width="403" height="215" viewBox="0 0 403 215" fill="none" xmlns="http://www.w3.org/2000/svg">
<g clip-path="url(#clip0_1071_1222)">
<path d="M161.762 81.7326C166.157 81.7326 169.72 77.911 169.72 73.1967C169.72 68.4825 166.157 64.6608 161.762 64.6608C157.366 64.6608 153.803 68.4825 153.803 73.1967C153.803 77.911 157.366 81.7326 161.762 81.7326Z" fill="#FEE7BE"/>
<path d="M72.6237 81.7326C77.0191 81.7326 80.5823 77.911 80.5823 73.1967C80.5823 68.4825 77.0191 64.6608 72.6237 64.6608C68.2282 64.6608 64.665 68.4825 64.665 73.1967C64.665 77.911 68.2282 81.7326 72.6237 81.7326Z" fill="#FEE7BE"/>
<path d="M117.193 107.341C140.049 107.341 158.578 87.4681 158.578 62.9535C158.578 38.4388 140.049 18.5657 117.193 18.5657C94.3361 18.5657 75.8071 38.4388 75.8071 62.9535C75.8071 87.4681 94.3361 107.341 117.193 107.341Z" fill="#FEE7BE"/>
<path d="M117.193 18.5661C94.3359 18.5661 75.8071 38.4389 75.8071 62.9539C75.8071 72.7411 78.7632 81.7864 83.7657 89.1248V56.9788L117.192 65.5147L150.619 56.9788V89.1248C155.622 81.7864 158.578 72.7411 158.578 62.9539C158.579 38.4389 140.049 18.5661 117.193 18.5661Z" fill="#666666"/>
<path d="M117.193 10.0298C94.3359 10.0298 75.8071 29.9026 75.8071 54.4175H158.578C158.578 29.9026 140.049 10.0298 117.193 10.0298Z" fill="#F7D04A"/>
<path d="M122.764 10.4317C120.941 10.1689 119.082 10.0302 117.193 10.0302C94.3359 10.0302 75.8071 29.903 75.8071 54.418H86.9495C86.9495 31.9298 102.542 13.3503 122.764 10.4317Z" fill="#F3B41B"/>
<path d="M117.193 67.2216C132.953 67.2216 147.84 63.2211 161.028 56.1249H73.3574C86.5455 63.2211 101.433 67.2216 117.193 67.2216Z" fill="#F3B41B"/>
<path d="M166.537 49.2959H67.8486V57.8318H166.537V49.2959Z" fill="#F7D04A"/>
<path d="M125.151 3.20123H109.234V49.2959H125.151V3.20123Z" fill="#F7D04A"/>
<path d="M164.945 203.799H69.4399V124.413C69.4399 117.342 74.7848 111.609 81.378 111.609H153.007C159.6 111.609 164.945 117.342 164.945 124.413V203.799Z" fill="#F2F2F2"/>
<path d="M81.3785 111.609C74.7852 111.609 69.4404 117.342 69.4404 124.413V203.799H131.387L86.4519 111.609H81.3785Z" fill="#E5E5E5"/>
<path d="M105.255 111.609H129.131L124.356 131.242H110.03L105.255 111.609Z" fill="#EB6836"/>
<path d="M128.336 182.459L117.193 191.849L106.051 182.459L110.03 131.242H124.356L128.336 182.459Z" fill="#EB6836"/>
<path d="M124.356 131.242H110.03L109.417 139.138H124.97L124.356 131.242Z" fill="#C74B38"/>
<path d="M173.7 94.5371H156.191L164.945 144.047L173.7 94.5371Z" fill="#999999"/>
<path d="M164.945 104.78V188.434H164.983C165.385 193.219 169.134 196.97 173.7 196.97C178.266 196.97 182.014 193.219 182.416 188.434H182.454V104.78H164.945Z" fill="#E5E5E5"/>
<path d="M182.454 128.682H164.945V186.94H182.454V128.682Z" fill="#CCCCCC"/>
<path d="M173.7 113.317C178.535 113.317 182.455 109.113 182.455 103.927C182.455 98.7411 178.535 94.5371 173.7 94.5371C168.865 94.5371 164.945 98.7411 164.945 103.927C164.945 109.113 168.865 113.317 173.7 113.317Z" fill="#CCCCCC"/>
<path d="M156.987 170.082V146.18C156.987 142.645 159.659 139.778 162.956 139.778H183.649C186.945 139.778 189.618 142.645 189.618 146.18V170.082C189.618 173.617 186.945 176.484 183.649 176.484H162.956C159.659 176.484 156.987 173.617 156.987 170.082Z" fill="#FEE7BE"/>
<path d="M92.5204 190.141H11.3413V128.255C11.3413 124.719 14.0139 121.853 17.3104 121.853H86.5517C89.8482 121.853 92.5208 124.719 92.5208 128.255V190.141H92.5204Z" fill="#F2F2F2"/>
<path d="M92.5204 128.255C92.5204 124.719 89.8478 121.853 86.5514 121.853H17.3104C14.0139 121.853 11.3413 124.719 11.3413 128.255V133.661H92.5208V128.255H92.5204Z" fill="#62C9CC"/>
<path d="M26.0647 121.853H17.3104C14.0139 121.853 11.3413 124.719 11.3413 128.255V190.141H20.096V128.255C20.0957 124.719 22.7683 121.853 26.0647 121.853Z" fill="#E5E5E5"/>
<path d="M26.0647 121.853H17.3104C14.0139 121.853 11.3413 124.719 11.3413 128.255V133.661H20.096V128.255C20.0957 124.719 22.7683 121.853 26.0647 121.853Z" fill="#50A9A9"/>
<path d="M94.5104 203.799H9.35138C6.05492 203.799 3.38232 200.932 3.38232 197.397V190.141H100.479V197.397C100.479 200.933 97.8068 203.799 94.5104 203.799Z" fill="#62C9CC"/>
<path d="M125.831 90.1999C127.114 89.0901 127.316 87.0746 126.281 85.6988C125.246 84.323 123.367 84.1067 122.084 85.2165C120.152 86.8875 118.02 87.0682 117.193 87.0682C114.711 87.0682 112.945 85.7728 112.301 85.2161C111.018 84.1067 109.139 84.3238 108.105 85.6992C107.07 87.0759 107.272 89.0909 108.555 90.2003C109.968 91.4212 112.968 93.4698 117.193 93.4698C119.007 93.4702 122.541 93.0449 125.831 90.1999Z" fill="black"/>
<path d="M133.508 77.2514H135.498C137.146 77.2514 138.482 75.8182 138.482 74.0502C138.482 72.2822 137.146 70.849 135.498 70.849H133.508C131.86 70.849 130.523 72.2822 130.523 74.0502C130.523 75.8182 131.86 77.2514 133.508 77.2514Z" fill="black"/>
<path d="M100.877 70.8494H98.8876C97.2391 70.8494 95.9028 72.2826 95.9028 74.0506C95.9028 75.8186 97.2391 77.2518 98.8876 77.2518H100.877C102.526 77.2518 103.862 75.8186 103.862 74.0506C103.862 72.2826 102.526 70.8494 100.877 70.8494Z" fill="black"/>
<path d="M185.439 136.771V103.927C185.439 96.9844 180.172 91.3363 173.7 91.3363H156.191C154.349 91.3363 152.915 93.1912 153.258 95.1335L155.606 108.409H130.344C134.733 106.945 138.901 104.739 142.66 101.903C146.379 99.0956 149.694 95.6785 152.457 91.8037C154.235 89.308 155.787 86.621 157.074 83.7978C158.528 84.5405 160.115 84.9347 161.762 84.9347C167.796 84.9347 172.705 79.6695 172.705 73.1975C172.705 66.7256 167.796 61.46 161.762 61.46C161.688 61.46 161.613 61.4644 161.539 61.4661C161.535 61.3217 161.53 61.1774 161.525 61.0335H166.537C168.186 61.0335 169.522 59.6002 169.522 57.8322V49.2959C169.522 47.5279 168.186 46.0947 166.537 46.0947H160.878C157.859 27.7898 144.904 12.8611 128.136 8.29011V3.20122C128.136 1.43323 126.8 0 125.152 0H109.234C107.586 0 106.249 1.43323 106.249 3.20122V8.29051C89.4809 12.8615 76.5265 27.7902 73.5079 46.0951H67.8483C66.1999 46.0951 64.8636 47.5283 64.8636 49.2963V57.8322C64.8636 59.6002 66.1999 61.0335 67.8483 61.0335H72.8611C72.8558 61.1778 72.8509 61.3221 72.8467 61.4661C72.7725 61.4644 72.6978 61.46 72.6236 61.46C66.5893 61.46 61.6802 66.7252 61.6802 73.1971C61.6802 79.6691 66.5893 84.9343 72.6236 84.9343C74.2705 84.9343 75.8575 84.5401 77.3114 83.7974C79.4755 88.5414 82.3769 92.8852 85.861 96.616C89.0866 100.069 92.8038 102.991 96.8507 105.24C99.1543 106.52 101.563 107.583 104.041 108.409H81.3783C75.1812 108.409 69.6524 112.55 67.4559 118.652H17.3102C12.3729 118.652 8.35645 122.96 8.35645 128.255V162.826C8.35645 164.594 9.69275 166.027 11.3412 166.027C12.9896 166.027 14.3259 164.594 14.3259 162.826V136.862H89.5363V186.94H14.3255V179.898C14.3255 178.13 12.9892 176.697 11.3408 176.697C9.69237 176.697 8.35607 178.13 8.35607 179.898V186.94H3.38218C1.73376 186.94 0.397461 188.374 0.397461 190.142V197.397C0.397838 202.692 4.41427 207 9.35123 207H94.5098C94.5984 207 94.6866 206.996 94.7745 206.993C94.819 206.995 94.8627 207 94.9079 207H134.702C136.35 207 137.686 205.567 137.686 203.799C137.686 202.031 136.35 200.598 134.702 200.598H102.95C103.282 199.596 103.464 198.519 103.464 197.396V190.141C103.464 188.373 102.127 186.94 100.479 186.94H95.5046V128.255C95.5046 122.959 91.4882 118.651 86.5509 118.651H74.2234C75.8808 116.294 78.5074 114.81 81.3776 114.81H102.948L107.013 131.521L103.075 182.193C102.992 183.265 103.417 184.311 104.205 184.976L115.348 194.366C116.418 195.267 117.966 195.267 119.036 194.366L130.178 184.976C130.967 184.311 131.392 183.265 131.308 182.193L127.371 131.521L131.437 114.81H156.737L160.644 136.903C156.824 137.999 154.002 141.742 154.002 146.18V170.082C154.002 175.016 157.49 179.091 161.96 179.624V200.598H150.619C148.971 200.598 147.634 202.032 147.634 203.8C147.634 205.568 148.971 207.001 150.619 207.001H164.945C166.593 207.001 167.929 205.568 167.929 203.8V198.566C169.634 199.59 171.602 200.171 173.699 200.171C179.633 200.171 184.54 195.538 185.328 189.301C185.4 189.025 185.438 188.734 185.438 188.434V179.492C189.521 178.6 192.601 174.72 192.601 170.082V146.181C192.602 141.543 189.521 137.663 185.439 136.771ZM97.4946 197.397C97.4946 199.162 96.156 200.598 94.5098 200.598H9.35123C7.70545 200.598 6.36651 199.162 6.36651 197.397V193.342H97.4942L97.4946 197.397ZM87.1521 125.119C88.511 125.418 89.5356 126.711 89.5356 128.255V130.46H14.3255V128.255C14.3255 126.711 15.3504 125.418 16.709 125.119C16.9031 125.076 17.104 125.053 17.3098 125.053H86.5512C86.7571 125.053 86.958 125.076 87.1521 125.119ZM78.7917 62.9535C78.7917 62.736 78.8033 62.5172 78.806 62.2993C79.4623 62.5896 80.1208 62.8698 80.7812 63.1447V76.0462C79.4917 71.9313 78.7917 67.5285 78.7917 62.9535ZM155.579 62.2993C155.582 62.5172 155.594 62.736 155.594 62.9535C155.594 67.5285 154.894 71.9313 153.604 76.0462V63.1443C154.264 62.8694 154.923 62.5892 155.579 62.2993ZM166.736 73.1967C166.736 76.1388 164.505 78.5318 161.762 78.5318C160.898 78.5318 160.071 78.2957 159.333 77.8506C160.315 74.6627 160.993 71.3281 161.325 67.8847C161.47 67.8713 161.615 67.8616 161.761 67.8616C164.505 67.862 166.736 70.2551 166.736 73.1967ZM154.803 46.0947H128.136V14.9287C141.595 19.2235 151.963 31.2995 154.803 46.0947ZM112.218 6.40204H122.167V46.0947H112.218V6.40204ZM70.8327 52.4967H86.9493C88.5977 52.4967 89.934 51.0635 89.934 49.2955C89.934 47.5275 88.5977 46.0943 86.9493 46.0943H79.5817C82.4221 31.2986 92.7898 19.2231 106.249 14.9283V46.0943H99.6832C98.0347 46.0943 96.6984 47.5275 96.6984 49.2955C96.6984 51.0635 98.0347 52.4967 99.6832 52.4967H163.552V54.6306H70.8327V52.4967ZM140.096 61.0331C132.656 63.0137 124.999 64.0208 117.193 64.0208C109.387 64.0208 101.729 63.0141 94.2897 61.0331H140.096ZM72.6236 78.5318C69.8805 78.5318 67.6493 76.1388 67.6493 73.1967C67.6493 70.2547 69.8805 67.8616 72.6236 67.8616C72.7695 67.8616 72.915 67.8713 73.0597 67.8847C73.3914 71.3281 74.0692 74.6627 75.0515 77.8506C74.3138 78.2961 73.4868 78.5318 72.6236 78.5318ZM86.7503 88.028V65.4072C96.5484 68.7386 106.748 70.4224 117.193 70.4224C127.637 70.4224 137.837 68.7382 147.635 65.4072V88.028C140.608 97.8184 129.577 104.14 117.193 104.14C104.809 104.14 93.7771 97.8184 86.7503 88.028ZM117.193 187.778L109.158 181.007L112.776 134.444H121.609L125.227 181.007L117.193 187.778ZM122.05 128.041H112.336L109.118 114.81H125.268L122.05 128.041ZM167.93 114.885C169.635 115.922 171.604 116.518 173.7 116.518C175.796 116.518 177.764 115.922 179.47 114.885V136.577H167.93V114.885ZM179.47 103.927C179.47 107.339 176.881 110.116 173.7 110.116C170.518 110.116 167.93 107.339 167.93 103.927C167.93 100.515 170.518 97.7384 173.7 97.7384C176.881 97.738 179.47 100.515 179.47 103.927ZM163.483 97.738C162.516 99.5674 161.961 101.678 161.961 103.927V109.989L159.794 97.738H163.483ZM179.445 188.147C179.175 191.352 176.706 193.769 173.7 193.769C170.694 193.769 168.225 191.352 167.955 188.147C167.949 188.073 167.94 188 167.929 187.928V179.684H179.469V187.926C179.459 187.999 179.45 188.072 179.445 188.147ZM186.633 170.082C186.633 171.847 185.294 173.283 183.648 173.283H162.955C161.376 173.283 160.083 171.961 159.981 170.295H166.537C168.185 170.295 169.521 168.862 169.521 167.094C169.521 165.326 168.185 163.893 166.537 163.893H159.97V161.759H166.537C168.185 161.759 169.521 160.326 169.521 158.558C169.521 156.79 168.185 155.356 166.537 155.356H159.97V153.222H166.537C168.185 153.222 169.521 151.789 169.521 150.021C169.521 148.253 168.185 146.82 166.537 146.82H159.97V146.18C159.97 144.414 161.309 142.978 162.955 142.978H183.648C185.294 142.978 186.633 144.414 186.633 146.18V170.082Z" fill="black"/>
<path d="M25.6673 142.553C24.0189 142.553 22.6826 143.986 22.6826 145.754V178.191C22.6826 179.959 24.0189 181.392 25.6673 181.392H75.0116C76.66 181.392 77.9963 179.959 77.9963 178.191C77.9963 176.423 76.66 174.99 75.0116 174.99H28.6517V145.754C28.6517 143.986 27.3154 142.553 25.6673 142.553Z" fill="black"/>
<path d="M34.42 169.442C35.5697 169.442 36.6655 168.725 37.156 167.523L40.7917 158.611L45.6589 164.875C46.726 166.249 48.7073 166.403 49.9482 165.205L56.3953 158.982L62.5347 162.274C63.7304 162.915 65.1787 162.625 66.0781 161.564L74.0367 152.174C75.1453 150.866 75.0552 148.841 73.8358 147.652C72.6159 146.463 70.7282 146.559 69.6195 147.868L63.1816 155.463L57.2453 152.28C56.1487 151.691 54.8264 151.883 53.9142 152.763L48.2599 158.221L42.2859 150.532C40.8897 148.736 38.1319 149.159 37.2589 151.298L31.6879 164.956C30.8412 167.032 32.3 169.442 34.42 169.442Z" fill="black"/>
</g>
<g clip-path="url(#clip1_1071_1222)">
<path d="M349.895 119.91L353.446 116.321C353.446 116.321 358.903 111.634 365.125 113.759C375.957 117.458 388.472 113.453 397.152 104.763C399.621 102.293 402.62 97.3389 402.62 97.3389C402.964 96.8691 403.085 96.2737 402.943 95.7056L402.271 92.9416C402.145 92.4227 401.812 91.9801 401.353 91.7071C400.894 91.4393 400.342 91.3683 399.834 91.5158L378.514 97.4484C377.722 97.6669 376.875 97.3718 376.394 96.711L366.6 83.2182C366.299 82.8085 366.174 82.2949 366.245 81.7977L368.217 67.4638C368.321 66.6827 368.878 66.0489 369.637 65.836L392.154 59.5703C393.17 59.2861 393.787 58.2372 393.536 57.2048L392.646 53.5832C392.525 53.0697 392.198 52.6326 391.75 52.3596C391.75 52.3596 389.985 51.1905 388.701 50.5297C375.913 43.9253 359.81 45.974 349.086 56.7024C341.166 64.6232 338.063 75.4723 339.516 85.7746C340.636 93.6953 340.111 97.9071 336.692 101.523C336.38 101.846 335.397 102.829 333.878 104.32L349.895 119.91Z" fill="#9747FF"/>
<path d="M297.902 139.281C274.003 162.437 247.935 187.631 247.935 187.631C247.044 188.483 246.536 189.658 246.52 190.887C246.504 192.11 246.99 193.296 247.853 194.164L259.019 205.33C259.893 206.199 261.073 206.679 262.302 206.663C263.531 206.652 264.7 206.139 265.547 205.254L314.257 155.975L297.902 139.281Z" fill="#9747FF"/>
<path d="M399.305 193.804C400.173 192.935 400.654 191.755 400.638 190.526C400.627 189.297 400.113 188.128 399.229 187.276L303.507 94.1212L288.14 109.493L381.606 204.893C382.458 205.783 383.627 206.291 384.856 206.308C386.085 206.324 387.265 205.838 388.139 204.969L399.305 193.804Z" fill="#68E8A3"/>
<path d="M312.869 47.4046C301.343 42.909 282.705 42.2587 271.911 53.0476C263.411 61.5477 250.978 73.9861 250.978 73.9861C246.548 78.4108 250.661 82.8029 247.389 86.0696C244.117 89.3416 238.889 86.0696 235.945 89.0141L225.15 99.8131C223.615 101.343 223.615 103.834 225.15 105.369L240.189 120.408C241.724 121.943 244.215 121.943 245.75 120.408L256.544 109.613C259.494 106.669 256.216 101.441 259.494 98.1745C263.902 93.7607 268.715 94.5092 271.496 97.2841L277.051 102.84L283.071 104.424L298.438 89.0574L296.668 83.2231C291.767 78.3178 291.068 72.6418 294.138 69.5719C298.891 64.8193 306.741 57.953 314.093 55.0086C318.78 53.135 317.365 48.4699 312.869 47.4046ZM292.024 72.1776C292.002 72.194 294.072 69.6321 294.111 69.5992L292.024 72.1776Z" fill="#68E8A3"/>
</g>
<defs>
<clipPath id="clip0_1071_1222">
<rect width="193" height="207" fill="white"/>
</clipPath>
<clipPath id="clip1_1071_1222">
<rect width="179" height="179" fill="white" transform="translate(224 36)"/>
</clipPath>
</defs>
</svg>
