<svg width="166" height="190" viewBox="0 0 166 190" fill="none" xmlns="http://www.w3.org/2000/svg">
<g clip-path="url(#clip0_131_73)">
<path d="M133.139 65.6489H116.762V60.489C116.762 51.84 124.1 44.8181 133.139 44.8181H133.139V65.6489V65.6489Z" fill="#2F2E41"/>
<path d="M129.509 56.0165L132.325 68.1355L115.825 65.5138L122.549 54.0522L129.509 56.0165Z" fill="#A0616A"/>
<path opacity="0.1" d="M129.509 56.0165L132.325 68.1355L115.825 65.5138L122.549 54.0522L129.509 56.0165Z" fill="black"/>
<path d="M113.69 104.309H129.509V81.9052H113.69V104.309Z" fill="#A0616A"/>
<path d="M139.792 122.625L136.312 140.487C136.312 140.487 138.526 152.9 131.882 165.615L127.453 178.634L120.809 177.725C120.809 177.725 124.922 168.037 124.922 163.799C124.922 159.56 125.871 143.212 125.871 143.212L125.396 124.557L139.792 122.625Z" fill="#2F2E41"/>
<path d="M119.859 177.423C119.859 177.423 127.452 174.698 128.085 178.634L127.769 180.45C127.769 180.45 130.616 188.624 126.503 189.23C122.39 189.835 118.594 190.743 118.277 188.927C117.961 187.111 117.966 184.843 118.754 183.252C119.543 181.661 119.859 177.423 119.859 177.423Z" fill="#2F2E41"/>
<path d="M115.841 119.854L113.992 137.938C113.992 137.938 108.257 149.271 110.944 163.253L111.415 176.937L118.061 177.832C118.061 177.832 116.926 167.432 118.158 163.361C119.39 159.29 123.229 143.333 123.229 143.333L129.107 125.541L115.841 119.854Z" fill="#2F2E41"/>
<path d="M119.061 177.794C119.061 177.794 112.559 173.156 110.807 176.768L110.583 178.597C110.583 178.597 105.472 185.691 109.247 187.367C113.022 189.044 116.405 190.926 117.237 189.266C118.069 187.605 118.723 185.426 118.428 183.688C118.133 181.95 119.061 177.794 119.061 177.794Z" fill="#2F2E41"/>
<path d="M135.995 94.0151C143.436 100.66 143.988 111.173 139.634 123.685C139.634 123.685 125.713 132.767 115.588 121.263L110.526 97.9509L135.995 94.0151Z" fill="#2F2E41"/>
<path d="M123.498 61.6211L131.408 62.8321L130.775 81.9053L139.634 98.8592L128.244 104.309C128.244 104.309 119.385 88.263 117.803 78.2723C116.221 68.2816 117.17 61.0156 117.17 61.0156L123.498 61.6211Z" fill="#BFA179"/>
<path d="M117.486 62.2266L109.577 63.4376L110.209 82.5108L108.311 100.07L112.74 104.914C112.74 104.914 121.599 88.8685 123.181 78.8778C124.763 68.8871 123.814 61.6211 123.814 61.6211L117.486 62.2266Z" fill="#BFA179"/>
<path d="M126.978 62.6808L128.718 62.2267C128.718 62.2267 134.888 61.4698 135.837 63.8918C136.786 66.3138 136.47 80.543 136.47 80.543C136.47 80.543 138.102 98.0071 131.749 98.2061C125.396 98.4052 126.662 83.8732 126.662 83.8732L126.978 62.6808Z" fill="#BFA179"/>
<path d="M126.748 59.3423C131.27 59.3423 134.937 55.8342 134.937 51.5068C134.937 47.1794 131.27 43.6714 126.748 43.6714C122.226 43.6714 118.56 47.1794 118.56 51.5068C118.56 55.8342 122.226 59.3423 126.748 59.3423Z" fill="#A0616A"/>
<path d="M116.537 63.2863L114.797 62.8322C114.797 62.8322 108.628 62.0753 107.678 64.4973C106.729 66.9193 107.046 81.1485 107.046 81.1485C107.046 81.1485 105.413 98.6125 111.766 98.8116C118.119 99.0107 116.854 84.4787 116.854 84.4787L116.537 63.2863Z" fill="#BFA179"/>
<path d="M122.018 62.2907C120.262 61.8642 118.27 63.6595 117.569 66.3017C117.274 67.3534 117.247 68.4575 117.489 69.5215L116.734 72.5249L116.679 72.5221L110.725 85.9487C109.341 89.0705 109.487 92.6545 111.253 95.5949C112.303 97.344 113.682 98.5199 115.301 97.3196C117.987 95.3277 119.742 83.9232 120.543 77.372L122.395 70.7127C123.139 69.8879 123.665 68.9046 123.93 67.8451C124.631 65.204 123.775 62.7172 122.018 62.2907V62.2907Z" fill="#A0616A"/>
<path d="M111.071 57.8461C111.488 56.6342 112.31 55.5733 112.678 54.3471C113.166 52.719 114.206 56.3308 114.308 54.6398C114.501 51.4256 119.627 43.1577 122.554 41.5695C125.481 39.9813 127.162 40.4602 130.143 41.9517C130.143 41.9517 131.591 42.0398 133.393 42.891C135.194 43.7423 136.816 45.1056 137.517 46.9078C138.073 48.3362 138.011 49.9049 138.197 51.4187C138.714 55.636 141.184 59.6468 140.654 63.8626C140.489 65.1779 139.966 66.538 138.842 67.3116C137.719 68.0852 135.903 68.0011 135.163 66.8813C134.911 66.4992 134.804 66.0458 134.588 65.6439C134.371 65.242 133.98 64.8674 133.508 64.8799C132.798 64.8987 132.437 65.8101 132.717 66.4346C132.997 67.0591 133.654 67.4361 134.272 67.7715C132.801 68.4047 130.976 68.2075 129.69 67.2764C128.404 66.3452 127.709 64.7187 127.946 63.192C128.28 61.0406 131.555 61.4859 131.941 59.3426C132.222 57.7823 133.208 55.1716 132.939 53.6093C132.671 52.0471 131.38 53.9387 132.74 53.036C131.244 53.7259 128.045 49.0065 126.48 48.4779C124.914 47.9493 123.587 46.8047 122.875 45.3695C121.214 47.6729 119.753 47.0474 119.159 49.7872C118.564 52.527 119.114 58.7515 121.563 60.2811C120.583 60.9209 119.801 61.8359 119.342 62.8824C119.081 63.4752 118.912 64.1239 118.48 64.6163C117.654 65.5567 116.129 65.6139 114.914 65.2185C113.407 64.7282 112.119 63.6514 111.408 62.2884C110.698 60.9255 110.574 59.2929 111.071 57.8461L111.071 57.8461Z" fill="#2F2E41"/>
<path d="M0 189.562C0 189.762 0.167696 189.922 0.376522 189.922H165.623C165.832 189.922 166 189.762 166 189.562C166 189.362 165.832 189.202 165.623 189.202H0.376522C0.167696 189.202 0 189.362 0 189.562Z" fill="#3F3D56"/>
<path d="M107.584 0.302734H42.513C35.1338 0.302734 29.1519 6.0268 29.1519 13.0878V176.703C29.1519 183.764 35.1338 189.488 42.5129 189.488H107.584C114.964 189.488 120.945 183.764 120.945 176.703V13.0878C120.945 6.0268 114.964 0.302734 107.584 0.302734H107.584Z" fill="white"/>
<path d="M107.584 189.791H42.513C34.9712 189.791 28.8354 183.92 28.8354 176.703V13.0878C28.8354 5.87123 34.9712 0 42.513 0H107.584C115.126 0 121.262 5.87123 121.262 13.0878V176.703C121.262 183.92 115.126 189.791 107.584 189.791H107.584ZM42.513 0.605497C35.32 0.605497 29.4682 6.20502 29.4682 13.0878V176.703C29.4682 183.586 35.32 189.185 42.513 189.185H107.584C114.777 189.185 120.629 183.586 120.629 176.703V13.0878C120.629 6.20502 114.777 0.605497 107.584 0.605497H42.513Z" fill="#3F3D56"/>
<path d="M23.7746 28.6299C23.2033 28.6299 22.7388 29.0744 22.7388 29.6211V37.5505C22.7388 38.0971 23.2033 38.5416 23.7746 38.5416C24.3459 38.5416 24.8104 38.0971 24.8104 37.5505V29.6211C24.8104 29.0744 24.3459 28.6299 23.7746 28.6299Z" fill="#3F3D56"/>
<path d="M112.298 26.4788H86.1428C85.0334 26.4788 84.1309 25.6152 84.1309 24.5536C84.1309 23.4921 85.0334 22.6284 86.1428 22.6284H112.298C113.407 22.6284 114.31 23.4921 114.31 24.5536C114.31 25.6152 113.407 26.4788 112.298 26.4788Z" fill="#E6E6E6"/>
<path d="M87.7609 41.6186H62.3368C61.6959 41.6186 61.1743 41.1195 61.1743 40.5062C61.1743 39.8929 61.6959 39.394 62.3368 39.394H87.7609C88.4019 39.394 88.9232 39.8929 88.9232 40.5062C88.9232 41.1195 88.4019 41.6186 87.7609 41.6186Z" fill="#BFA179"/>
<path d="M24.7804 47.1083C36.1207 47.1083 45.3138 38.4969 45.3138 27.8742C45.3138 17.2515 36.1207 8.64014 24.7804 8.64014C13.4402 8.64014 4.24707 17.2515 4.24707 27.8742C4.24707 38.4969 13.4402 47.1083 24.7804 47.1083Z" fill="#BFA179"/>
<path d="M31.7493 18.1722C29.0157 22.9352 26.2821 27.6983 23.5484 32.4614C21.8062 29.5158 20.0735 26.565 18.3269 23.6217C17.7238 22.6052 16.0831 23.5195 16.6878 24.5385C18.7124 27.9504 20.716 31.3737 22.7407 34.7857C23.0868 35.3691 24.0372 35.3826 24.3798 34.7857C27.3827 29.5535 30.3856 24.3212 33.3885 19.089C33.9769 18.0638 32.3382 17.1462 31.7493 18.1722H31.7493Z" fill="white"/>
<path d="M51.8262 4.4375H37.311C37.2568 4.4375 37.2129 4.47955 37.2129 4.53142V6.14836C37.2129 6.20023 37.2568 6.24227 37.311 6.24227H51.8262C51.8804 6.24227 51.9244 6.20023 51.9244 6.14836V4.53142C51.9244 4.47955 51.8804 4.4375 51.8262 4.4375Z" fill="#E6E6E6"/>
<path d="M100.718 6.24262C101.552 6.24262 102.227 5.5962 102.227 4.7988C102.227 4.0014 101.552 3.35498 100.718 3.35498C99.885 3.35498 99.2095 4.0014 99.2095 4.7988C99.2095 5.5962 99.885 6.24262 100.718 6.24262Z" fill="#E6E6E6"/>
<path d="M104.868 6.24262C105.701 6.24262 106.377 5.5962 106.377 4.7988C106.377 4.0014 105.701 3.35498 104.868 3.35498C104.034 3.35498 103.359 4.0014 103.359 4.7988C103.359 5.5962 104.034 6.24262 104.868 6.24262Z" fill="#E6E6E6"/>
<path d="M109.017 6.24262C109.85 6.24262 110.526 5.5962 110.526 4.7988C110.526 4.0014 109.85 3.35498 109.017 3.35498C108.184 3.35498 107.508 4.0014 107.508 4.7988C107.508 5.5962 108.184 6.24262 109.017 6.24262Z" fill="#E6E6E6"/>
<path d="M42.3545 47.5727C42.3545 47.7725 42.5222 47.9329 42.731 47.9329H107.366C107.575 47.9329 107.743 47.7725 107.743 47.5727C107.743 47.3729 107.575 47.2124 107.366 47.2124H42.731C42.5222 47.2124 42.3545 47.3729 42.3545 47.5727Z" fill="#3F3D56"/>
<path d="M101.168 75.8891H62.3793C61.7383 75.8891 61.2168 75.39 61.2168 74.7767C61.2168 74.1634 61.7383 73.6646 62.3793 73.6646H101.168C101.809 73.6646 102.33 74.1634 102.33 74.7767C102.33 75.39 101.809 75.8891 101.168 75.8891Z" fill="#BFA179"/>
<path d="M101.168 91.935H62.3793C61.7383 91.935 61.2168 91.4359 61.2168 90.8226C61.2168 90.2093 61.7383 89.7104 62.3793 89.7104H101.168C101.809 89.7104 102.33 90.2093 102.33 90.8226C102.33 91.4359 101.809 91.935 101.168 91.935Z" fill="#BFA179"/>
<path d="M101.168 107.98H62.3793C61.7383 107.98 61.2168 107.481 61.2168 106.868C61.2168 106.255 61.7383 105.756 62.3793 105.756H101.168C101.809 105.756 102.33 106.255 102.33 106.868C102.33 107.481 101.809 107.98 101.168 107.98Z" fill="#BFA179"/>
<path d="M50.6146 77.364C52.1872 77.364 53.4621 76.1441 53.4621 74.6393C53.4621 73.1345 52.1872 71.9146 50.6146 71.9146C49.042 71.9146 47.7671 73.1345 47.7671 74.6393C47.7671 76.1441 49.042 77.364 50.6146 77.364Z" fill="#BFA179"/>
<path d="M50.2983 79.1806V78.5751C52.6535 78.5751 54.5696 76.7416 54.5696 74.488C54.5696 72.2344 52.6535 70.4009 50.2983 70.4009V69.7954C53.0025 69.7954 55.2024 71.9005 55.2024 74.488C55.2024 77.0756 53.0025 79.1806 50.2983 79.1806Z" fill="#3F3D56"/>
<path d="M50.6146 93.4099C52.1872 93.4099 53.4621 92.19 53.4621 90.6852C53.4621 89.1804 52.1872 87.9604 50.6146 87.9604C49.042 87.9604 47.7671 89.1804 47.7671 90.6852C47.7671 92.19 49.042 93.4099 50.6146 93.4099Z" fill="#BFA179"/>
<path d="M50.2983 95.2265V94.621C52.6535 94.621 54.5696 92.7877 54.5696 90.5339C54.5696 88.2803 52.6535 86.4468 50.2983 86.4468V85.8413C53.0025 85.8413 55.2024 87.9464 55.2024 90.5339C55.2024 93.1215 53.0025 95.2265 50.2983 95.2265Z" fill="#3F3D56"/>
<path d="M50.6146 109.455C52.1872 109.455 53.4621 108.235 53.4621 106.731C53.4621 105.226 52.1872 104.006 50.6146 104.006C49.042 104.006 47.7671 105.226 47.7671 106.731C47.7671 108.235 49.042 109.455 50.6146 109.455Z" fill="#BFA179"/>
<path d="M50.2983 111.272V110.666C52.6535 110.666 54.5696 108.833 54.5696 106.579C54.5696 104.326 52.6535 102.492 50.2983 102.492V101.887C53.0025 101.887 55.2024 103.992 55.2024 106.579C55.2024 109.167 53.0025 111.272 50.2983 111.272Z" fill="#3F3D56"/>
<path d="M121.497 61.6852C123.254 61.2588 125.246 63.054 125.946 65.6962C126.241 66.748 126.269 67.852 126.026 68.916L126.781 71.9194L126.837 71.9166L132.791 85.3432C134.175 88.465 134.029 92.049 132.263 94.9894C131.213 96.7386 129.834 97.9145 128.215 96.7141C125.528 94.7223 123.774 83.3177 122.973 76.7665L121.12 70.1073C120.377 69.2824 119.85 68.2991 119.585 67.2397C118.885 64.5985 119.741 62.1117 121.497 61.6852V61.6852Z" fill="#A0616A"/>
<path d="M128.261 69.0425L121.6 73.5734L124.93 93.6438L129.107 98.8132L133.973 97.2029L135.396 87.7152L133.722 78.5397L128.261 69.0425Z" fill="#BFA179"/>
</g>
<defs>
<clipPath id="clip0_131_73">
<rect width="166" height="190" fill="white"/>
</clipPath>
</defs>
</svg>
