<svg width="295" height="141" viewBox="0 0 295 141" fill="none" xmlns="http://www.w3.org/2000/svg">
<g clip-path="url(#clip0_1050_1276)">
<path d="M63.9183 125.159C72.3913 125.159 79.26 119.445 79.26 112.397C79.26 105.349 72.3913 99.6351 63.9183 99.6351C55.4454 99.6351 48.5767 105.349 48.5767 112.397C48.5767 119.445 55.4454 125.159 63.9183 125.159Z" fill="#F2F2F2"/>
<path d="M66.4129 123.292C74.8859 123.292 81.7546 117.578 81.7546 110.53C81.7546 103.481 74.8859 97.7676 66.4129 97.7676C57.9399 97.7676 51.0712 103.481 51.0712 110.53C51.0712 117.578 57.9399 123.292 66.4129 123.292Z" fill="#68E8A3"/>
<path d="M268.586 96.4086H78.7683V96.8394H268.586V96.4086Z" fill="#3F3D56"/>
<path d="M177.075 4.01805H109.702V2.86292H79.1518V4.01805H11.5004C10.902 4.01805 10.3093 4.11611 9.75642 4.30663C9.2035 4.49714 8.70111 4.77639 8.27792 5.12842C7.85474 5.48045 7.51905 5.89836 7.29002 6.35831C7.06099 6.81826 6.94311 7.31123 6.94312 7.80908V84.552C6.94311 85.5574 7.42326 86.5217 8.27792 87.2327C9.13258 87.9436 10.2918 88.343 11.5004 88.343H177.075C178.284 88.343 179.443 87.9436 180.298 87.2327C181.152 86.5217 181.632 85.5574 181.632 84.552V7.80908C181.632 7.31123 181.515 6.81826 181.286 6.35831C181.057 5.89836 180.721 5.48045 180.298 5.12842C179.874 4.77639 179.372 4.49714 178.819 4.30663C178.266 4.11611 177.674 4.01805 177.075 4.01805Z" fill="#3F3D56"/>
<path d="M175.523 10.7178H13.0531V86.9568H175.523V10.7178Z" fill="#BFA179"/>
<path d="M94.149 8.63854C95.0693 8.63854 95.8153 8.01793 95.8153 7.25238C95.8153 6.48682 95.0693 5.86621 94.149 5.86621C93.2287 5.86621 92.4826 6.48682 92.4826 7.25238C92.4826 8.01793 93.2287 8.63854 94.149 8.63854Z" fill="#BFA179"/>
<path opacity="0.1" d="M129.059 86.9569H13.0532V10.7179L129.059 86.9569Z" fill="black"/>
<path d="M38.4747 81.2518C47.0997 81.2518 54.0917 75.4355 54.0917 68.2607C54.0917 61.0859 47.0997 55.2695 38.4747 55.2695C29.8496 55.2695 22.8576 61.0859 22.8576 68.2607C22.8576 75.4355 29.8496 81.2518 38.4747 81.2518Z" fill="#F2F2F2"/>
<path d="M147.234 51.8341H132.057V54.4721H147.234V51.8341Z" fill="#3F3D56"/>
<path d="M165.582 31.2957H113.71V32.4262H165.582V31.2957Z" fill="#3F3D56"/>
<path d="M165.582 34.8757H113.71V36.0063H165.582V34.8757Z" fill="#3F3D56"/>
<path d="M165.582 38.4558H113.71V39.5864H165.582V38.4558Z" fill="#3F3D56"/>
<path d="M165.582 42.0359H113.71V43.1664H165.582V42.0359Z" fill="#3F3D56"/>
<path d="M165.582 45.6161H113.71V46.7466H165.582V45.6161Z" fill="#3F3D56"/>
<path d="M165.582 12.2645H159.239V17.5405H165.582V12.2645Z" fill="#F2F2F2"/>
<path d="M168.526 19.99H160.825V13.5835H168.526V19.99ZM161.16 19.7115H168.191V13.8621H161.16V19.7115Z" fill="#3F3D56"/>
<path d="M186.194 85.5706H170.338V84.6203C170.338 84.5956 170.332 84.5711 170.321 84.5482C170.31 84.5253 170.293 84.5046 170.272 84.4871C170.251 84.4696 170.226 84.4557 170.198 84.4462C170.171 84.4368 170.142 84.4319 170.112 84.4319H164.675C164.646 84.4319 164.616 84.4368 164.589 84.4462C164.561 84.4557 164.536 84.4696 164.515 84.4871C164.494 84.5046 164.478 84.5253 164.466 84.5482C164.455 84.5711 164.449 84.5956 164.449 84.6203V85.5706H161.051V84.6203C161.051 84.5956 161.045 84.5711 161.034 84.5482C161.023 84.5253 161.006 84.5046 160.985 84.4871C160.964 84.4696 160.939 84.4557 160.911 84.4462C160.884 84.4368 160.854 84.4319 160.825 84.4319H155.388C155.359 84.4319 155.329 84.4368 155.302 84.4462C155.274 84.4557 155.249 84.4696 155.228 84.4871C155.207 84.5046 155.191 84.5253 155.179 84.5482C155.168 84.5711 155.162 84.5956 155.162 84.6203V85.5706H151.764V84.6203C151.764 84.5956 151.758 84.5711 151.747 84.5482C151.736 84.5253 151.719 84.5046 151.698 84.4871C151.677 84.4696 151.652 84.4557 151.624 84.4462C151.597 84.4368 151.567 84.4319 151.538 84.4319H146.101C146.072 84.4319 146.042 84.4368 146.015 84.4462C145.987 84.4557 145.962 84.4696 145.941 84.4871C145.92 84.5046 145.903 84.5253 145.892 84.5482C145.881 84.5711 145.875 84.5956 145.875 84.6203V85.5706H142.477V84.6203C142.477 84.5956 142.471 84.5711 142.46 84.5482C142.449 84.5253 142.432 84.5046 142.411 84.4871C142.39 84.4696 142.365 84.4557 142.337 84.4462C142.31 84.4368 142.28 84.4319 142.251 84.4319H136.814C136.785 84.4319 136.755 84.4368 136.728 84.4462C136.7 84.4557 136.675 84.4696 136.654 84.4871C136.633 84.5046 136.616 84.5253 136.605 84.5482C136.594 84.5711 136.588 84.5956 136.588 84.6203V85.5706H133.19V84.6203C133.19 84.5956 133.184 84.5711 133.173 84.5482C133.161 84.5253 133.145 84.5046 133.124 84.4871C133.103 84.4696 133.078 84.4557 133.05 84.4462C133.023 84.4368 132.993 84.4319 132.964 84.4319H127.527C127.497 84.4319 127.468 84.4368 127.441 84.4462C127.413 84.4557 127.388 84.4696 127.367 84.4871C127.346 84.5046 127.329 84.5253 127.318 84.5482C127.307 84.5711 127.301 84.5956 127.301 84.6203V85.5706H123.903V84.6203C123.903 84.5956 123.897 84.5711 123.886 84.5482C123.874 84.5253 123.858 84.5046 123.837 84.4871C123.816 84.4696 123.791 84.4557 123.763 84.4462C123.736 84.4368 123.706 84.4319 123.676 84.4319H118.24C118.21 84.4319 118.181 84.4368 118.153 84.4462C118.126 84.4557 118.101 84.4696 118.08 84.4871C118.059 84.5046 118.042 84.5253 118.031 84.5482C118.02 84.5711 118.014 84.5956 118.014 84.6203V85.5706H114.616V84.6203C114.616 84.5956 114.61 84.5711 114.599 84.5482C114.587 84.5253 114.571 84.5046 114.55 84.4871C114.529 84.4696 114.504 84.4557 114.476 84.4462C114.449 84.4368 114.419 84.4319 114.389 84.4319H71.8049C71.7751 84.4319 71.7456 84.4368 71.7182 84.4462C71.6907 84.4557 71.6657 84.4696 71.6447 84.4871C71.6236 84.5046 71.607 84.5253 71.5956 84.5482C71.5842 84.5711 71.5783 84.5956 71.5783 84.6203V85.5706H68.1806V84.6203C68.1806 84.5956 68.1748 84.5711 68.1634 84.5482C68.152 84.5253 68.1353 84.5046 68.1143 84.4871C68.0933 84.4696 68.0683 84.4557 68.0408 84.4462C68.0133 84.4368 67.9839 84.4319 67.9541 84.4319H62.5178C62.488 84.4319 62.4586 84.4368 62.4311 84.4462C62.4036 84.4557 62.3786 84.4696 62.3576 84.4871C62.3366 84.5046 62.3199 84.5253 62.3085 84.5482C62.2971 84.5711 62.2913 84.5956 62.2913 84.6203V85.5706H58.8936V84.6203C58.8936 84.5956 58.8877 84.5711 58.8763 84.5482C58.8649 84.5253 58.8483 84.5046 58.8272 84.4871C58.8062 84.4696 58.7812 84.4557 58.7537 84.4462C58.7263 84.4368 58.6968 84.4319 58.667 84.4319H53.2307C53.201 84.4319 53.1715 84.4368 53.144 84.4462C53.1166 84.4557 53.0916 84.4696 53.0705 84.4871C53.0495 84.5046 53.0328 84.5253 53.0214 84.5482C53.0101 84.5711 53.0042 84.5956 53.0042 84.6203V85.5706H49.6065V84.6203C49.6065 84.5956 49.6006 84.5711 49.5893 84.5482C49.5779 84.5253 49.5612 84.5046 49.5402 84.4871C49.5191 84.4696 49.4942 84.4557 49.4667 84.4462C49.4392 84.4368 49.4097 84.4319 49.38 84.4319H43.9437C43.9139 84.4319 43.8845 84.4368 43.857 84.4462C43.8295 84.4557 43.8045 84.4696 43.7835 84.4871C43.7625 84.5046 43.7458 84.5253 43.7344 84.5482C43.723 84.5711 43.7171 84.5956 43.7171 84.6203V85.5706H40.3195V84.6203C40.3195 84.5956 40.3136 84.5711 40.3022 84.5482C40.2908 84.5253 40.2741 84.5046 40.2531 84.4871C40.2321 84.4696 40.2071 84.4557 40.1796 84.4462C40.1521 84.4368 40.1227 84.4319 40.0929 84.4319H34.6566C34.6269 84.4319 34.5974 84.4368 34.5699 84.4462C34.5424 84.4557 34.5175 84.4696 34.4964 84.4871C34.4754 84.5046 34.4587 84.5253 34.4473 84.5482C34.4359 84.5711 34.4301 84.5956 34.4301 84.6203V85.5706H31.0324V84.6203C31.0324 84.5956 31.0265 84.5711 31.0151 84.5482C31.0038 84.5253 30.9871 84.5046 30.966 84.4871C30.945 84.4696 30.92 84.4557 30.8925 84.4462C30.8651 84.4368 30.8356 84.4319 30.8059 84.4319H25.3695C25.3398 84.4319 25.3103 84.4368 25.2829 84.4462C25.2554 84.4557 25.2304 84.4696 25.2094 84.4871C25.1883 84.5046 25.1716 84.5253 25.1603 84.5482C25.1489 84.5711 25.143 84.5956 25.143 84.6203V85.5706H21.7453V84.6203C21.7453 84.5956 21.7395 84.5711 21.7281 84.5482C21.7167 84.5253 21.7 84.5046 21.679 84.4871C21.6579 84.4696 21.633 84.4557 21.6055 84.4462C21.578 84.4368 21.5486 84.4319 21.5188 84.4319H16.0825C16.0527 84.4319 16.0233 84.4368 15.9958 84.4462C15.9683 84.4557 15.9433 84.4696 15.9223 84.4871C15.9013 84.5046 15.8846 84.5253 15.8732 84.5482C15.8618 84.5711 15.856 84.5956 15.856 84.6203V85.5706H5.43633C3.99453 85.5706 2.61178 86.0471 1.59227 86.8952C0.572756 87.7433 1.37361e-06 88.8935 0 90.0929V92.1377C4.12082e-06 93.3371 0.572761 94.4873 1.59227 95.3354C2.61178 96.1835 3.99453 96.6599 5.43633 96.6599H186.194C187.636 96.6599 189.019 96.1835 190.038 95.3354C191.058 94.4873 191.631 93.3371 191.631 92.1377V90.0929C191.631 88.8935 191.058 87.7433 190.038 86.8952C189.019 86.0471 187.636 85.5706 186.194 85.5706Z" fill="#3F3D56"/>
<path d="M42.2549 76.3748C38.3624 76.3748 34.5573 75.4146 31.3207 73.6157C28.0842 71.8167 25.5617 69.2598 24.072 66.2683C22.5824 63.2767 22.1927 59.9849 22.9521 56.8091C23.7115 53.6333 25.5859 50.7161 28.3383 48.4265C31.0908 46.1369 34.5976 44.5776 38.4153 43.9459C42.2331 43.3142 46.1903 43.6384 49.7865 44.8776C53.3827 46.1167 56.4565 48.2151 58.619 50.9074C60.7816 53.5998 61.9359 56.7651 61.9359 60.0031C61.93 64.3436 59.8546 68.505 56.1649 71.5742C52.4753 74.6434 47.4728 76.3699 42.2549 76.3748ZM42.2549 44.0622C38.4648 44.0622 34.7598 44.9971 31.6085 46.7487C28.4571 48.5003 26.0009 50.9899 24.5505 53.9028C23.1001 56.8156 22.7206 60.0208 23.4601 63.113C24.1995 66.2052 26.0246 69.0456 28.7046 71.275C31.3846 73.5044 34.7991 75.0226 38.5164 75.6377C42.2336 76.2527 46.0867 75.9371 49.5883 74.7305C53.0899 73.524 56.0827 71.4808 58.1884 68.8594C60.2941 66.2379 61.418 63.1559 61.418 60.0031C61.4122 55.7768 59.3914 51.7249 55.7989 48.7364C52.2064 45.748 47.3355 44.067 42.2549 44.0622Z" fill="#3F3D56"/>
<path d="M217.83 7.01038H151.795V7.44121H217.83V7.01038Z" fill="#3F3D56"/>
<path d="M295 120.751H105.182V121.182H295V120.751Z" fill="#3F3D56"/>
<path d="M115.929 140.569H49.8943V141H115.929V140.569Z" fill="#3F3D56"/>
<path d="M129.221 118.48H121.97V124.511H129.221V118.48Z" fill="#BFA179"/>
<path d="M133.623 121.065H124.819V113.74H133.623V121.065ZM125.202 120.746H133.241V114.059H125.202V120.746Z" fill="#3F3D56"/>
<path d="M213.383 4.73914H206.132V10.7708H213.383V4.73914Z" fill="#BFA179"/>
<path d="M217.786 7.32419H208.981V0H217.786V7.32419ZM209.364 7.00575H217.403V0.318444H209.364V7.00575Z" fill="#3F3D56"/>
<path d="M286.41 118.48H279.159V124.511H286.41V118.48Z" fill="#BFA179"/>
<path d="M290.812 121.065H282.008V113.74H290.812V121.065ZM282.391 120.746H290.43V114.059H282.391V120.746Z" fill="#3F3D56"/>
<path d="M273.765 49.9678H273.149V35.9308C273.149 34.864 272.897 33.8075 272.406 32.8218C271.915 31.8362 271.196 30.9406 270.289 30.1862C269.382 29.4318 268.305 28.8333 267.12 28.4251C265.936 28.0168 264.666 27.8066 263.383 27.8066H227.633C226.35 27.8066 225.08 28.0168 223.895 28.425C222.71 28.8333 221.634 29.4318 220.727 30.1862C219.82 30.9406 219.1 31.8362 218.61 32.8218C218.119 33.8075 217.866 34.864 217.866 35.9308V112.939C217.866 114.005 218.119 115.062 218.61 116.048C219.1 117.033 219.82 117.929 220.727 118.683C221.634 119.438 222.71 120.036 223.895 120.444C225.08 120.853 226.35 121.063 227.633 121.063H263.383C264.666 121.063 265.936 120.853 267.12 120.444C268.305 120.036 269.382 119.438 270.289 118.683C271.196 117.929 271.915 117.033 272.406 116.048C272.897 115.062 273.149 114.005 273.149 112.939V59.9595H273.765V49.9678Z" fill="#3F3D56"/>
<path d="M271.07 36.4084V113.304C271.07 114.913 270.302 116.456 268.934 117.594C267.567 118.732 265.712 119.372 263.777 119.372H227.854C225.92 119.372 224.065 118.732 222.697 117.594C221.33 116.456 220.562 114.913 220.562 113.304V36.4084C220.562 34.7996 221.331 33.2568 222.698 32.1192C224.066 30.9816 225.92 30.3425 227.854 30.3423H232.213C231.998 30.7799 231.916 31.2547 231.974 31.7249C232.032 32.195 232.229 32.6461 232.546 33.0383C232.863 33.4305 233.291 33.7519 233.792 33.9741C234.294 34.1963 234.853 34.3125 235.421 34.3124H255.902C256.47 34.3125 257.03 34.1963 257.531 33.9741C258.033 33.7519 258.461 33.4305 258.778 33.0383C259.095 32.6461 259.291 32.195 259.349 31.7249C259.407 31.2547 259.325 30.7799 259.111 30.3423H263.777C265.711 30.3425 267.566 30.9816 268.934 32.1192C270.301 33.2568 271.069 34.7996 271.07 36.4084Z" fill="#68E8A3"/>
<path d="M251.166 81.0438H240.465V83.6818H251.166V81.0438Z" fill="#3F3D56"/>
<path d="M264.104 60.5054H227.528V61.6359H264.104V60.5054Z" fill="#3F3D56"/>
<path d="M264.104 64.0854H227.528V65.216H264.104V64.0854Z" fill="#3F3D56"/>
<path d="M264.104 67.6655H227.528V68.7961H264.104V67.6655Z" fill="#3F3D56"/>
<path d="M264.104 71.2456H227.528V72.3762H264.104V71.2456Z" fill="#3F3D56"/>
<path d="M264.104 74.8258H227.528V75.9564H264.104V74.8258Z" fill="#3F3D56"/>
<path d="M247.093 45.4916H240.751V50.7675H247.093V45.4916Z" fill="#F2F2F2"/>
<path d="M243.179 46.8109V53.2174H250.881V46.8109H243.179ZM250.546 52.9395H243.513V47.0888H250.546V52.9395Z" fill="#3F3D56"/>
<path opacity="0.1" d="M271.07 105.092V113.304C271.07 114.913 270.302 116.456 268.934 117.594C267.567 118.732 265.712 119.372 263.777 119.372H227.854C225.92 119.372 224.065 118.732 222.697 117.594C221.33 116.456 220.562 114.913 220.562 113.304V71.8984L250.827 91.7879L251.345 92.1283L256.974 95.827L257.5 96.1738L271.07 105.092Z" fill="black"/>
<path d="M242.708 116.88C248.982 116.88 254.068 112.649 254.068 107.43C254.068 102.211 248.982 97.9802 242.708 97.9802C236.434 97.9802 231.348 102.211 231.348 107.43C231.348 112.649 236.434 116.88 242.708 116.88Z" fill="#F2F2F2"/>
<path d="M82.9116 141C78.4557 141 74.0999 139.901 70.3949 137.841C66.6899 135.782 63.8023 132.855 62.0971 129.431C60.3918 126.006 59.9457 122.238 60.815 118.602C61.6843 114.967 63.83 111.628 66.9808 109.007C70.1317 106.386 74.146 104.601 78.5163 103.877C82.8866 103.154 87.4166 103.525 91.5333 104.944C95.6501 106.362 99.1687 108.765 101.644 111.847C104.12 114.929 105.441 118.552 105.441 122.259C105.434 127.227 103.059 131.991 98.835 135.505C94.6113 139.018 88.8848 140.994 82.9116 141ZM82.9116 103.948C78.5582 103.948 74.3024 105.022 70.6826 107.034C67.0628 109.046 64.2416 111.906 62.5756 115.252C60.9095 118.597 60.4736 122.279 61.323 125.831C62.1723 129.383 64.2687 132.645 67.3471 135.206C70.4254 137.767 74.3475 139.511 78.6174 140.217C82.8872 140.924 87.313 140.561 91.3351 139.175C95.3572 137.789 98.795 135.443 101.214 132.431C103.632 129.42 104.923 125.88 104.923 122.259C104.917 117.404 102.595 112.75 98.4689 109.317C94.3424 105.885 88.7475 103.954 82.9116 103.948Z" fill="#3F3D56"/>
<path d="M246.057 114.719C243.24 114.719 240.486 114.024 238.144 112.722C235.802 111.42 233.976 109.57 232.898 107.405C231.82 105.24 231.538 102.858 232.088 100.56C232.637 98.2614 233.994 96.1503 235.985 94.4934C237.977 92.8364 240.515 91.708 243.278 91.2509C246.041 90.7937 248.905 91.0283 251.507 91.9251C254.11 92.8218 256.334 94.3404 257.899 96.2888C259.464 98.2372 260.299 100.528 260.299 102.871C260.295 106.012 258.793 109.024 256.123 111.245C253.453 113.466 249.833 114.716 246.057 114.719ZM246.057 91.454C243.342 91.454 240.689 92.1236 238.432 93.3782C236.174 94.6327 234.415 96.4158 233.377 98.502C232.338 100.588 232.066 102.884 232.595 105.099C233.125 107.313 234.432 109.348 236.352 110.944C238.271 112.541 240.717 113.628 243.379 114.069C246.041 114.509 248.801 114.283 251.309 113.419C253.817 112.555 255.96 111.092 257.468 109.214C258.977 107.337 259.782 105.129 259.782 102.871C259.777 99.8442 258.33 96.9422 255.757 94.8018C253.184 92.6614 249.695 91.4574 246.057 91.454Z" fill="#3F3D56"/>
</g>
<defs>
<clipPath id="clip0_1050_1276">
<rect width="295" height="141" fill="white"/>
</clipPath>
</defs>
</svg>
