<svg width="301" height="283" viewBox="0 0 301 283" fill="none" xmlns="http://www.w3.org/2000/svg">
<g clip-path="url(#clip0_1067_1182)">
<path d="M156.578 224.612L146.754 224.13L148.107 251.012L154.764 251.339L156.578 224.612Z" fill="#A0616A"/>
<path d="M147.236 242.514L150.65 243.895V245.738C150.65 245.738 151.467 243.603 155.883 243.129L156.415 244.915C156.415 244.915 158.132 246.666 157.846 249.838L156.742 258.334L153.411 258.272L152.858 252.363C152.858 252.363 151.938 251.023 147.726 257.404C147.726 257.404 146.174 259.514 138.959 257.371C137.967 257.077 137.277 256.253 137.287 255.321C137.293 254.807 137.517 254.331 138.24 254.159C140.08 253.721 141.879 254.268 143.065 252.956C144.251 251.643 147.236 242.513 147.236 242.513L147.236 242.514H147.236Z" fill="#2F2E41"/>
<path d="M131.984 249.278L122.16 248.796L123.513 275.678L130.17 276.005L131.984 249.278Z" fill="#A0616A"/>
<path d="M122.642 267.179L126.056 268.56V270.404C126.056 270.404 126.874 268.269 131.29 267.795L131.821 269.581C131.821 269.581 133.538 271.332 133.252 274.504L132.148 283L128.817 282.938L128.265 277.029C128.265 277.029 127.344 275.689 123.132 282.07C123.132 282.07 121.58 284.18 114.365 282.037C113.373 281.743 112.683 280.919 112.693 279.987C112.699 279.473 112.924 278.997 113.647 278.825C115.486 278.387 117.286 278.934 118.471 277.622C119.657 276.309 122.642 267.179 122.642 267.179L122.642 267.179H122.642Z" fill="#2F2E41"/>
<path d="M255.266 168.95C254.83 168.294 252.944 168.996 252.598 168.401C252.252 167.808 254.004 166.905 255.005 164.842C255.186 164.47 256.323 162.126 255.481 161.402C253.885 160.031 246.581 165.69 244.025 163.838C243.464 163.432 243.072 162.62 241.374 161.303C240.699 160.779 240.29 160.543 239.895 160.631C239.334 160.756 239.29 161.425 238.688 162.741C237.787 164.715 237.253 164.596 236.728 166.171C236.338 167.34 236.427 168.019 235.968 168.152C235.318 168.339 234.72 167.099 233.897 167.21C233.057 167.323 232.549 168.767 232.389 169.848C232.088 171.877 232.923 173.215 233.386 174.623C233.889 176.152 234.188 178.479 233.026 181.772L221.525 210.669C224.064 204.74 231.416 188.485 234.505 182.444C235.397 180.701 236.381 178.932 238.403 178.234C240.35 177.562 243.023 177.963 246.431 177.231C246.829 177.145 247.934 176.895 248.073 176.315C248.188 175.836 247.538 175.569 247.638 175.12C247.772 174.519 249.049 174.511 250.619 173.817C251.726 173.327 252.416 172.745 253.009 172.245C253.188 172.094 255.846 169.822 255.266 168.95H255.266Z" fill="#F2F2F2"/>
<path d="M210.018 184.162C209.532 184.164 209.374 185.192 208.947 185.172C208.521 185.152 208.529 184.125 207.683 183.092C207.53 182.905 206.568 181.731 205.927 181.891C204.712 182.194 205.718 187.023 203.962 187.608C203.576 187.736 203.017 187.674 201.802 188.037C201.319 188.181 201.071 188.292 201.005 188.49C200.912 188.771 201.268 188.984 201.818 189.627C202.644 190.591 202.425 190.79 203.14 191.475C203.671 191.983 204.071 192.14 204.011 192.379C203.927 192.717 203.072 192.621 202.895 193.014C202.715 193.414 203.363 194.053 203.912 194.435C204.942 195.152 205.919 195.173 206.828 195.376C207.815 195.597 209.181 196.138 210.658 197.597L223.244 210.968C220.713 208.146 213.888 200.238 211.455 197.143C210.753 196.25 210.063 195.308 210.263 194.222C210.454 193.176 211.446 192.122 212.027 190.419C212.095 190.22 212.275 189.664 211.997 189.436C211.766 189.248 211.432 189.455 211.214 189.282C210.921 189.05 211.286 188.488 211.356 187.601C211.406 186.975 211.285 186.505 211.181 186.101C211.149 185.979 210.666 184.16 210.018 184.162V184.162H210.018Z" fill="#F2F2F2"/>
<path d="M219.724 186.105L219.431 183.772L219.565 183.595C220.184 182.777 220.5 181.978 220.504 181.22C220.505 181.1 220.498 180.979 220.492 180.856C220.467 180.369 220.435 179.764 220.789 179.059C220.987 178.666 221.544 177.755 222.382 177.868C222.607 177.896 222.778 177.989 222.908 178.097C222.926 178.07 222.946 178.043 222.967 178.013C223.228 177.659 223.434 177.506 223.633 177.36C223.786 177.247 223.944 177.131 224.192 176.856C224.3 176.736 224.385 176.63 224.456 176.541C224.673 176.272 224.956 175.951 225.455 175.956C225.988 175.979 226.268 176.372 226.453 176.632C226.783 177.096 226.933 177.431 227.032 177.653C227.068 177.734 227.109 177.825 227.13 177.854C227.302 178.079 228.698 177.868 229.225 177.792C230.406 177.616 231.429 177.464 231.85 178.128C232.152 178.604 231.928 179.233 231.164 180.047C230.926 180.301 230.672 180.493 230.447 180.644C230.634 180.743 230.801 180.896 230.868 181.134C231.027 181.7 230.482 182.267 229.249 182.821C228.942 182.96 228.53 183.144 227.952 183.233C227.679 183.275 227.434 183.285 227.225 183.291C227.22 183.399 227.192 183.516 227.118 183.637C226.901 183.992 226.45 184.161 225.77 184.12C225.022 184.085 224.407 183.958 223.863 183.846C223.389 183.75 222.98 183.667 222.659 183.686C222.064 183.729 221.606 184.154 221.067 184.705L219.724 186.105H219.724H219.724Z" fill="#F2F2F2"/>
<path d="M221.084 172.212L218.627 173.057L218.401 172.986C217.357 172.659 216.41 172.59 215.587 172.779C215.456 172.809 215.327 172.845 215.195 172.881C214.674 173.027 214.025 173.207 213.171 173.081C212.694 173.01 211.565 172.76 211.475 172.009C211.448 171.807 211.505 171.637 211.59 171.497C211.555 171.488 211.521 171.478 211.484 171.467C211.033 171.332 210.816 171.193 210.606 171.058C210.445 170.955 210.279 170.848 209.918 170.704C209.76 170.641 209.624 170.595 209.509 170.556C209.162 170.437 208.742 170.275 208.621 169.843C208.511 169.377 208.866 169.036 209.102 168.811C209.521 168.408 209.846 168.194 210.062 168.052C210.141 168.001 210.229 167.942 210.255 167.917C210.455 167.711 209.873 166.56 209.656 166.126C209.166 165.151 208.741 164.307 209.355 163.775C209.795 163.394 210.533 163.428 211.611 163.881C211.946 164.022 212.219 164.191 212.44 164.347C212.501 164.161 212.623 163.979 212.865 163.86C213.438 163.579 214.191 163.906 215.105 164.829C215.333 165.058 215.638 165.367 215.882 165.843C215.996 166.068 216.069 166.276 216.128 166.456C216.247 166.432 216.381 166.427 216.531 166.46C216.971 166.557 217.268 166.903 217.397 167.5C217.549 168.154 217.567 168.718 217.583 169.215C217.599 169.648 217.613 170.022 217.715 170.294C217.913 170.796 218.49 171.084 219.224 171.409L221.084 172.212L221.084 172.212Z" fill="#F2F2F2"/>
<path d="M219.724 165.338L219.431 163.005L219.565 162.828C220.184 162.01 220.5 161.211 220.504 160.453C220.505 160.332 220.498 160.212 220.492 160.089C220.467 159.602 220.435 158.997 220.789 158.292C220.987 157.899 221.544 156.988 222.382 157.101C222.607 157.129 222.778 157.222 222.908 157.33C222.926 157.303 222.946 157.276 222.967 157.246C223.228 156.891 223.434 156.739 223.633 156.593C223.786 156.48 223.944 156.364 224.192 156.089C224.3 155.969 224.385 155.863 224.456 155.774C224.673 155.504 224.956 155.183 225.455 155.189C225.988 155.212 226.268 155.605 226.453 155.865C226.783 156.329 226.933 156.664 227.032 156.886C227.068 156.967 227.109 157.058 227.13 157.086C227.302 157.312 228.698 157.101 229.225 157.024C230.406 156.849 231.429 156.696 231.85 157.361C232.152 157.837 231.928 158.465 231.164 159.28C230.926 159.534 230.672 159.726 230.447 159.877C230.634 159.976 230.801 160.128 230.868 160.367C231.027 160.933 230.482 161.5 229.249 162.054C228.942 162.192 228.53 162.377 227.952 162.466C227.679 162.508 227.434 162.518 227.225 162.524C227.22 162.632 227.192 162.749 227.118 162.87C226.901 163.225 226.45 163.394 225.77 163.353C225.022 163.318 224.407 163.191 223.863 163.079C223.389 162.982 222.98 162.9 222.659 162.919C222.064 162.962 221.606 163.387 221.067 163.938L219.724 165.338H219.724H219.724Z" fill="#F2F2F2"/>
<path d="M222.401 210.631L221.853 210.325L221.72 209.76L221.853 210.325L221.213 210.39C221.203 210.337 221.169 210.215 221.116 210.025C220.83 208.982 219.958 205.807 219.23 200.806C218.722 197.316 218.435 193.727 218.375 190.139C218.316 186.545 218.507 183.824 218.66 181.637C218.775 179.987 218.915 178.417 219.053 176.887C219.419 172.799 219.765 168.938 219.508 164.663C219.451 163.709 219.332 161.723 218.03 159.609C217.275 158.383 216.236 157.295 214.939 156.375L215.745 155.472C217.176 156.488 218.327 157.694 219.165 159.055C220.608 161.398 220.738 163.563 220.8 164.603C221.062 168.953 220.713 172.851 220.342 176.978C220.206 178.503 220.066 180.066 219.951 181.709C219.799 183.876 219.61 186.573 219.669 190.121C219.727 193.667 220.011 197.211 220.512 200.658C221.231 205.595 222.091 208.723 222.373 209.75C222.524 210.299 222.555 210.414 222.401 210.631V210.631H222.401Z" fill="#F2F2F2"/>
<path d="M212.567 158.209C212.514 158.209 212.46 158.207 212.406 158.204C211.304 158.151 210.284 157.563 209.373 156.457C208.946 155.936 208.727 155.342 208.291 154.158C208.224 153.976 207.895 153.049 207.696 151.775C207.565 150.942 207.581 150.594 207.766 150.287C207.972 149.944 208.304 149.705 208.678 149.544C208.662 149.434 208.675 149.32 208.729 149.204C208.949 148.723 209.535 148.786 209.852 148.816C210.013 148.834 210.213 148.858 210.429 148.848C210.769 148.833 210.951 148.743 211.228 148.608C211.493 148.478 211.822 148.317 212.31 148.228C213.273 148.049 214.08 148.293 214.346 148.372C215.745 148.788 216.435 149.758 217.233 150.882C217.392 151.107 217.939 151.927 218.299 153.052C218.56 153.863 218.523 154.223 218.445 154.492C218.285 155.043 217.91 155.358 216.955 156.054C215.958 156.783 215.458 157.148 215.028 157.37C214.028 157.885 213.401 158.209 212.567 158.209V158.209Z" fill="#F2F2F2"/>
<path d="M75.3811 207.903L81.5035 207.902L84.4159 186.842L75.3799 186.843L75.3811 207.903Z" fill="#FFB6B6"/>
<path d="M96.3572 207.779C96.5478 208.065 96.6484 208.989 96.6484 209.322C96.6484 210.346 95.7181 211.175 94.5705 211.175H75.6102C74.8273 211.175 74.1926 210.609 74.1926 209.911V209.207C74.1926 209.207 73.2546 207.092 75.1857 204.484C75.1857 204.484 77.5858 206.526 81.1721 203.327L82.2296 201.619L89.885 206.612L94.1282 207.078C95.0566 207.179 95.8796 207.062 96.3572 207.779H96.3572Z" fill="#2F2E41"/>
<path d="M52.1492 207.903L58.2716 207.902L61.184 186.842L52.1479 186.843L52.1492 207.903Z" fill="#FFB6B6"/>
<path d="M73.1253 207.779C73.3159 208.065 73.4165 208.989 73.4165 209.322C73.4165 210.346 72.4862 211.175 71.3386 211.175H52.3782C51.5953 211.175 50.9606 210.609 50.9606 209.911V209.207C50.9606 209.207 50.0227 207.092 51.9538 204.484C51.9538 204.484 54.3538 206.526 57.9401 203.327L58.9977 201.619L66.6531 206.612L70.8963 207.078C71.8247 207.179 72.6477 207.062 73.1252 207.779H73.1253H73.1253Z" fill="#2F2E41"/>
<path d="M47.6404 94.7757L39.8965 110.429L49.7054 196.063L61.8375 196.754L66.742 121.018L71.3883 196.984L85.8436 195.603L89.2724 99.1676L47.6404 94.7757Z" fill="#2F2E41"/>
<path d="M78.1506 32.3916L62.612 29.8594L59.4738 32.6581L43.5104 38.607L46.0917 83.2657C46.0917 83.2657 40.9291 86.3326 43.5104 90.5542C46.0917 94.7757 45.5754 99.8401 45.5754 99.8401H89.2725L87.3924 74.5181L92.555 42.2902L80.492 37.197L78.1506 32.3916H78.1506L78.1506 32.3916Z" fill="#68E8A3"/>
<path d="M66.888 84.4206C71.3025 85.3604 75.4246 84.0909 76.0948 81.5854C76.765 79.0798 73.7297 76.2876 69.3135 75.348C67.5552 74.9511 65.7158 74.9354 63.9493 75.3024L45.1885 71.5311L43.3916 79.4201L62.0773 82.3004C63.468 83.3396 65.1175 84.0666 66.888 84.4206L66.888 84.4206H66.888Z" fill="#FFB6B6"/>
<path d="M46.6079 40.909L43.5103 38.607C43.5103 38.607 37.3152 41.3694 36.2827 43.6714C35.2502 45.9734 29.055 68.0725 29.055 68.0725C29.055 68.0725 27.8396 80.1839 31.0286 81.7248C34.2176 83.2657 54.3518 82.3449 54.3518 82.3449L55.9005 73.1369L47.6404 70.3745L46.6079 40.909Z" fill="#68E8A3"/>
<path d="M71.3569 28.5528C78.8936 28.5528 85.0033 23.1042 85.0033 16.383C85.0033 9.66176 78.8936 4.21313 71.3569 4.21313C63.8202 4.21313 57.7104 9.66176 57.7104 16.383C57.7104 23.1042 63.8202 28.5528 71.3569 28.5528Z" fill="#FFB6B6"/>
<path d="M61.5694 27.1864C59.9346 27.3167 57.2659 23.5871 57.3848 19.9751C57.4614 17.6514 55.1992 17.1946 55.0311 14.1979C54.9332 12.4518 57.9408 11.9074 58.1474 10.5069C58.5217 7.96932 60.3574 6.26179 60.5866 6.05421C62.565 4.26237 63.9613 4.84488 66.2878 2.76818C67.6885 1.51791 67.3296 1.17537 68.273 0.620809C70.9955 -0.979695 75.8875 0.754946 78.8129 3.09158C79.8252 3.90014 83.5986 3.01643 85.2469 5.29974C87.1889 7.9899 86.738 13.4761 85.9053 14.2002C85.3993 14.6401 84.2439 13.5654 81.1123 12.8756C78.213 12.2371 80.948 15.395 77.5962 14.8651C73.6326 14.2384 72.8566 13.163 71.3722 13.808C69.8031 14.4898 68.577 16.6011 68.933 18.2607C69.1096 19.0842 69.6216 19.5435 69.3329 19.9623C68.8058 20.7268 68.2009 19.977 67.5248 20.7443C66.7384 21.6368 68.6926 23.9263 68.3246 24.1474C68.2505 24.192 68.026 24.1862 65.9167 22.3771C65.0745 21.6547 64.8275 21.2112 64.6628 21.2792C64.396 21.3895 62.6476 22.842 63.3152 23.9891C64.3541 25.7742 63.0245 25.8299 63.3152 27.0316C63.6151 28.2714 62.6084 27.1036 61.5694 27.1864H61.5694L61.5694 27.1864Z" fill="#2F2E41"/>
<path d="M58.7398 64.1591L56.6748 65.5403L67.5163 78.8919L69.5813 78.4315L58.7398 64.1591Z" fill="#3F3D56"/>
<path d="M86.618 76.3812V99.684C86.618 101.745 84.7381 103.421 82.4273 103.421H56.2971C53.9863 103.421 52.1064 101.745 52.1064 99.684V76.3812C52.1064 74.3204 53.9863 72.6439 56.2971 72.6439H82.4273C84.7381 72.6439 86.618 74.3204 86.618 76.3812Z" fill="white"/>
<path d="M72.841 82.1612H64.4052C64.1926 82.1612 64.0195 82.0069 64.0195 81.8172C64.0195 81.6275 64.1926 81.4733 64.4052 81.4733H72.841C73.0537 81.4733 73.2267 81.6275 73.2267 81.8172C73.2267 82.0069 73.0537 82.1612 72.841 82.1612Z" fill="#3F3D56"/>
<path d="M72.841 89.4958H64.4052C64.1926 89.4958 64.0195 89.3415 64.0195 89.1518C64.0195 88.9622 64.1926 88.8079 64.4052 88.8079H72.841C73.0537 88.8079 73.2267 88.9621 73.2267 89.1518C73.2267 89.3415 73.0537 89.4958 72.841 89.4958Z" fill="#3F3D56"/>
<path d="M68.6501 99.6083H60.2143C60.0017 99.6083 59.8286 99.454 59.8286 99.2644C59.8286 99.0747 60.0017 98.9204 60.2143 98.9204H68.6501C68.8628 98.9204 69.0357 99.0747 69.0357 99.2644C69.0357 99.454 68.8628 99.6083 68.6501 99.6083Z" fill="#3F3D56"/>
<path d="M77.3676 85.8309H59.8784C59.6657 85.8309 59.4927 85.6766 59.4927 85.4869C59.4927 85.2973 59.6657 85.143 59.8784 85.143H77.3676C77.5803 85.143 77.7532 85.2973 77.7532 85.4869C77.7532 85.6766 77.5803 85.8309 77.3676 85.8309Z" fill="#3F3D56"/>
<path d="M76.0755 86.3151C72.052 88.1879 69.8742 91.5573 71.2111 93.8406C72.548 96.1239 76.8928 96.4562 80.9174 94.5823C82.5366 93.8534 83.9365 92.7893 85 91.479L101.935 83.3518L97.4894 76.3458L81.2662 85.1015C79.4521 85.1305 77.6722 85.5467 76.0755 86.3151Z" fill="#FFB6B6"/>
<path d="M89.4571 42.7506C89.4571 42.7506 94.1035 39.9882 97.201 47.3546C99.6448 53.1661 104.177 70.2962 105.981 77.269C106.461 79.12 105.767 81.0536 104.175 82.3157L102.106 83.9563L92.0384 90.6321L85.1746 81.7248L93.511 77.2425L84.0039 58.8502L89.4572 42.7506L89.4571 42.7506V42.7506Z" fill="#68E8A3"/>
<path d="M301 211.027C301 211.241 300.806 211.414 300.566 211.414H0V210.641H300.566C300.806 210.641 301 210.814 301 211.027Z" fill="#E6E6E6"/>
<path d="M138.138 208.929C138.247 207.958 138.093 206.977 137.69 206.07L139.391 195.98L133.984 195.399L132.841 205.696C132.27 206.529 131.931 207.471 131.851 208.444C131.616 210.878 132.832 212.958 134.568 213.092C136.304 213.226 137.903 211.362 138.138 208.929L138.138 208.929Z" fill="#A0616A"/>
<path d="M153.787 149.322L149.325 170.23L143.79 181.198L140.494 202.348L132.024 204.633L134.68 177.816C134.68 177.816 143.234 152.898 145.528 150.361C147.821 147.823 153.787 149.322 153.787 149.322H153.787V149.322Z" fill="#DC95E8"/>
<path d="M158.084 129.359L152.711 144.991L171.196 150.045L176.57 134.412L158.084 129.359Z" fill="#2F2E41"/>
<path d="M167.548 140.273C172.755 140.273 176.975 136.509 176.975 131.866C176.975 127.223 172.755 123.459 167.548 123.459C162.342 123.459 158.121 127.223 158.121 131.866C158.121 136.509 162.342 140.273 167.548 140.273Z" fill="#A0616A"/>
<path d="M176.283 120.031C173.381 118.777 167.891 119.365 165.928 119.558C164.175 119.731 162.959 120.638 161.764 121.529C159.051 123.553 157.861 126.019 157.481 126.888C155.687 130.995 157.454 132.723 155.578 134.452C153.569 136.305 150.752 135.051 149.528 136.84C148.416 138.466 150.478 139.887 149.681 142.479C148.763 145.471 145.234 146.128 145.594 147.27C145.994 148.536 150.762 149.069 154.565 147.545C155.077 147.34 159.585 145.474 159.803 142.448C159.943 140.507 158.159 140.307 157.665 137.51C157.322 135.566 157.876 133.915 158.761 131.28C159.377 129.444 159.685 128.526 160.35 127.672C160.67 127.26 163.688 123.512 168.164 124.212C172.109 124.828 174.761 128.522 174.25 130.85C173.948 132.225 172.513 133.261 173.077 134.261C173.494 134.998 174.563 134.947 174.697 135.637C174.822 136.284 174 136.948 173.375 137.452C172.586 138.089 171.878 138.392 171.612 138.525C169.713 139.468 169.01 142.283 169.02 144.035C169.036 146.65 170.662 149.866 173.955 150.981C177.653 152.233 182.164 150.398 182.334 148.918C182.433 148.059 181.015 147.79 180.787 146.319C180.531 144.659 182.158 143.85 181.641 142.821C181.172 141.889 181.855 143.219 180.561 141.904C180.403 141.743 179.569 140.867 179.554 139.763C179.535 138.325 180.919 137.377 181.683 136.614C184.542 133.756 184.993 128.364 182.344 125.73C180.84 124.235 181.771 122.401 176.283 120.031H176.283H176.283Z" fill="#2F2E41"/>
<path d="M177.665 128.182C178.518 126.459 176.263 124.266 175.969 123.987C173.77 121.899 170.612 121.824 169.055 121.786C167.693 121.754 164.772 121.683 162.562 123.432C161.367 124.377 160.252 125.955 160.753 126.668C161.059 127.104 161.945 127.125 163.719 127.168C165.313 127.206 165.89 127.019 166.783 127.384C167.441 127.653 167.604 127.95 168.181 128.388C169.741 129.571 171.659 129.751 172.226 129.805C173.566 129.931 176.826 129.878 177.665 128.182H177.665H177.665Z" fill="#2F2E41"/>
<path d="M155.166 147.472L147.172 149.665L147.787 156.246L145.327 196.828L186.528 197.924L187.054 194.148L182.838 180.546L184.683 153.504L172.999 148.02L169.925 142.536L158.856 141.988L155.166 147.472Z" fill="#DC95E8"/>
<path d="M173.307 189.973L145.02 197.65C145.02 197.65 127.935 202.01 118.711 206.397C109.487 210.784 110.583 214.766 110.583 214.766L122.267 261.38L133.336 261.928L131.835 219.049L143.79 217.596L145.635 233.296L155.474 235.49L165.313 205.328C166.02 209.109 169.945 211.719 174.209 211.238C177.771 210.835 182.118 210.219 186.221 209.305C195.445 207.249 186.221 192.715 186.221 192.715L173.307 189.973Z" fill="#2F2E41"/>
<path d="M144.098 213.28C144.098 213.28 145.942 200.118 149.017 185.311C152.092 170.504 163.161 174.343 163.161 174.343L182.839 192.989L166.85 202.312L144.098 213.28Z" fill="#2F2E41"/>
<path d="M160.787 199.06C161.595 198.401 162.213 197.579 162.592 196.663L171.403 190.155L167.808 186.507L159.257 193.501C158.209 193.781 157.252 194.282 156.465 194.96C154.469 196.634 153.82 198.907 155.014 200.039C156.208 201.172 158.793 200.733 160.787 199.06H160.787V199.06Z" fill="#A0616A"/>
<path d="M168.104 162.822L175.142 175.048L163.06 188.943L169.141 194.621L184.259 183.254L191.35 177.297C193.922 175.137 192.584 172.289 191.31 169.351C186.221 157.617 187.451 153.23 182.531 152.133C178.529 151.241 168.104 162.822 168.104 162.822L168.104 162.822Z" fill="#DC95E8"/>
<path d="M135.866 185.834L137.017 182.962L158.415 186.245L176.591 178.037L177.512 180.294L157.724 190.759L135.866 185.834Z" fill="#E6E6E6"/>
<path d="M178.432 178.858L157.954 188.091L134.549 185.075L136.786 193.837L156.574 196.915L175.281 188.921L178.432 178.858Z" fill="#BFA179"/>
<path d="M54.0068 79.3282L55.1573 76.4556L76.5553 79.7386L94.7321 71.531L95.6525 73.7881L75.865 84.2528L54.0068 79.3282Z" fill="#E6E6E6"/>
<path d="M96.5727 72.3518L76.0951 81.5853L52.6895 78.5691L54.9271 87.3307L74.7145 90.4085L93.4213 82.4146L96.5727 72.3518Z" fill="#BFA179"/>
</g>
<defs>
<clipPath id="clip0_1067_1182">
<rect width="301" height="283" fill="white"/>
</clipPath>
</defs>
</svg>
