<svg width="241" height="167" viewBox="0 0 241 167" fill="none" xmlns="http://www.w3.org/2000/svg">
<g clip-path="url(#clip0_64_57)">
<path d="M48.0177 167C74.5371 167 96.0353 165.374 96.0353 163.368C96.0353 161.362 74.5371 159.736 48.0177 159.736C21.4982 159.736 0 161.362 0 163.368C0 165.374 21.4982 167 48.0177 167Z" fill="#E6E6E6"/>
<path d="M36.7038 37.0544C45.0603 33.5144 55.4685 35.7573 65.6332 37.314C65.7278 35.4289 66.8743 33.1346 65.6733 31.8194C64.2142 30.2216 64.3485 28.5428 65.2265 26.8543C67.4718 22.5365 64.255 17.9422 61.007 14.122C60.2749 13.2629 59.3497 12.5879 58.3065 12.1518C57.2633 11.7157 56.1315 11.5308 55.0031 11.6122L48.9865 12.0402C47.5224 12.1444 46.1252 12.6914 44.9818 13.608C43.8383 14.5247 43.0033 15.7673 42.5883 17.1696V17.1696C41.1517 19.1156 40.3827 21.0562 40.8668 22.9867C38.715 24.4513 38.3534 26.2193 39.3204 28.2123C40.1404 29.4672 40.1316 30.6888 39.2831 31.8765C38.1687 33.3908 37.3152 35.0792 36.7576 36.8726L36.7038 37.0544Z" fill="#2F2E41"/>
<path d="M235.289 144.369H64.9731C63.4585 144.369 62.0059 143.77 60.9349 142.703C59.8639 141.636 59.2623 140.19 59.2623 138.681C121.002 131.535 181.581 131.535 241 138.681C241 140.19 240.398 141.636 239.327 142.703C238.256 143.77 236.804 144.369 235.289 144.369Z" fill="#2F2E41"/>
<path d="M241 139.016L59.2623 138.681L80.325 103.384L80.4258 103.216V25.4244C80.4257 24.4802 80.6124 23.5452 80.9752 22.6728C81.3379 21.8004 81.8697 21.0078 82.5401 20.3401C83.2104 19.6724 84.0063 19.1428 84.8822 18.7815C85.7581 18.4202 86.6969 18.2343 87.6449 18.2344H211.61C212.558 18.2343 213.496 18.4202 214.372 18.7815C215.248 19.1428 216.044 19.6724 216.714 20.3401C217.385 21.0078 217.917 21.8004 218.279 22.6728C218.642 23.5452 218.829 24.4802 218.829 25.4244V103.752L241 139.016Z" fill="#3F3D56"/>
<path d="M87.4803 23.2529C86.8569 23.2536 86.2592 23.5006 85.8184 23.9397C85.3775 24.3787 85.1295 24.974 85.1288 25.5949V96.5247C85.1296 97.1456 85.3775 97.7409 85.8184 98.18C86.2592 98.619 86.8569 98.866 87.4803 98.8667H212.782C213.405 98.866 214.003 98.619 214.444 98.1799C214.885 97.7409 215.133 97.1456 215.133 96.5247V25.5949C215.133 24.974 214.885 24.3788 214.444 23.9397C214.003 23.5006 213.405 23.2537 212.782 23.2529H87.4803Z" fill="white"/>
<path d="M88.0054 108.235C87.8128 108.235 87.6242 108.29 87.462 108.394C87.2998 108.497 87.1706 108.645 87.0898 108.819L80.5997 122.871C80.5291 123.024 80.4982 123.192 80.5099 123.36C80.5216 123.528 80.5755 123.69 80.6666 123.832C80.7578 123.974 80.8833 124.091 81.0316 124.171C81.1799 124.252 81.3461 124.294 81.5152 124.294H217.998C218.17 124.294 218.339 124.251 218.489 124.167C218.639 124.084 218.765 123.964 218.856 123.818C218.946 123.673 218.997 123.507 219.005 123.336C219.013 123.165 218.976 122.995 218.9 122.842L211.845 108.79C211.762 108.623 211.633 108.482 211.474 108.384C211.315 108.286 211.131 108.234 210.944 108.235H88.0054Z" fill="#2F2E41"/>
<path d="M149.627 22.082C150.462 22.082 151.139 21.4079 151.139 20.5764C151.139 19.7449 150.462 19.0708 149.627 19.0708C148.792 19.0708 148.116 19.7449 148.116 20.5764C148.116 21.4079 148.792 22.082 149.627 22.082Z" fill="white"/>
<path d="M136.212 126.971C135.991 126.971 135.775 127.044 135.599 127.178C135.424 127.313 135.297 127.501 135.239 127.714L133.611 133.736C133.571 133.885 133.565 134.041 133.596 134.192C133.626 134.343 133.69 134.485 133.784 134.608C133.878 134.73 133.999 134.829 134.138 134.897C134.277 134.965 134.429 135.001 134.584 135.001H165.545C165.705 135.001 165.864 134.962 166.006 134.889C166.149 134.816 166.272 134.71 166.365 134.579C166.459 134.449 166.519 134.298 166.542 134.14C166.565 133.981 166.549 133.82 166.497 133.669L164.404 127.646C164.335 127.449 164.206 127.278 164.036 127.157C163.865 127.036 163.661 126.971 163.451 126.971H136.212Z" fill="#2F2E41"/>
<path d="M218.829 102.045V103.383H80.325L80.4292 103.216V102.045H218.829Z" fill="#2F2E41"/>
<path d="M214.965 46.8404C227.952 46.8404 238.481 36.3548 238.481 23.4202C238.481 10.4856 227.952 0 214.965 0C201.978 0 191.45 10.4856 191.45 23.4202C191.45 36.3548 201.978 46.8404 214.965 46.8404Z" fill="#A2B1D1"/>
<path d="M224.707 33.6247H205.224C204.867 33.6244 204.526 33.4833 204.274 33.2324C204.022 32.9815 203.88 32.6413 203.88 32.2864V20.5763C203.88 20.2215 204.022 19.8813 204.274 19.6304C204.526 19.3795 204.867 19.2384 205.224 19.238H224.707C225.064 19.2384 225.405 19.3795 225.657 19.6304C225.909 19.8813 226.051 20.2215 226.051 20.5763V32.2864C226.051 32.6413 225.909 32.9815 225.657 33.2324C225.405 33.4833 225.064 33.6244 224.707 33.6247ZM205.224 20.5763V32.2864H224.708L224.707 20.5763L205.224 20.5763Z" fill="white"/>
<path d="M221.012 20.5764H208.919V15.2232C208.919 11.3459 211.462 8.53174 214.965 8.53174C218.469 8.53174 221.012 11.3459 221.012 15.2232L221.012 20.5764ZM210.262 19.2381H219.669V15.2232C219.669 12.0714 217.735 9.87004 214.966 9.87004C212.196 9.87004 210.262 12.0714 210.262 15.2232L210.262 19.2381Z" fill="white"/>
<path d="M214.966 27.4351C215.708 27.4351 216.309 26.836 216.309 26.0968C216.309 25.3577 215.708 24.7585 214.966 24.7585C214.223 24.7585 213.622 25.3577 213.622 26.0968C213.622 26.836 214.223 27.4351 214.966 27.4351Z" fill="white"/>
<path d="M198.55 74.808H101.712C101.237 74.8075 100.781 74.6191 100.445 74.2843C100.109 73.9495 99.9196 73.4955 99.9191 73.022V49.0976C99.9196 48.6241 100.109 48.1701 100.445 47.8353C100.781 47.5004 101.237 47.3121 101.712 47.3115H198.55C199.025 47.3121 199.481 47.5004 199.817 47.8353C200.154 48.1701 200.343 48.6241 200.343 49.0976V73.022C200.343 73.4955 200.154 73.9495 199.817 74.2843C199.481 74.6191 199.025 74.8075 198.55 74.808V74.808ZM101.712 48.026C101.427 48.0263 101.154 48.1393 100.952 48.3402C100.75 48.5411 100.637 48.8135 100.636 49.0976V73.022C100.637 73.3061 100.75 73.5785 100.952 73.7794C101.154 73.9803 101.427 74.0933 101.712 74.0936H198.55C198.835 74.0933 199.109 73.9803 199.31 73.7794C199.512 73.5785 199.626 73.3061 199.626 73.022V49.0976C199.626 48.8135 199.512 48.5411 199.31 48.3402C199.109 48.1393 198.835 48.0263 198.55 48.0259L101.712 48.026Z" fill="#E6E6E6"/>
<path d="M116.759 67.4173C120.793 67.4173 124.064 64.16 124.064 60.1419C124.064 56.1238 120.793 52.8665 116.759 52.8665C112.725 52.8665 109.454 56.1238 109.454 60.1419C109.454 64.16 112.725 67.4173 116.759 67.4173Z" fill="#A2B1D1"/>
<path d="M133.63 55.2915C133.47 55.2913 133.311 55.3224 133.163 55.3832C133.015 55.4441 132.881 55.5334 132.768 55.646C132.654 55.7586 132.565 55.8924 132.503 56.0396C132.442 56.1868 132.41 56.3447 132.41 56.5041C132.41 56.6635 132.442 56.8213 132.503 56.9685C132.565 57.1158 132.654 57.2496 132.768 57.3622C132.881 57.4748 133.015 57.5641 133.163 57.6249C133.311 57.6857 133.47 57.7169 133.63 57.7166H191.025C191.348 57.7166 191.658 57.5889 191.886 57.3615C192.115 57.1341 192.243 56.8257 192.243 56.5041C192.243 56.1825 192.115 55.8741 191.886 55.6467C191.658 55.4193 191.348 55.2915 191.025 55.2915H133.63Z" fill="#A2B1D1"/>
<path d="M133.63 62.5669C133.307 62.5669 132.997 62.6946 132.769 62.922C132.541 63.1494 132.412 63.4579 132.412 63.7795C132.412 64.1011 132.541 64.4095 132.769 64.6369C132.997 64.8643 133.307 64.992 133.63 64.992H158.327C158.65 64.992 158.96 64.8643 159.188 64.6369C159.416 64.4095 159.545 64.1011 159.545 63.7795C159.545 63.4579 159.416 63.1494 159.188 62.922C158.96 62.6946 158.65 62.5669 158.327 62.5669H133.63Z" fill="#A2B1D1"/>
<path d="M80.0868 63.0575L62.1856 72.5363L61.959 64.6373C67.8018 63.6659 73.3607 61.9745 78.5006 59.2209L80.3728 54.6141C80.5768 54.1121 80.9084 53.6716 81.335 53.3358C81.7616 52.9999 82.2685 52.7804 82.806 52.6986C83.3435 52.6169 83.8931 52.6757 84.4009 52.8695C84.9087 53.0632 85.3572 53.3851 85.7023 53.8035V53.8035C86.2073 54.4158 86.4597 55.1963 86.4084 55.987C86.3572 56.7777 86.006 57.5194 85.4262 58.0619L80.0868 63.0575Z" fill="#FFB8B8"/>
<path d="M36.347 117.784C36.2164 117.307 36.1886 116.808 36.2656 116.319C36.3426 115.831 36.5225 115.364 36.7935 114.95L40.7259 108.939C41.656 107.518 43.0831 106.491 44.7305 106.058C46.3778 105.625 48.1278 105.817 49.641 106.597V106.597C47.9884 109.399 48.2188 111.856 50.2118 113.992C47.1179 115.497 44.2583 117.438 41.7218 119.757C41.2587 120.071 40.7269 120.271 40.1707 120.339C39.6145 120.408 39.0499 120.343 38.5241 120.15C37.9982 119.957 37.5263 119.641 37.1476 119.23C36.7689 118.818 36.4944 118.323 36.347 117.784V117.784Z" fill="#2F2E41"/>
<path d="M80.9021 109.925C80.307 110.913 79.4671 111.732 78.4628 112.303C77.4585 112.874 76.3236 113.179 75.1671 113.188L49.0429 113.385L47.91 106.84L59.4664 103.455L49.7227 96.0073L60.3728 83.5947L79.7166 101.551C80.8472 102.601 81.5818 104.005 81.7976 105.529C82.0134 107.053 81.6973 108.605 80.9021 109.925V109.925Z" fill="#2F2E41"/>
<path d="M44.9642 154.685H38.846C33.3529 117.183 27.7613 79.5765 44.2844 65.54L63.7717 68.6996L61.2792 85.1745L50.4025 97.5871L44.9642 154.685Z" fill="#2F2E41"/>
<path d="M50.3423 163.18C49.8633 163.31 49.3622 163.338 48.8717 163.261C48.3813 163.185 47.9127 163.006 47.4967 162.736L40.8537 161.846C39.4263 160.92 38.3951 159.499 37.9604 157.858C37.5257 156.217 37.7184 154.474 38.5012 152.967C41.3144 154.613 43.7822 154.384 45.9267 152.398C47.442 155.446 49.9386 155.26 52.323 157.827C52.6387 158.288 52.8392 158.818 52.9078 159.372C52.9763 159.926 52.911 160.488 52.7172 161.012C52.5234 161.536 52.2068 162.006 51.7937 162.383C51.3806 162.76 50.883 163.033 50.3423 163.18V163.18Z" fill="#2F2E41"/>
<path d="M59.4664 40.4891L48.1365 37.7809C50.0182 33.9448 50.1732 29.6762 49.2695 25.1427L56.9738 24.917C57.2152 30.5546 57.9456 35.8215 59.4664 40.4891Z" fill="#FFB8B8"/>
<path d="M62.5802 75.4948C54.3325 81.0924 48.5049 75.6864 44.0578 67.3456C44.6758 62.2417 43.6752 56.134 41.822 49.4974C40.9979 46.5702 41.3056 43.4417 42.6843 40.7294C44.0631 38.0171 46.4128 35.9183 49.2695 34.8472V34.8472L59.0132 38.9095C67.2867 45.6261 68.9152 52.9016 65.8111 60.5751L62.5802 75.4948Z" fill="#A2B1D1"/>
<path d="M38.846 46.1312L29.7821 50.8705L45.8705 60.3492L48.1091 65.8488C48.2586 66.2159 48.3313 66.6094 48.3231 67.0054C48.3148 67.4014 48.2256 67.7916 48.061 68.1522C47.8964 68.5127 47.6597 68.8361 47.3655 69.1026C47.0713 69.3691 46.7257 69.5731 46.3497 69.7023V69.7023C45.9224 69.849 45.4667 69.8953 45.0184 69.8374C44.57 69.7795 44.1413 69.619 43.7656 69.3685C43.39 69.118 43.0777 68.7843 42.8531 68.3935C42.6286 68.0027 42.4979 67.5655 42.4714 67.116L42.245 63.2831L21.7968 56.5624C21.1079 56.336 20.4797 55.9564 19.9599 55.4523C19.44 54.9483 19.0422 54.3331 18.7964 53.6532V53.6532C18.4382 52.6622 18.42 51.5809 18.7446 50.5785C19.0692 49.5761 19.7183 48.7091 20.5903 48.1133L37.0333 36.8782L38.846 46.1312Z" fill="#FFB8B8"/>
<path d="M47.9099 47.034C44.1297 45.384 40.6923 47.1764 36.3535 48.6137L35.6737 36.6525C39.982 34.3655 44.0896 33.7489 47.91 35.5241L47.9099 47.034Z" fill="#A2B1D1"/>
<path d="M52.4319 30.8419C56.427 30.8419 59.6656 27.6163 59.6656 23.6374C59.6656 19.6584 56.427 16.4329 52.4319 16.4329C48.4369 16.4329 45.1982 19.6584 45.1982 23.6374C45.1982 27.6163 48.4369 30.8419 52.4319 30.8419Z" fill="#FFB8B8"/>
<path d="M61.0858 22.7283C53.9238 23.4269 48.4664 22.2604 44.9786 18.9387V16.2637H60.4779L61.0858 22.7283Z" fill="#2F2E41"/>
</g>
<defs>
<clipPath id="clip0_64_57">
<rect width="241" height="167" fill="white"/>
</clipPath>
</defs>
</svg>
