<svg width="194" height="204" viewBox="0 0 194 204" fill="none" xmlns="http://www.w3.org/2000/svg">
<g clip-path="url(#clip0_1072_1309)">
<path d="M13.5096 69.3716C16.1014 60.657 22.9584 53.5656 32.9074 51.5316C47.5598 48.5394 59.9726 58.3262 62.581 72.4367C65.2344 86.7915 58.8119 98.8773 46.015 103.093C47.3115 110.143 49.9548 124.593 50.5891 128.023L43.7434 129.423C43.1363 126.139 40.4189 111.291 39.1669 104.488C26.1969 105.523 15.5104 97.0265 12.8463 82.6081C12.0187 78.2065 12.2467 73.6574 13.5096 69.3716Z" fill="white"/>
<path d="M142.038 51.708C142.475 51.2827 142.989 50.9528 143.548 50.7374C144.108 50.522 144.703 50.4254 145.298 50.4531C146.055 50.4276 146.804 50.6184 147.465 51.0051C148.127 51.3919 148.676 51.9601 149.055 52.6493C150.333 54.9781 150.278 59.2706 149.421 61.9261C148.814 63.8068 147.82 66.6843 145.421 68.7476C144.893 69.2093 144.28 69.5509 143.621 69.7511C142.961 69.9513 142.269 70.0057 141.589 69.9108L141.221 69.8485C140.86 71.1319 140.419 72.3891 139.902 73.6123C138.869 76.5608 132.878 87.3469 125.483 90.5678C125.483 91.7468 125.483 92.9266 125.483 94.1073C125.483 94.1073 125.483 94.4252 125.483 94.8659C121.972 97.7795 115.023 103.531 114.349 104.029H112.295C111.634 103.536 104.933 97.9939 101.364 95.033C101.364 94.5081 101.364 94.1727 101.364 94.1727V91.7846C101.364 91.7846 101.364 91.3003 101.364 90.7093C97.7727 89.2076 94.6101 86.5178 91.6152 82.749C88.6308 78.9577 86.4163 74.5639 85.108 69.8385C84.3829 70.0003 83.6323 69.9861 82.9132 69.797C82.1941 69.6079 81.5255 69.2487 80.9583 68.747C78.5604 66.6837 77.5657 63.8062 76.9581 61.9255C76.1009 59.27 76.0469 54.9775 77.3244 52.6486C77.7034 51.9592 78.2531 51.3908 78.9151 51.004C79.5771 50.6173 80.3265 50.4267 81.0834 50.4525C81.6788 50.4247 82.2735 50.5213 82.8331 50.7367C83.3927 50.9521 83.9062 51.282 84.3438 51.7074C84.3438 51.7074 80.8641 21.5316 113.19 21.5316C144.751 21.5316 142.038 51.708 142.038 51.708Z" fill="white"/>
<path d="M112.669 166.339C108.617 155.825 107.575 152.354 104.407 142.126C100.132 128.321 96.1597 113.139 93.1186 98.9396C91.7551 99.859 90.036 101.126 88.2973 102.568L86.9641 103.119L82.5026 104.961C71.6892 109.735 61.5173 114.69 56.5377 122.657L39.5728 158.22C40.047 162.725 41.2824 174.356 41.9825 178.829C42.4305 182.372 43.2347 185.856 44.3816 189.222C46.2537 194.693 50.2338 199.953 55.8411 201.411C61.2475 202.817 68.5924 201.885 72.5488 196.677C72.5666 199.039 72.5796 201.025 72.5867 202.505H181.648C179.527 172.089 179.276 166.065 177.72 150.725C176.729 140.906 173.659 128.332 170.11 122.658C165.13 114.691 154.957 109.736 144.145 104.962L139.684 103.12L138.35 102.569C136.611 101.127 134.893 99.8597 133.529 98.9402C130.488 113.139 126.516 128.321 122.24 142.126C119.073 152.355 118.031 155.826 113.978 166.34" fill="#9747FF"/>
<path d="M76.5732 31.8539C76.4872 32.6063 76.4226 33.2876 76.3793 33.8436C75.8529 40.6115 77.3219 46.0061 79.3054 50.8259C79.8728 50.5928 80.4748 50.4662 81.0838 50.4519C81.6792 50.4241 82.2739 50.5207 82.8335 50.7361C83.3931 50.9515 83.9066 51.2814 84.3443 51.7067L85.7617 53.1405L85.8162 52.5115C85.9853 50.1729 86.3098 47.8495 86.7872 45.5585C87.2958 43.022 87.939 40.3939 90.1223 38.2882L94.8506 34.7974C96.1055 34.7219 97.5775 34.5218 98.5728 34.5568C107.583 34.8684 116.754 33.075 123.729 29.6322L129.276 33.0301C132.81 36.2358 135.743 40.1074 137.924 44.4458C138.635 45.8496 140.261 50.6171 141.426 52.509C141.843 51.8394 142.421 51.297 143.1 50.9359C143.78 50.5749 144.538 50.408 145.298 50.4519C145.933 50.4651 146.561 50.6021 147.149 50.8558C149.415 38.3836 149.89 30.8403 145.305 21.1214C144.362 19.244 143.226 17.4811 141.917 15.8646C139.574 13.1407 136.657 11.0316 133.4 9.70638L127.154 6.84888C120.903 0.436341 109.6 0.436341 101.818 3.46464C94.5168 6.30344 90.5747 10.3104 85.8417 14.0543C84.165 15.4712 82.2236 16.5013 80.1436 17.0776L78.3652 23.7289C77.5033 25.3304 76.8927 29.0649 76.5732 31.8539Z" fill="#BFA179"/>
<path d="M107.859 77.2846C109.6 78.2305 111.538 78.7021 113.496 78.656C115.522 78.7473 117.519 78.1295 119.176 76.8993C119.44 76.6177 119.589 76.2376 119.589 75.8415C119.589 75.4454 119.44 75.0653 119.176 74.7837C118.904 74.5121 118.544 74.3606 118.17 74.3606C117.795 74.3606 117.435 74.5121 117.164 74.7837C117.592 74.4321 117.249 74.7089 117.139 74.7837C117.028 74.8585 116.908 74.9308 116.788 74.9968C116.693 75.0492 116.267 75.2294 116.649 75.0798C116.488 75.1421 116.329 75.2088 116.166 75.2668C115.725 75.4139 115.273 75.5223 114.815 75.5909C115.019 75.5597 114.748 75.5965 114.673 75.6046C114.541 75.6183 114.408 75.6302 114.275 75.6389C113.955 75.6607 113.635 75.6695 113.314 75.6676C113.028 75.6676 112.741 75.6566 112.455 75.6345C112.323 75.625 112.192 75.6136 112.061 75.6003C112.055 75.6003 111.586 75.5323 111.858 75.5772C111.431 75.5087 111.01 75.4102 110.596 75.2823C110.418 75.2269 110.246 75.1577 110.072 75.0953C110.013 75.0791 109.956 75.0559 109.903 75.0261C110.19 75.2306 110.053 75.0966 109.937 75.0392C109.721 74.932 109.507 74.8204 109.296 74.7026C108.968 74.5108 108.583 74.4596 108.22 74.5596C107.857 74.6596 107.545 74.9032 107.349 75.2393C107.163 75.583 107.112 75.9897 107.207 76.3724C107.303 76.755 107.537 77.0831 107.859 77.2865V77.2846Z" fill="#211715"/>
<path d="M112.795 63.2907C113.056 64.2805 113.264 65.2846 113.42 66.2984L113.369 65.9007C113.388 66.0382 113.392 66.1775 113.38 66.3159L113.431 65.9182C113.422 65.9818 113.408 66.0444 113.388 66.1052L113.531 65.748C113.514 65.7899 113.493 65.83 113.468 65.8677L113.691 65.5654C113.663 65.6009 113.631 65.6333 113.597 65.662L113.885 65.4282C113.812 65.475 113.737 65.5167 113.659 65.5529L113.998 65.402C113.876 65.4571 113.748 65.4965 113.617 65.5192L113.995 65.4656C113.877 65.4804 113.757 65.4804 113.639 65.4656L114.017 65.5192C113.882 65.4993 113.749 65.465 113.614 65.4457C113.243 65.355 112.854 65.4085 112.518 65.5965C112.356 65.6957 112.215 65.8273 112.102 65.9838C111.989 66.1404 111.906 66.3188 111.859 66.5089C111.812 66.699 111.8 66.8971 111.826 67.0918C111.851 67.2865 111.913 67.474 112.007 67.6436C112.098 67.8124 112.22 67.9602 112.366 68.0781C112.512 68.1959 112.679 68.2814 112.858 68.3293C113.161 68.3724 113.456 68.454 113.765 68.4684C114.228 68.4714 114.685 68.3574 115.097 68.1361C115.358 68.0122 115.588 67.8287 115.772 67.5989C115.956 67.3692 116.089 67.099 116.16 66.8083C116.255 66.335 116.25 65.8458 116.147 65.3746C115.991 64.4059 115.778 63.4453 115.541 62.4947C115.441 62.112 115.2 61.7869 114.872 61.591C114.544 61.395 114.155 61.3441 113.791 61.4496C113.427 61.5551 113.118 61.8082 112.932 62.1534C112.745 62.4986 112.697 62.9074 112.797 63.2901L112.795 63.2907Z" fill="#211715"/>
<path d="M97.568 54.7849C97.0902 56.4175 97.4014 60.172 100.342 60.4918C104.229 60.4675 104.436 55.9275 103.129 53.7931C102.057 52.0452 98.9066 51.3184 97.568 54.7849Z" fill="#211715"/>
<path d="M128.815 54.7849C129.292 56.4175 128.981 60.1726 126.04 60.4918C122.153 60.4675 121.946 55.9275 123.254 53.7925C124.326 52.0452 127.477 51.3184 128.815 54.7849Z" fill="#211715"/>
<path d="M85.3506 50.6501C84.4139 49.7705 83.2491 49.2043 82.005 49.0238C80.7609 48.8432 79.4939 49.0566 78.3656 49.6365C77.5697 50.0946 76.8804 50.7327 76.3474 51.5047C75.8143 52.2767 75.4508 53.1635 75.283 54.1011C74.8312 56.3269 74.8107 58.6256 75.2228 60.8599C75.6349 63.0942 76.4711 65.2182 77.6815 67.1051C79.416 69.8248 81.9301 71.8189 85.1728 71.3533C85.5353 71.2457 85.8429 70.9922 86.0289 70.6477C86.2149 70.3033 86.2642 69.8956 86.1663 69.5131C86.0576 69.1362 85.8154 68.8176 85.4898 68.6231C85.1641 68.4286 84.7799 68.373 84.4163 68.4677C82.1453 68.7944 80.39 66.2361 79.4688 64.4159C78.5412 62.6418 77.9734 60.6848 77.8012 58.6685C77.7068 57.55 77.7539 56.4233 77.9411 55.3179C78.0805 54.525 78.3542 53.7649 78.7491 53.0738C78.6572 53.2022 78.9453 52.8469 78.9797 52.8082C79.062 52.6983 79.1624 52.6048 79.2761 52.5321C79.647 52.2649 80.0688 52.086 80.5121 52.0078C81.0071 51.8964 81.5198 51.9067 82.0104 52.0378C82.501 52.169 82.9562 52.4175 83.3404 52.764C84.6956 54.0531 86.7141 51.943 85.3524 50.6483L85.3506 50.6501Z" fill="#211715"/>
<path d="M143.044 52.7658C143.707 52.1776 144.563 51.8857 145.428 51.9528C146.293 52.02 147.099 52.4407 147.673 53.1249C147.479 52.8668 147.747 53.262 147.778 53.315C147.89 53.5041 147.988 53.7018 148.071 53.9066C148.238 54.3631 148.363 54.8355 148.443 55.3172C148.631 56.4227 148.678 57.5494 148.583 58.6678C148.414 60.647 147.864 62.5693 146.965 64.3174C146.046 66.1675 144.275 68.7993 141.969 68.4677C141.605 68.3757 141.222 68.4326 140.897 68.6267C140.572 68.8208 140.329 69.1377 140.218 69.5131C140.121 69.8956 140.17 70.3032 140.357 70.6475C140.543 70.9918 140.85 71.2454 141.212 71.3533C146.451 72.1057 149.494 66.678 150.852 62.1406C151.509 59.8098 151.649 57.3515 151.26 54.9551C151.162 53.9974 150.883 53.07 150.439 52.2273C149.996 51.3846 149.396 50.6437 148.676 50.048C147.519 49.2428 146.139 48.8651 144.755 48.9741C143.371 49.0831 142.06 49.6726 141.029 50.6501C139.666 51.9442 141.686 54.0556 143.041 52.7658H143.044Z" fill="#211715"/>
<path d="M140.395 67.221C140.124 68.5518 139.765 69.8612 139.321 71.1395C139.185 71.5422 138.947 72.2104 138.847 72.4616C138.746 72.7128 138.632 72.9603 138.534 73.2097C138.51 73.272 138.375 73.6342 138.47 73.3904C138.57 73.1342 138.411 73.5363 138.387 73.5849C138.334 73.7096 138.279 73.8343 138.223 73.9552C138.077 74.2756 137.926 74.5917 137.765 74.9058C137.41 75.614 137.027 76.309 136.63 76.9928C134.583 80.6457 131.964 83.9096 128.886 86.6475C127.221 88.1424 125.253 89.2157 123.132 89.7849C121.349 90.2175 122.104 93.1037 123.889 92.6704C128.248 91.6107 131.877 88.2682 134.727 84.793C137.179 81.8911 139.231 78.6413 140.824 75.139C140.976 74.7868 141.11 74.4271 141.252 74.0711C141.064 74.5418 141.495 73.4883 141.507 73.4596C141.626 73.1617 141.739 72.8616 141.847 72.5595C142.391 71.0825 142.823 69.5626 143.139 68.0139C143.23 67.6316 143.178 67.2271 142.993 66.8844C142.808 66.5416 142.504 66.2869 142.145 66.1731C141.782 66.0715 141.394 66.1241 141.067 66.3196C140.74 66.5151 140.498 66.8379 140.395 67.2185V67.221Z" fill="#211715"/>
<path d="M83.1608 67.9086C84.1222 72.4101 85.8552 76.6899 88.275 80.5385C90.8786 84.6459 94.2985 88.4864 98.4351 90.9013C100.549 92.1401 102.859 92.9673 105.252 93.343C105.616 93.4357 105.999 93.3792 106.324 93.185C106.649 92.9909 106.892 92.6738 107.002 92.2983C107.1 91.9158 107.05 91.5083 106.864 91.1639C106.679 90.8196 106.371 90.566 106.009 90.4581C97.4439 89.1285 91.0386 81.3209 87.79 73.3156C86.9863 71.3119 86.3559 69.236 85.9067 67.1132C85.5024 65.2356 82.7583 66.0304 83.1626 67.9086H83.1608Z" fill="#211715"/>
<path d="M133.022 11.1482C137.665 13.1274 141.497 16.7609 143.848 21.4125C146.146 25.9222 147.365 30.9528 147.398 36.0691C147.385 39.206 147.126 42.3365 146.624 45.4289C146.536 45.811 146.59 46.2142 146.774 46.5562C146.959 46.8982 147.261 47.1531 147.618 47.269C147.982 47.3715 148.369 47.3193 148.697 47.1238C149.024 46.9283 149.265 46.6052 149.368 46.2243C150.235 40.427 150.699 34.5518 149.463 28.7701C148.287 23.2683 145.805 17.7054 141.948 13.7146C139.589 11.3532 136.814 9.49998 133.779 8.25957C133.415 8.15658 133.027 8.20849 132.7 8.40405C132.372 8.59961 132.131 8.92307 132.028 9.30433C131.938 9.6867 131.99 10.0912 132.175 10.4339C132.36 10.7767 132.664 11.0313 133.023 11.1451L133.022 11.1482Z" fill="#211715"/>
<path d="M128.161 5.7898C123.135 0.708141 115.621 -0.584715 108.911 0.221294C105.27 0.66817 101.721 1.72263 98.3958 3.34497C95.0918 5.0105 91.9818 7.07147 89.1273 9.48697C87.6696 10.6714 86.2439 11.9037 84.7571 13.0489C83.2473 14.2066 81.5587 15.0813 79.7657 15.6346C78.0199 16.1956 78.7644 19.0868 80.5221 18.5201C82.1599 18.0373 83.7256 17.3164 85.1738 16.3782C86.5681 15.4264 87.8622 14.3043 89.1682 13.2247C91.7547 10.9807 94.5138 8.96611 97.4171 7.20172C103.26 3.83867 110.14 2.16432 116.778 3.33686C120.232 3.94838 123.595 5.31854 126.149 7.90238C127.469 9.23762 129.484 7.12442 128.161 5.78668V5.7898Z" fill="#211715"/>
<path d="M77.1379 22.9734C76.2179 24.7444 75.8699 26.8576 75.5587 28.8243C75.2017 30.9643 74.9728 33.1259 74.8734 35.2961C74.7397 40.4824 75.6721 45.638 77.6069 50.4108C77.7173 50.7864 77.9598 51.1036 78.285 51.2977C78.6102 51.4918 78.9935 51.5483 79.3568 51.4555C79.7194 51.3481 80.0271 51.0946 80.2131 50.7501C80.3991 50.4056 80.4484 49.9978 80.3504 49.6153C78.5342 45.1873 77.634 40.4039 77.7094 35.5822C77.7799 33.5832 77.978 31.5914 78.3022 29.6203C78.5719 27.9186 78.9039 25.8141 79.5951 24.4838C80.4743 22.7933 78.0177 21.2816 77.1379 22.9734Z" fill="#211715"/>
<path d="M123.01 28.3362C118.694 30.3756 114.123 31.7536 109.435 32.428C106.967 32.8086 104.48 33.0254 101.986 33.0769C100.748 33.1056 99.5137 33.0482 98.2771 33.0545C97.1318 33.0607 95.9894 33.224 94.8477 33.2988C93.0284 33.4172 93.0159 36.4106 94.8477 36.291C96.0226 36.2143 97.1993 36.0416 98.3778 36.046C99.6275 36.0516 100.873 36.0977 102.123 36.0659C104.824 35.9905 107.519 35.7392 110.191 35.3135C115.119 34.5755 119.92 33.0954 124.447 30.9188C124.77 30.7163 125.005 30.3881 125.1 30.0052C125.196 29.6222 125.144 29.2151 124.957 28.8717C124.761 28.5359 124.449 28.2926 124.086 28.1927C123.723 28.0927 123.338 28.1437 123.01 28.335V28.3362Z" fill="#211715"/>
<path d="M89.1167 37.2298C87.0739 39.2513 86.0869 41.9218 85.5006 44.7481C84.9809 47.3094 84.6117 49.9019 84.395 52.5109C84.398 52.9067 84.5488 53.2854 84.815 53.5653C85.0812 53.8452 85.4413 54.0039 85.8178 54.007C86.1927 53.999 86.5502 53.8388 86.8154 53.5599C87.0806 53.2811 87.2329 52.9052 87.2405 52.5109C87.4307 50.2388 87.7518 47.981 88.202 45.7499C88.6946 43.3362 89.3758 41.0809 91.1299 39.3454C92.4661 38.0233 90.4511 35.9101 89.1179 37.2298H89.1167Z" fill="#211715"/>
<path d="M128.27 34.0836C131.094 36.6598 133.533 39.6679 135.506 43.0071C137.157 45.8415 138.123 48.9683 139.505 51.9436C139.698 52.2834 140.01 52.5301 140.374 52.6304C140.738 52.7308 141.125 52.6769 141.452 52.4803C141.772 52.2744 142.004 51.9463 142.099 51.5647C142.194 51.1832 142.145 50.7777 141.962 50.4332C140.544 47.3787 139.549 44.1827 137.837 41.2816C135.766 37.8048 133.22 34.6665 130.282 31.9673C128.913 30.6994 126.893 32.8082 128.27 34.0867V34.0836Z" fill="#211715"/>
<path d="M113.976 166.34C118.028 155.825 119.071 152.354 122.238 142.126C126.164 129.451 129.833 115.615 132.761 102.446C132.872 101.789 132.842 101.114 132.675 100.47C132.508 99.8261 132.207 99.2292 131.794 98.7221C130.477 97.1175 128.817 94.7949 127.47 93.2128C126.898 93.6996 115.234 103.37 114.35 104.03H112.295C111.411 103.37 99.7472 93.6996 99.1751 93.2128C97.8283 94.7967 96.1684 97.1175 94.8512 98.7221C94.4385 99.2292 94.1377 99.8261 93.9706 100.47C93.8034 101.114 93.7739 101.789 93.8843 102.446C96.8122 115.615 100.482 129.451 104.407 142.126C107.575 152.354 108.616 155.825 112.669 166.34H113.976Z" fill="white"/>
<path d="M117.498 156.862C116.563 159.523 115.476 162.449 113.976 166.337H112.672C108.942 156.657 107.762 152.947 105.127 144.439C106.404 132.918 108.095 119.218 108.095 118.814C108.068 118.086 107.963 117.364 107.781 116.661C107.702 116.34 107.631 116.018 107.569 115.697C107.232 114.097 107.17 113.278 106.778 111.583L106.754 111.5C108.636 108.832 110.912 105.668 112.298 104.027H114.353C115.728 105.654 117.977 108.777 119.85 111.431C119.744 111.743 119.672 111.949 119.672 111.949C119.266 113.016 118.945 114.116 118.71 115.239C118.285 116.465 118.029 117.748 117.95 119.05C117.939 119.727 119.718 132.719 121.366 144.941C119.875 149.755 118.844 153.036 117.498 156.862Z" fill="#3D8DCC"/>
<path d="M74.006 202.505C73.9689 195.162 73.9096 187.82 73.8282 180.478C73.7388 170.899 73.6337 161.32 73.5128 151.741C73.4588 147.627 73.4019 143.513 73.3219 139.398C73.2846 137.476 70.4391 137.469 70.4764 139.398C70.6365 147.603 70.7242 155.81 70.8149 164.016C70.9185 173.352 71.0084 182.689 71.0847 192.026C71.1131 195.517 71.1378 199.009 71.1588 202.503C71.1688 204.428 74.0143 204.431 74.0042 202.503L74.006 202.505Z" fill="#211715"/>
<path d="M103.891 166.038C96.6133 152.773 89.4202 139.447 82.7096 125.853C82.2585 124.94 81.7522 124.032 81.3556 123.092C81.1885 122.695 81.1873 122.771 81.4742 122.43C81.8192 122.021 82.1856 121.631 82.5489 121.239C84.031 119.63 85.5794 118.086 87.1337 116.552C87.2853 116.389 87.3997 116.192 87.4686 115.976C87.5374 115.76 87.5587 115.53 87.531 115.304C87.5033 115.078 87.4272 114.861 87.3085 114.671C87.1898 114.48 87.0315 114.32 86.8456 114.203L83.9622 112.472L82.5833 111.644C82.3326 111.494 82.0806 111.345 81.8311 111.192L81.5803 111.042C81.3681 110.904 81.3839 110.919 81.6277 111.086L81.8222 111.841C81.7427 112.017 81.7321 112.042 81.7896 111.919C81.8239 111.844 81.8601 111.771 81.8974 111.699C81.9607 111.574 82.0269 111.449 82.096 111.325C82.2555 111.039 82.4268 110.764 82.607 110.489C82.9583 109.968 83.338 109.468 83.744 108.993C84.7668 107.795 85.8609 106.667 87.0199 105.615C89.1626 103.645 91.4413 101.845 93.8372 100.23L91.7469 99.3354C93.8474 109.128 96.2396 118.845 98.9234 128.486C101.295 137.036 103.844 145.55 106.645 153.955C108.079 158.261 109.669 162.507 111.298 166.734C111.408 167.11 111.65 167.428 111.975 167.622C112.301 167.816 112.684 167.873 113.048 167.779C113.41 167.672 113.718 167.418 113.904 167.074C114.09 166.729 114.139 166.321 114.041 165.939C111.224 158.624 108.722 151.227 106.399 143.727C103.456 134.222 100.737 124.652 98.3164 114.981C96.9502 109.525 95.6751 104.044 94.491 98.5388C94.4312 98.3191 94.3246 98.1165 94.1794 97.9464C94.0341 97.7764 93.854 97.6433 93.6527 97.5572C93.4513 97.4711 93.234 97.4342 93.0171 97.4494C92.8003 97.4646 92.5895 97.5314 92.4008 97.6449C88.7702 100.035 85.4212 102.869 82.4239 106.087C81.6836 106.901 80.994 107.764 80.3591 108.672C79.7578 109.427 79.3025 110.299 79.0188 111.238C78.6489 112.969 80.24 113.683 81.3971 114.378L85.4092 116.786L85.1211 114.436C83.6705 115.87 82.2265 117.308 80.834 118.8C79.4705 120.266 77.7514 121.811 78.6566 124.059C79.3727 125.84 80.3378 127.546 81.1908 129.259C82.0836 131.05 82.9843 132.837 83.8928 134.62C87.509 141.72 91.2365 148.757 95.0157 155.763C97.1395 159.699 99.2781 163.626 101.432 167.544C102.346 169.212 104.806 167.707 103.888 166.035L103.891 166.038Z" fill="#211715"/>
<path d="M155.483 202.505C155.521 195.162 155.58 187.82 155.661 180.478C155.751 170.899 155.856 161.32 155.977 151.741C156.031 147.627 156.087 143.513 156.167 139.398C156.205 137.472 153.359 137.472 153.322 139.398C153.162 147.603 153.074 155.81 152.984 164.016C152.88 173.352 152.79 182.689 152.714 192.026C152.685 195.517 152.661 199.009 152.64 202.503C152.63 204.428 155.475 204.431 155.485 202.503L155.483 202.505Z" fill="#211715"/>
<path d="M108.54 119.067C111.58 119.067 114.62 118.999 117.66 118.998C118.037 118.998 118.399 118.841 118.666 118.56C118.932 118.279 119.082 117.899 119.082 117.502C119.082 117.105 118.932 116.725 118.666 116.444C118.399 116.164 118.037 116.006 117.66 116.006C114.62 116.006 111.58 116.073 108.54 116.075C108.163 116.075 107.801 116.232 107.534 116.513C107.267 116.793 107.117 117.174 107.117 117.571C107.117 117.967 107.267 118.348 107.534 118.629C107.801 118.909 108.163 119.067 108.54 119.067Z" fill="#211715"/>
<path d="M105.403 111.983C105.692 113.254 105.882 114.544 106.138 115.822C106.433 116.814 106.611 117.839 106.666 118.877C106.628 119.779 106.465 120.691 106.36 121.585C105.834 126.062 105.297 130.537 104.776 135.014C104.409 138.169 104.049 141.325 103.697 144.481C103.699 144.877 103.85 145.257 104.116 145.537C104.382 145.817 104.743 145.975 105.12 145.977C105.494 145.968 105.851 145.808 106.116 145.529C106.381 145.251 106.534 144.875 106.542 144.481C107.147 139.033 107.776 133.589 108.429 128.149C108.79 125.101 109.318 122.02 109.505 118.953C109.488 117.838 109.323 116.732 109.013 115.666C108.696 114.18 108.484 112.674 108.148 111.191C107.723 109.32 104.978 110.111 105.403 111.986V111.983Z" fill="#211715"/>
<path d="M122.658 143.945C121.946 138.662 121.233 133.379 120.518 128.095C120.253 126.114 119.991 124.133 119.733 122.152L119.678 121.724L119.63 121.35C119.594 121.062 119.559 120.774 119.523 120.485C119.476 120.094 119.417 119.701 119.39 119.308C119.371 118.473 119.489 117.64 119.738 116.847C120.025 115.439 120.414 114.055 120.901 112.709C121.08 112.364 121.127 111.959 121.032 111.579C120.937 111.198 120.708 110.87 120.39 110.662C120.064 110.465 119.677 110.411 119.312 110.511C118.948 110.612 118.636 110.858 118.443 111.199C117.966 112.474 117.57 113.782 117.258 115.112C116.817 116.384 116.57 117.721 116.526 119.074C116.58 119.907 116.674 120.737 116.81 121.56C117.373 126.009 117.981 130.452 118.581 134.896C119.024 138.179 119.468 141.462 119.912 144.745C120.015 145.126 120.256 145.45 120.583 145.646C120.911 145.841 121.299 145.893 121.662 145.79C122.021 145.676 122.324 145.421 122.509 145.079C122.694 144.736 122.747 144.332 122.657 143.95L122.658 143.945Z" fill="#211715"/>
<path d="M125.212 167.548C132.826 153.671 140.352 139.728 147.32 125.477C147.845 124.403 148.47 123.33 148.19 122.073C147.953 120.997 147.102 120.212 146.404 119.446C144.83 117.72 143.181 116.072 141.523 114.436L141.234 116.786L145.247 114.378C146.404 113.683 147.995 112.969 147.625 111.238C147.341 110.299 146.886 109.427 146.285 108.672C145.65 107.764 144.96 106.901 144.22 106.087C141.223 102.87 137.875 100.038 134.245 97.648C134.057 97.5346 133.846 97.4677 133.629 97.4525C133.412 97.4373 133.195 97.4742 132.993 97.5603C132.792 97.6464 132.612 97.7795 132.467 97.9496C132.321 98.1196 132.215 98.3222 132.155 98.5419C130.055 108.335 127.662 118.052 124.979 127.693C122.607 136.242 120.058 144.756 117.257 153.162C115.823 157.468 114.234 161.714 112.605 165.941C112.507 166.323 112.556 166.731 112.742 167.075C112.928 167.42 113.236 167.674 113.598 167.781C113.962 167.877 114.347 167.822 114.673 167.627C114.999 167.433 115.241 167.113 115.348 166.736C118.165 159.421 120.668 152.025 122.991 144.524C125.934 135.019 128.653 125.446 131.074 115.779C132.44 110.322 133.715 104.841 134.899 99.3361L132.809 100.231C135.205 101.846 137.483 103.646 139.626 105.616C140.76 106.645 141.832 107.746 142.836 108.915C143.266 109.414 143.668 109.94 144.039 110.489C144.203 110.739 144.361 110.988 144.509 111.25C144.592 111.397 144.673 111.546 144.749 111.697L144.822 111.844C144.913 112.041 144.913 112.04 144.822 111.84L145.017 111.085C145.236 110.934 145.276 110.904 145.135 110.994C145.028 111.063 144.92 111.128 144.811 111.191C144.561 111.343 144.309 111.492 144.059 111.642L142.68 112.47L139.796 114.201C139.61 114.319 139.452 114.479 139.333 114.669C139.215 114.86 139.139 115.077 139.111 115.303C139.083 115.529 139.105 115.759 139.173 115.975C139.242 116.191 139.357 116.388 139.508 116.551C140.89 117.914 142.265 119.284 143.599 120.702C143.931 121.058 144.261 121.416 144.589 121.777C144.81 122.022 145.247 122.338 145.363 122.649C145.515 123.056 144.794 124.113 144.557 124.596C142.903 127.966 141.22 131.319 139.506 134.656C136.027 141.448 132.467 148.195 128.827 154.895C126.816 158.617 124.793 162.332 122.756 166.039C121.839 167.71 124.297 169.218 125.213 167.549L125.212 167.548Z" fill="#211715"/>
<path d="M126.464 94.2706C127.245 95.1957 127.981 96.1588 128.717 97.1225C129.4 98.0158 130.161 98.8754 130.803 99.7998C131.067 100.184 131.256 100.62 131.358 101.081C131.398 101.247 131.422 101.416 131.429 101.586C131.429 101.686 131.346 102.223 131.455 101.927C131.314 102.241 131.147 102.542 130.958 102.826C129.391 105.566 127.637 108.183 125.71 110.656C125.094 111.437 124.454 112.2 123.77 112.915C123.474 113.223 123.172 113.523 122.856 113.807C122.628 114.029 122.378 114.225 122.112 114.393L124.058 114.93C121.203 110.921 118.514 106.729 115.356 102.972L115.068 105.322C116.728 104.075 118.303 102.693 119.906 101.371C122.172 99.5006 124.436 97.6278 126.696 95.7523C127.289 95.2593 127.887 94.7705 128.475 94.2706C128.739 93.9887 128.887 93.6087 128.887 93.2128C128.887 92.8168 128.739 92.4368 128.475 92.1549C128.203 91.8818 127.842 91.7293 127.467 91.7293C127.091 91.7293 126.73 91.8818 126.459 92.1549C122.784 95.2717 119.049 98.3125 115.326 101.364L114.643 101.925L114.346 102.168C114.161 102.319 114.578 101.981 114.306 102.2C114.081 102.382 113.859 102.567 113.628 102.74C113.445 102.859 113.289 103.02 113.171 103.211C113.054 103.401 112.979 103.617 112.952 103.843C112.924 104.068 112.945 104.297 113.012 104.512C113.08 104.728 113.192 104.925 113.341 105.09C116.339 108.657 118.888 112.637 121.599 116.442C121.794 116.779 122.106 117.023 122.469 117.123C122.832 117.223 123.217 117.172 123.545 116.979C126.607 114.873 128.88 111.397 130.942 108.293C131.801 107 132.633 105.685 133.412 104.338C133.632 103.984 133.827 103.613 133.995 103.229C134.207 102.585 134.294 101.903 134.252 101.224C134.21 100.544 134.041 99.8799 133.752 99.27C133.2 97.9297 132.147 96.865 131.284 95.7386C130.361 94.5337 129.45 93.3156 128.473 92.1568C127.259 90.7112 125.253 92.8338 126.464 94.2706Z" fill="#211715"/>
<path d="M98.1685 92.1549C97.3042 93.1803 96.4921 94.2525 95.6787 95.321C94.9081 96.3308 94.0112 97.2976 93.333 98.3786C92.7871 99.1869 92.4688 100.141 92.4146 101.131C92.3603 102.12 92.5724 103.106 93.0265 103.975C94.7406 107.009 96.6737 109.9 98.8087 112.622C100.022 114.293 101.469 115.761 103.1 116.977C103.428 117.168 103.813 117.219 104.175 117.119C104.538 117.019 104.85 116.776 105.046 116.441C107.757 112.635 110.306 108.655 113.304 105.088C113.453 104.924 113.565 104.726 113.633 104.511C113.7 104.295 113.721 104.066 113.693 103.841C113.666 103.615 113.591 103.4 113.473 103.209C113.356 103.018 113.2 102.857 113.017 102.738C112.835 102.602 112.661 102.457 112.483 102.314L112.278 102.149C112.101 102.007 112.521 102.347 112.264 102.137C112.067 101.976 111.869 101.816 111.671 101.654C110.637 100.808 109.605 99.9596 108.575 99.1085C106.353 97.2758 104.135 95.4398 101.919 93.6005C101.339 93.1192 100.757 92.6424 100.183 92.1549C99.9105 91.8841 99.5499 91.7331 99.1751 91.7331C98.8003 91.7331 98.4397 91.8841 98.1673 92.1549C97.9033 92.437 97.7553 92.8169 97.7553 93.2127C97.7553 93.6086 97.9033 93.9885 98.1673 94.2706C101.886 97.4254 105.668 100.504 109.437 103.591C110.148 104.171 110.845 104.772 111.576 105.322L111.288 102.972C108.129 106.729 105.441 110.921 102.586 114.93L104.532 114.393C104.406 114.307 104.282 114.217 104.16 114.125C104.038 114.034 104.153 114.125 104.176 114.143C104.101 114.081 104.028 114.019 103.955 113.956C103.659 113.701 103.38 113.432 103.105 113.154C102.507 112.549 101.946 111.907 101.405 111.244C100.3 109.893 99.283 108.467 98.3078 107.01C97.4743 105.764 96.6693 104.496 95.9052 103.202C95.69 102.837 95.4766 102.47 95.2762 102.096C95.2473 102.048 95.2211 101.998 95.198 101.946C95.2626 102.112 95.2169 101.976 95.2163 101.809C95.2101 101.385 95.2828 100.963 95.4303 100.568C95.8655 99.4364 96.8892 98.4808 97.6071 97.5414C98.4501 96.4387 99.2871 95.3303 100.18 94.2712C101.393 92.8344 99.3867 90.7106 98.1685 92.1549Z" fill="#211715"/>
<path d="M99.9419 91.7853V94.1734C99.9456 94.5695 100.094 94.949 100.357 95.2331C100.624 95.5136 100.986 95.6712 101.363 95.6712C101.74 95.6712 102.102 95.5136 102.369 95.2331C102.63 94.9481 102.779 94.5692 102.784 94.1734V91.7853C102.78 91.3891 102.631 91.0097 102.369 90.7255C102.102 90.445 101.74 90.2874 101.363 90.2874C100.986 90.2874 100.624 90.445 100.357 90.7255C100.096 91.0105 99.9472 91.3894 99.9419 91.7853Z" fill="#211715"/>
<path d="M124.062 91.64V94.1067C124.066 94.5029 124.214 94.8824 124.477 95.1664C124.744 95.4469 125.106 95.6045 125.483 95.6045C125.86 95.6045 126.222 95.4469 126.489 95.1664C126.751 94.8816 126.899 94.5026 126.904 94.1067V93.9695C126.9 93.5734 126.752 93.1939 126.489 92.9098C126.222 92.6293 125.86 92.4717 125.483 92.4717C125.106 92.4717 124.744 92.6293 124.477 92.9098C124.215 93.1945 124.067 93.5736 124.062 93.9695V94.1067C124.066 94.5029 124.214 94.8824 124.477 95.1664C124.744 95.4469 125.106 95.6045 125.483 95.6045C125.86 95.6045 126.222 95.4469 126.489 95.1664C126.751 94.8816 126.899 94.5026 126.904 94.1067V91.64C126.9 91.2439 126.751 90.8646 126.489 90.5803C126.222 90.2998 125.86 90.1422 125.483 90.1422C125.106 90.1422 124.744 90.2998 124.477 90.5803C124.216 90.8653 124.067 91.2442 124.062 91.64Z" fill="#211715"/>
<path d="M183.071 202.504C182.439 193.445 181.835 184.383 181.204 175.325C180.818 169.783 180.41 164.243 179.912 158.71C179.197 150.789 178.353 142.926 176.371 135.222C175.289 131.014 173.993 126.703 171.921 122.903C169.827 119.063 166.641 116.014 163.229 113.49C156.501 108.514 148.675 105.235 141.058 102.089L140.06 101.677C139.696 101.574 139.309 101.627 138.981 101.822C138.654 102.018 138.412 102.341 138.31 102.722C138.218 103.105 138.27 103.509 138.456 103.852C138.641 104.195 138.945 104.449 139.304 104.562C146.032 107.341 152.804 110.204 158.999 114.162C162.506 116.4 165.942 119.09 168.366 122.624C170.582 125.86 171.863 129.745 172.953 133.529C174.288 138.198 175.29 142.965 175.95 147.791C176.39 150.97 176.651 154.178 176.946 157.374C177.437 162.682 177.844 167.999 178.22 173.318C178.806 181.605 179.354 189.895 179.928 198.182C180.027 199.624 180.127 201.066 180.228 202.508C180.237 202.902 180.39 203.277 180.655 203.555C180.919 203.834 181.276 203.995 181.651 204.004C182.027 204.001 182.387 203.842 182.653 203.562C182.92 203.282 183.071 202.903 183.074 202.508L183.071 202.504Z" fill="#211715"/>
<path d="M137.59 121.119C137.172 121.111 136.756 121.19 136.368 121.354C135.98 121.517 135.628 121.761 135.331 122.071C135.035 122.381 134.801 122.75 134.643 123.157C134.485 123.564 134.406 124 134.412 124.44C134.391 124.886 134.458 125.333 134.609 125.751C134.761 126.169 134.993 126.549 135.292 126.867C135.591 127.185 135.95 127.434 136.345 127.599C136.741 127.763 137.165 127.84 137.59 127.823C138.016 127.845 138.442 127.772 138.84 127.61C139.237 127.447 139.598 127.198 139.898 126.879C140.198 126.559 140.43 126.177 140.58 125.757C140.73 125.336 140.794 124.887 140.767 124.44C140.773 124 140.695 123.564 140.537 123.157C140.379 122.749 140.145 122.38 139.849 122.07C139.552 121.76 139.199 121.516 138.811 121.353C138.423 121.19 138.008 121.11 137.59 121.119Z" fill="#FEBE69"/>
<path d="M137.59 119.623C136.61 119.623 135.655 119.951 134.864 120.56C134.073 121.169 133.487 122.026 133.191 123.009C132.915 123.948 132.911 124.953 133.18 125.895C133.449 126.836 133.978 127.673 134.701 128.297C135.455 128.89 136.357 129.24 137.296 129.307C138.236 129.373 139.174 129.152 139.997 128.671C140.8 128.143 141.432 127.37 141.809 126.457C142.185 125.543 142.289 124.53 142.107 123.552C141.912 122.444 141.353 121.443 140.527 120.725C139.701 120.006 138.662 119.616 137.59 119.622C137.213 119.622 136.851 119.779 136.584 120.06C136.317 120.34 136.167 120.721 136.167 121.118C136.167 121.514 136.317 121.895 136.584 122.175C136.851 122.456 137.213 122.614 137.59 122.614C137.682 122.614 137.774 122.622 137.867 122.625C138.185 122.633 137.538 122.544 137.843 122.62C137.983 122.655 138.123 122.682 138.258 122.732C138.309 122.759 138.362 122.78 138.417 122.794L138.232 122.712C138.282 122.736 138.332 122.761 138.381 122.788C138.521 122.864 138.654 122.996 138.796 123.061C138.513 122.932 138.635 122.926 138.756 123.044C138.796 123.082 138.834 123.122 138.871 123.162C138.918 123.212 138.976 123.316 139.032 123.349C138.835 123.225 138.881 123.116 138.979 123.282C139.057 123.415 139.131 123.547 139.203 123.683C139.262 123.796 139.214 123.859 139.159 123.558C139.179 123.666 139.236 123.776 139.265 123.882C139.302 124.019 139.308 124.176 139.353 124.307C139.241 123.987 139.333 124.057 139.334 124.216C139.334 124.291 139.341 124.365 139.341 124.44C139.321 124.59 139.314 124.743 139.318 124.895L139.348 124.673C139.34 124.73 139.33 124.787 139.319 124.844C139.301 124.942 139.279 125.038 139.253 125.134C139.234 125.201 139.215 125.267 139.193 125.333L139.167 125.41C139.111 125.557 139.129 125.513 139.219 125.279C139.152 125.392 139.091 125.509 139.037 125.629C139.004 125.685 138.963 125.737 138.932 125.793C138.841 125.957 139.178 125.504 138.991 125.705C138.893 125.81 138.754 125.917 138.671 126.032C138.866 125.773 138.859 125.888 138.719 125.985C138.676 126.015 138.634 126.043 138.59 126.07C138.525 126.11 138.456 126.145 138.389 126.184C138.152 126.321 138.658 126.098 138.479 126.146C138.337 126.184 138.202 126.246 138.058 126.281C138.005 126.294 137.95 126.303 137.897 126.316C137.744 126.343 137.787 126.338 138.024 126.301C137.965 126.308 137.91 126.313 137.852 126.318C137.706 126.328 137.559 126.329 137.412 126.323C137.327 126.308 137.242 126.3 137.156 126.301C137.184 126.296 137.515 126.373 137.287 126.315C137.142 126.278 136.997 126.247 136.855 126.197C136.796 126.176 136.731 126.141 136.669 126.126C137.044 126.22 136.819 126.192 136.692 126.118C136.565 126.045 136.459 125.951 136.337 125.879C136.625 126.047 136.527 126.043 136.447 125.962C136.393 125.906 136.335 125.854 136.283 125.796C136.239 125.749 136.201 125.691 136.155 125.648C136.021 125.523 136.359 125.967 136.214 125.728C136.13 125.589 136.053 125.45 135.977 125.306C135.836 125.04 136.085 125.649 135.995 125.356C135.979 125.303 135.959 125.25 135.943 125.196C135.919 125.022 135.881 124.852 135.829 124.686C135.843 124.711 135.859 125.07 135.847 124.814C135.843 124.721 135.834 124.627 135.832 124.535C135.832 124.458 135.832 124.382 135.832 124.306C135.832 124.262 135.835 124.218 135.839 124.173C135.854 124.011 135.847 124.056 135.817 124.309C135.871 124.152 135.88 123.966 135.929 123.805C135.962 123.727 135.99 123.646 136.011 123.563C135.99 123.717 135.887 123.844 136.003 123.612C136.076 123.467 136.195 123.332 136.26 123.184C136.124 123.492 136.134 123.349 136.242 123.227C136.296 123.165 136.353 123.102 136.412 123.048C136.53 122.931 136.657 122.932 136.372 123.064C136.442 123.02 136.509 122.972 136.574 122.919C136.643 122.873 136.714 122.83 136.787 122.79C136.836 122.763 136.886 122.738 136.937 122.713L136.751 122.796C136.92 122.763 137.085 122.711 137.244 122.64L137.33 122.622C137.484 122.596 137.446 122.6 137.216 122.635C137.339 122.646 137.463 122.639 137.584 122.616C137.961 122.616 138.323 122.458 138.59 122.177C138.857 121.897 139.007 121.516 139.007 121.119C139.007 120.723 138.857 120.342 138.59 120.062C138.323 119.781 137.961 119.623 137.584 119.623H137.59Z" fill="#211715"/>
<path d="M51.9606 127.626C50.7884 121.281 49.6243 114.936 48.4683 108.589C48.1277 106.731 47.7864 104.873 47.4446 103.015C47.3413 102.635 47.1001 102.312 46.7728 102.116C46.4455 101.921 46.0584 101.868 45.6946 101.97C45.335 102.082 45.0308 102.337 44.8456 102.68C44.6604 103.023 44.6086 103.428 44.701 103.811C45.9878 110.808 47.2722 117.806 48.5543 124.805C48.7752 126.01 48.9969 127.215 49.2194 128.42C49.3228 128.801 49.5641 129.123 49.8913 129.319C50.2185 129.514 50.6056 129.567 50.9694 129.466C51.3291 129.353 51.6334 129.099 51.8186 128.756C52.0038 128.412 52.0555 128.007 51.9629 127.625L51.9606 127.626Z" fill="#211715"/>
<path d="M45.115 129.025C43.9377 122.652 42.7683 116.278 41.6068 109.903C41.2689 108.062 40.931 106.221 40.5931 104.38C40.4894 104 40.248 103.677 39.9207 103.482C39.5934 103.287 39.2063 103.234 38.8425 103.336C38.483 103.448 38.1788 103.702 37.9936 104.045C37.8084 104.388 37.7566 104.793 37.849 105.176C39.1385 112.189 40.4247 119.202 41.7076 126.212C41.9289 127.415 42.1502 128.617 42.3715 129.82C42.4748 130.201 42.716 130.524 43.0433 130.719C43.3706 130.915 43.7578 130.967 44.1215 130.865C44.4811 130.753 44.7854 130.499 44.9706 130.155C45.1558 129.812 45.2076 129.407 45.115 129.025Z" fill="#211715"/>
<path d="M34.94 62.4766C31.8002 63.0993 28.9391 64.7818 26.7907 67.2688C24.6424 69.7558 23.3239 72.9118 23.0353 76.2579C22.5486 82.5352 25.5772 89.1566 31.034 91.9623C36.2916 94.6652 43.4984 93.3643 47.9379 89.4894C52.4699 85.5336 53.5393 78.6579 51.784 72.9485C50.7516 69.4213 48.5527 66.3991 45.585 64.429C42.3896 62.4128 38.5958 61.717 34.94 62.4766C34.6447 62.533 34.3631 62.6505 34.1113 62.8222C33.8595 62.9939 33.6427 63.2165 33.4733 63.4771C33.304 63.7376 33.1855 64.0309 33.1247 64.3399C33.064 64.6489 33.0622 64.9676 33.1194 65.2774C33.1767 65.5871 33.2918 65.8819 33.4582 66.1445C33.6246 66.4071 33.8389 66.6324 34.0887 66.8073C34.3385 66.9822 34.6188 67.1032 34.9134 67.1633C35.208 67.2234 35.511 67.2214 35.8049 67.1574C36.1428 67.0914 36.4807 67.0328 36.8222 66.9904C37.0077 66.9667 37.1939 66.9467 37.3806 66.9324C37.2804 66.9399 36.9775 66.9386 37.4351 66.9324C38.1148 66.9187 38.7946 66.9567 39.4691 67.0459C39.6422 67.0708 39.8141 67.1026 39.9866 67.1306C40.063 67.1431 40.4092 67.2304 40.0216 67.1344C40.2883 67.2005 40.5551 67.274 40.8153 67.3575C41.1394 67.461 41.4591 67.579 41.7745 67.7116C41.8994 67.764 42.0235 67.8186 42.1468 67.8756C42.2369 67.9173 42.7639 68.1922 42.3531 67.9672C42.8545 68.2425 43.3367 68.5549 43.7959 68.9022C44.039 69.0861 44.2702 69.2806 44.5032 69.4795C44.1872 69.2077 44.454 69.4302 44.515 69.4913C44.6591 69.6366 44.8031 69.7793 44.943 69.9277C45.3545 70.385 45.7408 70.8666 46.1002 71.3701C46.1512 71.4387 46.3456 71.7441 46.1144 71.3789C46.1885 71.4967 46.2597 71.6164 46.3296 71.7367C46.5051 72.04 46.6687 72.3505 46.8204 72.668C46.9722 72.9855 47.1127 73.3119 47.2419 73.6473C47.3012 73.7975 47.53 74.5256 47.3967 74.0643C47.5923 74.7416 47.7452 75.4317 47.8543 76.1301C47.9059 76.4636 47.9503 76.7978 47.9853 77.1337C48.0001 77.2796 48.0108 77.4255 48.0256 77.5701C48.095 78.2627 48.0209 77.269 48.0339 77.6867C48.057 78.3441 48.0416 79.0023 47.9877 79.6577C47.964 79.9233 47.9333 80.1878 47.8958 80.4513C47.8727 80.6134 47.8448 80.7742 47.817 80.9356C47.7506 81.3159 47.9622 80.3971 47.8004 80.9942C47.6621 81.5438 47.495 82.0848 47.3 82.615C47.2502 82.7434 46.9443 83.4254 47.0629 83.186C47.1815 82.9466 46.8317 83.6024 46.7635 83.7177C46.6402 83.9255 46.5104 84.1293 46.3741 84.3292C46.2887 84.4539 46.2006 84.5763 46.1097 84.6964C46.0694 84.7506 45.6947 85.2075 45.9052 84.9626C46.1079 84.7282 45.8488 85.0212 45.7973 85.0748C45.6917 85.1839 45.5892 85.2961 45.4819 85.4033C45.308 85.5766 45.1292 85.7428 44.9454 85.902C44.7344 86.0859 44.5156 86.2567 44.2933 86.4275C43.9969 86.6562 44.7569 86.1389 44.2429 86.4636C44.0817 86.5652 43.9222 86.6712 43.7586 86.7697C43.2786 87.0562 42.782 87.3111 42.2718 87.5327C42.1479 87.5869 41.3471 87.898 41.7976 87.7378C41.4639 87.8562 41.1242 87.9578 40.7839 88.0495C40.1488 88.2223 39.505 88.3578 38.8555 88.4553C38.5757 88.4977 38.2947 88.5232 38.0149 88.5587C37.5673 88.6148 37.9058 88.5718 38.003 88.5662C37.8003 88.5775 37.597 88.5831 37.3942 88.5849C36.806 88.5902 36.218 88.5548 35.6342 88.479C35.5085 88.4619 35.3828 88.4432 35.2572 88.4229C35.2572 88.4229 34.6478 88.3082 34.9904 88.3798C35.2779 88.4422 34.892 88.3555 34.8238 88.3375C34.646 88.2888 34.4681 88.2402 34.2903 88.1854C33.802 88.0227 33.3221 87.8331 32.8527 87.6175C32.3192 87.3843 33.1237 87.7795 32.8112 87.5994C32.6814 87.5246 32.551 87.4504 32.423 87.3712C32.1681 87.2137 31.9197 87.0448 31.6778 86.8645C31.484 86.7198 31.3008 86.5621 31.1117 86.4113C30.654 86.0466 31.3358 86.64 31.0755 86.3832C30.9878 86.2966 30.9006 86.2112 30.8153 86.1226C30.4032 85.6972 30.0233 85.2387 29.6789 84.7512C29.6048 84.6465 29.5336 84.5406 29.4619 84.434C29.7393 84.8454 29.4903 84.4788 29.4281 84.3673C29.2823 84.1054 29.1317 83.8474 28.9989 83.5793C28.7185 83.0183 28.495 82.4429 28.2674 81.8601C28.0184 81.2236 28.3468 82.1487 28.2241 81.7466C28.1702 81.5702 28.1186 81.3938 28.0706 81.2162C27.9915 80.9253 27.9194 80.6327 27.8542 80.3385C27.7035 79.6492 27.5952 78.9504 27.5299 78.2465C27.4902 77.8276 27.5299 78.8168 27.5222 78.1261C27.5222 77.9111 27.5139 77.6954 27.5175 77.4797C27.5234 77.1238 27.543 76.7672 27.5768 76.4125C27.6106 76.0578 27.6633 75.7119 27.7155 75.3621C27.7831 74.909 27.7368 75.2524 27.7155 75.3466C27.7617 75.1421 27.8103 74.9383 27.8643 74.7357C28.0507 74.0653 28.2829 73.4099 28.559 72.7746C28.8163 72.1662 28.4257 73.0183 28.6118 72.6661C28.7084 72.4835 28.8057 72.3008 28.9082 72.1219C29.0801 71.8227 29.2639 71.5318 29.4595 71.2492C29.5573 71.1077 29.6575 70.9681 29.7613 70.8309C29.8205 70.7499 30.2076 70.2861 29.8976 70.6439C30.1237 70.3817 30.3608 70.1298 30.609 69.8884C30.8572 69.6469 31.1152 69.4153 31.3832 69.1933C31.4911 69.1042 31.6037 69.0213 31.7116 68.9322C32.2226 68.512 31.3506 69.1416 31.9108 68.7869C32.5157 68.3957 33.1479 68.0529 33.8018 67.7615C33.9708 67.6885 34.1409 67.62 34.3122 67.5533C34.4676 67.4947 34.4504 67.5001 34.2607 67.5695C34.3674 67.5333 34.4747 67.4993 34.5826 67.4673C34.9863 67.3426 35.3941 67.2441 35.8061 67.1556C36.1014 67.0992 36.3831 66.9817 36.6348 66.81C36.8866 66.6382 37.1034 66.4156 37.2728 66.1551C37.4422 65.8946 37.5606 65.6013 37.6214 65.2923C37.6821 64.9832 37.6839 64.6646 37.6267 64.3548C37.5695 64.045 37.4543 63.7503 37.2879 63.4877C37.1216 63.225 36.9073 62.9997 36.6575 62.8249C36.4076 62.65 36.1273 62.529 35.8327 62.4689C35.5381 62.4088 35.2351 62.4108 34.9412 62.4747L34.94 62.4766Z" fill="#68E8A3"/>
<path d="M32.5293 50.0891C26.8093 51.226 21.5909 54.2736 17.6498 58.7788C13.9697 63.1244 11.6768 68.5733 11.0934 74.3598C9.89712 85.6906 15.4079 97.9696 25.2366 103.172C35.0837 108.383 48.0946 106.367 56.3459 98.7594C64.5657 91.1806 66.4959 78.325 62.83 67.7883C60.9498 62.3245 57.5088 57.6058 52.9787 54.2787C48.3073 50.9289 42.7303 49.259 37.0814 49.5187C35.5528 49.5908 34.0313 49.7815 32.5293 50.0891C32.1674 50.1977 31.8605 50.4514 31.6746 50.7955C31.4888 51.1397 31.4389 51.5468 31.5357 51.9293C31.6427 52.3074 31.8845 52.6273 32.2107 52.8222C32.5369 53.017 32.9221 53.0717 33.2857 52.9747C38.3991 51.8933 43.7079 52.5795 48.42 54.9308C52.7998 57.2056 56.396 60.8598 58.7082 65.3846C63.2432 74.2182 62.9426 86.3919 56.6601 94.1615C50.3046 102.021 38.8658 105.016 29.6204 101.858C20.1201 98.6117 14.1624 88.6273 13.8002 78.3468C13.604 73.1662 14.9381 68.0489 17.619 63.6977C20.4217 59.2464 24.53 55.8792 29.3192 54.1079C30.6137 53.6305 31.9393 53.2521 33.2857 52.9759C33.4659 52.9237 33.6345 52.8346 33.782 52.7139C33.9294 52.5931 34.0528 52.443 34.1451 52.2721C34.2374 52.1012 34.2968 51.9128 34.3198 51.7178C34.3429 51.5228 34.3292 51.3249 34.2795 51.1354C34.2299 50.946 34.1452 50.7686 34.0304 50.6136C33.9155 50.4585 33.7728 50.3288 33.6102 50.2317C33.4477 50.1347 33.2686 50.0722 33.0831 50.048C32.8977 50.0237 32.7095 50.0381 32.5293 50.0904V50.0891Z" fill="#211715"/>
<path d="M48.2016 159.254C49.3176 159.158 50.4265 158.985 51.5213 158.738C54.8262 158.021 57.2449 155.667 58.6042 152.419C59.6339 149.958 60.3287 145.805 59.9641 143.541C59.3697 140.441 59.0103 137.297 58.8893 134.137C58.6611 128.96 58.8686 128.88 57.7968 125.49C56.6367 121.819 53.1172 122.16 50.3025 122.382L48.7583 124.35C48.7387 124.345 48.7186 124.342 48.699 124.339C45.0568 123.762 41.5082 125.983 38.7695 128.25C35.8434 130.711 34.1847 133.61 34.1895 137.297C34.1995 144.41 38.0694 154.011 41.823 157.996C43.7431 159.191 45.9958 159.426 48.2016 159.254Z" fill="white"/>
<path d="M53.3805 132.069C53.8097 131.205 54.0499 130.251 54.0837 129.277C54.1174 128.302 53.9438 127.333 53.5755 126.438C53.2151 125.558 52.6569 124.783 51.9488 124.181C51.2407 123.578 50.404 123.165 49.5106 122.977C44.8352 121.944 40.1046 124.83 36.7914 128.074C35.2841 129.455 34.1341 131.214 33.4485 133.188C32.763 135.162 32.5644 137.287 32.8711 139.363C33.3376 143.752 34.5238 148.021 36.377 151.983C37.1617 153.758 38.1088 155.448 39.2047 157.029C39.6795 157.757 40.2201 158.435 40.8189 159.054C41.7825 159.81 42.908 160.306 44.0965 160.497C46.3061 160.908 48.5697 160.878 50.7686 160.407C52.7849 160.11 54.6967 159.28 56.3243 157.994C59.5528 155.34 60.883 151.115 61.3596 146.981C61.7153 143.897 60.8664 140.927 60.5748 137.909C60.3507 135.593 60.2837 133.268 60.1936 130.942C60.1722 129.606 60.0132 128.277 59.7193 126.977C59.2937 125.27 58.7791 123.453 57.443 122.284C56.058 121.199 54.3545 120.66 52.63 120.761C51.8534 120.761 51.078 120.823 50.3038 120.886C49.9293 120.895 49.5725 121.056 49.3076 121.334C49.0427 121.613 48.8899 121.988 48.8811 122.382C48.884 122.778 49.0348 123.156 49.301 123.436C49.5672 123.716 49.9274 123.875 50.3038 123.878C51.6012 123.694 52.9166 123.701 54.2122 123.898C54.781 124.007 55.3064 124.29 55.722 124.712C56.1376 125.135 56.4246 125.677 56.5466 126.272C56.734 126.877 56.916 127.485 57.0553 128.105C57.111 128.354 57.156 128.604 57.2005 128.856C57.2147 128.937 57.2254 129.02 57.2367 129.102C57.1833 128.715 57.2503 129.27 57.2562 129.339C57.3991 130.931 57.3955 132.54 57.4679 134.138C57.6247 137.302 57.9808 140.452 58.5337 143.566C58.6201 144.078 58.6564 144.598 58.6422 145.118C58.5805 147.744 57.9863 150.326 56.8994 152.691C56.17 154.15 55.0836 155.378 53.7521 156.249C52.2783 157.077 50.6538 157.565 48.9866 157.682C47.1457 157.993 45.2605 157.829 43.4936 157.203C42.2179 156.678 41.4467 155.275 40.7341 154.102C38.894 151.021 37.5038 147.668 36.61 144.153C35.7682 140.929 34.9554 136.992 36.2685 133.787C37.0701 132.013 38.2758 130.475 39.7785 129.309C41.476 127.804 43.4499 126.683 45.5773 126.015C47.1133 125.598 49.3885 125.475 50.4804 126.791C50.8861 127.311 51.1432 127.941 51.2218 128.608C51.3004 129.276 51.1973 129.953 50.9245 130.561C50.0021 132.228 52.4604 133.736 53.3816 132.071L53.3805 132.069Z" fill="#211715"/>
<path d="M43.9352 134.041C45.1683 133.759 46.4037 133.488 47.6503 133.281C48.2431 133.183 48.6717 133.107 49.3025 133.061C49.7673 133.004 50.2383 133.064 50.6766 133.236C50.8551 133.286 51.0227 133.372 51.1698 133.489C51.2753 133.557 51.1449 133.44 51.2979 133.587C51.4068 133.692 51.5103 133.803 51.6079 133.919C51.4894 133.778 51.6595 133.993 51.6939 134.047C51.7686 134.168 51.835 134.292 51.9014 134.417C52.0202 134.652 52.107 134.904 52.1592 135.165C52.1734 135.231 52.212 135.539 52.1948 135.335C52.2048 135.489 52.2073 135.643 52.2025 135.798C52.2025 135.913 52.1711 135.997 52.2025 135.837C52.174 135.977 52.1385 136.107 52.0993 136.244C52.1634 136.02 52.0964 136.25 52.049 136.354C52.0015 136.457 51.9594 136.555 51.9079 136.652C51.8563 136.748 51.6636 136.978 51.8984 136.688C52.0365 136.517 52.0312 136.594 51.8391 136.695C51.6778 136.795 51.5367 136.926 51.4237 137.083C51.3108 137.239 51.2283 137.418 51.1809 137.608C51.1336 137.798 51.1223 137.996 51.1477 138.191C51.1731 138.385 51.2347 138.573 51.329 138.742C51.4233 138.912 51.5485 139.06 51.6973 139.179C51.8462 139.298 52.0158 139.385 52.1966 139.434C52.3773 139.484 52.5656 139.496 52.7508 139.469C52.9359 139.443 53.1142 139.378 53.2755 139.279C54.537 138.604 55.1404 136.738 55.0379 135.335C54.9808 134.45 54.7319 133.591 54.3103 132.824C53.8887 132.056 53.3056 131.4 52.6056 130.906C51.2534 129.993 49.6534 130.002 48.124 130.213C46.46 130.443 44.8179 130.783 43.1788 131.156C42.9986 131.208 42.83 131.298 42.6825 131.418C42.5351 131.539 42.4117 131.689 42.3194 131.86C42.2271 132.031 42.1677 132.219 42.1447 132.414C42.1216 132.609 42.1353 132.807 42.185 132.997C42.2346 133.186 42.3193 133.364 42.4341 133.519C42.549 133.674 42.6917 133.803 42.8543 133.9C43.0168 133.998 43.1959 134.06 43.3814 134.084C43.5668 134.108 43.755 134.094 43.9352 134.042V134.041Z" fill="#211715"/>
<path d="M44.8364 140.264C46.1406 140.015 47.4479 139.774 48.7584 139.542C49.3625 139.435 49.9666 139.325 50.5718 139.228C50.947 139.163 51.3317 139.201 51.6887 139.339C51.5701 139.29 51.8902 139.443 51.9211 139.463C51.9424 139.475 52.336 139.746 52.106 139.552C52.2671 139.674 52.3986 139.835 52.4902 140.02C52.5726 140.161 52.6354 140.312 52.7125 140.457C52.8476 140.706 52.6176 140.131 52.6929 140.403C52.7202 140.499 52.7569 140.59 52.7824 140.688C52.8079 140.787 52.8221 141.087 52.8126 140.757C52.8168 140.896 52.8257 141.032 52.8204 141.171C52.8292 140.953 52.8097 141.237 52.7901 141.322C52.7712 141.409 52.748 141.494 52.7208 141.578C52.7646 141.493 52.767 141.49 52.7261 141.566C52.6721 141.691 52.5631 141.762 52.6959 141.624C52.6781 141.642 52.3769 141.929 52.5998 141.746C52.497 141.827 52.3895 141.902 52.2779 141.97C52.173 142.036 52.0645 142.094 51.9549 142.157C51.8766 142.198 51.5512 142.338 51.9027 142.189C51.5452 142.305 51.2432 142.56 51.0585 142.902C50.8737 143.244 50.8201 143.647 50.9085 144.029C51.0111 144.411 51.2524 144.734 51.58 144.929C51.9076 145.125 52.2953 145.177 52.6591 145.074C53.3837 144.801 54.0499 144.381 54.6195 143.837C55.2428 143.158 55.6104 142.264 55.654 141.322C55.6899 140.541 55.5468 139.762 55.2365 139.051C54.9263 138.34 54.4581 137.718 53.8714 137.237C53.1507 136.679 52.2994 136.336 51.4083 136.247C50.6021 136.213 49.7953 136.294 49.0098 136.488C47.3642 136.773 45.7209 137.072 44.08 137.386C43.7179 137.495 43.4109 137.748 43.225 138.093C43.039 138.437 42.9891 138.844 43.0859 139.227C43.1932 139.605 43.4353 139.925 43.7615 140.119C44.0877 140.314 44.4728 140.369 44.8364 140.272V140.264Z" fill="#211715"/>
<path d="M46.4861 146.091C46.7291 146.051 46.9722 146.014 47.2152 145.977C47.3818 145.952 47.1221 145.989 47.1132 145.991C47.1684 145.98 47.2243 145.972 47.2804 145.969C47.431 145.948 47.5822 145.929 47.7333 145.909C48.3048 145.836 48.8763 145.757 49.4483 145.692C50.0059 145.633 50.5671 145.62 51.1265 145.654C51.3044 145.664 51.0293 145.643 51.0323 145.64C51.0882 145.644 51.1434 145.655 51.1965 145.673C51.3198 145.701 51.439 145.739 51.5593 145.778C51.8089 145.859 51.3815 145.653 51.5937 145.801C51.6334 145.828 51.6779 145.86 51.7205 145.883C51.8521 145.954 51.5125 145.649 51.714 145.889C51.749 145.929 51.7857 145.974 51.8231 146.013C51.9417 146.138 51.7514 145.937 51.7638 145.932C51.8254 146.024 51.8794 146.121 51.9251 146.223C52.0371 146.434 51.8919 146.176 51.9091 146.173C51.9292 146.225 51.9468 146.278 51.9618 146.331C51.9992 146.456 52.0312 146.581 52.0578 146.705C52.0738 146.781 52.161 147.142 52.0999 146.925C52.0389 146.709 52.0632 147.116 52.1065 146.847C52.1497 146.578 52.0851 146.917 52.065 146.99C52.0525 147.037 52.0365 147.083 52.0223 147.13C52.0039 147.192 51.9037 147.347 52.0051 147.187C52.1236 147 51.9245 147.334 51.8996 147.378C51.87 147.418 51.844 147.461 51.8219 147.506C51.7733 147.659 51.8711 147.381 51.9067 147.398C51.9013 147.398 51.8302 147.491 51.8195 147.499C51.6903 147.587 51.9737 147.41 51.9565 147.403C51.9393 147.395 51.7419 147.519 51.7128 147.533C51.5024 147.637 52.0306 147.399 51.8142 147.488C51.7431 147.518 51.6725 147.551 51.6014 147.578C51.4528 147.638 51.3028 147.694 51.1514 147.747C50.1679 148.059 49.1599 148.279 48.1394 148.403C47.7762 148.51 47.4678 148.763 47.2816 149.108C47.0954 149.453 47.0466 149.861 47.1459 150.244C47.2561 150.619 47.4985 150.937 47.8237 151.131C48.1489 151.325 48.5324 151.382 48.8958 151.289C49.9399 151.162 50.9706 150.935 51.9749 150.609C52.4065 150.459 52.8286 150.281 53.2387 150.075C53.7973 149.744 54.2383 149.231 54.4949 148.614C54.8443 147.913 54.9756 147.114 54.8701 146.33C54.7905 145.671 54.5792 145.038 54.25 144.471C53.3816 143.048 51.8788 142.601 50.3423 142.637C49.5675 142.657 48.7962 142.785 48.0303 142.882C47.2644 142.98 46.4967 143.081 45.7338 143.208C45.3705 143.315 45.0621 143.568 44.876 143.913C44.6898 144.258 44.641 144.667 44.7402 145.049C44.8498 145.425 45.0922 145.743 45.4176 145.938C45.743 146.132 46.1268 146.188 46.4902 146.094L46.4861 146.091Z" fill="#211715"/>
<path d="M57.763 123.412C60.5415 119.012 64.7664 115.858 69.0708 113.276C73.6398 110.577 78.3869 108.226 83.2756 106.24L87.3411 104.562C87.6987 104.446 88.0008 104.191 88.1855 103.849C88.3703 103.507 88.4236 103.104 88.3346 102.722C88.232 102.34 87.9909 102.017 87.6633 101.821C87.3357 101.626 86.948 101.574 86.5841 101.676C83.1654 103.089 79.7668 104.528 76.4115 106.102C71.0952 108.595 65.8293 111.365 61.2541 115.193C58.9502 117.088 56.9431 119.352 55.3059 121.901C54.2898 123.509 56.7535 125.01 57.763 123.411V123.412Z" fill="#211715"/>
<path d="M38.1484 158.22C39.0068 166.418 39.6897 174.716 41.2026 182.817C42.1653 187.981 43.8554 193.127 47.1241 197.193C48.6609 199.143 50.5795 200.722 52.7493 201.821C54.8743 202.819 57.162 203.377 59.4877 203.466C64.5858 203.747 70.109 202.083 73.469 197.842C73.7266 197.557 73.8702 197.178 73.8702 196.785C73.8702 196.391 73.7266 196.012 73.469 195.727C73.2007 195.449 72.8394 195.294 72.463 195.294C72.0867 195.294 71.7254 195.449 71.457 195.727C68.7894 199.093 64.673 200.49 60.598 200.502C58.6053 200.54 56.6226 200.196 54.7476 199.485C52.7554 198.631 50.9813 197.299 49.5677 195.593C46.4691 192.007 44.9699 187.228 44.051 182.565C43.2934 178.722 42.8654 175.022 42.4178 171.189C41.9133 166.869 41.4468 162.544 40.9951 158.218C40.9845 157.825 40.8312 157.451 40.5666 157.173C40.3021 156.895 39.9463 156.733 39.5724 156.722C39.1957 156.725 38.8352 156.883 38.5689 157.163C38.3026 157.443 38.152 157.822 38.1496 158.218L38.1484 158.22Z" fill="#211715"/>
</g>
<defs>
<clipPath id="clip0_1072_1309">
<rect width="194" height="204" fill="white"/>
</clipPath>
</defs>
</svg>
