<svg width="200" height="135" viewBox="0 0 200 135" fill="none" xmlns="http://www.w3.org/2000/svg">
<g clip-path="url(#clip0_1077_1191)">
<path d="M160 67.4986C163.367 67.4986 166.132 64.0989 166.575 59.7138L172.667 53.5489C173.404 52.8041 173.554 51.3935 173 50.3989C172.448 49.4043 171.404 49.1997 170.667 49.9488L166.419 54.2508C165.784 51.5081 163.907 49.499 161.667 49.499H155.001C152.244 49.499 150.001 52.5275 150.001 56.2489C150.001 52.5275 147.757 49.499 145.001 49.499H138.334C136.094 49.499 134.217 51.5081 133.582 54.2508L129.334 49.9488C128.599 49.2039 127.552 49.4064 127 50.3989C126.447 51.3935 126.597 52.8041 127.334 53.5489L133.425 59.7138C133.869 64.0989 136.632 67.4986 140 67.4986H143.334C147.01 67.4986 150 63.4621 150 58.4988C150 63.4624 152.99 67.4986 156.667 67.4986H160ZM146.667 58.4988C146.667 60.9805 145.17 62.9989 143.334 62.9989H140C138.164 62.9989 136.667 60.9807 136.667 58.4988V56.2489C136.667 55.0091 137.414 53.999 138.334 53.999H145C145.92 53.999 146.667 55.0091 146.667 56.2489V58.4988H146.667ZM153.334 58.4988V56.2489C153.334 55.0091 154.08 53.999 155 53.999H161.667C162.587 53.999 163.333 55.0091 163.333 56.2489V58.4988C163.333 60.9805 161.837 62.9989 160 62.9989H156.667C154.83 62.9986 153.334 60.9805 153.334 58.4988Z" fill="#3F3D56"/>
<path d="M199.95 132.201L198.247 123.037C197.392 119.568 192.332 108.408 163.334 108.104V105.748C163.334 104.507 162.589 103.499 161.667 103.499C160.745 103.499 160.001 104.507 160.001 105.748V110.248C160.001 110.264 160.007 110.278 160.007 110.294C160.007 110.307 160.001 110.318 160.001 110.334C159.994 111.707 159.659 123.749 150.001 123.749C140.342 123.749 140.007 111.624 140.001 110.249V105.749C140.001 104.507 139.256 103.499 138.334 103.499C137.413 103.499 136.668 104.507 136.668 105.749V108.021C115.071 108.25 104.256 112.903 101.718 123.201L100.051 132.201C99.826 133.407 100.371 134.629 101.264 134.931C102.154 135.237 103.061 134.499 103.284 133.295L104.914 124.459C106.851 116.618 117.281 112.701 136.777 112.505C137.382 118.947 140.625 128.248 150 128.248C159.37 128.248 162.615 119.003 163.223 112.595C186.067 112.822 194.008 120.101 195.05 124.295L196.716 133.295C196.906 134.316 197.585 134.998 198.331 134.998C198.465 134.998 198.601 134.978 198.737 134.931C199.63 134.629 200.173 133.407 199.95 132.201Z" fill="#3F3D56"/>
<path d="M111.452 11.2312L149.785 17.9811C149.857 17.9924 149.929 17.999 150 17.999C150.072 17.999 150.144 17.9922 150.215 17.9811L186.667 11.5621V19.3741C185.622 20.9603 183.333 24.918 183.333 29.2493C183.333 34.2015 186.323 35.9992 188.333 35.9992C190.343 35.9992 193.333 34.2015 193.333 29.2493C193.333 24.918 191.045 20.9603 190 19.3741V8.99919C190 8.7023 189.953 8.42097 189.875 8.15993C189.846 8.06765 189.798 7.99567 189.761 7.91024C189.696 7.75283 189.631 7.59753 189.542 7.46701C189.483 7.38369 189.413 7.32753 189.347 7.26003C189.252 7.15641 189.158 7.05753 189.048 6.98555C188.967 6.9315 188.88 6.90909 188.792 6.87534C188.71 6.84159 188.637 6.78305 188.548 6.76723L150.215 0.0172972C150.072 -0.00511469 149.929 -0.00511469 149.785 0.0172972L111.452 6.76723C110.622 6.91357 110.001 7.86963 110.001 8.99919C110.001 10.1288 110.622 11.0851 111.452 11.2312ZM190 29.249C190 31.0446 189.098 31.4651 188.333 31.4989C187.568 31.4651 186.667 31.0443 186.667 29.249C186.667 27.3814 187.517 25.2979 188.333 23.7612C189.15 25.2982 190 27.3817 190 29.249ZM150 4.51734L175.448 8.99919L150 13.4813L124.552 8.99919L150 4.51734Z" fill="#3F3D56"/>
<path d="M153.842 81.6328C153.789 81.698 152.532 83.2484 150 83.2484C147.505 83.2484 146.249 81.7431 146.162 81.6352C145.514 80.778 144.469 80.7846 143.822 81.6576C143.17 82.5375 143.17 83.9595 143.822 84.8391C144.042 85.136 146.089 87.7484 150 87.7484C153.912 87.7484 155.959 85.1362 156.179 84.8391C156.822 83.9705 156.82 82.5802 156.189 81.698C155.554 80.8163 154.507 80.7915 153.842 81.6328Z" fill="#3F3D56"/>
<path d="M123.334 45.3838C121.394 46.3129 120 48.8149 120 51.749V60.7488C120 63.8875 121.595 66.5335 123.75 67.2849C124.642 70.8355 127.105 80.4631 128.51 84.2542C131.157 91.4022 138.662 103.498 150 103.498C161.338 103.498 168.843 91.4025 171.49 84.2542C172.895 80.4629 175.358 70.8352 176.25 67.2849C178.405 66.5335 180 63.8875 180 60.7488V51.749C180 48.8152 178.607 46.3129 176.667 45.3838V42.7492C176.667 41.5073 175.922 40.4993 175 40.4993C174.078 40.4993 173.333 41.5073 173.333 42.7492V47.2492C173.333 48.4911 174.078 49.4991 175 49.4991C175.92 49.4991 176.667 50.5092 176.667 51.749V60.7488C176.667 61.9886 175.92 62.9987 175 62.9987C174.282 62.9987 173.645 63.6175 173.42 64.5378C173.385 64.6704 170.103 77.9364 168.51 82.2429C168.255 82.9268 162.163 98.9985 150 98.9985C137.837 98.9985 131.745 82.9268 131.49 82.2429C129.896 77.9364 126.615 64.6706 126.581 64.5378C126.354 63.6175 125.719 62.9987 125 62.9987C124.081 62.9987 123.334 61.9886 123.334 60.7488V51.749C123.334 50.5092 124.081 49.4991 125 49.4991C125.922 49.4991 126.667 48.4911 126.667 47.2492V42.7489C126.667 41.507 125.922 40.499 125 40.499C124.079 40.499 123.334 41.507 123.334 42.7489V45.3838Z" fill="#3F3D56"/>
<path d="M125.001 15.749C124.079 15.749 123.334 16.757 123.334 17.9989V33.7487C123.334 34.6014 123.691 35.38 124.256 35.7623C124.679 36.0458 134.782 42.7485 150 42.7485C165.219 42.7485 175.322 36.0458 175.745 35.7623C176.31 35.3797 176.667 34.6014 176.667 33.7487V17.9992C176.667 16.7573 175.922 15.7493 175 15.7493C174.078 15.7493 173.333 16.7573 173.333 17.9992V32.2932C170.577 33.8705 161.854 38.249 150 38.249C138.147 38.249 129.424 33.8705 126.667 32.2932V17.9992C126.667 16.757 125.922 15.749 125.001 15.749Z" fill="#3F3D56"/>
</g>
<g clip-path="url(#clip1_1077_1191)">
<path d="M11.4514 11.2313L49.7851 17.9814C49.8568 17.9927 49.9284 17.9993 50.0001 17.9993C50.0718 17.9993 50.1435 17.9925 50.2152 17.9814L86.6672 11.562V19.3741C85.6223 20.9604 83.3338 24.9181 83.3338 29.2495C83.3338 34.2018 86.3238 35.9996 88.3338 35.9996C90.3438 35.9996 93.3338 34.2018 93.3338 29.2495C93.3338 24.9181 91.0456 20.9604 90.0004 19.3741V8.99935C90.0004 8.70245 89.9537 8.42111 89.8754 8.16007C89.8471 8.06779 89.7987 7.99581 89.7621 7.91038C89.6971 7.75296 89.6321 7.59766 89.5422 7.46714C89.4838 7.38382 89.4139 7.32766 89.3473 7.26016C89.2524 7.15653 89.159 7.05765 89.0491 6.98567C88.9674 6.93162 88.8807 6.90921 88.7924 6.87546C88.7108 6.84171 88.6373 6.78317 88.549 6.76735L50.2154 0.0172975C50.072 -0.00511479 49.9286 -0.00511479 49.7853 0.0172975L11.4516 6.76735C10.6215 6.91369 10 7.86977 10 8.99935C9.99961 10.1289 10.6213 11.0853 11.4514 11.2313ZM90.0002 29.2495C90.0002 31.0451 89.0985 31.4657 88.3336 31.4994C87.5686 31.4657 86.667 31.0449 86.667 29.2495C86.667 27.3819 87.517 25.2984 88.3336 23.7617C89.1502 25.2986 90.0002 27.3822 90.0002 29.2495ZM49.9999 4.51742L75.4484 8.99935L49.9999 13.4815L24.5515 8.99935L49.9999 4.51742Z" fill="#3F3D56"/>
<path d="M60 67.4994C63.3666 67.4994 66.1317 64.0996 66.575 59.7145L72.6667 53.5495C73.4034 52.8046 73.5534 51.394 73.0001 50.3994C72.4483 49.4048 71.4034 49.2002 70.6667 49.9493L66.4184 54.2514C65.7834 51.5087 63.9067 49.4995 61.6666 49.4995H54.9999C52.2433 49.4995 49.9999 52.528 49.9999 56.2495C49.9999 52.528 47.7565 49.4995 44.9999 49.4995H38.3332C36.0932 49.4995 34.2166 51.5087 33.5814 54.2514L29.3331 49.9493C28.5982 49.2044 27.5515 49.4069 26.9997 50.3994C26.4464 51.394 26.5964 52.8046 27.3331 53.5495L33.4248 59.7145C33.8681 64.0996 36.6314 67.4994 39.9998 67.4994H43.3333C47.01 67.4994 49.9999 63.4629 49.9999 58.4995C49.9999 63.4631 52.99 67.4994 56.6666 67.4994H60ZM46.6665 58.4995C46.6665 60.9812 45.1698 62.9996 43.3331 62.9996H39.9996C38.1613 62.9996 36.6662 60.9814 36.6662 58.4995V56.2495C36.6662 55.0097 37.4129 53.9996 38.3328 53.9996H44.9995C45.9194 53.9996 46.6661 55.0097 46.6661 56.2495V58.4995H46.6665ZM53.3333 58.4995V56.2495C53.3333 55.0097 54.08 53.9996 54.9999 53.9996H61.6666C62.5865 53.9996 63.3332 55.0097 63.3332 56.2495V58.4995C63.3332 60.9812 61.8383 62.9996 59.9998 62.9996H56.6664C54.8283 62.9993 53.3333 60.9812 53.3333 58.4995Z" fill="#3F3D56"/>
<path d="M76.5986 114.198C76.567 114.039 76.517 113.895 76.4619 113.746C76.4303 113.667 76.4236 113.578 76.3869 113.501C76.3686 113.467 76.342 113.449 76.3236 113.416C76.2537 113.292 76.167 113.191 76.077 113.087C75.9969 112.988 75.9186 112.891 75.8236 112.819C75.7953 112.794 75.7787 112.759 75.7469 112.736L69.0802 108.238C68.5435 107.876 67.9068 107.93 67.4103 108.378L57.4084 117.378C56.9452 117.794 56.6668 118.498 56.6668 119.25V127.228C55.6752 128.299 53.2402 130.5 50.0002 130.5C46.7918 130.5 44.3335 128.288 43.3335 127.221V119.249C43.3335 118.498 43.0552 117.794 42.5919 117.377L32.5918 108.377C32.0952 107.93 31.4584 107.876 30.9219 108.238L24.2553 112.736C24.2252 112.756 24.2086 112.792 24.182 112.814C24.082 112.891 23.9986 112.992 23.9137 113.098C23.8303 113.197 23.7471 113.291 23.682 113.409C23.6621 113.445 23.632 113.465 23.6137 113.501C23.5736 113.582 23.567 113.674 23.5353 113.759C23.4836 113.901 23.4336 114.038 23.4037 114.191C23.3769 114.333 23.3703 114.468 23.3636 114.612C23.357 114.754 23.3519 114.891 23.3654 115.035C23.3787 115.193 23.4172 115.336 23.4554 115.485C23.4787 115.575 23.4771 115.67 23.5088 115.755C23.5238 115.796 23.5521 115.82 23.5687 115.859C23.6238 115.989 23.6988 116.1 23.7754 116.214C23.8504 116.327 23.9203 116.439 24.007 116.529C24.0338 116.556 24.0486 116.597 24.0754 116.622L34.0755 125.622C34.3604 125.878 34.6821 126 34.9987 126C35.537 126 36.0671 125.649 36.387 124.999C36.8987 123.964 36.6921 122.566 35.9253 121.878L28.3135 115.029L31.5469 112.846L40.0003 120.454V128.25C40.0003 128.846 40.1753 129.42 40.4886 129.841C40.6452 130.052 44.3753 135 50.0004 135C55.6254 135 59.3555 130.052 59.5122 129.841C59.8239 129.42 60.0005 128.846 60.0005 128.25V120.454L68.4556 112.846L71.6873 115.027L64.0755 121.878C63.3089 122.566 63.1022 123.964 63.6138 124.999C63.9337 125.649 64.4638 126 65.0021 126C65.3187 126 65.6403 125.878 65.9253 125.622L75.9254 116.622C75.9521 116.597 75.9654 116.559 75.9904 116.534C76.0838 116.44 76.157 116.323 76.2354 116.203C76.3053 116.091 76.377 115.99 76.4303 115.864C76.4469 115.823 76.477 115.798 76.492 115.755C76.527 115.663 76.527 115.564 76.5504 115.47C76.5854 115.328 76.6221 115.193 76.6354 115.044C76.6504 114.891 76.6453 114.747 76.6371 114.597C76.6303 114.462 76.6252 114.333 76.5986 114.198Z" fill="#3F3D56"/>
<path d="M83.4519 106.587C83.7136 107.464 84.3386 108 85.0001 108C85.2068 108 85.4152 107.948 85.6185 107.838C86.4736 107.379 86.8884 106.07 86.5486 104.915C86.5152 104.807 83.3335 93.915 83.3335 83.2499V65.2497C83.3335 46.0795 76.0551 40.9471 75.7452 40.738C75.2301 40.3892 74.6151 40.4229 74.1253 40.8348C73.6336 41.2466 73.3336 41.9688 73.3336 42.7496V51.7496C73.3336 60.2591 68.5104 77.7396 66.842 82.244C65.3471 86.2827 57.4368 98.9999 50.0003 98.9999C42.5637 98.9999 34.6535 86.2829 33.1568 82.244C31.4902 77.7394 26.6667 60.2591 26.6667 51.7496V42.7496C26.6667 41.9688 26.3667 41.2466 25.8751 40.8348C25.3835 40.4229 24.77 40.3892 24.2551 40.738C23.9452 40.9474 16.6668 46.0795 16.6668 65.2497V83.2499C16.6668 93.915 13.4851 104.807 13.4517 104.915C13.1117 106.07 13.5267 107.379 14.3818 107.838C15.2336 108.297 16.2068 107.739 16.5484 106.587C16.6885 106.11 20 94.8012 20 83.2496V65.2494C20 56.1255 21.7618 50.8246 23.3335 47.9086V51.7493C23.3335 61.4063 28.5817 79.9532 30.1751 84.2553C32.2034 89.7318 41.0803 103.5 50.0003 103.5C58.9203 103.5 67.7971 89.7318 69.8237 84.2553C71.4186 79.9532 76.6671 61.4063 76.6671 51.7493V47.9131C78.2421 50.8314 80.0005 56.1302 80.0005 65.2494V83.2496C80.0001 94.8012 83.3118 106.11 83.4519 106.587Z" fill="#3F3D56"/>
<path d="M53.8416 81.6343C53.7883 81.6994 52.5316 83.2499 50 83.2499C47.505 83.2499 46.2482 81.7445 46.1616 81.6367C45.5134 80.7795 44.4683 80.7861 43.8216 81.6591C43.1698 82.539 43.1698 83.961 43.8216 84.8406C44.0415 85.1375 46.0882 87.75 50 87.75C53.9117 87.75 55.9584 85.1378 56.1783 84.8406C56.8217 83.9721 56.8199 82.5817 56.1883 81.6995C55.5533 80.8177 54.5066 80.7929 53.8416 81.6343Z" fill="#3F3D56"/>
<path d="M99.9136 132.039C99.7669 131.441 96.1302 117.313 82.0701 112.568C81.1767 112.262 80.2734 113 80.0501 114.204C79.8269 115.41 80.3701 116.631 81.2634 116.933C93.4752 121.055 96.6268 132.967 96.7536 133.462C96.9852 134.404 97.6352 135.001 98.3337 135.001C98.5069 135.001 98.6854 134.965 98.8604 134.886C99.7337 134.492 100.205 133.218 99.9136 132.039Z" fill="#3F3D56"/>
<path d="M76.6666 33.7495V17.9994C76.6666 16.7575 75.9217 15.7495 75 15.7495C74.0783 15.7495 73.3334 16.7575 73.3334 17.9994V32.2937C70.5767 33.871 61.8532 38.2496 49.9998 38.2496C38.1464 38.2496 29.4229 33.871 26.6662 32.2937V17.9994C26.6662 16.7575 25.9213 15.7495 24.9996 15.7495C24.0779 15.7495 23.333 16.7575 23.333 17.9994V33.7495C23.333 34.6022 23.6897 35.3808 24.2547 35.7632C24.6779 36.0466 34.7815 42.7495 49.9998 42.7495C65.2181 42.7495 75.3217 36.0466 75.7449 35.7632C76.31 35.3808 76.6666 34.6022 76.6666 33.7495Z" fill="#3F3D56"/>
<path d="M17.9298 112.568C3.86969 117.313 0.232943 131.441 0.0862622 132.039C-0.205342 133.218 0.266342 134.492 1.13959 134.886C1.31459 134.965 1.49135 135 1.66635 135C2.3646 135 3.01461 134.404 3.24644 133.461C3.27808 133.338 6.43319 121.084 18.7366 116.933C19.63 116.631 20.1733 115.409 19.9499 114.203C19.7265 113 18.8214 112.262 17.9298 112.568Z" fill="#3F3D56"/>
</g>
<defs>
<clipPath id="clip0_1077_1191">
<rect width="100" height="135" fill="white" transform="translate(100)"/>
</clipPath>
<clipPath id="clip1_1077_1191">
<rect width="100" height="135" fill="white"/>
</clipPath>
</defs>
</svg>
