<svg width="722" height="569" viewBox="0 0 722 569" fill="none" xmlns="http://www.w3.org/2000/svg">
<g clip-path="url(#clip0_1205_1232)">
<path d="M443.382 504.734L424.113 522.474L439.426 496.779C427.362 474.901 407.63 455.992 407.63 455.992C407.63 455.992 366.693 495.213 366.693 526.042C366.693 556.872 385.021 567.637 407.63 567.637C430.238 567.637 448.566 556.872 448.566 526.042C448.566 519.18 446.535 511.903 443.382 504.734Z" fill="#F2F2F2"/>
<path d="M419.158 523.434V524.953C419.068 542.617 416.088 556.399 410.243 566.104C410.16 566.247 410.07 566.382 409.987 566.525L409.333 566.127L408.708 565.735C415.193 555.256 417.488 540.443 417.57 525.036C417.578 524.539 417.586 524.035 417.578 523.531C417.555 517.009 417.157 510.411 416.517 504.002C416.472 503.505 416.419 503.001 416.367 502.497C415.479 494.041 414.2 485.962 412.891 478.943C412.801 478.446 412.703 477.95 412.605 477.461C410.341 465.589 408.031 456.99 407.505 455.087C407.445 454.854 407.407 454.726 407.399 454.696L408.114 454.493L408.122 454.485L408.844 454.282C408.851 454.312 408.979 454.741 409.19 455.539C409.995 458.518 412.086 466.605 414.14 477.273C414.23 477.754 414.328 478.25 414.418 478.747C415.487 484.442 416.532 490.806 417.36 497.487C417.57 499.164 417.759 500.82 417.924 502.452C417.984 502.956 418.037 503.46 418.082 503.957C418.774 510.885 419.133 517.378 419.158 523.434Z" fill="white"/>
<path d="M414.14 477.272C413.636 477.34 413.124 477.407 412.605 477.46C411.195 477.605 409.779 477.678 408.362 477.678C402.323 477.686 396.358 476.339 390.909 473.736C390.593 474.135 390.277 474.534 389.953 474.94C395.686 477.738 401.983 479.19 408.362 479.183C409.875 479.183 411.386 479.102 412.891 478.942C413.402 478.89 413.914 478.822 414.418 478.747C418.579 478.15 422.624 476.925 426.417 475.113C426.094 474.699 425.778 474.293 425.469 473.894C421.88 475.572 418.062 476.71 414.14 477.272Z" fill="white"/>
<path d="M417.924 502.452C417.404 502.482 416.885 502.497 416.366 502.497C416.208 502.504 416.043 502.504 415.885 502.504C409.341 502.504 402.894 500.922 397.093 497.892C391.293 494.862 386.311 490.475 382.573 485.104C382.272 485.547 381.971 485.991 381.678 486.443C385.574 491.877 390.709 496.305 396.658 499.36C402.607 502.415 409.198 504.009 415.885 504.009C416.095 504.009 416.306 504.009 416.517 504.001C417.043 503.994 417.562 503.979 418.082 503.956C426.114 503.545 433.858 500.828 440.387 496.132C440.147 495.688 439.906 495.244 439.658 494.801C433.312 499.411 425.758 502.07 417.924 502.452Z" fill="white"/>
<path d="M419.157 523.433C418.631 523.478 418.104 523.508 417.578 523.531C417.013 523.554 416.449 523.569 415.885 523.569C407.092 523.558 398.538 520.7 391.505 515.422C384.472 510.144 379.337 502.729 376.871 494.289C376.532 494.898 376.194 495.5 375.87 496.11C378.649 504.53 384.012 511.861 391.195 517.061C398.378 522.26 407.017 525.064 415.885 525.073C416.449 525.073 417.013 525.066 417.57 525.036C418.104 525.021 418.631 524.99 419.157 524.953C429.794 524.121 439.717 519.277 446.917 511.404C446.759 510.847 446.579 510.298 446.398 509.741C439.444 517.674 429.673 522.585 419.157 523.433Z" fill="white"/>
<path d="M98.7538 200.532C153.294 200.532 197.508 156.318 197.508 101.778C197.508 47.238 153.294 3.02441 98.7538 3.02441C44.2136 3.02441 0 47.238 0 101.778C0 156.318 44.2136 200.532 98.7538 200.532Z" fill="#E4E4E4"/>
<path d="M98.7538 184.073C144.204 184.073 181.049 147.228 181.049 101.778C181.049 56.328 144.204 19.4834 98.7538 19.4834C53.3036 19.4834 16.459 56.328 16.459 101.778C16.459 147.228 53.3036 184.073 98.7538 184.073Z" fill="#44D35B"/>
<path d="M361 200.532C415.54 200.532 459.754 156.318 459.754 101.778C459.754 47.238 415.54 3.02441 361 3.02441C306.46 3.02441 262.246 47.238 262.246 101.778C262.246 156.318 306.46 200.532 361 200.532Z" fill="#E4E4E4"/>
<path d="M361 184.073C406.45 184.073 443.295 147.228 443.295 101.778C443.295 56.328 406.45 19.4834 361 19.4834C315.55 19.4834 278.705 56.328 278.705 101.778C278.705 147.228 315.55 184.073 361 184.073Z" fill="white"/>
<path d="M623.246 200.532C677.786 200.532 722 156.318 722 101.778C722 47.238 677.786 3.02441 623.246 3.02441C568.706 3.02441 524.492 47.238 524.492 101.778C524.492 156.318 568.706 200.532 623.246 200.532Z" fill="#E4E4E4"/>
<path d="M623.246 184.073C668.696 184.073 705.541 147.228 705.541 101.778C705.541 56.328 668.696 19.4834 623.246 19.4834C577.796 19.4834 540.951 56.328 540.951 101.778C540.951 147.228 577.796 184.073 623.246 184.073Z" fill="white"/>
<path d="M91.7611 131.538C91.614 131.538 91.4667 131.534 91.3192 131.527C90.0177 131.464 88.7452 131.121 87.5889 130.52C86.4326 129.919 85.4199 129.076 84.6204 128.047L71.9967 111.816C70.5268 109.922 69.8683 107.522 70.1656 105.143C70.4629 102.764 71.6918 100.6 73.5826 99.1254L74.0367 98.7719C75.9312 97.302 78.3312 96.6436 80.7105 96.9409C83.0898 97.2382 85.254 98.467 86.7285 100.358C87.44 101.273 88.3407 102.023 89.369 102.557C90.3974 103.092 91.5291 103.398 92.6866 103.454C93.8441 103.51 95.0002 103.316 96.0757 102.884C97.1511 102.452 98.1205 101.793 98.9176 100.952L124.55 73.8944C125.367 73.0322 126.346 72.3393 127.43 71.8553C128.515 71.3713 129.684 71.1057 130.871 71.0736C132.059 71.0416 133.241 71.2437 134.35 71.6684C135.459 72.0932 136.474 72.7323 137.336 73.5492L137.754 73.9457C139.495 75.5953 140.51 77.869 140.574 80.2665C140.639 82.6641 139.749 84.9892 138.099 86.7303L98.3245 128.714C97.48 129.606 96.4624 130.317 95.3339 130.802C94.2054 131.288 92.9897 131.538 91.7611 131.538Z" fill="white"/>
<path d="M317.657 81.782H252.657V25.2525C252.724 21.7523 254.176 18.4214 256.695 15.99C259.214 13.5587 262.594 12.2252 266.094 12.282H287.7C304.219 12.282 317.657 25.2539 317.657 41.1984V81.782Z" fill="#2F2E41"/>
<path d="M341.722 554.819L329.383 554.818L323.512 507.223L341.724 507.224L341.722 554.819Z" fill="#FFB6B6"/>
<path d="M344.869 566.78L305.081 566.779V566.275C305.081 562.168 306.713 558.229 309.617 555.325C312.521 552.421 316.46 550.789 320.568 550.789L344.87 550.79L344.869 566.78Z" fill="#2F2E41"/>
<path d="M227.987 554.819L215.647 554.818L209.777 507.223L227.989 507.224L227.987 554.819Z" fill="#FFB6B6"/>
<path d="M231.134 566.78L191.346 566.779V566.275C191.346 562.168 192.978 558.229 195.882 555.325C198.786 552.421 202.725 550.789 206.832 550.789L231.134 550.79L231.134 566.78Z" fill="#2F2E41"/>
<path d="M242.886 172.448L234.834 223.78L311.328 224.786L301.263 175.468L242.886 172.448Z" fill="#FFB6B6"/>
<path d="M237.054 211.246L212.69 276.118L209.671 544.958H230.304L279.623 328.96L324.916 539.319H345.046L330.955 302.79C330.955 302.79 335.11 255.316 313.844 227.303L308.668 212.348L237.054 211.246Z" fill="#2F2E41"/>
<path d="M341.557 261.818C339.428 261.237 337.451 260.197 335.767 258.77C334.082 257.343 332.731 255.564 331.809 253.558C330.887 251.553 330.415 249.369 330.428 247.162C330.441 244.954 330.937 242.776 331.883 240.782L299.341 134.687L323.277 129.942L353.039 233.937C356.285 235.748 358.754 238.686 359.979 242.195C361.203 245.704 361.097 249.541 359.682 252.977C358.267 256.414 355.64 259.212 352.299 260.841C348.959 262.471 345.137 262.818 341.557 261.818Z" fill="#FFB6B6"/>
<path d="M298.492 200.797L245.763 199.779C244.256 199.747 242.801 199.222 241.62 198.284C240.44 197.346 239.6 196.047 239.229 194.586C236.402 183.394 230.183 154.226 233.481 125.176C234.132 119.548 235.906 114.108 238.696 109.177C241.486 104.247 245.237 99.9262 249.727 96.4709C254.217 93.0155 259.354 90.4957 264.834 89.0606C270.315 87.6254 276.027 87.3041 281.634 88.1155C287.549 88.9623 293.218 91.0501 298.269 94.2418C303.32 97.4336 307.639 101.657 310.943 106.636C314.247 111.614 316.461 117.235 317.439 123.129C318.418 129.023 318.14 135.058 316.622 140.837C309.985 166.043 306.235 184.076 305.479 194.435C305.367 195.933 304.768 197.353 303.773 198.478C302.778 199.604 301.442 200.372 299.969 200.667C299.531 200.754 299.085 200.798 298.639 200.798C298.59 200.798 298.541 200.798 298.492 200.797Z" fill="#E4E4E4"/>
<path d="M138.322 107.605C138.639 108.315 138.899 109.05 139.101 109.801L205.103 132.229L217.857 121.088L237.187 138.137L216.526 160.055C214.857 161.826 212.658 163.008 210.261 163.422C207.863 163.837 205.395 163.463 203.228 162.356L132.602 126.28C130.048 127.847 127.077 128.599 124.085 128.436C121.093 128.273 118.222 127.204 115.853 125.369C113.484 123.535 111.729 121.022 110.823 118.167C109.917 115.311 109.901 112.246 110.779 109.382C111.656 106.517 113.386 103.987 115.736 102.129C118.086 100.27 120.947 99.1717 123.937 98.9788C126.927 98.786 129.905 99.508 132.475 101.049C135.044 102.59 137.084 104.877 138.322 107.605Z" fill="#FFB6B6"/>
<path d="M205.239 128.652C205.245 127.743 205.446 126.846 205.829 126.022C206.213 125.198 206.769 124.466 207.461 123.877L231.629 103.291C234.687 99.7865 239.01 97.6379 243.651 97.3164C248.291 96.995 252.869 98.5271 256.382 101.577C259.894 104.626 262.053 108.944 262.386 113.584C262.719 118.223 261.198 122.805 258.157 126.325L240.947 153.125C240.456 153.889 239.806 154.539 239.041 155.03C238.276 155.521 237.414 155.841 236.514 155.969C235.614 156.096 234.697 156.029 233.826 155.77C232.954 155.512 232.149 155.068 231.464 154.47L207.404 133.455C206.719 132.857 206.171 132.119 205.797 131.29C205.424 130.461 205.233 129.561 205.239 128.652Z" fill="#E4E4E4"/>
<path d="M297.883 161.561C297.078 161.138 296.375 160.546 295.82 159.826C295.265 159.106 294.872 158.275 294.667 157.389L287.522 126.457C285.82 122.129 285.904 117.303 287.756 113.036C289.607 108.77 293.075 105.412 297.399 103.698C301.723 101.985 306.55 102.056 310.821 103.897C315.092 105.737 318.46 109.196 320.184 113.515L336.049 141.132C336.501 141.921 336.779 142.797 336.862 143.702C336.946 144.607 336.833 145.52 336.532 146.377C336.231 147.235 335.749 148.018 335.118 148.672C334.487 149.327 333.723 149.838 332.877 150.17L303.143 161.851C302.297 162.184 301.389 162.33 300.481 162.28C299.573 162.23 298.687 161.985 297.883 161.561Z" fill="#E4E4E4"/>
<path d="M323.463 17.8058C325.904 12.0902 321.706 4.81798 314.085 1.56269C306.464 -1.6926 298.307 0.30178 295.866 6.01731C293.425 11.7328 297.623 19.0051 305.244 22.2604C312.865 25.5157 321.022 23.5213 323.463 17.8058Z" fill="#2F2E41"/>
<path d="M299.822 60.2899C307.974 45.3763 302.493 26.6777 287.58 18.5252C272.666 10.3727 253.968 15.8536 245.815 30.7672C237.663 45.6807 243.144 64.3794 258.057 72.5319C272.971 80.6843 291.669 75.2034 299.822 60.2899Z" fill="#FFB6B6"/>
<path d="M289.701 10.2821H254.5C251.92 10.2487 249.422 11.1922 247.508 12.9234C245.593 14.6545 244.405 17.0454 244.179 19.6164C244.088 20.9827 244.279 22.3531 244.739 23.6427C245.199 24.9324 245.92 26.1138 246.855 27.1137C247.791 28.1136 248.921 28.9108 250.178 29.4558C251.434 30.0008 252.788 30.2821 254.158 30.2821C256.81 30.2821 259.353 31.3357 261.229 33.211C263.104 35.0864 264.158 37.6299 264.158 40.2821V81.2821H319.158V39.7388C319.158 35.8705 318.396 32.04 316.915 28.4662C315.435 24.8923 313.265 21.6451 310.53 18.9098C307.795 16.1745 304.547 14.0047 300.974 12.5244C297.4 11.044 293.569 10.2821 289.701 10.2821Z" fill="#2F2E41"/>
<path d="M463.225 568.282H82.2246C81.9594 568.282 81.7051 568.177 81.5175 567.989C81.33 567.802 81.2246 567.547 81.2246 567.282C81.2246 567.017 81.33 566.763 81.5175 566.575C81.7051 566.388 81.9594 566.282 82.2246 566.282H463.225C463.49 566.282 463.744 566.388 463.932 566.575C464.119 566.763 464.225 567.017 464.225 567.282C464.225 567.547 464.119 567.802 463.932 567.989C463.744 568.177 463.49 568.282 463.225 568.282Z" fill="#CACACA"/>
</g>
<defs>
<clipPath id="clip0_1205_1232">
<rect width="722" height="568.282" fill="white"/>
</clipPath>
</defs>
</svg>
