<svg width="256" height="160" viewBox="0 0 256 160" fill="none" xmlns="http://www.w3.org/2000/svg">
<path d="M207.459 117.048C211.047 116.501 213.708 113.573 214.114 110.074C214.525 106.517 215.452 92.2199 209.463 93.1293C193.927 95.4905 195.018 118.938 207.459 117.048ZM227.9 117.048C240.338 118.938 241.428 95.4905 225.893 93.128C219.905 92.2185 220.831 106.515 221.241 110.073C221.647 113.573 224.311 116.501 227.9 117.048ZM201.077 128.094C201.077 126.234 200.337 124.548 199.143 123.321C197.18 121.022 190.938 116.373 189.406 117.564C186.207 120.056 186.31 126.19 188.237 130.647C189.227 133.126 191.619 134.869 194.414 134.869C198.093 134.869 201.077 131.836 201.077 128.094ZM245.948 117.564C244.419 116.373 238.178 121.022 236.214 123.321C235.021 124.548 234.278 126.234 234.278 128.094C234.278 131.836 237.266 134.869 240.942 134.869C243.738 134.869 246.132 133.126 247.122 130.647C249.044 126.19 249.15 120.056 245.948 117.564ZM233.419 138.646C227.758 136.116 227.933 131.245 226.646 126.8C225.622 123.255 221.995 120.633 217.679 120.633C213.454 120.633 209.891 123.146 208.779 126.583C207.401 130.836 208.231 135.788 202.06 138.613C197.047 140.077 195.018 142.213 195.018 147.265C195.018 151.369 198.949 155.763 204.023 156.31C209.684 157.074 214.101 156.075 217.679 154.248C221.256 156.075 225.67 157.073 231.34 156.31C236.411 155.763 240.344 151.386 240.344 147.265C240.343 142.103 238.442 140.179 233.419 138.646ZM226.74 144.82H220.871L220.879 150.34H214.478L214.488 144.82H208.26V139.3H214.489L214.48 133.78H220.88L220.873 139.3H226.74V144.82Z" fill="#9747FF"/>
<path d="M28.4592 26.0475C32.0474 25.501 34.7085 22.5727 35.1135 19.0744C35.5247 15.5167 36.4518 1.21993 30.4627 2.12935C14.9272 4.49053 16.0175 27.9381 28.4592 26.0475ZM48.8996 26.0475C61.3382 27.9381 62.4285 4.49053 46.893 2.12797C40.9055 1.21855 41.831 15.5153 42.2406 19.073C42.6472 22.5727 45.3114 25.501 48.8996 26.0475ZM22.0774 37.0944C22.0774 35.2342 21.3367 33.5478 20.1432 32.321C18.1797 30.0219 11.9381 25.3727 10.4058 26.5636C7.20717 29.0559 7.31035 35.19 9.23689 39.6474C10.2271 42.1259 12.6187 43.8688 15.4138 43.8688C19.0929 43.8688 22.0774 40.8356 22.0774 37.0944ZM66.9484 26.5636C65.4192 25.3727 59.1776 30.0219 57.2141 32.321C56.0206 33.5478 55.2783 35.2342 55.2783 37.0944C55.2783 40.8356 58.2659 43.8688 61.9419 43.8688C64.7385 43.8688 67.1317 42.1259 68.1219 39.6474C70.0438 35.19 70.1501 29.0559 66.9484 26.5636ZM54.419 47.6459C48.7579 45.1164 48.9335 40.2449 47.646 35.8C46.6219 32.2547 42.9952 29.6327 38.6786 29.6327C34.4544 29.6327 30.8908 32.1457 29.779 35.5833C28.4007 39.8365 29.2307 44.7879 23.0599 47.6128C18.0472 49.0769 16.0175 51.2132 16.0175 56.2654C16.0175 60.3695 19.9491 64.7634 25.0234 65.3099C30.6845 66.0744 35.1012 65.0753 38.6786 63.2482C42.256 65.0753 46.6697 66.073 52.34 65.3099C57.4112 64.7634 61.3443 60.386 61.3443 56.2654C61.3428 51.1028 59.4424 49.1791 54.419 47.6459ZM47.74 53.82H41.871L41.8787 59.34H35.4785L35.4877 53.82H29.26V48.3H35.4893L35.48 42.78H41.8803L41.8726 48.3H47.74V53.82Z" fill="#68E8A3"/>
<path d="M159.491 41.1017C159.216 41.1017 158.941 41.1017 158.666 41.1017C156.352 40.8059 154.056 40.3328 151.791 39.685L150.244 39.2175L150.324 37.2483C150.427 34.415 152.352 27.2467 159.823 27.2467H159.937C167.958 27.3317 171.705 32.1625 172.118 32.715L173.779 34.9817L171.602 36.3983C171.327 36.54 164.418 41.1017 159.491 41.1017ZM152.616 36.9367C154.67 37.5255 156.752 37.9607 158.849 38.24C162.504 38.6792 168.405 35.1658 170.067 34.1317C169.104 33.0833 165.838 30.0517 159.937 29.995H159.823C153.899 29.995 152.833 35.4208 152.65 36.9367H152.616Z" fill="black"/>
<path d="M158.322 60.4817L155.847 60.3117C154.919 60.3117 146.68 59.6317 142.796 56.0617C140.946 54.3038 139.182 52.4116 137.514 50.395L136.368 48.9783L137.25 47.3492C137.25 47.2642 141.833 39.005 149.648 44.9692C156.42 50.1542 157.669 56.7417 157.818 57.4783L158.322 60.4817ZM139.312 48.6667C140.832 50.4983 142.439 52.2155 144.125 53.8092C146.715 56.2033 152.375 57.2375 155.423 57.5067C155.01 55.8917 153.441 51.2592 148.422 47.42C143.403 43.5808 140.16 47.335 139.312 48.6667Z" fill="black"/>
<path d="M135.875 50.0833C133.412 50.0833 128.874 48.95 127.144 41.0875C125.035 31.525 127.728 25.6458 128.038 25.0083L129.344 22.3733L131.074 24.5833C131.326 24.9092 137.353 32.7433 138.258 38.8208C138.653 41.684 138.901 44.575 139.003 47.4767L139.072 49.4317L137.525 49.885C136.981 50.0159 136.429 50.0823 135.875 50.0833ZM129.779 27.0767C129.183 28.6208 127.808 33.3242 129.367 40.3933C130.971 47.675 135.394 47.4767 136.7 47.25C136.594 44.6143 136.36 41.9888 136.001 39.3875C135.337 34.8967 131.051 28.8333 129.779 27.0767Z" fill="black"/>
<path d="M141.753 139.333H116.304C114.804 139.332 113.319 138.963 111.935 138.249C110.55 137.535 109.294 136.49 108.237 135.173C107.181 133.856 106.346 132.295 105.779 130.577C105.213 128.86 104.927 127.021 104.937 125.167V68.1175C104.937 67.7418 105.058 67.3814 105.273 67.1158C105.488 66.8501 105.779 66.7008 106.083 66.7008C106.387 66.7008 106.678 66.8501 106.893 67.1158C107.108 67.3814 107.229 67.7418 107.229 68.1175V125.167C107.218 126.644 107.444 128.11 107.892 129.48C108.34 130.85 109.003 132.097 109.842 133.15C110.68 134.202 111.679 135.04 112.78 135.615C113.881 136.19 115.063 136.491 116.258 136.5H141.753C142.947 136.489 144.128 136.187 145.228 135.611C146.327 135.035 147.325 134.197 148.162 133.145C149 132.092 149.661 130.846 150.109 129.477C150.556 128.108 150.781 126.643 150.771 125.167V68.1175C150.771 67.7418 150.891 67.3814 151.106 67.1158C151.321 66.8501 151.613 66.7008 151.916 66.7008C152.22 66.7008 152.512 66.8501 152.727 67.1158C152.942 67.3814 153.062 67.7418 153.062 68.1175V125.167C153.073 127.015 152.789 128.848 152.226 130.561C151.663 132.274 150.833 133.832 149.782 135.148C148.732 136.464 147.482 137.511 146.105 138.229C144.727 138.947 143.248 139.322 141.753 139.333Z" fill="black"/>
<path d="M129 75.8808C117.427 75.8808 104.938 73.2033 104.938 67.3808C104.938 61.5583 117.404 58.8808 129 58.8808C140.596 58.8808 153.063 61.5583 153.063 67.3808C153.063 73.2033 140.607 75.8808 129 75.8808ZM129 61.6008C114.929 61.6008 107.229 65.3833 107.229 67.2675C107.229 69.1517 114.906 72.9342 129 72.9342C143.094 72.9342 150.771 69.1517 150.771 67.2675C150.771 65.3833 143.105 61.6008 129 61.6008Z" fill="black"/>
<path d="M129 71.1208C128.894 71.1415 128.785 71.1415 128.679 71.1208C128.39 71.0127 128.146 70.7672 128.002 70.4381C127.859 70.109 127.826 69.723 127.911 69.3642C128.232 67.9475 135.932 36.625 151.905 36.625C152.209 36.625 152.501 36.7743 152.715 37.0399C152.93 37.3056 153.051 37.6659 153.051 38.0417C153.051 38.4174 152.93 38.7777 152.715 39.0434C152.501 39.3091 152.209 39.4583 151.905 39.4583C137.674 39.4583 130.134 69.86 130.134 70.1717C130.053 70.4598 129.899 70.7079 129.695 70.8789C129.49 71.0499 129.247 71.1348 129 71.1208Z" fill="black"/>
<path d="M97.9936 41.1017C93.0665 41.1017 86.1686 36.54 85.8592 36.3417L83.6821 34.925L85.3436 32.6583C85.7561 32.1058 89.5603 27.275 97.5353 27.19H97.6613C105.144 27.19 107.057 34.4008 107.172 37.1917L107.229 39.1325L105.682 39.6C103.417 40.2493 101.12 40.7225 98.8071 41.0167C98.555 41.0733 98.2839 41.1017 97.9936 41.1017ZM87.3946 34.1317C89.0446 35.1658 94.9457 38.665 98.6009 38.24C100.702 37.9604 102.787 37.5251 104.846 36.9367C104.662 35.435 103.597 29.995 97.6613 29.995H97.5467C91.6571 30.0517 88.403 33.0833 87.3946 34.1317Z" fill="black"/>
<path d="M99.2085 60.4817L99.7012 57.4642C99.7012 57.1667 100.939 50.2533 107.86 44.955C115.64 38.9908 120.223 47.25 120.269 47.335L121.151 48.9642L120.005 50.3808C118.342 52.4038 116.578 54.2964 114.723 56.0475C110.804 59.66 102.589 60.2975 101.672 60.2975L99.2085 60.4817ZM113.337 45.635C111.797 45.6945 110.303 46.2939 109.028 47.3633C103.987 51.2167 102.44 55.8633 102.039 57.45C105.087 57.1808 110.736 56.1467 113.325 53.7525C115.013 52.1771 116.624 50.4788 118.149 48.6667C117.581 47.749 116.854 47.0003 116.021 46.4757C115.188 45.951 114.271 45.6638 113.337 45.635Z" fill="black"/>
<path d="M115.25 42.2208C114.707 42.2292 114.164 42.1579 113.634 42.0083L112.053 41.5833L112.122 39.6L113.268 39.6708L112.122 39.5858C112.226 36.6938 112.475 33.8124 112.867 30.9583C113.772 24.8808 119.742 17.0467 120.051 16.7917L121.781 14.4825L123.076 17.1175C123.397 17.755 126.078 23.6342 123.97 33.1967C122.343 40.6058 117.977 42.2208 115.25 42.2208ZM114.448 39.3167C115.663 39.5008 120.177 39.6992 121.781 32.46C123.386 25.2208 121.965 20.7017 121.38 19.1433C120.097 20.8858 115.812 26.9775 115.147 31.4542C114.777 34.0543 114.536 36.6801 114.425 39.3167H114.448Z" fill="black"/>
<path d="M128.461 71.1208C128.207 71.1343 127.957 71.0427 127.749 70.8606C127.542 70.6785 127.389 70.4161 127.316 70.115C127.247 69.8033 119.742 39.4017 105.545 39.4017C105.241 39.4017 104.949 39.2524 104.735 38.9867C104.52 38.7211 104.399 38.3607 104.399 37.985C104.399 37.6093 104.52 37.2489 104.735 36.9833C104.949 36.7176 105.241 36.5683 105.545 36.5683C121.483 36.5683 129.229 67.9617 129.607 69.3075C129.649 69.4861 129.663 69.6732 129.646 69.8581C129.63 70.0431 129.584 70.2222 129.512 70.3853C129.44 70.5485 129.342 70.6924 129.225 70.8088C129.107 70.9253 128.973 71.0121 128.828 71.0642C128.71 71.1102 128.585 71.1294 128.461 71.1208Z" fill="black"/>
<path d="M132.369 99.9358H125.688C125.063 99.9444 124.46 99.6546 124.003 99.1269C123.546 98.5992 123.272 97.8741 123.236 97.1025C123.076 93.5042 122.274 92.725 121.174 91.6483C120.887 91.365 120.589 91.0817 120.291 90.7417C119.482 90.1951 118.587 89.8713 117.668 89.7925C115.187 89.5119 112.832 88.3176 110.907 86.3642C107.527 82.4825 105.121 71.2058 105.018 70.7808C104.968 70.5973 104.95 70.4032 104.964 70.2106C104.978 70.018 105.023 69.831 105.098 69.661C105.172 69.491 105.274 69.3416 105.397 69.2221C105.52 69.1026 105.661 69.0154 105.813 68.966C105.964 68.9167 106.122 68.906 106.276 68.9349C106.431 68.9637 106.579 69.0314 106.712 69.1337C106.844 69.236 106.959 69.3708 107.048 69.5299C107.137 69.6889 107.198 69.8687 107.229 70.0583C107.871 73.1042 110.071 81.59 112.465 84.3383C114.074 85.9023 116.018 86.848 118.057 87.0583C119.422 87.1577 120.737 87.7323 121.85 88.7158C122.102 88.9992 122.354 89.24 122.595 89.4808C123.866 90.7275 125.299 92.1158 125.528 97.0033C125.546 97.0355 125.57 97.0615 125.598 97.0788C125.626 97.0962 125.657 97.1043 125.688 97.1025H132.369C132.4 97.1043 132.431 97.0962 132.459 97.0788C132.487 97.0615 132.511 97.0355 132.529 97.0033C132.758 92.1158 134.19 90.7275 135.462 89.4808C135.703 89.24 135.955 88.9992 136.207 88.7158C137.32 87.7323 138.634 87.1577 140 87.0583C142.039 86.848 143.983 85.9023 145.591 84.3383C147.998 81.505 150.175 73.1042 150.816 70.0583C150.894 69.6961 151.085 69.3869 151.347 69.1984C151.609 69.0099 151.921 68.9574 152.214 69.0525C152.363 69.0956 152.502 69.1748 152.625 69.2854C152.749 69.396 152.853 69.5359 152.932 69.6968C153.01 69.8577 153.063 70.0364 153.085 70.2225C153.108 70.4087 153.1 70.5985 153.062 70.7808C152.959 71.2625 150.553 82.5392 147.161 86.3642C145.241 88.3196 142.889 89.5143 140.412 89.7925C139.489 89.8741 138.591 90.1976 137.777 90.7417C137.497 91.0639 137.202 91.3666 136.895 91.6483C135.806 92.725 135.004 93.5042 134.844 97.1025C134.808 97.8791 134.53 98.6084 134.069 99.1368C133.607 99.6653 132.998 99.9517 132.369 99.9358Z" fill="black"/>
<path d="M140.459 125.875C138.001 125.898 135.636 124.716 133.881 122.588C133.247 121.781 132.488 121.14 131.65 120.702C130.811 120.263 129.91 120.038 129 120.038C128.09 120.038 127.189 120.263 126.351 120.702C125.512 121.14 124.753 121.781 124.119 122.588C122.358 124.695 120.004 125.873 117.553 125.873C115.103 125.873 112.749 124.695 110.988 122.588C110.352 121.776 109.589 121.131 108.747 120.693C107.904 120.255 106.998 120.032 106.084 120.038C105.771 120.038 105.47 119.885 105.249 119.611C105.028 119.337 104.903 118.966 104.903 118.579C104.903 118.192 105.028 117.821 105.249 117.547C105.47 117.274 105.771 117.12 106.084 117.12C108.538 117.098 110.899 118.28 112.649 120.407C113.283 121.214 114.042 121.855 114.881 122.293C115.719 122.732 116.62 122.957 117.53 122.957C118.441 122.957 119.342 122.732 120.18 122.293C121.018 121.855 121.777 121.214 122.412 120.407C124.173 118.3 126.527 117.122 128.977 117.122C131.428 117.122 133.782 118.3 135.543 120.407C136.182 121.206 136.943 121.84 137.782 122.272C138.621 122.705 139.521 122.928 140.43 122.928C141.339 122.928 142.239 122.705 143.078 122.272C143.916 121.84 144.678 121.206 145.317 120.407C146.188 119.348 147.219 118.513 148.352 117.949C149.484 117.385 150.696 117.103 151.917 117.12C152.23 117.12 152.53 117.274 152.751 117.547C152.973 117.821 153.097 118.192 153.097 118.579C153.097 118.966 152.973 119.337 152.751 119.611C152.53 119.885 152.23 120.038 151.917 120.038C151.006 120.036 150.105 120.26 149.266 120.699C148.427 121.137 147.669 121.779 147.036 122.588C145.282 124.719 142.917 125.901 140.459 125.875Z" fill="black"/>
<path d="M121.071 117.007C120.922 117.002 120.78 116.932 120.67 116.808C120.564 116.674 120.505 116.493 120.505 116.305C120.505 116.118 120.564 115.937 120.67 115.803C120.67 115.803 122.331 113.692 121.884 111.85C121.459 110.613 121.376 109.238 121.647 107.937C121.919 106.636 122.529 105.482 123.385 104.653C125.173 102.613 124.726 98.5758 124.714 98.5333C124.698 98.3481 124.74 98.1621 124.832 98.0142C124.924 97.8664 125.058 97.7681 125.207 97.74C125.356 97.7156 125.506 97.7643 125.626 97.8755C125.746 97.9868 125.826 98.1517 125.849 98.335C125.849 98.5333 126.387 103.138 124.164 105.688C123.469 106.339 122.976 107.265 122.767 108.312C122.559 109.359 122.647 110.463 123.019 111.439C123.672 114.103 121.609 116.695 121.529 116.794C121.47 116.868 121.398 116.926 121.319 116.963C121.24 116.999 121.155 117.014 121.071 117.007Z" fill="black"/>
<path d="M137.193 117.007C137.038 117.006 136.89 116.93 136.78 116.794C136.7 116.695 134.638 114.103 135.291 111.439C135.662 110.463 135.751 109.359 135.542 108.312C135.334 107.265 134.84 106.339 134.145 105.688C131.922 103.138 132.438 98.6042 132.461 98.335C132.483 98.1517 132.563 97.9868 132.683 97.8755C132.803 97.7643 132.954 97.7156 133.102 97.74C133.253 97.7647 133.389 97.8621 133.481 98.0108C133.574 98.1595 133.615 98.3474 133.595 98.5333C133.595 98.5333 133.148 102.613 134.924 104.653C135.782 105.48 136.395 106.633 136.669 107.934C136.942 109.235 136.861 110.612 136.437 111.85C135.978 113.692 137.582 115.774 137.582 115.803C137.636 115.868 137.679 115.947 137.708 116.033C137.737 116.119 137.752 116.212 137.752 116.305C137.752 116.399 137.737 116.492 137.708 116.578C137.679 116.664 137.636 116.742 137.582 116.808C137.475 116.929 137.338 116.999 137.193 117.007Z" fill="black"/>
<path d="M125.345 114.457H125.207C125.134 114.437 125.064 114.399 125.003 114.345C124.942 114.291 124.891 114.222 124.852 114.142C124.814 114.062 124.789 113.974 124.779 113.882C124.769 113.79 124.774 113.696 124.795 113.607C124.909 113.012 125.012 112.587 125.093 112.275L125.184 111.907L125.047 111.779C124.909 111.637 124.726 111.453 124.508 111.198C123.431 109.966 124.222 108.507 124.737 107.543C125.044 107.073 125.256 106.52 125.356 105.928C125.356 104.214 126.96 98.845 127.144 98.2925C127.163 98.1958 127.2 98.1054 127.25 98.0271C127.3 97.9488 127.362 97.8845 127.434 97.8383C127.505 97.7921 127.584 97.765 127.664 97.759C127.745 97.7529 127.825 97.7679 127.901 97.8031C127.976 97.8382 128.045 97.8926 128.102 97.9628C128.16 98.033 128.204 98.1174 128.234 98.2104C128.263 98.3034 128.276 98.4029 128.271 98.5025C128.267 98.6021 128.246 98.6995 128.209 98.7883C127.453 101.074 126.881 103.447 126.502 105.872C126.422 106.749 126.139 107.58 125.689 108.266C125.058 109.442 124.99 109.767 125.287 110.093C125.585 110.419 125.654 110.49 125.769 110.617C126.433 111.297 126.433 111.623 126.193 112.643C126.112 112.927 126.021 113.323 125.906 113.89C125.88 114.05 125.81 114.194 125.707 114.297C125.605 114.4 125.477 114.457 125.345 114.457Z" fill="black"/>
<path d="M128.771 111.439C128.693 111.44 128.616 111.42 128.545 111.381C128.474 111.341 128.41 111.284 128.359 111.212C128.305 111.148 128.263 111.071 128.234 110.986C128.205 110.9 128.19 110.809 128.19 110.717C128.19 110.624 128.205 110.533 128.234 110.448C128.263 110.363 128.305 110.285 128.359 110.221C128.92 109.583 128.84 109.158 128.462 107.642C128.261 106.909 128.097 106.162 127.969 105.404C127.614 103.265 127.717 102.712 128.21 102.032C128.325 101.886 128.421 101.719 128.496 101.537C128.652 100.607 128.568 99.6411 128.255 98.7741C128.201 98.5976 128.205 98.4013 128.267 98.2286C128.33 98.056 128.445 97.9209 128.588 97.8533C128.731 97.7857 128.889 97.791 129.029 97.868C129.169 97.9451 129.278 98.0876 129.332 98.2641C129.76 99.5014 129.825 100.884 129.516 102.174C129.395 102.466 129.245 102.737 129.069 102.982C128.897 103.208 128.794 103.35 129.069 105.121C129.193 105.829 129.346 106.529 129.527 107.217C129.905 108.634 130.226 110.051 129.115 111.255C129.022 111.365 128.9 111.431 128.771 111.439Z" fill="black"/>
<path d="M132.369 115.335C132.269 115.336 132.171 115.306 132.082 115.25C131.951 115.152 131.856 114.997 131.816 114.815C131.775 114.633 131.793 114.439 131.864 114.272C132.014 113.878 132.089 113.447 132.082 113.012C132.122 111.969 132.308 110.943 132.632 109.98C133.125 108.563 133.125 108.563 132.414 107.742C132.277 107.572 132.105 107.402 131.922 107.189C130.295 105.305 130.547 99.1 130.581 98.3916C130.582 98.2973 130.599 98.2042 130.631 98.1184C130.663 98.0326 130.709 97.956 130.766 97.8933C130.823 97.8307 130.89 97.7835 130.963 97.7546C131.036 97.7258 131.112 97.716 131.188 97.7258C131.338 97.7403 131.478 97.8272 131.576 97.9677C131.675 98.1082 131.725 98.291 131.715 98.4766C131.601 100.871 131.773 105.064 132.701 106.141L133.182 106.679C134.431 108.096 134.408 108.407 133.686 110.518C133.413 111.348 133.257 112.23 133.228 113.125C133.224 113.77 133.098 114.406 132.861 114.981C132.811 115.088 132.739 115.177 132.653 115.239C132.567 115.301 132.469 115.334 132.369 115.335Z" fill="black"/>
<path d="M145.408 69.2508C144.102 69.2508 143.117 68.415 143.117 67.3242C143.117 66.2333 144.102 65.4117 145.408 65.4117C146.715 65.4117 147.7 66.2333 147.7 67.3242C147.7 68.415 146.715 69.2508 145.408 69.2508ZM145.408 66.8283C144.686 66.8283 144.263 67.1967 144.263 67.3242C144.263 67.4517 144.686 67.8342 145.408 67.8342C146.13 67.8342 146.554 67.4517 146.554 67.3242C146.554 67.1967 146.188 66.8283 145.408 66.8283Z" fill="black"/>
<path d="M134.729 65.6667C133.423 65.6667 132.438 64.845 132.438 63.7542C132.438 62.6633 133.423 61.8275 134.729 61.8275C136.035 61.8275 137.021 62.6492 137.021 63.7542C137.021 64.8592 135.99 65.6667 134.729 65.6667ZM134.729 63.2442C134.007 63.2442 133.583 63.6125 133.583 63.7542C133.583 63.8958 134.007 64.25 134.729 64.25C135.451 64.25 135.875 63.8817 135.875 63.7542C135.875 63.6267 135.394 63.23 134.729 63.23V63.2442Z" fill="black"/>
<path d="M122.274 66.8283C120.613 66.8283 119.364 65.8083 119.364 64.4625C119.364 63.1167 120.613 62.0967 122.274 62.0967C123.936 62.0967 125.185 63.1167 125.185 64.4625C125.185 65.8083 123.936 66.8283 122.274 66.8283ZM122.274 63.5133C121.209 63.5133 120.51 64.08 120.51 64.4625C120.51 64.845 121.209 65.4117 122.274 65.4117C123.34 65.4117 124.039 64.8308 124.039 64.4625C124.039 64.0942 123.34 63.5133 122.274 63.5133Z" fill="black"/>
<path d="M111.377 68.3583C110.231 68.3583 109.383 67.5225 109.383 66.4742C109.383 65.4258 110.254 64.6042 111.377 64.6042C112.5 64.6042 113.382 65.4258 113.382 66.4742C113.382 67.5225 112.5 68.3583 111.377 68.3583ZM111.377 66.0208C110.85 66.0208 110.529 66.3325 110.529 66.4742C110.529 66.6158 110.85 66.9417 111.377 66.9417C111.904 66.9417 112.236 66.6158 112.236 66.4742C112.236 66.3325 111.916 66.0208 111.377 66.0208Z" fill="black"/>
<path d="M115.823 67.4092C115.628 67.418 115.434 67.3773 115.253 67.2896C115.072 67.2018 114.907 67.069 114.769 66.8992C114.642 66.7359 114.545 66.5422 114.482 66.3302C114.419 66.1181 114.391 65.8922 114.402 65.6667C114.428 65.3215 114.51 64.9865 114.644 64.682C114.778 64.3776 114.961 64.11 115.181 63.8958C115.509 63.4864 115.948 63.2411 116.413 63.2071C116.879 63.1731 117.338 63.3528 117.702 63.7117C117.829 63.8749 117.926 64.0686 117.989 64.2807C118.053 64.4927 118.08 64.7186 118.069 64.9442C118.043 65.2893 117.961 65.6244 117.827 65.9288C117.693 66.2333 117.51 66.5008 117.29 66.715C116.882 67.1528 116.363 67.3986 115.823 67.4092ZM116.648 64.5758C116.376 64.587 116.116 64.7176 115.915 64.9442C115.717 65.1246 115.585 65.3946 115.548 65.695C115.548 65.8225 115.548 65.8508 115.548 65.865C115.548 65.8792 116.121 65.9925 116.522 65.5817C116.72 65.4013 116.852 65.1313 116.889 64.8308C116.889 64.7175 116.889 64.675 116.889 64.6608C116.815 64.6121 116.73 64.5971 116.648 64.6183V64.5758Z" fill="black"/>
<path d="M125.013 71.8433C124.447 71.8191 123.908 71.5365 123.5 71.05C123.289 70.8231 123.119 70.545 122.998 70.2331C122.878 69.9212 122.811 69.582 122.801 69.2367C122.796 69.0111 122.83 68.7868 122.901 68.5791C122.973 68.3713 123.079 68.1849 123.214 68.0325C123.59 67.6922 124.056 67.5371 124.519 67.5973C124.983 67.6575 125.412 67.9288 125.723 68.3583C125.934 68.5853 126.105 68.8633 126.225 69.1752C126.345 69.4872 126.412 69.8263 126.422 70.1717C126.427 70.3993 126.393 70.6258 126.322 70.8359C126.251 71.046 126.145 71.2349 126.01 71.39C125.735 71.6898 125.379 71.8515 125.013 71.8433ZM123.993 69.01C123.983 69.0368 123.979 69.0657 123.979 69.095C123.979 69.1242 123.983 69.1532 123.993 69.18C124.003 69.3307 124.038 69.4773 124.095 69.6111C124.152 69.7449 124.231 69.8633 124.325 69.9592C124.692 70.3842 125.139 70.4408 125.276 70.285C125.286 70.2582 125.291 70.2293 125.291 70.2C125.291 70.1707 125.286 70.1418 125.276 70.115C125.266 69.9643 125.231 69.8177 125.174 69.6839C125.117 69.5501 125.039 69.4317 124.944 69.3358C124.566 68.9675 124.119 68.9108 123.993 69.0667V69.01Z" fill="black"/>
<path d="M133.859 69.8175C133.292 69.7933 132.754 69.5107 132.346 69.0242C132.136 68.8 131.965 68.5244 131.845 68.2148C131.724 67.9052 131.657 67.5682 131.647 67.225C131.645 66.9978 131.68 66.7724 131.751 66.5629C131.822 66.3533 131.927 66.164 132.06 66.0067C132.437 65.6694 132.902 65.5162 133.365 65.5763C133.828 65.6365 134.257 65.9057 134.569 66.3325C134.779 66.5605 134.949 66.8388 135.069 67.1505C135.189 67.4622 135.257 67.8008 135.268 68.1458C135.273 68.3735 135.239 68.6 135.168 68.8101C135.097 69.0202 134.99 69.2091 134.855 69.3642C134.581 69.664 134.225 69.8257 133.859 69.8175ZM132.839 66.9842C132.828 67.0132 132.823 67.0445 132.823 67.0763C132.823 67.108 132.828 67.1394 132.839 67.1683C132.865 67.4669 132.984 67.741 133.171 67.9333C133.549 68.3583 133.996 68.415 134.122 68.2733C134.133 68.2444 134.138 68.213 134.138 68.1813C134.138 68.1495 134.133 68.1182 134.122 68.0892C134.111 67.9405 134.076 67.7961 134.019 67.6646C133.962 67.5331 133.884 67.4173 133.79 67.3242C133.412 66.9417 132.965 66.8992 132.839 67.0833V66.9842Z" fill="black"/>
<path d="M139.977 71.5175C139.412 71.4971 138.874 71.2196 138.464 70.7383C138.254 70.5105 138.082 70.2326 137.96 69.921C137.838 69.6095 137.768 69.2707 137.754 68.925C137.752 68.6978 137.787 68.4724 137.858 68.2628C137.929 68.0533 138.034 67.864 138.167 67.7067C138.547 67.3702 139.014 67.2188 139.479 67.2815C139.944 67.3443 140.375 67.6167 140.687 68.0467C140.905 68.2788 141.08 68.5657 141.2 68.8883C141.321 69.2108 141.384 69.5614 141.386 69.9167C141.389 70.1439 141.353 70.3692 141.282 70.5788C141.211 70.7884 141.106 70.9777 140.974 71.135C140.693 71.4155 140.337 71.5524 139.977 71.5175ZM139.163 68.6842C139.087 68.6799 139.011 68.7046 138.946 68.755C138.935 68.784 138.93 68.8154 138.93 68.8471C138.93 68.8788 138.935 68.9102 138.946 68.9392C138.959 69.0885 138.996 69.233 139.055 69.3643C139.114 69.4957 139.194 69.6112 139.289 69.7042C139.656 70.1292 140.103 70.1858 140.24 70.0442C140.251 70.0152 140.256 69.9838 140.256 69.9521C140.256 69.9204 140.251 69.889 140.24 69.86C140.214 69.5615 140.095 69.2873 139.908 69.095C139.711 68.8446 139.446 68.6932 139.163 68.67V68.6842Z" fill="black"/>
<path d="M119.089 70.4125C118.785 70.4379 118.482 70.3501 118.218 70.1604C117.955 69.9707 117.744 69.6879 117.612 69.3483C117.48 69.0087 117.434 68.6281 117.478 68.2555C117.523 67.8829 117.657 67.5355 117.864 67.2581C118.07 66.9806 118.338 66.786 118.635 66.6992C118.931 66.6124 119.242 66.6374 119.527 66.7711C119.812 66.9048 120.057 67.141 120.233 67.4492C120.408 67.7573 120.504 68.1234 120.51 68.5C120.52 68.7416 120.492 68.9835 120.426 69.2114C120.36 69.4392 120.258 69.6484 120.125 69.8266C119.993 70.0049 119.833 70.1485 119.655 70.2491C119.477 70.3498 119.284 70.4053 119.089 70.4125ZM119.089 68.075C118.951 68.075 118.825 68.2875 118.825 68.5425C118.825 68.7975 118.951 68.9958 119.089 68.9958C119.226 68.9958 119.364 68.7833 119.364 68.5425C119.364 68.3017 119.238 68.075 119.089 68.075Z" fill="black"/>
<path d="M141.203 66.8142C140.959 66.8061 140.718 66.7437 140.493 66.63C140.287 66.529 140.1 66.3779 139.942 66.1856C139.785 65.9933 139.66 65.7638 139.576 65.5108C139.511 65.3203 139.477 65.1156 139.477 64.9087C139.477 64.7019 139.511 64.4971 139.576 64.3067C139.769 63.8808 140.09 63.5652 140.469 63.4276C140.848 63.2899 141.255 63.341 141.604 63.57C141.812 63.6665 142.001 63.8161 142.159 64.0089C142.317 64.2017 142.44 64.4335 142.521 64.6892C142.592 64.8776 142.629 65.0831 142.629 65.2912C142.629 65.4994 142.592 65.7049 142.521 65.8933C142.394 66.1848 142.202 66.4258 141.969 66.5887C141.736 66.7517 141.47 66.8298 141.203 66.8142ZM140.928 64.8025C140.779 64.8025 140.676 64.8025 140.653 64.93C140.67 65.0206 140.705 65.1044 140.755 65.1737C140.805 65.2431 140.869 65.2957 140.939 65.3267C141.02 65.3896 141.113 65.423 141.209 65.423C141.304 65.423 141.397 65.3896 141.478 65.3267C141.461 65.2361 141.426 65.1523 141.376 65.0829C141.326 65.0136 141.262 64.961 141.192 64.93C141.112 64.8638 141.022 64.8202 140.928 64.8025Z" fill="black"/>
<path d="M161.473 139.333H106.656C106.352 139.333 106.061 139.184 105.846 138.918C105.631 138.653 105.51 138.292 105.51 137.917C105.51 137.541 105.631 137.181 105.846 136.915C106.061 136.649 106.352 136.5 106.656 136.5H161.473C161.777 136.5 162.068 136.649 162.283 136.915C162.498 137.181 162.619 137.541 162.619 137.917C162.619 138.292 162.498 138.653 162.283 138.918C162.068 139.184 161.777 139.333 161.473 139.333Z" fill="black"/>
<path d="M103.471 139.333H98.8075C98.5036 139.333 98.2121 139.184 97.9972 138.918C97.7823 138.653 97.6616 138.292 97.6616 137.917C97.6616 137.541 97.7823 137.181 97.9972 136.915C98.2121 136.649 98.5036 136.5 98.8075 136.5H103.471C103.775 136.5 104.066 136.649 104.281 136.915C104.496 137.181 104.617 137.541 104.617 137.917C104.617 138.292 104.496 138.653 104.281 138.918C104.066 139.184 103.775 139.333 103.471 139.333Z" fill="black"/>
<path d="M94.9917 139.333H92.3333C92.0294 139.333 91.738 139.184 91.5231 138.918C91.3082 138.653 91.1875 138.292 91.1875 137.917C91.1875 137.541 91.3082 137.181 91.5231 136.915C91.738 136.649 92.0294 136.5 92.3333 136.5H94.9802C95.2841 136.5 95.5755 136.649 95.7904 136.915C96.0053 137.181 96.126 137.541 96.126 137.917C96.126 138.292 96.0053 138.653 95.7904 138.918C95.5755 139.184 95.2841 139.333 94.9802 139.333H94.9917Z" fill="black"/>
</svg>
