<svg width="125" height="112" viewBox="0 0 125 112" fill="none" xmlns="http://www.w3.org/2000/svg">
<path d="M84.4937 42.5532H39.4304V37.234H84.4937V42.5532ZM57.0614 101.064L63.0548 106.383H14.0823C6.32013 106.383 0 98.0319 0 87.766C0 77.5 6.32013 69.1489 14.0823 69.1489H22.5317V19.9468C22.5317 8.94681 28.8518 0 36.6139 0H109.842C117.604 0 123.642 8.35106 123.642 18.617C123.642 28.883 117.604 37.234 109.842 37.234H101.392V75.2021L95.7595 80.4096V19.9468C95.7106 14.8694 96.9466 9.8544 99.3646 5.31915H36.6139C32.6258 5.31915 28.1646 11.5745 28.1646 19.9468V69.1489H87.7045L83.7051 73.5426C80.3848 77.6059 78.6714 82.6367 78.8608 87.766C78.862 88.9971 78.9504 90.2268 79.1256 91.4468L73.3124 86.2819C73.4516 82.1867 74.4913 78.1635 76.3654 74.4681H14.0823C9.58159 74.4681 5.63291 80.6809 5.63291 87.766C5.63291 94.8511 9.58159 101.064 14.0823 101.064H57.0614ZM101.392 31.9149H109.842C114.343 31.9149 118.573 25.7021 118.573 18.617C118.573 11.5319 114.343 5.31915 109.842 5.31915H106.028C102.877 9.60652 101.254 14.7298 101.392 19.9468V31.9149ZM39.4304 58.5106H84.4937V53.1915H39.4304V58.5106ZM84.4937 21.2766H39.4304V26.5957H84.4937V21.2766ZM121.057 68.1862L81.6378 104.628L65.6854 90.4628L61.8269 94.3351L81.7111 112L125 71.9894L121.057 68.1862Z" fill="#3F3D56"/>
</svg>
