<svg width="722" height="569" viewBox="0 0 722 569" fill="none" xmlns="http://www.w3.org/2000/svg">
<g clip-path="url(#clip0_1204_1169)">
<path d="M701.382 504.065L682.113 521.805L697.426 496.11C685.362 474.232 665.63 455.323 665.63 455.323C665.63 455.323 624.693 494.544 624.693 525.373C624.693 556.203 643.021 566.968 665.63 566.968C688.238 566.968 706.566 556.203 706.566 525.373C706.566 518.511 704.535 511.234 701.382 504.065Z" fill="#F2F2F2"/>
<path d="M677.158 522.765V524.284C677.068 541.948 674.088 555.73 668.243 565.435C668.16 565.578 668.07 565.714 667.987 565.856L667.333 565.458L666.708 565.067C673.193 554.587 675.488 539.774 675.57 524.367C675.578 523.871 675.586 523.367 675.578 522.862C675.555 516.34 675.157 509.742 674.517 503.333C674.472 502.836 674.419 502.332 674.367 501.828C673.479 493.372 672.2 485.293 670.891 478.274C670.801 477.777 670.703 477.281 670.605 476.792C668.341 464.92 666.031 456.322 665.505 454.418C665.445 454.185 665.407 454.057 665.399 454.027L666.114 453.824L666.122 453.816L666.844 453.613C666.851 453.643 666.979 454.072 667.19 454.87C667.995 457.849 670.086 465.936 672.14 476.604C672.23 477.085 672.328 477.582 672.418 478.078C673.487 483.773 674.532 490.137 675.36 496.818C675.57 498.496 675.759 500.151 675.924 501.783C675.984 502.287 676.037 502.791 676.082 503.288C676.774 510.216 677.133 516.709 677.158 522.765Z" fill="white"/>
<path d="M672.14 476.603C671.636 476.671 671.124 476.739 670.605 476.791C669.195 476.936 667.779 477.009 666.362 477.009C660.323 477.017 654.358 475.67 648.909 473.067C648.593 473.466 648.277 473.865 647.953 474.271C653.686 477.069 659.983 478.521 666.362 478.514C667.875 478.514 669.386 478.433 670.891 478.273C671.402 478.221 671.914 478.153 672.418 478.078C676.579 477.481 680.624 476.256 684.417 474.444C684.094 474.03 683.778 473.624 683.469 473.225C679.88 474.903 676.062 476.041 672.14 476.603Z" fill="white"/>
<path d="M675.924 501.783C675.404 501.813 674.885 501.828 674.366 501.828C674.208 501.835 674.043 501.835 673.885 501.835C667.341 501.835 660.894 500.253 655.093 497.223C649.293 494.193 644.311 489.806 640.573 484.435C640.272 484.878 639.971 485.322 639.678 485.774C643.574 491.208 648.709 495.636 654.658 498.691C660.607 501.746 667.198 503.34 673.885 503.34C674.095 503.34 674.306 503.34 674.517 503.332C675.043 503.325 675.562 503.31 676.082 503.287C684.114 502.876 691.858 500.159 698.387 495.463C698.147 495.019 697.906 494.576 697.658 494.132C691.312 498.742 683.758 501.401 675.924 501.783Z" fill="white"/>
<path d="M677.157 522.764C676.631 522.809 676.104 522.839 675.578 522.862C675.013 522.885 674.449 522.9 673.885 522.9C665.092 522.89 656.538 520.031 649.505 514.753C642.472 509.475 637.337 502.061 634.871 493.62C634.532 494.23 634.194 494.831 633.87 495.441C636.649 503.862 642.012 511.192 649.195 516.392C656.378 521.591 665.017 524.395 673.885 524.404C674.449 524.404 675.013 524.397 675.57 524.367C676.104 524.352 676.631 524.322 677.157 524.284C687.794 523.452 697.717 518.609 704.917 510.735C704.759 510.178 704.579 509.629 704.398 509.072C697.444 517.005 687.673 521.916 677.157 522.764Z" fill="white"/>
<path d="M356.754 199.863C411.294 199.863 455.508 155.649 455.508 101.109C455.508 46.569 411.294 2.35547 356.754 2.35547C302.214 2.35547 258 46.569 258 101.109C258 155.649 302.214 199.863 356.754 199.863Z" fill="#E4E4E4"/>
<path d="M356.754 183.404C402.204 183.404 439.049 146.559 439.049 101.109C439.049 55.6591 402.204 18.8145 356.754 18.8145C311.304 18.8145 274.459 55.6591 274.459 101.109C274.459 146.559 311.304 183.404 356.754 183.404Z" fill="#44D35B"/>
<path d="M619 199.863C673.54 199.863 717.754 155.649 717.754 101.109C717.754 46.569 673.54 2.35547 619 2.35547C564.46 2.35547 520.246 46.569 520.246 101.109C520.246 155.649 564.46 199.863 619 199.863Z" fill="#E4E4E4"/>
<path d="M619 183.404C664.45 183.404 701.295 146.559 701.295 101.109C701.295 55.6591 664.45 18.8145 619 18.8145C573.55 18.8145 536.705 55.6591 536.705 101.109C536.705 146.559 573.55 183.404 619 183.404Z" fill="white"/>
<path d="M349.761 130.869C349.614 130.869 349.467 130.865 349.319 130.858C348.018 130.796 346.745 130.452 345.589 129.851C344.433 129.25 343.42 128.407 342.62 127.378L329.997 111.147C328.527 109.253 327.868 106.853 328.166 104.474C328.463 102.095 329.692 99.9307 331.583 98.4564L332.037 98.1029C333.931 96.6331 336.331 95.9746 338.711 96.2719C341.09 96.5692 343.254 97.7981 344.729 99.6888C345.44 100.604 346.341 101.354 347.369 101.888C348.397 102.423 349.529 102.729 350.687 102.785C351.844 102.841 353 102.647 354.076 102.215C355.151 101.783 356.121 101.124 356.918 100.283L382.55 73.2255C383.367 72.3632 384.346 71.6703 385.43 71.1863C386.515 70.7023 387.684 70.4367 388.871 70.4047C390.059 70.3726 391.241 70.5747 392.35 70.9995C393.459 71.4242 394.474 72.0633 395.336 72.8802L395.754 73.2767C397.495 74.9263 398.51 77.2 398.574 79.5976C398.639 81.9952 397.749 84.3203 396.099 86.0614L356.324 128.045C355.48 128.937 354.462 129.648 353.334 130.133C352.205 130.619 350.99 130.869 349.761 130.869Z" fill="white"/>
<path d="M575.657 81.1131H510.657V24.5835C510.724 21.0833 512.176 17.7524 514.695 15.3211C517.214 12.8897 520.594 11.5563 524.094 11.6131H545.7C562.219 11.6131 575.657 24.5849 575.657 40.5295V81.1131Z" fill="#2F2E41"/>
<path d="M599.722 554.15L587.383 554.149L581.512 506.554L599.724 506.555L599.722 554.15Z" fill="#FFB6B6"/>
<path d="M602.869 566.111L563.081 566.11V565.606C563.081 561.499 564.713 557.56 567.617 554.656C570.521 551.752 574.46 550.12 578.568 550.12L602.87 550.121L602.869 566.111Z" fill="#2F2E41"/>
<path d="M485.987 554.15L473.647 554.149L467.777 506.554L485.989 506.555L485.987 554.15Z" fill="#FFB6B6"/>
<path d="M489.134 566.111L449.346 566.11V565.606C449.346 561.499 450.978 557.56 453.882 554.656C456.786 551.752 460.725 550.12 464.832 550.12L489.134 550.121L489.134 566.111Z" fill="#2F2E41"/>
<path d="M500.886 171.779L492.834 223.111L569.328 224.117L559.263 174.799L500.886 171.779Z" fill="#FFB6B6"/>
<path d="M495.054 210.577L470.69 275.449L467.671 544.289H488.304L537.623 328.291L582.916 538.65H603.046L588.955 302.122C588.955 302.122 593.11 254.647 571.844 226.634L566.668 211.679L495.054 210.577Z" fill="#2F2E41"/>
<path d="M599.557 261.149C597.428 260.568 595.451 259.528 593.767 258.101C592.082 256.674 590.731 254.895 589.809 252.889C588.887 250.884 588.415 248.7 588.428 246.493C588.441 244.285 588.937 242.108 589.883 240.113L557.341 134.018L581.277 129.273L611.039 233.268C614.285 235.079 616.754 238.017 617.979 241.526C619.203 245.035 619.097 248.872 617.682 252.308C616.267 255.745 613.64 258.543 610.299 260.172C606.959 261.802 603.137 262.149 599.557 261.149Z" fill="#FFB6B6"/>
<path d="M556.492 200.128L503.763 199.11C502.256 199.078 500.801 198.553 499.62 197.615C498.44 196.677 497.6 195.378 497.229 193.917C494.402 182.725 488.183 153.558 491.481 124.507C492.132 118.879 493.906 113.439 496.696 108.508C499.486 103.578 503.237 99.2573 507.727 95.8019C512.217 92.3466 517.354 89.8268 522.834 88.3916C528.315 86.9565 534.027 86.6351 539.634 87.4466C545.549 88.2934 551.218 90.3811 556.269 93.5729C561.32 96.7646 565.639 100.988 568.943 105.967C572.247 110.945 574.461 116.566 575.439 122.46C576.418 128.354 576.14 134.389 574.622 140.168C567.985 165.374 564.235 183.407 563.479 193.766C563.367 195.264 562.768 196.684 561.773 197.81C560.778 198.935 559.442 199.704 557.969 199.998C557.531 200.085 557.085 200.129 556.639 200.129C556.59 200.129 556.541 200.129 556.492 200.128Z" fill="#E4E4E4"/>
<path d="M396.322 106.936C396.639 107.646 396.899 108.381 397.101 109.132L463.103 131.56L475.857 120.419L495.187 137.468L474.526 159.386C472.857 161.157 470.658 162.339 468.261 162.754C465.863 163.168 463.395 162.794 461.228 161.687L390.602 125.611C388.048 127.178 385.077 127.93 382.085 127.767C379.093 127.605 376.222 126.535 373.853 124.7C371.484 122.866 369.729 120.353 368.823 117.498C367.917 114.642 367.901 111.577 368.779 108.713C369.656 105.848 371.386 103.318 373.736 101.46C376.086 99.6014 378.947 98.5028 381.937 98.3099C384.927 98.117 387.905 98.8391 390.475 100.38C393.044 101.921 395.084 104.208 396.322 106.936Z" fill="#FFB6B6"/>
<path d="M463.239 127.983C463.245 127.075 463.446 126.177 463.829 125.353C464.213 124.529 464.769 123.798 465.461 123.208L489.629 102.622C492.687 99.1176 497.01 96.9689 501.651 96.6475C506.291 96.3261 510.869 97.8582 514.382 100.908C517.894 103.957 520.053 108.275 520.386 112.915C520.719 117.554 519.198 122.137 516.157 125.656L498.947 152.456C498.456 153.22 497.806 153.87 497.041 154.361C496.276 154.852 495.414 155.172 494.514 155.3C493.614 155.428 492.697 155.36 491.826 155.101C490.954 154.843 490.149 154.399 489.464 153.801L465.404 132.786C464.719 132.188 464.171 131.45 463.797 130.621C463.424 129.792 463.233 128.893 463.239 127.983Z" fill="#E4E4E4"/>
<path d="M555.883 160.892C555.078 160.469 554.375 159.877 553.82 159.157C553.265 158.437 552.872 157.606 552.667 156.72L545.522 125.788C543.82 121.46 543.904 116.634 545.756 112.367C547.607 108.101 551.075 104.743 555.399 103.029C559.723 101.316 564.55 101.387 568.821 103.228C573.092 105.068 576.46 108.527 578.184 112.846L594.049 140.463C594.501 141.252 594.779 142.128 594.862 143.033C594.946 143.938 594.833 144.851 594.532 145.709C594.231 146.566 593.749 147.349 593.118 148.003C592.487 148.658 591.723 149.169 590.877 149.501L561.143 161.182C560.297 161.515 559.389 161.661 558.481 161.611C557.573 161.561 556.687 161.316 555.883 160.892Z" fill="#E4E4E4"/>
<path d="M581.463 17.1368C583.904 11.4213 579.706 4.14904 572.085 0.893746C564.464 -2.36155 556.307 -0.367165 553.866 5.34836C551.425 11.0639 555.623 18.3362 563.244 21.5915C570.865 24.8468 579.022 22.8523 581.463 17.1368Z" fill="#2F2E41"/>
<path d="M557.822 59.6209C565.974 44.7074 560.493 26.0087 545.58 17.8562C530.666 9.70377 511.968 15.1847 503.815 30.0982C495.663 45.0118 501.144 63.7104 516.057 71.8629C530.971 80.0154 549.669 74.5345 557.822 59.6209Z" fill="#FFB6B6"/>
<path d="M547.701 9.61316H512.5C509.92 9.57977 507.422 10.5233 505.508 12.2544C503.593 13.9856 502.405 16.3764 502.179 18.9475C502.088 20.3137 502.279 21.6842 502.739 22.9738C503.199 24.2634 503.92 25.4448 504.855 26.4448C505.791 27.4447 506.921 28.2419 508.178 28.7869C509.434 29.3319 510.788 29.6131 512.158 29.6132C514.81 29.6132 517.353 30.6667 519.229 32.5421C521.104 34.4174 522.158 36.961 522.158 39.6132V80.6132H577.158V39.0698C577.158 35.2015 576.396 31.3711 574.915 27.7972C573.435 24.2234 571.265 20.9761 568.53 18.2408C565.795 15.5055 562.547 13.3357 558.974 11.8554C555.4 10.3751 551.569 9.61316 547.701 9.61316Z" fill="#2F2E41"/>
<path d="M721.225 567.613H340.225C339.959 567.613 339.705 567.508 339.518 567.32C339.33 567.133 339.225 566.878 339.225 566.613C339.225 566.348 339.33 566.094 339.518 565.906C339.705 565.719 339.959 565.613 340.225 565.613H721.225C721.49 565.613 721.744 565.719 721.932 565.906C722.119 566.094 722.225 566.348 722.225 566.613C722.225 566.878 722.119 567.133 721.932 567.32C721.744 567.508 721.49 567.613 721.225 567.613Z" fill="#CACACA"/>
<path d="M109.754 200.708C164.294 200.708 208.508 156.494 208.508 101.954C208.508 47.4138 164.294 3.2002 109.754 3.2002C55.2136 3.2002 11 47.4138 11 101.954C11 156.494 55.2136 200.708 109.754 200.708Z" fill="#E4E4E4"/>
<path d="M110.246 183.399C155.696 183.399 192.541 146.555 192.541 101.104C192.541 55.6542 155.696 18.8096 110.246 18.8096C64.7958 18.8096 27.9512 55.6542 27.9512 101.104C27.9512 146.555 64.7958 183.399 110.246 183.399Z" fill="white"/>
</g>
<defs>
<clipPath id="clip0_1204_1169">
<rect width="722" height="568.282" fill="white"/>
</clipPath>
</defs>
</svg>
