<svg width="856" height="568" viewBox="0 0 856 568" fill="none" xmlns="http://www.w3.org/2000/svg">
<g clip-path="url(#clip0_1205_1201)">
<mask id="mask0_1205_1201" style="mask-type:luminance" maskUnits="userSpaceOnUse" x="0" y="0" width="856" height="568">
<path d="M856 0H0V568H856V0Z" fill="white"/>
</mask>
<g mask="url(#mask0_1205_1201)">
<path d="M892.382 519.065L873.113 536.805L888.426 511.11C876.362 489.232 856.63 470.323 856.63 470.323C856.63 470.323 815.693 509.544 815.693 540.373C815.693 571.203 834.021 581.968 856.63 581.968C879.238 581.968 897.566 571.203 897.566 540.373C897.566 533.511 895.535 526.234 892.382 519.065Z" fill="#F2F2F2"/>
<path d="M863.14 491.603C862.636 491.671 862.124 491.739 861.605 491.791C860.195 491.936 858.779 492.009 857.362 492.009C851.323 492.017 845.358 490.67 839.909 488.067C839.593 488.466 839.277 488.865 838.953 489.271C844.686 492.069 850.983 493.521 857.362 493.514C858.875 493.514 860.386 493.433 861.891 493.273C862.402 493.221 862.914 493.153 863.418 493.078C867.579 492.481 871.624 491.256 875.417 489.444C875.094 489.03 874.778 488.624 874.469 488.225C870.88 489.903 867.062 491.041 863.14 491.603Z" fill="white"/>
<path d="M866.924 516.784C866.404 516.814 865.885 516.829 865.366 516.829C865.208 516.836 865.043 516.836 864.885 516.836C858.341 516.836 851.894 515.254 846.093 512.224C840.293 509.194 835.311 504.807 831.573 499.436C831.272 499.879 830.971 500.323 830.678 500.775C834.574 506.209 839.709 510.637 845.658 513.692C851.607 516.747 858.198 518.341 864.885 518.341C865.095 518.341 865.306 518.341 865.517 518.333C866.043 518.326 866.562 518.311 867.082 518.288C875.114 517.877 882.858 515.16 889.387 510.464C889.147 510.02 888.906 509.577 888.658 509.133C882.312 513.743 874.758 516.402 866.924 516.784Z" fill="white"/>
<path d="M868.157 537.764C867.631 537.809 867.104 537.839 866.578 537.862C866.013 537.885 865.449 537.9 864.885 537.9C856.092 537.89 847.538 535.031 840.505 529.753C833.472 524.475 828.337 517.061 825.871 508.62C825.532 509.23 825.194 509.831 824.87 510.441C827.649 518.862 833.012 526.192 840.195 531.392C847.378 536.591 856.017 539.395 864.885 539.404C865.449 539.404 866.013 539.397 866.57 539.367C867.104 539.352 867.631 539.322 868.157 539.284C878.794 538.452 888.717 533.609 895.917 525.735C895.759 525.178 895.579 524.629 895.398 524.072C888.444 532.005 878.673 536.916 868.157 537.764Z" fill="white"/>
<path d="M547.754 214.863C602.294 214.863 646.508 170.649 646.508 116.109C646.508 61.569 602.294 17.3555 547.754 17.3555C493.214 17.3555 449 61.569 449 116.109C449 170.649 493.214 214.863 547.754 214.863Z" fill="#E4E4E4"/>
<path d="M547.754 198.404C593.204 198.404 630.049 161.559 630.049 116.109C630.049 70.6591 593.204 33.8145 547.754 33.8145C502.304 33.8145 465.459 70.6591 465.459 116.109C465.459 161.559 502.304 198.404 547.754 198.404Z" fill="#44D35B"/>
<path d="M540.761 145.869C540.614 145.869 540.467 145.865 540.319 145.858C539.018 145.796 537.745 145.452 536.589 144.851C535.433 144.25 534.42 143.407 533.62 142.378L520.997 126.147C519.527 124.253 518.868 121.853 519.166 119.474C519.463 117.095 520.692 114.931 522.583 113.456L523.037 113.103C524.931 111.633 527.331 110.975 529.711 111.272C532.09 111.569 534.254 112.798 535.729 114.689C536.44 115.604 537.341 116.354 538.369 116.888C539.397 117.423 540.529 117.729 541.687 117.785C542.844 117.841 544 117.647 545.076 117.215C546.151 116.783 547.121 116.124 547.918 115.283L573.55 88.2255C574.367 87.3632 575.346 86.6703 576.43 86.1863C577.515 85.7023 578.684 85.4367 579.871 85.4047C581.059 85.3726 582.241 85.5747 583.35 85.9995C584.459 86.4242 585.474 87.0633 586.336 87.8802L586.754 88.2767C588.495 89.9263 589.51 92.2 589.574 94.5976C589.639 96.9952 588.749 99.3203 587.099 101.061L547.324 143.045C546.48 143.937 545.462 144.648 544.334 145.133C543.205 145.619 541.99 145.869 540.761 145.869Z" fill="white"/>
<path d="M766.657 96.1131H701.657V39.5835C701.724 36.0833 703.176 32.7524 705.695 30.3211C708.214 27.8897 711.594 26.5563 715.094 26.6131H736.7C753.219 26.6131 766.657 39.5849 766.657 55.5295V96.1131Z" fill="#2F2E41"/>
<path d="M790.722 569.151L778.383 569.15L772.512 521.555L790.724 521.556L790.722 569.151Z" fill="#FFB6B6"/>
<path d="M793.869 581.111L754.081 581.11V580.606C754.081 576.499 755.713 572.56 758.617 569.656C761.521 566.752 765.46 565.12 769.568 565.12L793.87 565.121L793.869 581.111Z" fill="#2F2E41"/>
<path d="M676.987 569.151L664.647 569.15L658.777 521.555L676.989 521.556L676.987 569.151Z" fill="#FFB6B6"/>
<path d="M680.134 581.111L640.346 581.11V580.606C640.346 576.499 641.978 572.56 644.882 569.656C647.786 566.752 651.725 565.12 655.832 565.12L680.134 565.121V581.111Z" fill="#2F2E41"/>
<path d="M691.886 186.779L683.834 238.111L760.328 239.117L750.263 189.799L691.886 186.779Z" fill="#FFB6B6"/>
<path d="M686.054 225.577L661.69 290.449L658.671 559.289H679.304L728.623 343.291L773.916 553.65H794.046L779.955 317.122C779.955 317.122 784.11 269.647 762.844 241.634L757.668 226.679L686.054 225.577Z" fill="#2F2E41"/>
<path d="M790.557 276.149C788.428 275.568 786.451 274.528 784.767 273.101C783.082 271.674 781.731 269.895 780.809 267.889C779.887 265.884 779.415 263.7 779.428 261.493C779.441 259.285 779.937 257.108 780.883 255.113L748.341 149.018L772.277 144.273L802.039 248.268C805.285 250.079 807.754 253.017 808.979 256.526C810.203 260.035 810.097 263.872 808.682 267.308C807.267 270.745 804.64 273.543 801.299 275.172C797.959 276.802 794.137 277.149 790.557 276.149Z" fill="#FFB6B6"/>
<path d="M747.492 215.128L694.763 214.11C693.256 214.078 691.801 213.553 690.62 212.615C689.44 211.677 688.6 210.378 688.229 208.917C685.402 197.725 679.183 168.558 682.481 139.507C683.132 133.879 684.906 128.439 687.696 123.508C690.486 118.578 694.237 114.257 698.727 110.802C703.217 107.347 708.354 104.827 713.834 103.392C719.315 101.956 725.027 101.635 730.634 102.447C736.549 103.293 742.218 105.381 747.269 108.573C752.32 111.765 756.639 115.988 759.943 120.967C763.247 125.945 765.461 131.566 766.439 137.46C767.418 143.354 767.14 149.389 765.622 155.168C758.985 180.374 755.235 198.407 754.479 208.766C754.367 210.264 753.768 211.684 752.773 212.81C751.778 213.935 750.442 214.704 748.969 214.998C748.531 215.085 748.085 215.129 747.639 215.129C747.59 215.129 747.541 215.129 747.492 215.128Z" fill="#E4E4E4"/>
<path d="M587.322 121.936C587.639 122.646 587.899 123.381 588.101 124.132L654.103 146.56L666.857 135.419L686.187 152.468L665.526 174.386C663.857 176.157 661.658 177.339 659.261 177.754C656.863 178.168 654.395 177.794 652.228 176.687L581.602 140.611C579.048 142.178 576.077 142.93 573.085 142.767C570.093 142.605 567.222 141.535 564.853 139.7C562.484 137.866 560.729 135.353 559.823 132.498C558.917 129.642 558.901 126.577 559.779 123.713C560.656 120.848 562.386 118.318 564.736 116.46C567.086 114.601 569.947 113.503 572.937 113.31C575.927 113.117 578.905 113.839 581.475 115.38C584.044 116.921 586.084 119.208 587.322 121.936Z" fill="#FFB6B6"/>
<path d="M654.239 142.983C654.245 142.075 654.446 141.177 654.829 140.353C655.213 139.529 655.769 138.798 656.461 138.208L680.629 117.622C683.687 114.118 688.01 111.969 692.651 111.647C697.291 111.326 701.869 112.858 705.382 115.908C708.894 118.957 711.053 123.275 711.386 127.915C711.719 132.554 710.198 137.137 707.157 140.656L689.947 167.456C689.456 168.22 688.806 168.87 688.041 169.361C687.276 169.852 686.414 170.172 685.514 170.3C684.614 170.428 683.697 170.36 682.826 170.101C681.954 169.843 681.149 169.399 680.464 168.801L656.404 147.786C655.719 147.188 655.171 146.45 654.797 145.621C654.424 144.792 654.233 143.893 654.239 142.983Z" fill="#E4E4E4"/>
<path d="M746.883 175.892C746.078 175.469 745.375 174.877 744.82 174.157C744.265 173.437 743.872 172.606 743.667 171.72L736.522 140.788C734.82 136.46 734.904 131.634 736.756 127.367C738.607 123.101 742.075 119.743 746.399 118.029C750.723 116.316 755.55 116.387 759.821 118.228C764.092 120.068 767.46 123.527 769.184 127.846L785.049 155.463C785.501 156.252 785.779 157.128 785.862 158.033C785.946 158.938 785.833 159.851 785.532 160.709C785.231 161.566 784.749 162.349 784.118 163.003C783.487 163.658 782.723 164.169 781.877 164.501L752.143 176.182C751.297 176.515 750.389 176.661 749.481 176.611C748.573 176.561 747.687 176.316 746.883 175.892Z" fill="#E4E4E4"/>
<path d="M772.463 32.137C774.904 26.4215 770.706 19.1492 763.085 15.8939C755.464 12.6387 747.307 14.633 744.866 20.3486C742.425 26.0641 746.623 33.3364 754.244 36.5917C761.865 39.847 770.022 37.8525 772.463 32.137Z" fill="#2F2E41"/>
<path d="M748.822 74.6208C756.974 59.7073 751.493 41.0086 736.58 32.8561C721.666 24.7037 702.968 30.1846 694.815 45.0981C686.663 60.0117 692.144 78.7103 707.057 86.8628C721.971 95.0153 740.669 89.5344 748.822 74.6208Z" fill="#FFB6B6"/>
<path d="M738.701 24.6132H703.5C700.92 24.5798 698.422 25.5233 696.508 27.2544C694.593 28.9856 693.405 31.3764 693.179 33.9475C693.088 35.3137 693.279 36.6842 693.739 37.9738C694.199 39.2634 694.92 40.4448 695.855 41.4448C696.791 42.4447 697.921 43.2419 699.178 43.7869C700.434 44.3319 701.788 44.6131 703.158 44.6132C705.81 44.6132 708.353 45.6667 710.229 47.5421C712.104 49.4174 713.158 51.961 713.158 54.6132V95.6132H768.158V54.0698C768.158 50.2015 767.396 46.3711 765.915 42.7972C764.435 39.2234 762.265 35.9761 759.53 33.2408C756.795 30.5055 753.547 28.3357 749.974 26.8554C746.4 25.3751 742.569 24.6132 738.701 24.6132Z" fill="#2F2E41"/>
<path d="M325.754 215.708C380.294 215.708 424.508 171.494 424.508 116.954C424.508 62.4138 380.294 18.2002 325.754 18.2002C271.214 18.2002 227 62.4138 227 116.954C227 171.494 271.214 215.708 325.754 215.708Z" fill="#E4E4E4"/>
<path d="M326.246 198.399C371.696 198.399 408.541 161.555 408.541 116.104C408.541 70.6542 371.696 33.8096 326.246 33.8096C280.796 33.8096 243.951 70.6542 243.951 116.104C243.951 161.555 280.796 198.399 326.246 198.399Z" fill="white"/>
<path d="M100.754 223.508C155.294 223.508 199.508 179.294 199.508 124.754C199.508 70.2136 155.294 26 100.754 26C46.2136 26 2 70.2136 2 124.754C2 179.294 46.2136 223.508 100.754 223.508Z" fill="#E4E4E4"/>
<path d="M101.246 206.199C146.696 206.199 183.541 169.354 183.541 123.904C183.541 78.454 146.696 41.6094 101.246 41.6094C55.7958 41.6094 18.9512 78.454 18.9512 123.904C18.9512 169.354 55.7958 206.199 101.246 206.199Z" fill="white"/>
</g>
</g>
<defs>
<clipPath id="clip0_1205_1201">
<rect width="856" height="568" fill="white"/>
</clipPath>
</defs>
</svg>
