<svg width="278" height="216" viewBox="0 0 278 216" fill="none" xmlns="http://www.w3.org/2000/svg">
<g clip-path="url(#clip0_1072_1284)">
<path d="M270.809 31.5634H237.101L198.684 1.71366C195.743 -0.571628 190.975 -0.571628 188.035 1.71366L149.618 31.5625H115.909C112.048 31.5625 108.919 33.9942 108.919 36.9937V77.7506L116.695 73.9993C122.262 71.314 129.004 70.9706 134.834 72.8197L160.886 56.8594C164.805 54.4581 170.487 54.9812 173.576 58.0254C176.666 61.0701 175.994 65.485 172.075 67.8855L146.68 83.4438C148.734 89.8255 145.394 96.7733 137.816 100.429L122.899 107.625L108.919 114.37V126.189C108.919 129.189 112.049 131.62 115.91 131.62H270.809C274.67 131.62 277.799 129.188 277.799 126.189V36.9946C277.799 33.9951 274.67 31.5634 270.809 31.5634ZM170.916 31.5634L193.36 14.1252L215.803 31.5634H170.916Z" fill="#68E8A3"/>
<path d="M135.76 83.1126C132.843 79.4629 126.672 78.3416 121.975 80.6075L101.703 90.3874C101.618 77.3245 101.663 84.2588 101.609 75.8441C101.544 65.7466 90.9166 57.5314 77.9201 57.5314H68.0717C65.5676 62.5774 59.2534 75.3012 57.3628 79.1111L77.3988 86.2572V75.9057C77.3988 75.0067 78.3365 74.2777 79.4942 74.2777C80.6518 74.2777 81.5895 75.0063 81.5895 75.9057C81.5895 75.9112 81.5895 75.9171 81.5895 75.9226L81.8105 104.974C82.4343 110.799 90.764 113.974 97.063 110.935L132.537 93.8214C137.233 91.5568 138.676 86.7622 135.76 83.1126Z" fill="#9747FF"/>
<path d="M24.3779 121.598L24.3828 206.667C24.3828 211.822 29.7604 216 36.3949 216C43.0294 216 48.407 211.822 48.407 206.667V132.066H52.9695C52.0074 131.82 24.3779 121.598 24.3779 121.598Z" fill="#9747FF"/>
<path d="M77.3992 111.859L68.5917 126.765C66.005 131.143 59.6327 133.497 53.5928 132.213V206.666C53.5928 211.821 58.9703 216 65.6048 216C72.2394 216 77.6169 211.821 77.6169 206.666C77.6061 201.963 77.3992 117.045 77.3992 111.859Z" fill="#9747FF"/>
<path d="M57.8053 70.1863L53.7352 64.4354L57.3459 59.3324C57.884 58.5717 57.1749 57.6381 56.0564 57.6381H46.1358C45.019 57.6381 44.3077 58.5709 44.8463 59.3324L48.4652 64.4455L44.388 70.207C43.9146 70.8765 43.7604 71.6532 43.9515 72.402L45.3784 77.986C49.6505 76.7798 52.8567 77.5046 56.4886 78.7998L58.2315 72.4223C58.4389 71.6616 58.2875 70.8677 57.8053 70.1863Z" fill="#9747FF"/>
<path d="M74.9907 92.0947L51.8021 83.8235C49.3056 82.9333 46.3562 83.7851 45.2116 85.7219L39.2129 95.8756L51.4264 101.148C60.1514 104.914 63.2946 113.463 58.447 120.242C56.943 122.346 54.8411 124.026 52.4021 125.239L54.8851 126.125C57.3817 127.015 60.3311 126.163 61.4757 124.226L77.434 97.215C78.5791 95.2769 77.4851 92.9845 74.9907 92.0947Z" fill="black"/>
<path d="M51.0001 52.3938C62.4576 52.3938 71.7458 45.1771 71.7458 36.2749C71.7458 27.3726 62.4576 20.1559 51.0001 20.1559C39.5426 20.1559 30.2544 27.3726 30.2544 36.2749C30.2544 45.1771 39.5426 52.3938 51.0001 52.3938Z" fill="black"/>
<path d="M47.5108 106.623L20.2565 94.858C20.3125 87.7768 20.3543 82.5663 20.4064 75.9226V75.9217C20.4124 75.0712 21.3034 74.3849 22.398 74.387C23.4926 74.3891 24.3782 75.0797 24.3782 75.9306V89.4711L32.3473 92.9115L38.0952 83.1835C39.3978 80.9783 41.6761 79.2626 44.4213 78.2872C43.2979 76.023 35.2506 59.8074 34.1212 57.5318H24.0752C11.0782 57.5318 0.452328 65.7474 0.387172 75.8357C0.360023 79.2415 0.227539 95.9726 0.200391 99.3704C0.177586 102.212 2.15182 104.837 5.34881 106.217L37.7879 120.22C42.6197 122.307 48.7145 120.954 51.3995 117.199C54.084 113.445 52.3432 108.709 47.5108 106.623Z" fill="#9747FF"/>
</g>
<defs>
<clipPath id="clip0_1072_1284">
<rect width="278" height="216" fill="white"/>
</clipPath>
</defs>
</svg>
