<svg width="125" height="119" viewBox="0 0 125 119" fill="none" xmlns="http://www.w3.org/2000/svg">
<path d="M62 10.2349L60.2 12.0299L45.2 27.0299L48.8 30.5474L59.5 19.8399V69.9999H64.5V19.8424L75.2 30.5474L78.8 27.0274L63.8 12.0274L62 10.2324V10.2349Z" fill="#2F2E41"/>
<path d="M17.7064 66H8C4.68629 66 2 68.6863 2 72V111C2 114.314 4.68629 117 8 117H67.4187H117C120.314 117 123 114.314 123 111V72C123 68.6863 120.314 66 117 66H108.717C106.094 66 103.775 67.7034 102.991 70.2061L97.2975 88.379C96.5134 90.8817 94.1946 92.5851 91.5719 92.5851H34.6269C31.9791 92.5851 29.6444 90.8495 28.8814 88.314L23.4519 70.2711C22.6889 67.7356 20.3542 66 17.7064 66Z" stroke="#2F2E41" stroke-width="3"/>
</svg>
