<svg width="57" height="56" viewBox="0 0 57 56" fill="none" xmlns="http://www.w3.org/2000/svg">
<path d="M28.5 0C12.7853 0 0 12.561 0 28C0 43.439 12.7853 56 28.5 56C44.2147 56 57 43.439 57 28C57 12.561 44.2147 0 28.5 0ZM35.103 16.345L38.4051 19.18L28.3191 30.5012L25.017 27.3969L35.103 16.345ZM19.7212 39.6617L10.0531 30.1538L13.1538 27.1075L22.8233 36.6154L19.7212 39.6617ZM28.6274 39.7681L18.847 30.1538L21.9491 27.1088L28.4109 33.464L43.6379 16.345L46.94 19.18L28.6274 39.7681Z" fill="#68E8A3"/>
</svg>
