<svg width="206" height="165" viewBox="0 0 206 165" fill="none" xmlns="http://www.w3.org/2000/svg">
<g clip-path="url(#clip0_1049_1195)">
<path d="M205.716 165H120.113C120.038 165 119.965 164.966 119.912 164.907C119.859 164.847 119.829 164.766 119.829 164.682C119.829 164.598 119.859 164.517 119.912 164.457C119.965 164.398 120.038 164.364 120.113 164.364H205.716C205.791 164.364 205.863 164.398 205.917 164.457C205.97 164.517 206 164.598 206 164.682C206 164.766 205.97 164.847 205.917 164.907C205.863 164.966 205.791 165 205.716 165Z" fill="#3F3D56"/>
<path d="M152.27 161.359H148.783L147.125 146.325L152.271 146.326L152.27 161.359Z" fill="#FFB8B8"/>
<path d="M146.293 160.245H153.017V164.978H142.059C142.059 164.357 142.169 163.741 142.381 163.167C142.594 162.593 142.906 162.071 143.299 161.632C143.692 161.192 144.159 160.844 144.673 160.606C145.186 160.368 145.737 160.245 146.293 160.245Z" fill="#2F2E41"/>
<path d="M177.568 156.944L174.397 158.563L167.3 145.659L171.981 143.27L177.568 156.944Z" fill="#FFB8B8"/>
<path d="M171.718 158.707L177.834 155.584L179.593 159.889L169.626 164.979C169.395 164.413 169.266 163.803 169.246 163.181C169.226 162.56 169.316 161.941 169.51 161.359C169.704 160.776 169.999 160.242 170.378 159.787C170.757 159.333 171.212 158.965 171.718 158.707Z" fill="#2F2E41"/>
<path d="M167.415 110.669C167.749 110.388 168.024 110.029 168.22 109.616C168.416 109.203 168.529 108.748 168.551 108.281C168.573 107.814 168.503 107.348 168.346 106.915C168.189 106.481 167.949 106.092 167.643 105.774L171.741 95.3778L166.534 96.3643L163.44 106.085C162.996 106.696 162.768 107.467 162.798 108.253C162.829 109.039 163.116 109.785 163.606 110.351C164.096 110.916 164.754 111.26 165.456 111.319C166.158 111.378 166.855 111.146 167.415 110.669Z" fill="#FFB8B8"/>
<path d="M152.048 157.395H148.717C148.394 157.394 148.083 157.257 147.847 157.011C147.61 156.765 147.465 156.428 147.44 156.068L143.918 101.844C143.904 101.637 143.931 101.428 143.998 101.233C144.064 101.039 144.167 100.862 144.3 100.717C144.434 100.571 144.594 100.46 144.77 100.391C144.946 100.322 145.133 100.297 145.318 100.317L166.288 102.604C166.6 102.638 166.891 102.799 167.103 103.057C167.316 103.314 167.437 103.65 167.443 104.001L167.847 127.919C167.849 128.049 167.872 128.178 167.914 128.299L175.816 151.206C175.877 151.383 175.906 151.571 175.901 151.761C175.896 151.951 175.857 152.137 175.788 152.31C175.718 152.483 175.618 152.638 175.493 152.768C175.369 152.897 175.223 152.997 175.064 153.063L171.689 154.453C171.395 154.574 171.073 154.57 170.782 154.444C170.491 154.317 170.251 154.075 170.108 153.765L160.401 132.665C160.348 132.55 160.309 132.428 160.286 132.302L158.628 123.37C158.58 123.111 158.451 122.88 158.264 122.718C158.077 122.555 157.845 122.473 157.608 122.485C157.372 122.497 157.147 122.602 156.974 122.783C156.801 122.963 156.691 123.207 156.664 123.469L153.319 156.127C153.284 156.476 153.134 156.798 152.9 157.032C152.665 157.266 152.362 157.395 152.048 157.395Z" fill="#2F2E41"/>
<path d="M153.706 59.4467C157.564 59.4467 160.691 55.9507 160.691 51.6383C160.691 47.3258 157.564 43.8298 153.706 43.8298C149.849 43.8298 146.721 47.3258 146.721 51.6383C146.721 55.9507 149.849 59.4467 153.706 59.4467Z" fill="#FFB8B8"/>
<path d="M145.247 102.158C146.141 102.847 156.215 110.268 167.698 104.366C167.549 102.932 166.116 88.5399 167.368 77.93C167.961 72.896 166.168 68.2325 162.448 65.135C160.428 63.4607 158.044 62.419 155.544 62.1171C153.043 61.8153 150.516 62.2643 148.223 63.4178C148.034 63.5121 147.844 63.6103 147.653 63.7124L145.247 102.158Z" fill="#BFA179"/>
<path d="M167.807 104.247C167.63 104.247 167.454 104.206 167.292 104.126C167.13 104.046 166.984 103.93 166.865 103.783L165.337 101.92C165.188 101.738 165.084 101.516 165.034 101.275C164.985 101.035 164.991 100.785 165.053 100.548L168.552 87.3074L163.228 74.808C162.995 74.2585 162.937 73.6359 163.066 73.0448C163.179 72.526 163.431 72.0579 163.787 71.7021C164.144 71.3463 164.588 71.1196 165.062 71.0519C165.536 70.9843 166.017 71.0788 166.442 71.323C166.867 71.5672 167.216 71.9496 167.442 72.4199L174.64 85.476C174.92 85.9832 175.084 86.5595 175.118 87.1543C175.153 87.7492 175.056 88.3442 174.836 88.8874L168.975 103.405C168.888 103.621 168.754 103.81 168.586 103.953C168.418 104.097 168.22 104.192 168.011 104.229C167.943 104.241 167.875 104.247 167.807 104.247Z" fill="#BFA179"/>
<path opacity="0.2" d="M150.416 102.554H147.626L152.497 76.9287L152.778 76.9697L151.694 101.195C151.678 101.562 151.536 101.907 151.299 102.16C151.061 102.413 150.745 102.554 150.416 102.554Z" fill="black"/>
<path d="M147.834 108.925C148.109 108.573 148.311 108.157 148.426 107.708C148.542 107.259 148.567 106.787 148.502 106.325C148.437 105.864 148.281 105.424 148.047 105.036C147.813 104.649 147.506 104.324 147.148 104.083L149.226 92.9628L144.316 95.1362L143.095 105.363C142.774 106.064 142.694 106.871 142.87 107.633C143.045 108.395 143.465 109.058 144.049 109.497C144.634 109.936 145.341 110.121 146.039 110.015C146.737 109.91 147.375 109.522 147.834 108.925Z" fill="#FFB8B8"/>
<path d="M147.553 102.586C147.504 102.586 147.456 102.583 147.408 102.577L144.432 102.207C144.111 102.166 143.815 101.991 143.604 101.716C143.393 101.442 143.283 101.088 143.295 100.726L144.526 67.4141C144.565 66.3693 144.943 65.376 145.589 64.6201C146.236 63.8642 147.106 63.3974 148.038 63.3072C148.97 63.217 149.9 63.5094 150.653 64.1298C151.406 64.7503 151.931 65.6562 152.129 66.678L152.923 70.7569L152.919 70.7858L148.815 101.367C148.771 101.706 148.619 102.016 148.387 102.239C148.155 102.463 147.859 102.586 147.553 102.586Z" fill="#BFA179"/>
<path d="M159.461 58.5223C158.737 58.6612 158.141 57.5341 158.051 56.7413C157.961 55.9485 158.219 55.1897 158.248 54.402C158.276 53.6144 157.943 52.6572 157.212 52.4237C156.445 52.1789 155.733 52.8668 154.948 52.7841C153.854 52.6688 153.304 51.2372 153.172 50.079C153.039 48.9209 152.935 47.5494 151.987 46.889C151.043 46.2306 149.874 46.7097 148.788 46.7301C146.953 46.7648 145.086 45.2007 144.657 43.2704C144.879 43.3422 145.117 43.3289 145.332 43.2326C145.547 43.1363 145.727 42.9626 145.844 42.7389C145.936 42.5004 145.955 42.2345 145.897 41.9827C145.84 41.731 145.71 41.5074 145.527 41.347L147.607 42.4855C147.323 41.8388 147.752 41.1022 148.343 40.8573C148.934 40.6124 149.621 40.7224 150.273 40.8356C153.53 41.4012 157.301 41.1225 159.461 43.8981C160.958 45.8206 162.189 49.4789 162.021 51.846C161.853 54.2131 159.461 58.5223 159.461 58.5223Z" fill="#2F2E41"/>
<path d="M80.1991 146.561H5.40339C4.87559 146.56 4.36958 146.325 3.99637 145.908C3.62316 145.491 3.41322 144.925 3.41263 144.335L3.85769e-06 2.23397C-0.000511284 1.94117 0.0505711 1.65112 0.150333 1.38039C0.250096 1.10965 0.396583 0.863536 0.581434 0.656091C0.766285 0.448646 0.985879 0.283936 1.22767 0.171364C1.46947 0.0587911 1.72873 0.000560986 1.99066 0H76.7864C77.3142 0.000661393 77.8202 0.235339 78.1934 0.652545C78.5666 1.06975 78.7766 1.63541 78.7771 2.22543L79.3954 27.9683L78.8269 27.9854L78.2084 2.23397C78.209 2.02464 78.1727 1.81723 78.1015 1.62361C78.0303 1.42998 77.9257 1.25393 77.7936 1.10551C77.6616 0.957098 77.5046 0.839227 77.3318 0.758638C77.159 0.678049 76.9737 0.636322 76.7864 0.635838H1.99066C1.61366 0.636327 1.25223 0.803961 0.985655 1.10196C0.719078 1.39996 0.569122 1.804 0.568684 2.22543L3.98132 144.327C3.98077 144.536 4.01712 144.743 4.0883 144.937C4.15947 145.131 4.26408 145.307 4.39614 145.455C4.52821 145.604 4.68514 145.721 4.85796 145.802C5.03079 145.883 5.21613 145.924 5.40339 145.925H80.1991C80.5761 145.924 80.9376 145.757 81.2041 145.459C81.4707 145.161 81.6207 144.757 81.6211 144.335L80.957 116.685L81.5256 116.668L82.1898 144.327C82.1903 144.62 82.1392 144.91 82.0395 145.18C81.9397 145.451 81.7932 145.697 81.6084 145.905C81.4235 146.112 81.2039 146.277 80.9621 146.389C80.7203 146.502 80.461 146.56 80.1991 146.561Z" fill="#CCCCCC"/>
<path d="M80.3116 66.1187L79.7429 66.1357L80.036 78.3393L80.6046 78.3222L80.3116 66.1187Z" fill="#CCCCCC"/>
<path d="M73.4874 134.038H11.5294C11.0793 134.037 10.6477 133.837 10.3294 133.481C10.0111 133.125 9.83202 132.643 9.83151 132.14L7.00464 14.4297C7.00409 14.1798 7.04756 13.9323 7.13259 13.7013C7.21762 13.4703 7.34253 13.2602 7.50019 13.0832C7.65785 12.9061 7.84517 12.7655 8.05145 12.6694C8.25773 12.5733 8.47892 12.5236 8.7024 12.5231H70.6604C71.1105 12.5236 71.5421 12.7238 71.8604 13.0796C72.1787 13.4355 72.3578 13.9179 72.3583 14.4211L72.8703 27.9636L72.302 27.9903L71.7898 14.4345C71.7908 14.2677 71.7623 14.1024 71.7061 13.948C71.6498 13.7936 71.5668 13.6531 71.4619 13.5346C71.357 13.4161 71.2322 13.3219 71.0947 13.2575C70.9571 13.193 70.8095 13.1595 70.6604 13.1589H8.7024C8.40306 13.1593 8.11607 13.2924 7.90441 13.5291C7.69274 13.7657 7.57367 14.0865 7.57333 14.4211L10.4002 132.131C10.3996 132.297 10.4283 132.462 10.4848 132.616C10.5412 132.77 10.6243 132.91 10.7291 133.028C10.834 133.146 10.9587 133.24 11.096 133.304C11.2333 133.368 11.3806 133.401 11.5294 133.402H73.4874C73.7867 133.401 74.0737 133.268 74.2854 133.032C74.4971 132.795 74.6162 132.474 74.6165 132.14L74.2504 116.685L74.819 116.668L75.1852 132.131C75.1857 132.381 75.1422 132.629 75.0572 132.86C74.9722 133.091 74.8472 133.301 74.6896 133.478C74.5319 133.655 74.3446 133.795 74.1383 133.891C73.9321 133.987 73.7109 134.037 73.4874 134.038Z" fill="#CCCCCC"/>
<path d="M73.6294 66.4367L73.0608 66.4535L73.3469 78.5344L73.9155 78.5176L73.6294 66.4367Z" fill="#CCCCCC"/>
<path d="M89.9739 66.4451H17.4533C16.9283 66.4444 16.4248 66.2123 16.0521 65.799C15.6793 65.3857 15.4675 64.8248 15.4626 64.2379L14.325 29.8844C14.3255 29.2944 14.5355 28.7287 14.9087 28.3115C15.2819 27.8943 15.7879 27.6596 16.3157 27.6589H88.8363C89.3613 27.6596 89.8648 27.8917 90.2376 28.305C90.6103 28.7182 90.8221 29.2792 90.827 29.8661L91.9646 64.2196C91.964 64.8096 91.7541 65.3753 91.3809 65.7925C91.0077 66.2097 90.5017 66.4444 89.9739 66.4451ZM14.8938 29.8676L16.0313 64.2196C16.0318 64.6411 16.1817 65.0451 16.4483 65.3431C16.7149 65.6411 17.0763 65.8087 17.4533 65.8092H89.9739C90.3483 65.8087 90.7074 65.6434 90.9736 65.349C91.2397 65.0546 91.3914 64.6549 91.3958 64.2364L90.2583 29.8844C90.2578 29.4629 90.1079 29.0589 89.8413 28.7609C89.5747 28.4629 89.2133 28.2953 88.8363 28.2948H16.3157C15.9413 28.2953 15.5821 28.4606 15.316 28.755C15.0499 29.0494 14.8982 29.4491 14.8938 29.8676Z" fill="#3F3D56"/>
<path d="M103.625 116.994H31.1042C30.5792 116.994 30.0757 116.761 29.7029 116.348C29.3302 115.935 29.1184 115.374 29.1135 114.787L27.9758 80.4336C27.9764 79.8435 28.1864 79.2779 28.5596 78.8607C28.9328 78.4435 29.4388 78.2088 29.9666 78.2081H102.487C103.012 78.2088 103.516 78.4409 103.888 78.8542C104.261 79.2674 104.473 79.8284 104.478 80.4152L105.616 114.769C105.615 115.359 105.405 115.925 105.032 116.342C104.659 116.759 104.153 116.994 103.625 116.994ZM28.5447 80.4168L29.6822 114.769C29.6826 115.19 29.8326 115.594 30.0992 115.892C30.3657 116.19 30.7272 116.358 31.1042 116.358H103.625C103.999 116.358 104.358 116.193 104.624 115.898C104.891 115.604 105.042 115.204 105.047 114.786L103.909 80.4336C103.909 80.0121 103.759 79.6081 103.492 79.3101C103.226 79.0121 102.864 78.8445 102.487 78.844H29.9666C29.5922 78.8445 29.233 79.0098 28.9669 79.3042C28.7008 79.5986 28.5491 79.9983 28.5447 80.4168Z" fill="#3F3D56"/>
<path d="M48.31 85.6792C47.8197 85.6792 47.3495 85.8969 47.0029 86.2845C46.6562 86.672 46.4614 87.1976 46.4614 87.7457C46.4614 88.2937 46.6562 88.8194 47.0029 89.2069C47.3495 89.5944 47.8197 89.8121 48.31 89.8121H85.2813C85.7715 89.8121 86.2417 89.5944 86.5884 89.2069C86.9351 88.8194 87.1298 88.2937 87.1298 87.7457C87.1298 87.1976 86.9351 86.672 86.5884 86.2845C86.2417 85.8969 85.7715 85.6792 85.2813 85.6792H48.31Z" fill="#BFA179"/>
<path d="M48.31 95.5347C47.8197 95.5347 47.3495 95.7524 47.0029 96.1399C46.6562 96.5275 46.4614 97.0531 46.4614 97.6011C46.4614 98.1492 46.6562 98.6748 47.0029 99.0624C47.3495 99.4499 47.8197 99.6676 48.31 99.6676H85.2813C85.7715 99.6676 86.2417 99.4499 86.5884 99.0624C86.9351 98.6748 87.1298 98.1492 87.1298 97.6011C87.1298 97.0531 86.9351 96.5275 86.5884 96.1399C86.2417 95.7524 85.7715 95.5347 85.2813 95.5347H48.31Z" fill="#BFA179"/>
<path d="M48.31 105.39C47.8197 105.39 47.3495 105.608 47.0029 105.995C46.6562 106.383 46.4614 106.909 46.4614 107.457C46.4614 108.005 46.6562 108.53 47.0029 108.918C47.3495 109.305 47.8197 109.523 48.31 109.523H85.2813C85.7715 109.523 86.2417 109.305 86.5884 108.918C86.9351 108.53 87.1298 108.005 87.1298 107.457C87.1298 106.909 86.9351 106.383 86.5884 105.995C86.2417 105.608 85.7715 105.39 85.2813 105.39H48.31Z" fill="#BFA179"/>
<path d="M34.6591 35.13C34.1688 35.13 33.6987 35.3477 33.352 35.7353C33.0053 36.1228 32.8105 36.6484 32.8105 37.1965C32.8105 37.7445 33.0053 38.2702 33.352 38.6577C33.6987 39.0452 34.1688 39.263 34.6591 39.263H71.6304C72.1207 39.263 72.5908 39.0452 72.9375 38.6577C73.2842 38.2702 73.479 37.7445 73.479 37.1965C73.479 36.6484 73.2842 36.1228 72.9375 35.7353C72.5908 35.3477 72.1207 35.13 71.6304 35.13H34.6591Z" fill="#BFA179"/>
<path d="M34.6591 44.9856C34.1688 44.9856 33.6987 45.2033 33.352 45.5909C33.0053 45.9784 32.8105 46.504 32.8105 47.0521C32.8105 47.6001 33.0053 48.1257 33.352 48.5133C33.6987 48.9008 34.1688 49.1185 34.6591 49.1185H71.6304C72.1207 49.1185 72.5908 48.9008 72.9375 48.5133C73.2842 48.1257 73.479 47.6001 73.479 47.0521C73.479 46.504 73.2842 45.9784 72.9375 45.5909C72.5908 45.2033 72.1207 44.9856 71.6304 44.9856H34.6591Z" fill="#BFA179"/>
<path d="M34.6591 54.8411C34.1688 54.8411 33.6987 55.0588 33.352 55.4463C33.0053 55.8339 32.8105 56.3595 32.8105 56.9075C32.8105 57.4556 33.0053 57.9812 33.352 58.3688C33.6987 58.7563 34.1688 58.974 34.6591 58.974H71.6304C72.1207 58.974 72.5908 58.7563 72.9375 58.3688C73.2842 57.9812 73.479 57.4556 73.479 56.9075C73.479 56.3595 73.2842 55.8339 72.9375 55.4463C72.5908 55.0588 72.1207 54.8411 71.6304 54.8411H34.6591Z" fill="#BFA179"/>
<path d="M39.9204 9.53758C41.491 9.53758 42.7643 8.11421 42.7643 6.35839C42.7643 4.60257 41.491 3.1792 39.9204 3.1792C38.3497 3.1792 37.0764 4.60257 37.0764 6.35839C37.0764 8.11421 38.3497 9.53758 39.9204 9.53758Z" fill="#E6E6E6"/>
</g>
<defs>
<clipPath id="clip0_1049_1195">
<rect width="206" height="165" fill="white"/>
</clipPath>
</defs>
</svg>
